<?xml version="1.0" encoding="utf-8"?>
<!-- Generator: Adobe Illustrator 26.0.1, SVG Export Plug-In . SVG Version: 6.00 Build 0)  -->
<svg version="1.1" id="Layer_1" xmlns="http://www.w3.org/2000/svg" xmlns:xlink="http://www.w3.org/1999/xlink" x="0px" y="0px"
	 viewBox="0 0 512 512" style="enable-background:new 0 0 512 512;" xml:space="preserve">
<style type="text/css">
	.st0{fill:url(#SVGID_1_);}
	.st1{fill:url(#SVGID_00000166663889627802825990000010037313208215457957_);}
	.st2{fill:url(#SVGID_00000072271383948330446960000018022603231610057612_);}
</style>
<g>
	<linearGradient id="SVGID_1_" gradientUnits="userSpaceOnUse" x1="315.3668" y1="-34.0341" x2="316.3668" y2="533.9659">
		<stop  offset="4.154462e-02" style="stop-color:#FF9900"/>
		<stop  offset="0.8916" style="stop-color:#1DD3E2"/>
		<stop  offset="1" style="stop-color:#00DBFF"/>
	</linearGradient>
	<path class="st0" d="M316,100c-5.5,0-10-4.5-10-10s4.5-10,10-10c3.5,0,7.3,1.8,10.8,5.2c4,3.8,10.3,3.7,14.1-0.2
		c3.8-4,3.7-10.3-0.2-14.1c-5.1-4.9-10.2-7.7-14.7-9.2V50c0-5.5-4.5-10-10-10s-10,4.5-10,10v11.7C294.3,65.9,286,77,286,90
		c0,16.5,13.5,30,30,30c5.5,0,10,4.5,10,10c0,5.5-4.5,10-10,10c-4.3,0-8.9-2.7-13-7.6c-3.6-4.2-9.9-4.8-14.1-1.2c0,0,0,0,0,0
		c-4.2,3.6-4.8,9.9-1.2,14.1c5.3,6.4,11.6,10.8,18.3,13V170c0,5.5,4.5,10,10,10s10-4.5,10-10v-11.7c11.6-4.1,20-15.2,20-28.3
		C346,113.5,332.5,100,316,100z"/>
	
		<linearGradient id="SVGID_00000153687893092548988070000006991024674441969301_" gradientUnits="userSpaceOnUse" x1="255.368" y1="-33.9285" x2="256.368" y2="534.0715">
		<stop  offset="4.154462e-02" style="stop-color:#FF9900"/>
		<stop  offset="0.8916" style="stop-color:#1DD3E2"/>
		<stop  offset="1" style="stop-color:#00DBFF"/>
	</linearGradient>
	<path style="fill:url(#SVGID_00000153687893092548988070000006991024674441969301_);" d="M316,0c-60.7,0-110,49.3-110,110
		s49.3,110,110,110c60.7,0,110-49.3,110-110S376.6,0,316,0z M316,200c-49.6,0-90-40.4-90-90s40.4-90,90-90s90,40.4,90,90
		S365.6,200,316,200z M474.2,222.7c-15.3-0.6-29.6,7.9-36.5,21.6c-12.5,24.9-24.3,37.8-47,49.5c-6.7-13-20.3-21.9-35.6-21.9H254.8
		c-6.4,0-11.5-2.7-18.7-6.5c-11.4-6-25.7-13.5-51.3-13.5C139,252,94.5,297,76,328.5l-2.4-2.4c-3.9-3.9-10.2-3.9-14.1,0L2.9,382.6
		c-3.9,3.9-3.9,10.2,0,14.1c0,0,0,0,0,0l112.5,112.3c3.9,3.9,10.2,3.9,14.1,0l56.6-56.3c3.9-3.9,3.9-10.2,0-14.2l-9.2-9.2
		c6.8-9.7,24.3-17.5,36.7-17.5h0l135,0h0.1c17.5,0,34.2-4.8,48.4-14c36.5-23.5,87.8-61.6,112.1-122.1
		C519.3,250.8,500.7,223.8,474.2,222.7L474.2,222.7z M122.5,487.9l-98.4-98.2l42.4-42.4c23.6,23.6,48.6,48.6,98.4,98.4L122.5,487.9
		L122.5,487.9z M490.6,268.5c-22.2,55.1-70.1,90.7-104.3,112.7c-11,7.1-24,10.8-37.6,10.8h0l-135,0h0c-17.5,0-39.1,9.1-50.9,23.2
		l-72-72c7.9-16.3,49.4-71.2,94.1-71.2c20.7,0,31.5,5.7,42,11.2c8.2,4.3,16.7,8.8,28,8.8H355c9.9,0,18.4,7.4,19.8,17.2
		c1.7,11.7-7.5,22.8-19.8,22.8H254.8c-5.5,0-10,4.5-10,10c0,5.5,4.5,10,10,10H355c21.4,0,38.9-16.8,39.9-37.9
		c29.6-14.4,45.4-30.4,60.6-60.8c3.4-6.7,10.3-10.8,17.8-10.5C486.6,243.2,495.5,256.5,490.6,268.5L490.6,268.5z"/>
	
		<linearGradient id="SVGID_00000090268046301393548100000010234302518611277240_" gradientUnits="userSpaceOnUse" x1="108.1719" y1="-33.6693" x2="109.1719" y2="534.3307">
		<stop  offset="4.154462e-02" style="stop-color:#FF9900"/>
		<stop  offset="0.8916" style="stop-color:#1DD3E2"/>
		<stop  offset="1" style="stop-color:#00DBFF"/>
	</linearGradient>
	<path style="fill:url(#SVGID_00000090268046301393548100000010234302518611277240_);" d="M123.1,432.1L109,418
		c-3.9-3.9-10.2-3.9-14.1,0c-3.9,3.9-3.9,10.2,0,14.1l14.1,14.1c3.9,3.9,10.2,3.9,14.1,0C127,442.4,127,436,123.1,432.1z"/>
</g>
</svg>
