<?xml version="1.0" encoding="utf-8"?>
<!-- Generator: Adobe Illustrator 26.0.1, SVG Export Plug-In . SVG Version: 6.00 Build 0)  -->
<svg version="1.1" id="Layer_1" xmlns="http://www.w3.org/2000/svg" xmlns:xlink="http://www.w3.org/1999/xlink" x="0px" y="0px"
	 viewBox="0 0 512 512" style="enable-background:new 0 0 512 512;" xml:space="preserve">
<style type="text/css">
	.st0{fill-rule:evenodd;clip-rule:evenodd;fill:url(#SVGID_1_);}
</style>
<g>
	<linearGradient id="SVGID_1_" gradientUnits="userSpaceOnUse" x1="248.0369" y1="-55.5742" x2="265.0369" y2="571.4258">
		<stop  offset="4.154462e-02" style="stop-color:#FF9900"/>
		<stop  offset="0.8916" style="stop-color:#1DD3E2"/>
		<stop  offset="1" style="stop-color:#00DBFF"/>
	</linearGradient>
	<path class="st0" d="M273.1,18c-75.3,0-136.4,14.8-136.4,33c0,18.2,61.1,33,136.4,33c75.3,0,136.4-14.8,136.4-33S348.5,18,273.1,18
		z M331.4,312.7c-1.3-2.5-0.2-5.6,2.3-6.8s5.6-0.2,6.8,2.3l22.2,25.8l47.6-56.2c2.1-1.8,5.4-1.6,7.2,0.5c1.8,2.1,1.6,5.3-0.5,7.2
		l-52.5,60.5c-2.5,2.2-6.4,1.4-7.9-1.6L331.4,312.7z M420.8,225.4l-3.8-19.6c-1.2-6.2-8.5-8.8-13.4-4.9l-15.5,12.6l-10.3-17.1
		c-2-3.4-5.9-4.8-9.7-3.6c-6.7,2.1-14,19.3-14.9,20.8L337.7,201c-4.9-4-12.2-1.3-13.4,4.9l-3.8,19.6l-18.9-6.5
		c-5.9-2-11.9,2.9-10.9,9.2l3.1,19.7l-20,0.4c-6.3,0.1-10.2,6.8-7.1,12.3l9.7,17.5l-18.6,7.2c-5.9,2.3-7.2,9.9-2.5,14l15.1,13.1
		l-15.1,13.1c-4.7,4.1-3.4,11.8,2.5,14l18.6,7.2l-9.7,17.5c-3,5.5,0.8,12.2,7.1,12.3l20,0.4l-3.1,19.7c-1,6.2,5,11.2,10.9,9.2
		l18.9-6.5l3.8,19.6c1.2,6.2,8.5,8.8,13.4,4.9l15.5-12.6l10.3,17.1c3.2,5.4,11,5.4,14.2,0l10.3-17.1l15.5,12.6
		c4.9,4,12.2,1.3,13.4-4.9l3.8-19.6l18.9,6.5c5.9,2,11.9-2.9,10.9-9.2l-3.1-19.7l20-0.4c6.3-0.1,10.2-6.8,7.1-12.3l-9.7-17.5
		l18.6-7.2c5.9-2.3,7.2-9.9,2.5-14L471,312.3l15.1-13.1c4.7-4.1,3.4-11.8-2.5-14L465,278l9.7-17.5c3-5.5-0.8-12.2-7.1-12.3l-20-0.4
		l3.1-19.7c1-6.2-5-11.2-10.9-9.2L420.8,225.4z M370.6,238c-41.1,0-74.4,33.3-74.4,74.4s33.3,74.4,74.4,74.4s74.4-33.3,74.4-74.4
		C445,271.3,411.7,238,370.6,238L370.6,238z M328.7,435.4L286.8,508l-2.1-56.8l-50.2,26.5l45.9-79.6c0.2,12.4,12.5,21.3,24.5,17.2
		l7.8-2.7l1.6,8.1C315.7,428.3,321.3,433.9,328.7,435.4L328.7,435.4z M412.6,435.4c7.4-1.5,13-7.2,14.4-14.6l1.6-8.1l7.8,2.7
		c12.1,4.1,24.4-4.8,24.5-17.2l45.9,79.6l-50.2-26.5l-2.1,56.8L412.6,435.4z M17.1,255c10.8,8.4,27.6,12.9,37.5,15.3
		C111,284,203.4,284,259.4,268.5l2.3,4.2l-7.7,3c-13,5-16,22.1-5.5,31.3l6.2,5.4l-6.2,5.4C238,326.9,241,344,254,349l7.7,3l-3.1,5.6
		C200,370.1,105.4,370,47.1,357.4c-12.8-2.8-23-5.8-30-9L17.1,255L17.1,255z M153.5,204.1c57.7,0,107,8.7,126.9,20.9
		c-0.3,3.6,0.8,9.1,1.4,12.8l-8.3,0.2c-11.3,0.2-19.5,10.3-18,21c-25,6.8-61.4,11.1-102.1,11.1c-75.3,0-136.4-14.8-136.4-33
		S78.2,204.1,153.5,204.1L153.5,204.1z M17.1,358.9c7.5,3.2,16.9,6,27.9,8.4c58.4,12.7,150.5,12.9,210.4,1.4
		c0.3,9.7,8.1,17.8,18.2,18l1.6,0l-47.3,81.8c-21.4,3.4-47,5.4-74.5,5.4c-75.3,0-136.4-14.8-136.4-33L17.1,358.9L17.1,358.9z
		 M70.3,408.3c-4.4,0-8,3.6-8,8s3.6,8,8,8c4.4,0,8-3.6,8-8S74.8,408.3,70.3,408.3C70.3,408.3,70.3,408.3,70.3,408.3z M70.3,306.2
		c-4.4,0-8,3.6-8,8s3.6,8,8,8s8-3.6,8-8C78.3,309.8,74.8,306.2,70.3,306.2z M136.8,69c43.5,33.7,229.3,33.7,272.8,0v93.4
		c-7,3.2-17.2,6.2-29.9,9c-58.7,12.7-154.2,12.7-212.9,0c-12.7-2.8-22.9-5.8-29.9-9L136.8,69L136.8,69z M136.8,172.9
		c7.5,3.2,16.9,6,27.8,8.4c54.5,11.8,137.3,12.7,196.1,3.8c-4.4,2.9-7.8,7.7-10.7,12.6l-5.8-4.7c-10.8-8.7-27.1-2.9-29.8,10.9
		l-1.6,8.1l-7.8-2.7c-7.6-2.6-15.7-0.1-20.6,6.1c-10.4-6-23.6-9.6-31.9-11.6c-35.8-8.7-78.4-10.7-115.5-9.7L136.8,172.9L136.8,172.9
		z M409.5,188.9c-8.3-0.3-12.6,4.3-18.8,9.3c-4.3-7.1-6.9-13.4-15.8-15.5c12.6-2.4,24.6-5.5,34.5-9.7V188.9z M366.6,118
		c-4.4,0-8,3.6-8,8c0,4.4,3.6,8,8,8s8-3.6,8-8C374.6,121.6,371,118,366.6,118z"/>
</g>
</svg>
