<?xml version="1.0" encoding="utf-8"?>
<!-- Generator: Adobe Illustrator 26.0.1, SVG Export Plug-In . SVG Version: 6.00 Build 0)  -->
<svg version="1.1" id="Layer_1" xmlns="http://www.w3.org/2000/svg" xmlns:xlink="http://www.w3.org/1999/xlink" x="0px" y="0px"
	 viewBox="0 0 512 512" style="enable-background:new 0 0 512 512;" xml:space="preserve">
<style type="text/css">
	.st0{fill:url(#SVGID_1_);}
</style>
<g>
	
		<linearGradient id="SVGID_1_" gradientUnits="userSpaceOnUse" x1="256.5699" y1="572.9674" x2="255.5699" y2="-28.0326" gradientTransform="matrix(1 0 0 -1 0 514)">
		<stop  offset="4.154462e-02" style="stop-color:#FF9900"/>
		<stop  offset="0.8916" style="stop-color:#1DD3E2"/>
		<stop  offset="1" style="stop-color:#00DBFF"/>
	</linearGradient>
	<path class="st0" d="M116.5,106.8l-0.4,80c0,4.4-3.6,8-8,8c-1.7,0-3.4-0.6-4.8-1.6l-7.6-5.7c-23.6,55.2-17.1,118.7,17.1,168
		l-13.1,9.1c-39.5-57-45-130.9-14.3-193.1c2-4,6.8-5.6,10.7-3.6c0.5,0.2,0.9,0.5,1.3,0.8l2.7,2.1l0.2-53.3L49,132.2l8.1,6.1
		c3.2,2.4,4.1,6.7,2.2,10.2c-5.3,9.7-9.9,19.9-13.8,30.3l-15-5.5c3.3-9,7.1-17.8,11.5-26.4l-15.4-11.7c-3.5-2.7-4.2-7.7-1.6-11.2
		c1-1.4,2.5-2.4,4.2-2.9L106.1,99c4.2-1.2,8.7,1.2,9.9,5.5C116.4,105.3,116.5,106,116.5,106.8z M41.5,363.6l14.3-7.2
		c-20.5-40.7-28-86.7-21.5-131.8c1.3-9.1,3.1-18.1,5.5-27l-15.5-4.1c-2.6,9.5-4.5,19.2-5.9,28.9C11.4,270.7,19.5,320,41.5,363.6z
		 M217.6,184.8c-5.1,2.5-9.9,5.4-14.5,8.8l9.6,12.8c3.7-2.8,7.7-5.2,11.8-7.2L217.6,184.8z M168,272h16v-8c0-17.8,6.6-35,18.6-48.3
		L190.7,205c-14.6,16.2-22.8,37.2-22.7,59V272z M472,488v-72h-16v64h-80v-96h8v-16h-13.9c-36.9-20.2-81.5-20.3-118.5-0.1l-0.3,0.1
		H192c-17.7,0-32,14.4-32,32.1c0,2.8,0.4,5.6,1.1,8.3l-31.2-14.3c0.6-1.1,1.4-2.2,2.3-3.1l17.4-17.4c1.5-1.5,2.3-3.5,2.3-5.7V264
		c0.1-46.7,31.2-87.6,76.2-100.2c4.3-1.2,6.8-5.6,5.6-9.8c-0.2-0.7-0.5-1.3-0.8-1.9L214,120h84l-18.9,32c-2.2,3.8-1,8.7,2.8,11
		c0.6,0.4,1.3,0.6,1.9,0.8c45,12.6,76.1,53.5,76.2,100.2v88h16v-88c-0.1-50.1-31.2-94.9-78.1-112.5l21-35.5c2.2-3.8,1-8.7-2.8-11
		c-1.2-0.7-2.6-1.1-4.1-1.1H200c-4.4,0-8,3.6-8,8c0,1.4,0.4,2.8,1.1,4.1l21,35.5c-46.9,17.6-78,62.4-78.1,112.5v100.7l-15,15
		c-2.3,2.3-4.2,4.9-5.6,7.7l-27-12.4c-16.4-7.3-35.6-0.8-44.3,14.8c-9.2,17.1-2.7,39.8,14.8,48.5l93.3,46.6
		c14.4,7.2,30.4,11,46.5,11H312v-16H198.7c-13.7,0-27.1-3.2-39.4-9.3L66,424.1c-9.2-4.6-12.7-17.7-7.8-26.6
		c4.6-8.3,14.8-11.8,23.5-7.9l91,41.7c1,0.5,2.2,0.7,3.3,0.7h88v-16h-72c-8.8,0-16-7.2-16-16s7.2-16,16-16h61.3c1.3,0,2.6-0.3,3.8-1
		l2.1-1.1c31.3-17.1,69.1-17.5,100.8-1.2V480h-32v16h136C468.4,496,472,492.4,472,488z M424,448c0-8.8-7.2-16-16-16s-16,7.2-16,16
		s7.2,16,16,16S424,456.8,424,448z M264,232v32c17.7,0,32,14.3,32,32s-14.3,32-32,32v16h-16v-16c-17.7,0-32-14.3-32-32h16
		c0,8.8,7.2,16,16,16v-32c-17.7,0-32-14.3-32-32s14.3-32,32-32v-16h16v16c17.7,0,32,14.3,32,32h-16C280,239.2,272.8,232,264,232z
		 M248,232c-8.8,0-16,7.2-16,16c0,8.8,7.2,16,16,16V232z M264,280v32c8.8,0,16-7.2,16-16S272.8,280,264,280z M287.3,34.2
		c96.1,13.6,172.6,87.5,189.4,183.2l15.8-2.8C469.6,84,345.2-3.3,214.6,19.6c-34.2,6-66.6,19.3-95.2,39c-3.5,2.4-4.5,7.2-2.2,10.9
		l26.7,42c2.4,3.7,7.3,4.8,11,2.5c0.1-0.1,0.2-0.1,0.3-0.2c36.3-25.8,81-36.6,125.1-30.3C375.5,96.9,442,185.2,428.6,280.4
		c-2.1,15.2-6.3,30.1-12.3,44.3l-7.7-5.9c-3.5-2.7-8.5-2-11.2,1.6c-1,1.4-1.6,3.1-1.6,4.8l-0.4,80c0,4.4,3.5,8,8,8
		c0.8,0,1.5-0.1,2.2-0.3l76.9-22.1c4.2-1.2,6.7-5.6,5.5-9.9c-0.5-1.7-1.5-3.1-2.9-4.2l-15.2-11.5c19.8-38.8,28.6-82.3,25.7-125.7
		l-16,1.1c1.1,15.6,0.5,31.3-1.7,46.8c-3.7,26.8-12.3,52.6-25.3,76.3c-1.9,3.5-1,7.8,2.2,10.2l7.9,6l-51.3,14.7l0.2-53.3l2.9,2.2
		c3.5,2.7,8.5,2,11.2-1.6c0.3-0.4,0.6-0.8,0.8-1.3c9-18.2,15.1-37.8,17.9-58c14.7-103.9-57.9-200.3-161.8-215
		C237.4,61.1,191.4,71.2,153,96l-18.1-28.4C180.1,38.5,234.2,26.6,287.3,34.2z"/>
</g>
</svg>
