<?xml version="1.0" encoding="utf-8"?>
<!-- Generator: Adobe Illustrator 26.0.1, SVG Export Plug-In . SVG Version: 6.00 Build 0)  -->
<svg version="1.1" id="Layer_1" xmlns="http://www.w3.org/2000/svg" xmlns:xlink="http://www.w3.org/1999/xlink" x="0px" y="0px"
	 viewBox="0 0 512 512" style="enable-background:new 0 0 512 512;" xml:space="preserve">
<style type="text/css">
	.st0{fill-rule:evenodd;clip-rule:evenodd;fill:url(#SVGID_1_);}
</style>
<g>
	<linearGradient id="SVGID_1_" gradientUnits="userSpaceOnUse" x1="248.1421" y1="-47.0652" x2="257.1421" y2="524.9348">
		<stop  offset="0" style="stop-color:#FF9900"/>
		<stop  offset="1" style="stop-color:#00DBFF"/>
	</linearGradient>
	<path class="st0" d="M267.1,11c-75.3,0-136.4,14.8-136.4,33c0,18.2,61.1,33,136.4,33c75.3,0,136.4-14.8,136.4-33S342.5,11,267.1,11
		z M325.4,305.6c-1.3-2.5-0.2-5.6,2.3-6.8s5.6-0.2,6.8,2.3l22.2,25.8l47.6-56.2c2.1-1.8,5.4-1.6,7.2,0.5c1.8,2.1,1.6,5.3-0.5,7.2
		l-52.5,60.5c-2.5,2.2-6.4,1.4-7.9-1.6L325.4,305.6z M414.8,218.4l-3.8-19.6c-1.2-6.2-8.5-8.8-13.4-4.9l-15.5,12.6l-10.3-17.1
		c-2-3.4-5.9-4.8-9.7-3.6c-6.7,2.1-14,19.3-14.9,20.8l-15.5-12.6c-4.9-4-12.2-1.3-13.4,4.9l-3.8,19.6l-18.9-6.5
		c-5.9-2-11.9,2.9-10.9,9.2l3.1,19.7l-20,0.4c-6.3,0.1-10.2,6.8-7.1,12.3l9.7,17.5l-18.6,7.2c-5.9,2.3-7.2,9.9-2.5,14l15.1,13.1
		l-15.1,13.1c-4.7,4.1-3.4,11.8,2.5,14l18.6,7.2l-9.7,17.5c-3,5.5,0.8,12.2,7.1,12.3l20,0.4l-3.1,19.7c-1,6.2,5,11.2,10.9,9.2
		l18.9-6.5l3.8,19.6c1.2,6.2,8.5,8.8,13.4,4.9l15.5-12.6l10.3,17.1c3.2,5.4,11,5.4,14.2,0l10.3-17.1l15.5,12.6
		c4.9,4,12.2,1.3,13.4-4.9l3.8-19.6l18.9,6.5c5.9,2,11.9-2.9,10.9-9.2l-3.1-19.7l20-0.4c6.3-0.1,10.2-6.8,7.1-12.3l-9.7-17.5
		l18.6-7.2c5.9-2.3,7.2-9.9,2.5-14L465,305.3l15.1-13.1c4.7-4.1,3.4-11.8-2.5-14L459,271l9.7-17.5c3-5.5-0.8-12.2-7.1-12.3l-20-0.4
		l3.1-19.7c1-6.2-5-11.2-10.9-9.2L414.8,218.4z M364.6,230.9c-41.1,0-74.4,33.3-74.4,74.4s33.3,74.4,74.4,74.4s74.4-33.3,74.4-74.4
		C439,264.2,405.7,230.9,364.6,230.9L364.6,230.9z M322.7,428.4L280.8,501l-2.1-56.8l-50.2,26.5l45.9-79.6
		c0.2,12.4,12.5,21.3,24.5,17.2l7.8-2.7l1.6,8.1C309.7,421.2,315.3,426.8,322.7,428.4L322.7,428.4z M406.6,428.4
		c7.4-1.5,13-7.2,14.4-14.6l1.6-8.1l7.8,2.7c12.1,4.1,24.4-4.8,24.5-17.2l45.9,79.6l-50.2-26.5l-2.1,56.8L406.6,428.4z M11.1,248
		c10.8,8.4,27.6,12.9,37.5,15.3c56.4,13.6,148.7,13.6,204.8-1.8l2.3,4.2l-7.7,3c-13,5-16,22.1-5.5,31.3l6.2,5.4l-6.2,5.4
		C232,319.9,235,337,248,342l7.7,3l-3.1,5.6C194,363,99.4,363,41.1,350.3c-12.8-2.8-23-5.8-30-9L11.1,248L11.1,248z M147.5,197
		c57.7,0,107,8.7,126.9,20.9c-0.3,3.6,0.8,9.1,1.4,12.8l-8.3,0.2c-11.3,0.2-19.5,10.3-18,21c-25,6.8-61.4,11.1-102.1,11.1
		c-75.3,0-136.4-14.8-136.4-33S72.2,197,147.5,197L147.5,197z M11.1,351.9c7.5,3.2,16.9,6,27.9,8.4c58.4,12.7,150.5,12.9,210.4,1.4
		c0.3,9.7,8.1,17.8,18.2,18l1.6,0l-47.3,81.8c-21.4,3.4-47,5.4-74.5,5.4c-75.3,0-136.4-14.8-136.4-33L11.1,351.9L11.1,351.9z
		 M64.3,401.2c-4.4,0-8,3.6-8,8s3.6,8,8,8c4.4,0,8-3.6,8-8S68.8,401.2,64.3,401.2C64.3,401.2,64.3,401.2,64.3,401.2z M64.3,299.2
		c-4.4,0-8,3.6-8,8s3.6,8,8,8s8-3.6,8-8C72.3,302.7,68.8,299.2,64.3,299.2z M130.8,61.9c43.5,33.7,229.3,33.7,272.8,0v93.4
		c-7,3.2-17.2,6.2-29.9,9c-58.7,12.7-154.2,12.7-212.9,0c-12.7-2.8-22.9-5.8-29.9-9L130.8,61.9L130.8,61.9z M130.8,165.9
		c7.5,3.2,16.9,6,27.8,8.4c54.5,11.8,137.3,12.7,196.1,3.8c-4.4,2.9-7.8,7.7-10.7,12.6l-5.8-4.7c-10.8-8.7-27.1-2.9-29.8,10.9
		l-1.6,8.1l-7.8-2.7c-7.6-2.6-15.7-0.1-20.6,6.1c-10.4-6-23.6-9.6-31.9-11.6c-35.8-8.7-78.4-10.7-115.5-9.7L130.8,165.9L130.8,165.9
		z M403.5,181.8c-8.3-0.3-12.6,4.3-18.8,9.3c-4.3-7.1-6.9-13.4-15.8-15.5c12.6-2.4,24.6-5.5,34.5-9.7V181.8z M360.6,111
		c-4.4,0-8,3.6-8,8s3.6,8,8,8s8-3.6,8-8C368.6,114.6,365,111,360.6,111z"/>
</g>
</svg>
