<?xml version="1.0" encoding="utf-8"?>
<!-- Generator: Adobe Illustrator 26.0.1, SVG Export Plug-In . SVG Version: 6.00 Build 0)  -->
<svg version="1.1" id="Layer_1" xmlns="http://www.w3.org/2000/svg" xmlns:xlink="http://www.w3.org/1999/xlink" x="0px" y="0px"
	 viewBox="0 0 512 512" style="enable-background:new 0 0 512 512;" xml:space="preserve">
<style type="text/css">
	.st0{fill-rule:evenodd;clip-rule:evenodd;fill:url(#SVGID_1_);}
</style>
<g>
	<linearGradient id="SVGID_1_" gradientUnits="userSpaceOnUse" x1="243.5806" y1="9.6815" x2="263.5806" y2="485.6815">
		<stop  offset="0" style="stop-color:#FF9900"/>
		<stop  offset="1" style="stop-color:#00DBFF"/>
	</linearGradient>
	<path class="st0" d="M397.7,359.5c-15.7-15.7-41.2-15.7-56.9,0s-15.7,41.2,0,56.9s41.2,15.7,56.9,0c0,0,0,0,0,0
		C413.4,400.7,413.4,375.2,397.7,359.5z M369.3,336.7c28.3,0,51.2,22.9,51.2,51.2c0,28.3-22.9,51.2-51.2,51.2
		c-28.3,0-51.2-22.9-51.2-51.2c0,0,0,0,0,0C318,359.7,341,336.7,369.3,336.7L369.3,336.7z M346.9,391.5c-2.2-2.1-2.3-5.5-0.3-7.8
		c2.1-2.2,5.5-2.3,7.7-0.3l9.6,9L384,372c2.1-2.2,5.6-2.3,7.7-0.2c2.2,2.1,2.3,5.6,0.2,7.7c0,0-0.1,0.1-0.1,0.1l-23.6,24.2
		c-2.1,2.2-5.5,2.3-7.8,0.3L346.9,391.5z M379.2,164.4c11.2-11.5,29.5-11.7,41-0.5s11.7,29.5,0.5,41c-5.4,5.5-12.7,8.6-20.4,8.7v0
		c-16,0.1-29.1-12.7-29.3-28.7h0C370.9,177.3,373.8,169.9,379.2,164.4L379.2,164.4z M399.7,166.6c-10,0.1-17.9,8.3-17.8,18.3
		c0,0,0,0,0,0h0c0.2,9.9,8.4,17.9,18.3,17.7v0c15.5,0,24-19.5,12.3-30.9C409.1,168.4,404.5,166.6,399.7,166.6L399.7,166.6z
		 M294.8,34.8v57h57L294.8,34.8z M89.7,131.7c-3-0.1-5.4-2.7-5.3-5.7c0.1-2.9,2.4-5.2,5.3-5.3h145.5c3-0.1,5.6,2.3,5.7,5.3
		s-2.3,5.6-5.3,5.7c-0.1,0-0.3,0-0.4,0H89.7z M89.7,101.3c-3,0.1-5.6-2.3-5.7-5.3s2.3-5.6,5.3-5.7c0.1,0,0.3,0,0.4,0h145.5
		c3-0.1,5.6,2.3,5.7,5.3s-2.3,5.6-5.3,5.7c-0.1,0-0.3,0-0.4,0H89.7z M89.7,70.9c-3-0.1-5.4-2.7-5.3-5.7c0.1-2.9,2.4-5.2,5.3-5.3
		h89.7c3,0.1,5.4,2.7,5.3,5.7c-0.1,2.9-2.4,5.2-5.3,5.3H89.7z M394.5,116l-6.6,0.1c-2.7-0.1-5.1,1.8-5.6,4.5l-2,10.3l-4.9,2
		l-4.9-3.2V97.2c0-1.5-0.6-2.9-1.6-3.9l-30.2-30.2h55.7L394.5,116z M400.5,126.9l-8.3,0.1l-1.7,8.8c-0.7,4.4-4.3,4.4-8.4,6.1
		c-3.9,1.6-6.5,4.1-9.9,1.9l-8-5.2l-10.4,10.7l5.2,7.6c2.5,3.5-0.1,6.2-1.7,10.1s-1.7,7.5-5.7,8.4l-9.3,2l0.2,14.9l8.8,1.7
		c4.4,0.7,4.4,4.3,6.1,8.4c1.6,3.9,4.1,6.5,1.9,9.9l-5.2,8l10.7,10.4l7.6-5.2c3.5-2.5,6.2,0.1,10.1,1.7s7.5,1.7,8.4,5.7l2,9.3
		l14.9-0.2l1.7-8.8c0.7-4.4,4.3-4.4,8.4-6.1c3.9-1.6,6.5-4.1,9.9-1.9l8,5.2l10.4-10.7l-5.2-7.6c-2.5-3.5,0.1-6.2,1.7-10.1
		c1.6-3.9,1.7-7.5,5.7-8.4l9.3-2l-0.2-14.9l-8.8-1.7c-4.4-0.7-4.4-4.3-6.1-8.4c-1.6-3.9-4.1-6.5-1.9-9.9l5.2-8l-10.7-10.4l-7.6,5.2
		c-3.5,2.5-6.2-0.1-10.1-1.7c-3.9-1.6-7.5-1.7-8.4-5.7l-2-9.3L400.5,126.9z M131.5,341.1v-99.7h-24.7v99.7H131.5z M190,341.1V218
		h-24.7v123H190z M248.5,341.1v-80.5h-24.7v80.5L248.5,341.1z M413.8,306.1l42.5,14.3c-0.2,33.5-3.2,68.1-15.3,97.5
		c-12.2,29.5-33.8,54-71.6,66.9c-32.9-11.2-53.5-31.2-66.4-55.6c-2.1-4.3-3.3-6.5-5.3-11.3c-5-12.5-8.6-25.5-10.8-38.7
		c0-0.4-0.1-0.9-0.2-1.3c-1.7-10.3-2.8-20.6-3.4-31l-0.1-1.1c-0.5-8.4-0.7-16.9-0.8-25.3l87-29.2L413.8,306.1L413.8,306.1z
		 M282.3,308.8l24.7-8.3v-97.4h-24.7V308.8z M289.1,425.8H54.2V27h229.7v70.2c0,3,2.5,5.5,5.5,5.5l0,0h70.2v25l-0.2,0.2l-16.5,16.9
		c-2,1.9-2.3,4.8-0.8,7.1l5.9,8.7l-2,4.9l-10.6,2.3v0c-2.6,0.5-4.4,2.8-4.3,5.4l0.3,23.6c-0.1,2.7,1.8,5.1,4.5,5.6l10.3,2l2,4.9
		l-5.9,9.2c-1.4,2.2-1.1,5.1,0.8,6.9l16.5,16.1v41.6L318,296.8v-99.2c0-3-2.5-5.5-5.5-5.5l0,0h-35.7c-3,0-5.5,2.5-5.5,5.5l0,0v117.3
		l0.5,26.1h-12.3v-86c0-3-2.5-5.5-5.5-5.5l0,0h-35.7c-3,0-5.5,2.5-5.5,5.5l0,0v86H201V212.5c0-3-2.5-5.5-5.5-5.5l0,0h-35.7
		c-3,0-5.5,2.5-5.5,5.5l0,0v128.5h-11.8V235.9c0-3-2.5-5.5-5.5-5.5l0,0h-35.7c-3,0-5.5,2.5-5.5,5.5l0,0v105.2h-6
		c-3,0.1-5.4,2.7-5.3,5.7c0.1,2.9,2.4,5.2,5.3,5.3h182.8c0.5,7.3,1.3,14.6,2.4,21.8H89.7c-3,0.1-5.4,2.7-5.3,5.7
		c0.1,2.9,2.4,5.2,5.3,5.3h187C279.3,398.9,283.4,412.7,289.1,425.8L289.1,425.8z M312.7,461.9c-7.1-7.6-13.2-16-18.2-25.1H89.1
		v25.1H312.7z M405.4,291.8l58,19.5c2.2,0.7,3.7,2.8,3.7,5.2h0c0,74.5-13.2,152.1-96.3,179.3c-1.1,0.4-2.4,0.4-3.5,0
		c-17.1-5.6-31.2-13.4-42.9-22.8h-241c-3,0-5.5-2.5-5.5-5.5l0,0v-30.6H48.7c-3,0-5.5-2.5-5.5-5.5l0,0V21.5c0-3,2.5-5.5,5.5-5.5
		h240.7c1.5,0,2.9,0.6,3.9,1.7l34.4,34.4H400c3,0,5.5,2.5,5.5,5.5l0,0v58.3l6-0.1c2.6,0,4.9,1.8,5.4,4.3h0l2.3,10.6l4.9,2l8.7-5.9
		c2.2-1.5,5.2-1.2,7.1,0.8l16.9,16.5c1.9,1.8,2.2,4.7,0.8,6.9l-5.9,9.2l2,4.9l10.3,2c2.7,0.5,4.6,2.9,4.5,5.6l0.3,23.6
		c0,2.6-1.8,4.9-4.3,5.4v0l-10.6,2.3l-2,4.9l5.9,8.7c1.5,2.2,1.2,5.2-0.8,7.1l-16.5,16.9c-1.8,1.9-4.7,2.2-6.9,0.8l-9.2-5.9l-4.9,2
		l-2,10.3c-0.5,2.7-2.9,4.6-5.6,4.5l-6.6,0.1L405.4,291.8L405.4,291.8z M371,280.2c-0.1,0-0.3-0.1-0.4-0.1v-39.9l5.3-3.6l4.9,2
		l2.3,10.6h0c0.5,2.6,2.8,4.4,5.4,4.3l6-0.1v34.6L371,280.2z"/>
</g>
</svg>
