<?xml version="1.0" encoding="utf-8"?>
<!-- Generator: Adobe Illustrator 26.0.1, SVG Export Plug-In . SVG Version: 6.00 Build 0)  -->
<svg version="1.1" id="Layer_1" xmlns="http://www.w3.org/2000/svg" xmlns:xlink="http://www.w3.org/1999/xlink" x="0px" y="0px"
	 viewBox="0 0 512 512" style="enable-background:new 0 0 512 512;" xml:space="preserve">
<style type="text/css">
	.st0{fill:url(#SVGID_1_);}
	.st1{fill:url(#SVGID_00000092456881851906468400000008499629238460882578_);}
</style>
<g>
	<linearGradient id="SVGID_1_" gradientUnits="userSpaceOnUse" x1="254.7004" y1="-33.0257" x2="258.7004" y2="543.9744">
		<stop  offset="4.154462e-02" style="stop-color:#FF9900"/>
		<stop  offset="0.8916" style="stop-color:#1DD3E2"/>
		<stop  offset="1" style="stop-color:#00DBFF"/>
	</linearGradient>
	<path class="st0" d="M466.4,88.4C396,69.1,325.1,39.1,261.5,1.5c-3.4-2-7.6-2-10.9,0C185.1,40.1,118.1,68.6,45.6,88.4
		c-4.7,1.3-7.9,5.5-7.9,10.4v110c0,113.3,52.3,188.3,96.1,231.3C181,486.4,236,512,256,512c20,0,75-25.6,122.2-71.9
		c43.9-43,96.1-118,96.1-231.3v-110C474.3,93.9,471.1,89.7,466.4,88.4L466.4,88.4z M452.8,208.8c0,105.8-48.8,175.8-89.7,215.9
		c-46.4,45.5-96.1,65.7-107.1,65.7c-11,0-60.7-20.2-107.1-65.7C108,384.7,59.2,314.7,59.2,208.8V107C128.5,87.3,193,59.9,256,23.2
		c61.4,35.6,129.2,64.4,196.8,83.7V208.8z"/>
	
		<linearGradient id="SVGID_00000030471872376766097880000008206686977598068371_" gradientUnits="userSpaceOnUse" x1="233.2743" y1="-32.8771" x2="237.2743" y2="544.1229">
		<stop  offset="4.154462e-02" style="stop-color:#FF9900"/>
		<stop  offset="0.8916" style="stop-color:#1DD3E2"/>
		<stop  offset="1" style="stop-color:#00DBFF"/>
	</linearGradient>
	<path style="fill:url(#SVGID_00000030471872376766097880000008206686977598068371_);" d="M160.5,105.8c-2.2-5.5-8.4-8.3-14-6.1
		c-19.3,7.6-38.9,14.5-58.7,20.7c-4.5,1.4-7.5,5.6-7.5,10.3v41.6c0,5.9,4.8,10.8,10.8,10.8s10.8-4.8,10.8-10.8v-33.7
		c17.7-5.7,35.3-12,52.6-18.8C160,117.6,162.7,111.3,160.5,105.8z M181,107.8c1.4,0,2.9-0.3,4.3-0.9l0.2-0.1
		c5.4-2.4,7.9-8.7,5.5-14.2c-2.4-5.4-8.8-7.9-14.2-5.5l-0.2,0.1c-5.5,2.4-7.9,8.7-5.5,14.2C172.9,105.4,176.8,107.8,181,107.8
		L181,107.8z M384.3,347.3c-5-3.3-11.7-1.9-14.9,3.1c-8.9,13.6-19.3,26.6-31,38.7c-9.6,9.9-19.9,19.1-30.9,27.5
		c-4.7,3.6-5.6,10.4-2,15.1c2,2.7,5.2,4.2,8.6,4.2c2.3,0,4.6-0.7,6.5-2.2c11.8-9,23-18.9,33.3-29.6c12.6-13,23.9-27.1,33.5-41.8
		C390.7,357.2,389.3,350.5,384.3,347.3z M282.6,433.4l-0.6,0.4c-5.1,3-6.9,9.6-3.9,14.7c3,5.1,9.6,6.9,14.7,3.9c0,0,0,0,0,0l0.7-0.4
		c5.1-3,6.9-9.6,3.9-14.7C294.3,432.2,287.7,430.4,282.6,433.4L282.6,433.4z M182.6,234c-6.6-6.6-15.4-10.3-24.8-10.3
		s-18.1,3.6-24.8,10.3c-13.7,13.7-13.7,35.9,0,49.5l63.6,63.6c6.6,6.6,15.4,10.3,24.8,10.3s18.1-3.6,24.8-10.3l132.8-132.8
		c13.7-13.7,13.7-35.9,0-49.5c-6.6-6.6-15.4-10.3-24.8-10.3c-9.4,0-18.1,3.6-24.8,10.3l-108,108L182.6,234L182.6,234z M344.6,180.1
		c2.5-2.5,6-4,9.5-3.9c3.6,0,7,1.4,9.5,3.9c5.3,5.3,5.3,13.8,0,19.1L231,331.9c-2.5,2.5-5.9,3.9-9.5,3.9s-7-1.4-9.5-3.9l-63.6-63.6
		c-5.3-5.3-5.3-13.8,0-19.1c2.5-2.5,5.9-3.9,9.5-3.9s7,1.4,9.5,3.9l46.4,46.4c2,2,4.8,3.2,7.6,3.2s5.6-1.1,7.6-3.2L344.6,180.1
		L344.6,180.1z"/>
</g>
</svg>
