<?xml version="1.0" encoding="utf-8"?>
<!-- Generator: Adobe Illustrator 26.0.1, SVG Export Plug-In . SVG Version: 6.00 Build 0)  -->
<svg version="1.1" id="Layer_1" xmlns="http://www.w3.org/2000/svg" xmlns:xlink="http://www.w3.org/1999/xlink" x="0px" y="0px"
	 viewBox="0 0 512 512" style="enable-background:new 0 0 512 512;" xml:space="preserve">
<style type="text/css">
	.st0{fill-rule:evenodd;clip-rule:evenodd;fill:url(#SVGID_1_);}
</style>
<g>
	<linearGradient id="SVGID_1_" gradientUnits="userSpaceOnUse" x1="255.6153" y1="-14.0046" x2="256.6153" y2="553.9954">
		<stop  offset="0" style="stop-color:#FF9900"/>
		<stop  offset="0.8869" style="stop-color:#1DD3E2"/>
		<stop  offset="1" style="stop-color:#00DBFF"/>
	</linearGradient>
	<path class="st0" d="M348.3,418.1c1.2-3.7,5.2-5.6,8.9-4.4s5.6,5.2,4.4,8.8c-16.8,49.4-66.3,80.9-118.7,74.6
		c-46.5-5.6-84-39.6-94.9-84.1l-0.8,1.6c-1.7,3.5-5.9,4.8-9.4,3.1s-4.8-5.9-3.1-9.4l10.9-21.9c2.4-4.8,9.2-5.4,12.3-0.4l13.3,20.1
		c3.5,5.4-1.4,12.2-7.6,10.6c19.6,60.1,90.7,85.9,144.3,52.3C326.4,457.5,341,439.6,348.3,418.1L348.3,418.1z M192.8,25.9
		c11.1-4.1,18.7-6.6,30.8-8.9c31.7-6,67.1-3.1,97.2,9.6c9.6,3.9,20.9,9.7,29.4,15.4c47.3,30.9,76.8,83.1,78.2,139.9l0.1,4.7
		c0,19.8-3.8,42-10.9,60.3C404.8,281,382,309.8,351.9,330c5.5,9.4,9.7,19.6,12.3,30.2l0.9-1.7c1.7-3.5,5.9-4.9,9.4-3.1
		c3.5,1.7,4.9,5.9,3.1,9.4l-10.9,21.9c-2.4,4.8-9.2,5.4-12.3,0.4L341.1,367c-3.5-5.3,1.4-12.2,7.6-10.6c-2.8-8.6-6.9-16.8-11.9-24.3
		c-6.7-9.4-11.5-15.1-21.3-22.7c-31.8-24.9-76.9-26.8-111.2-5.3c-2.7,1.7-5.3,3.5-7.8,5.4c-15.1,11.6-26.5,27.5-32.7,45.6
		c-1.2,3.6-5.2,5.6-8.8,4.4c-3.7-1.2-5.6-5.2-4.4-8.9c2.5-7.2,5.6-14.1,9.4-20.6c-29.8-20-52.8-48.7-65.5-82.4
		c-7.9-20.7-11.6-43.2-11-65.7v-0.8c0.4-11.2,1.8-22.2,4.2-32.7c10-44.2,37.2-82.7,75.3-107.1C171.7,35.6,183.1,29.6,192.8,25.9
		L192.8,25.9z M320.3,295.5c39.6-23.4,63.4-66.4,62.2-112.3c-0.3-15.8-4.1-33.2-10.6-47.5c-27.4-62.2-98.2-91.7-162.1-67
		c-47,18.1-78.8,63.6-80.3,114c-0.3,17.4,1.9,32.2,8.1,48.6c10.3,27,29.4,49.7,54.2,64.3C230.2,268.5,281.9,268.3,320.3,295.5
		L320.3,295.5z M331.8,304.8c4.5,4.2,8.6,8.7,12.3,13.5c25.6-17.1,45.8-41.4,57.9-69.8l-17-6.4C374,267.9,355.4,289.7,331.8,304.8
		L331.8,304.8z M229,359.5c15-15,39.2-15,54.2,0s15,39.2,0,54.2s-39.3,15-54.2,0C214,398.7,214,374.4,229,359.5L229,359.5z
		 M196.2,341.3l14.6-14.6c2.7-2.7,7.1-2.7,9.9,0l5.6,5.6c4-2.2,8.2-3.9,12.6-5.2v-7.9c0-3.9,3.1-7,7-7h20.6c3.9,0,7,3.1,7,7v7.9
		c4.3,1.2,8.6,3,12.5,5.2l5.6-5.6c2.7-2.7,7.2-2.7,9.9,0l14.5,14.6c2.7,2.7,2.7,7.1,0,9.9l-5.6,5.6c2.2,4,3.9,8.2,5.2,12.6h7.9
		c3.9,0,7,3.1,7,7V397c0,3.9-3.1,7-7,7h-7.9c-1.3,4.3-3,8.6-5.2,12.5l5.6,5.6c2.7,2.7,2.7,7.2,0,9.9l-14.6,14.5
		c-2.7,2.7-7.2,2.7-9.9,0l-5.6-5.6c-4,2.2-8.2,3.9-12.6,5.2v7.9c0,3.9-3.1,7-7,7h-20.6c-3.9,0-7-3.1-7-7v-8c-4.3-1.3-8.6-3-12.5-5.2
		l-5.6,5.6c-2.7,2.7-7.2,2.7-9.9,0l-14.6-14.5c-2.7-2.7-2.7-7.2,0-9.9l5.6-5.6c-2.2-4-3.9-8.2-5.2-12.6h-7.9c-3.9,0-7-3.1-7-7v-20.6
		c0-3.9,3.1-7,7-7h7.9c1.2-4.3,3-8.6,5.2-12.5l-5.6-5.6C193.5,348.4,193.5,344,196.2,341.3L196.2,341.3z M215.7,341.5l-4.7,4.7
		l4.6,4.5c2.3,2.3,2.7,6,0.8,8.9c-3.3,4.8-6.4,11.8-7.3,17.5c-0.4,3.5-3.3,6.2-6.9,6.2h-6.4v6.6h6c3.5-0.2,6.6,2.2,7.2,5.7
		c1.1,5.7,3.8,12.8,7.2,17.6c2.1,2.7,1.9,6.7-0.6,9.2l-4.6,4.5l4.7,4.7l4.5-4.5c2.3-2.3,6-2.8,8.9-0.8c4.8,3.3,11.8,6.4,17.5,7.3
		c3.5,0.4,6.2,3.3,6.2,6.9v6.4h6.6v-6.1c-0.2-3.4,2.2-6.6,5.7-7.2c5.7-1.1,12.8-3.8,17.6-7.2c2.8-2.1,6.7-1.9,9.2,0.6l4.5,4.5
		l4.7-4.7l-4.5-4.5c-2.3-2.4-2.7-6.1-0.8-8.9c3.3-4.8,6.4-11.8,7.3-17.5c0.4-3.5,3.4-6.2,6.9-6.2h6.4v-6.6h-6.1
		c-3.4,0.2-6.6-2.2-7.2-5.7c-1.1-5.7-3.8-12.8-7.2-17.6c-2.1-2.7-1.9-6.7,0.6-9.2l4.5-4.5l-4.7-4.7l-4.5,4.5
		c-2.3,2.3-6.1,2.8-8.9,0.8c-4.8-3.3-11.8-6.4-17.5-7.3c-3.5-0.4-6.2-3.3-6.2-6.9v-6.4h-6.6v6c0.2,3.5-2.2,6.6-5.7,7.2
		c-5.7,1.1-12.8,3.8-17.6,7.2c-2.7,2.1-6.7,1.9-9.2-0.6L215.7,341.5z M138.5,193.6c-3.8,0-7-3.1-7-6.9c0-3.9,3.1-7,6.9-7h6.8
		c0.9-15.2,4.9-29.5,11.3-42.4l-5.8-3.3c-3.3-1.9-4.5-6.2-2.6-9.5s6.2-4.5,9.5-2.6l6,3.4c8.2-12.3,18.7-22.8,31-31l-3.4-5.8
		c-1.9-3.3-0.8-7.6,2.5-9.6c3.3-1.9,7.6-0.8,9.6,2.5l3.4,5.9c12.9-6.4,27.2-10.4,42.3-11.3v-6.8c0-3.9,3.1-7,6.9-7s7,3.1,7,6.9
		l0.1,6.8c15.1,0.9,29.5,4.9,42.3,11.3l3.3-5.8c1.9-3.4,6.2-4.5,9.5-2.6c3.4,1.9,4.5,6.2,2.6,9.5l-3.4,5.9c12.3,8.2,22.8,18.7,31,31
		l5.8-3.4c3.3-1.9,7.6-0.8,9.6,2.5s0.8,7.6-2.5,9.6l-5.9,3.4c6.4,12.9,10.4,27.2,11.3,42.3l6.8-0.1c3.9,0,7,3.1,7,6.9
		c0,3.9-3.1,7-6.9,7l-13.6,0.1c-3.9,0-7-3.1-7-7c0-53-42.8-97-96.9-97c-53,0-97,42.8-97,97c0,4.1-3.2,7.2-7.9,6.9L138.5,193.6z
		 M178.2,238.8c-3.9,0-7-3.1-7-7s3.1-7,7-7h155.5c3.9,0,7,3.1,7,7s-3.1,7-7,7H178.2z M256,154.4c2.7,0,5.3,0.3,7.8,1l40.5-32.1
		c3-2.4,7.4-1.9,9.8,1.1c2,2.5,2,5.8,0.3,8.3l-28,43.4c7.1,20.7-8.3,42.6-30.4,42.6c-17.7,0-32.1-14.4-32.1-32.1
		C223.9,168.8,238.3,154.4,256,154.4L256,154.4z M277.3,162.5c0.3,0.2,0.5,0.5,0.8,0.7l1.8-2.7L277.3,162.5z M268.8,173.7
		c-11.4-11.4-31-3.3-31,12.8s19.6,24.2,31,12.8C275.9,192.3,275.9,180.8,268.8,173.7z"/>
</g>
</svg>
