<svg xmlns="http://www.w3.org/2000/svg" version="1.1" xmlns:xlink="http://www.w3.org/1999/xlink" width="512" height="512" x="0" y="0" viewBox="0 0 64 64" style="enable-background:new 0 0 512 512" xml:space="preserve" class=""><g><path d="M47.875 19.387C45.083.98 18.918.975 16.125 19.387A13.562 13.562 0 1 0 15.67 46.5H19a2 2 0 0 0 0-4h-3.33a9.575 9.575 0 1 1 1.953-18.928A2.019 2.019 0 0 0 20 21.38c.661-15.754 23.327-15.76 24-.019a2.022 2.022 0 0 0 2.377 2.211A9.575 9.575 0 1 1 48.33 42.5H45a2 2 0 0 0 0 4h3.33a13.562 13.562 0 1 0-.455-27.113Z" fill="#000000" opacity="1" data-original="#000000"></path><path d="M26.415 30.087a2.02 2.02 0 0 0-2.83 0l-5 4.999A2.013 2.013 0 0 0 20 38.5c1.107.127 2.272-1.536 3-2.172V56.5a2 2 0 0 0 4 0V36.328c.738.643 1.882 2.293 3 2.172a2.013 2.013 0 0 0 1.414-3.414ZM37 51.672l-1.586-1.586a2 2 0 0 0-2.828 2.828l4.999 4.999a2.02 2.02 0 0 0 2.83 0l5-4.999a2 2 0 0 0-2.83-2.828L41 51.672V31.5a2 2 0 0 0-4 0ZM39 26.5a2 2 0 0 0 0-4 2 2 0 0 0 0 4Z" fill="#000000" opacity="1" data-original="#000000"></path></g></svg>
