<svg xmlns="http://www.w3.org/2000/svg" version="1.1" xmlns:xlink="http://www.w3.org/1999/xlink" width="512" height="512" x="0" y="0" viewBox="0 0 451.75 512" style="enable-background:new 0 0 512 512" xml:space="preserve" class=""><g><g data-name="Layer 2"><path d="M225.88 180.65c-58.83 0-114.28-8.58-156.14-24.15C24.77 139.76 0 116.26 0 90.33s24.77-49.44 69.74-66.18C111.6 8.58 167.05 0 225.88 0S340.15 8.58 382 24.15c45 16.74 69.74 40.24 69.74 66.18S427 139.76 382 156.5c-41.85 15.57-97.3 24.15-156.12 24.15Zm0-160.65C104.55 20 20 57.06 20 90.33s84.55 70.32 205.88 70.32 205.87-37.06 205.87-70.32S347.2 20 225.88 20ZM225.88 291.1c-58.83 0-114.28-8.58-156.14-24.15C24.77 250.21 0 226.71 0 200.77a10 10 0 0 1 20 0c0 33.23 84.55 70.33 205.88 70.33s205.87-37.1 205.87-70.33a10 10 0 1 1 20 0c0 25.94-24.76 49.44-69.74 66.18-41.86 15.57-97.31 24.15-156.13 24.15ZM225.88 401.55c-58.83 0-114.28-8.58-156.14-24.15C24.77 360.66 0 337.16 0 311.22a10 10 0 0 1 20 0c0 33.27 84.55 70.33 205.88 70.33s205.87-37.06 205.87-70.33a10 10 0 0 1 20 0c0 25.94-24.76 49.44-69.74 66.18-41.86 15.6-97.31 24.15-156.13 24.15Z" fill="#000" opacity="1" data-original="#000000" class=""></path><path d="M225.88 512c-58.83 0-114.28-8.58-156.14-24.16C24.77 471.11 0 447.61 0 421.67V90.33a10 10 0 0 1 20 0v331.34C20 454.94 104.55 492 225.88 492s205.87-37.06 205.87-70.33V90.33a10 10 0 0 1 20 0v331.34c0 25.94-24.76 49.44-69.74 66.17C340.15 503.42 284.7 512 225.88 512Z" fill="#000" opacity="1" data-original="#000000" class=""></path><path d="M391.55 210.78a9.85 9.85 0 0 1-1.95-.2 10.1 10.1 0 0 1-1.87-.57 9.87 9.87 0 0 1-1.73-.92 9.72 9.72 0 0 1-2.76-2.76 10.63 10.63 0 0 1-.92-1.73 10.1 10.1 0 0 1-.57-1.87 9.66 9.66 0 0 1 0-3.91 9.9 9.9 0 0 1 4.25-6.36 9.87 9.87 0 0 1 1.73-.92 10.1 10.1 0 0 1 1.87-.57 9.9 9.9 0 0 1 3.91 0 10.1 10.1 0 0 1 5.11 2.73 10.84 10.84 0 0 1 1.25 1.53 10 10 0 0 1 1.49 3.59 10.15 10.15 0 0 1 0 3.91 10.1 10.1 0 0 1-.57 1.87 10.63 10.63 0 0 1-.92 1.73 10.21 10.21 0 0 1-1.25 1.52 9.57 9.57 0 0 1-1.52 1.24 10.15 10.15 0 0 1-1.72.92 10.34 10.34 0 0 1-1.87.57 10 10 0 0 1-1.96.2ZM351.39 220.82a9.85 9.85 0 0 1-1.95-.2 10.1 10.1 0 0 1-1.87-.57 9.87 9.87 0 0 1-1.73-.92 9.57 9.57 0 0 1-1.52-1.24 9.86 9.86 0 0 1-2.17-3.25 10.1 10.1 0 0 1-.57-1.87 9.84 9.84 0 0 1-.19-2 10 10 0 0 1 .19-2 10.58 10.58 0 0 1 .57-1.87 10 10 0 0 1 2.17-3.24 9.63 9.63 0 0 1 1.52-1.25 9.87 9.87 0 0 1 1.73-.92 10.1 10.1 0 0 1 1.87-.57 9.85 9.85 0 0 1 3.9 0 10.1 10.1 0 0 1 1.87.57 9.87 9.87 0 0 1 1.73.92 9.93 9.93 0 0 1 2.76 2.77 10.15 10.15 0 0 1 .92 1.72 9.81 9.81 0 0 1 .57 1.87 10 10 0 0 1 .2 2 9.85 9.85 0 0 1-.2 2 9.39 9.39 0 0 1-.57 1.87 10.24 10.24 0 0 1-.92 1.73 9.72 9.72 0 0 1-2.76 2.76 9.87 9.87 0 0 1-1.73.92 10.1 10.1 0 0 1-1.87.57 9.85 9.85 0 0 1-1.95.2ZM311.23 230.86a10 10 0 0 1-2-.2 10.34 10.34 0 0 1-1.87-.57 9.82 9.82 0 0 1-4.49-3.68 9.87 9.87 0 0 1-.92-1.73 10.1 10.1 0 0 1-.57-1.87 9.84 9.84 0 0 1-.19-1.95 10 10 0 0 1 .19-2A10.58 10.58 0 0 1 302 217a10.14 10.14 0 0 1 2.16-3.24 10.84 10.84 0 0 1 1.53-1.25 10.15 10.15 0 0 1 1.72-.92 10.34 10.34 0 0 1 1.87-.57 9.9 9.9 0 0 1 3.91 0 10.1 10.1 0 0 1 1.87.57 10.63 10.63 0 0 1 1.73.92 10.75 10.75 0 0 1 1.52 1.25 9.57 9.57 0 0 1 1.24 1.52 10.15 10.15 0 0 1 .92 1.72 10.58 10.58 0 0 1 .57 1.87 10 10 0 0 1 .2 2 9.85 9.85 0 0 1-.2 1.95 10.1 10.1 0 0 1-.57 1.87 9.87 9.87 0 0 1-.92 1.73 9.57 9.57 0 0 1-1.24 1.52 10 10 0 0 1-1.52 1.24 10.63 10.63 0 0 1-1.73.92 10.1 10.1 0 0 1-1.87.57 9.93 9.93 0 0 1-1.96.19ZM391.55 321.22a9.84 9.84 0 0 1-1.95-.19 10.1 10.1 0 0 1-1.87-.57 9.87 9.87 0 0 1-1.73-.92 9.63 9.63 0 0 1-1.52-1.25 10.06 10.06 0 0 1-2.93-7.07 9.93 9.93 0 0 1 .2-2 10.1 10.1 0 0 1 .57-1.87 10.63 10.63 0 0 1 .92-1.73 10 10 0 0 1 1.24-1.52 9.57 9.57 0 0 1 1.52-1.24 9.87 9.87 0 0 1 1.73-.92 10.1 10.1 0 0 1 1.87-.57 9.9 9.9 0 0 1 3.91 0 10 10 0 0 1 3.59 1.49 9.57 9.57 0 0 1 1.52 1.24 10.75 10.75 0 0 1 1.25 1.52 10.63 10.63 0 0 1 .92 1.73 10.1 10.1 0 0 1 .57 1.87 9.91 9.91 0 0 1 .19 2 10.06 10.06 0 0 1-2.93 7.07 9.63 9.63 0 0 1-1.52 1.25 10 10 0 0 1-3.59 1.49 10 10 0 0 1-1.96.19ZM351.39 331.26a9.84 9.84 0 0 1-1.95-.19 10.1 10.1 0 0 1-1.87-.57 9.87 9.87 0 0 1-1.73-.92 9.57 9.57 0 0 1-1.52-1.24 10.75 10.75 0 0 1-1.25-1.52 10.63 10.63 0 0 1-.92-1.73 10.1 10.1 0 0 1-.57-1.87 10.15 10.15 0 0 1 0-3.91 10.1 10.1 0 0 1 .57-1.87 10.63 10.63 0 0 1 .92-1.73 10.75 10.75 0 0 1 1.25-1.52 9.57 9.57 0 0 1 1.52-1.24 9.87 9.87 0 0 1 1.73-.92 10.1 10.1 0 0 1 1.87-.57 9.85 9.85 0 0 1 3.9 0 10.1 10.1 0 0 1 1.87.57 9.87 9.87 0 0 1 1.73.92 9.57 9.57 0 0 1 1.52 1.24 10 10 0 0 1 1.24 1.52 10.63 10.63 0 0 1 .92 1.73 9.39 9.39 0 0 1 .57 1.87 9.66 9.66 0 0 1 0 3.91 9.39 9.39 0 0 1-.57 1.87 10.63 10.63 0 0 1-.92 1.73 10 10 0 0 1-1.24 1.52 9.57 9.57 0 0 1-1.52 1.24 9.87 9.87 0 0 1-1.73.92 10.1 10.1 0 0 1-1.87.57 9.84 9.84 0 0 1-1.95.19ZM311.23 341.3a9.94 9.94 0 0 1-2-.19 10.34 10.34 0 0 1-1.87-.57 10.34 10.34 0 0 1-3.25-2.16 10 10 0 0 1-2.16-3.25 10.1 10.1 0 0 1-.57-1.87 9.91 9.91 0 0 1-.19-1.95 10.09 10.09 0 0 1 2.92-7.08 10.77 10.77 0 0 1 1.53-1.24 10.15 10.15 0 0 1 1.72-.92 10.34 10.34 0 0 1 1.87-.57 9.95 9.95 0 0 1 10.27 4.25 10.63 10.63 0 0 1 .92 1.73 10.1 10.1 0 0 1 .57 1.87 9.66 9.66 0 0 1 0 3.91 10.1 10.1 0 0 1-.57 1.87 10.63 10.63 0 0 1-.92 1.73 9.72 9.72 0 0 1-2.76 2.76 10.63 10.63 0 0 1-1.73.92 10.1 10.1 0 0 1-1.87.57 9.91 9.91 0 0 1-1.91.19ZM391.55 431.67a9.84 9.84 0 0 1-1.95-.19 10.1 10.1 0 0 1-1.87-.57A9.87 9.87 0 0 1 386 430a10.21 10.21 0 0 1-1.52-1.25 9.57 9.57 0 0 1-1.24-1.52 10.15 10.15 0 0 1-.92-1.72 10.34 10.34 0 0 1-.57-1.87 10 10 0 0 1-.2-2 9.85 9.85 0 0 1 .2-1.95 10.1 10.1 0 0 1 .57-1.87 9.87 9.87 0 0 1 .92-1.73 9.72 9.72 0 0 1 2.76-2.76 9.87 9.87 0 0 1 1.73-.92 10.1 10.1 0 0 1 1.87-.57 9.9 9.9 0 0 1 3.91 0 10.34 10.34 0 0 1 1.87.57 10.15 10.15 0 0 1 1.72.92 9.57 9.57 0 0 1 1.52 1.24 10.21 10.21 0 0 1 1.25 1.52 9.87 9.87 0 0 1 .92 1.73 10.1 10.1 0 0 1 .57 1.87 9.84 9.84 0 0 1 .19 1.95 10 10 0 0 1-.19 2 10.34 10.34 0 0 1-.57 1.87 10 10 0 0 1-7.28 6 10 10 0 0 1-1.96.16ZM351.39 441.71a9.84 9.84 0 0 1-1.95-.19 10.1 10.1 0 0 1-1.87-.57 9.87 9.87 0 0 1-1.73-.92 10.14 10.14 0 0 1-2.77-2.77 10.86 10.86 0 0 1-.91-1.72 9.39 9.39 0 0 1-.57-1.87 10 10 0 0 1-.2-2 9.85 9.85 0 0 1 .2-1.95 9.39 9.39 0 0 1 .57-1.87 10.54 10.54 0 0 1 .91-1.73 10.21 10.21 0 0 1 1.25-1.52 9.57 9.57 0 0 1 1.52-1.24 9.87 9.87 0 0 1 1.73-.92 10.1 10.1 0 0 1 1.87-.57 9.85 9.85 0 0 1 3.9 0 10.1 10.1 0 0 1 1.87.57 9.87 9.87 0 0 1 1.73.92 9.57 9.57 0 0 1 1.52 1.24 10 10 0 0 1 1.24 1.52 9.87 9.87 0 0 1 .92 1.73 9.39 9.39 0 0 1 .57 1.87 9.85 9.85 0 0 1 .2 1.95 10 10 0 0 1-.2 2 9.39 9.39 0 0 1-.57 1.87 10.15 10.15 0 0 1-.92 1.72 9.57 9.57 0 0 1-1.24 1.52 10.21 10.21 0 0 1-1.52 1.25 9.87 9.87 0 0 1-1.73.92 10.1 10.1 0 0 1-1.87.57 9.84 9.84 0 0 1-1.95.19ZM311.23 451.76a10 10 0 0 1-2-.2 10.34 10.34 0 0 1-1.87-.57 10 10 0 0 1-6.17-9.24 9.91 9.91 0 0 1 .19-1.95 10.1 10.1 0 0 1 .57-1.87 10 10 0 0 1 2.16-3.25 10.34 10.34 0 0 1 3.25-2.16 10.34 10.34 0 0 1 1.87-.57 9.9 9.9 0 0 1 3.91 0 10.1 10.1 0 0 1 1.87.57 10.63 10.63 0 0 1 1.73.92 9.72 9.72 0 0 1 2.76 2.76 10.63 10.63 0 0 1 .92 1.73 10.1 10.1 0 0 1 .57 1.87 9.93 9.93 0 0 1 .2 1.95 10 10 0 0 1-4.45 8.32 10.63 10.63 0 0 1-1.73.92 10.1 10.1 0 0 1-1.87.57 9.85 9.85 0 0 1-1.91.2Z" fill="#000" opacity="1" data-original="#000000" class=""></path></g></g></svg>
