<svg width="66" height="61" viewBox="0 0 66 61" fill="none" xmlns="http://www.w3.org/2000/svg">
<path d="M57.5604 21.74C56.7304 21.69 56.0204 22.32 55.9704 23.14C55.6104 28.79 53.8904 34.62 51.2304 39.14C49.1004 42.76 46.4704 46.04 43.4104 48.87C39.5004 52.5 35.0004 55.34 30.0304 57.31C21.0104 53.7 13.6804 47.43 8.81043 39.14C3.95043 30.89 2.09043 21.52 3.42043 11.99C11.1004 6.11001 20.2804 3 30.0204 3C36.4604 3 42.6604 4.36 48.4404 7.03C49.1904 7.38 50.0804 7.05 50.4304 6.3C50.7804 5.55 50.4504 4.66 49.7004 4.31C43.5204 1.45 36.9004 0 30.0204 0C19.4104 0 9.41043 3.46 1.10043 10L0.630432 10.37L0.540432 10.95C-1.05957 21.37 0.910432 31.64 6.22043 40.66C11.5304 49.7 19.5804 56.5 29.4904 60.32L30.0304 60.53L30.5704 60.32C36.1104 58.2 41.1204 55.09 45.4604 51.07C48.7304 48.04 51.5404 44.54 53.8204 40.66C56.7104 35.74 58.5804 29.43 58.9704 23.33C59.0204 22.5 58.3904 21.79 57.5704 21.74H57.5604Z" fill="url(#paint0_linear_2495_7827)"/>
<path d="M65.0004 3.44995C64.4104 2.85995 63.4604 2.85995 62.8804 3.44995L28.6004 37.7299L17.3904 26.52C16.8004 25.93 15.8504 25.93 15.2704 26.52C14.6904 27.11 14.6804 28.0599 15.2704 28.6399L28.6004 41.97L65.0004 5.56996C65.5904 4.97996 65.5904 4.02995 65.0004 3.44995Z" fill="url(#paint1_linear_2495_7827)"/>
<defs>
<linearGradient id="paint0_linear_2495_7827" x1="7.10043" y1="63.86" x2="94.2933" y2="-21.9521" gradientUnits="userSpaceOnUse">
<stop stop-color="#FF9900"/>
<stop offset="0.639558" stop-color="#00DBFF"/>
</linearGradient>
<linearGradient id="paint1_linear_2495_7827" x1="7.10043" y1="63.86" x2="94.2933" y2="-21.9521" gradientUnits="userSpaceOnUse">
<stop stop-color="#FF9900"/>
<stop offset="0.639558" stop-color="#00DBFF"/>
</linearGradient>
</defs>
</svg>
