<svg width="85" height="76" viewBox="0 0 85 76" fill="none" xmlns="http://www.w3.org/2000/svg">
<path d="M46.6724 0.0199966C34.4124 0.0199966 22.8724 6.04 15.8124 16.12C15.3324 16.8 15.5025 17.73 16.1825 18.21C16.4425 18.39 16.7425 18.48 17.0425 18.48C17.5125 18.48 17.9825 18.26 18.2725 17.84C24.7725 8.56 35.3924 3.02 46.6724 3.02C65.7924 3.02 81.3525 18.58 81.3525 37.7C81.3525 56.82 65.7924 72.38 46.6724 72.38C27.5524 72.38 11.9925 56.82 11.9925 37.7C11.9925 36.05 12.1324 34.37 12.3924 32.67L18.3124 40.05C18.6124 40.42 19.0424 40.61 19.4824 40.61C19.8124 40.61 20.1424 40.5 20.4224 40.28C21.0724 39.76 21.1725 38.82 20.6525 38.17L11.7125 27.02L0.562454 35.96C-0.0875464 36.48 -0.18755 37.42 0.33245 38.07C0.85245 38.72 1.79245 38.82 2.44245 38.3L9.35245 32.76C9.12245 34.42 9.00245 36.07 9.00245 37.68C9.00245 58.46 25.9025 75.36 46.6825 75.36C67.4625 75.36 84.3624 58.46 84.3624 37.68C84.3624 16.9 67.4625 0 46.6825 0L46.6724 0.0199966Z" fill="url(#paint0_linear_2495_7828)"/>
<path d="M22.9225 38.54C22.9225 51.63 33.5725 62.28 46.6625 62.28C59.7525 62.28 70.4025 51.63 70.4025 38.54C70.4025 30.81 66.6125 23.54 60.2625 19.09C59.5825 18.61 58.6525 18.78 58.1725 19.46C57.6925 20.14 57.8625 21.07 58.5425 21.55C64.0925 25.44 67.4025 31.79 67.4025 38.54C67.4025 49.98 58.0925 59.28 46.6625 59.28C35.2325 59.28 25.9225 49.97 25.9225 38.54C25.9225 27.11 35.2325 17.8 46.6625 17.8C47.1825 17.8 47.7025 17.83 48.2325 17.87L44.7725 20.44C44.1125 20.94 43.9725 21.87 44.4625 22.54C44.7525 22.94 45.2125 23.15 45.6625 23.15C45.9725 23.15 46.2825 23.05 46.5525 22.85L54.0625 17.26L48.4725 9.75C47.9825 9.08 47.0425 8.94998 46.3725 9.43998C45.7125 9.93998 45.5725 10.87 46.0625 11.54L48.5525 14.89C47.9125 14.84 47.2725 14.8 46.6425 14.8C33.5525 14.8 22.9025 25.45 22.9025 38.54H22.9225Z" fill="url(#paint1_linear_2495_7828)"/>
<path d="M46.6724 52.78C47.5024 52.78 48.1724 52.11 48.1724 51.28V49.77H48.5824C51.8924 49.77 54.5724 47.2 54.5724 44.04C54.5724 41.4 52.7024 39.11 50.0124 38.47L44.0124 37.05C42.6924 36.74 41.7624 35.65 41.7624 34.4C41.7624 32.89 43.1024 31.67 44.7524 31.67H46.6224C46.6224 31.67 46.6524 31.67 46.6624 31.67C46.6724 31.67 46.6924 31.67 46.7024 31.67H48.2624C49.3624 31.67 50.3524 32.21 50.9624 33.14C51.4124 33.83 52.3424 34.03 53.0424 33.58C53.7324 33.13 53.9324 32.2 53.4824 31.5C52.3224 29.72 50.3824 28.66 48.2724 28.66H48.1724V27.15C48.1724 26.32 47.5024 25.65 46.6724 25.65C45.8424 25.65 45.1724 26.32 45.1724 27.15V28.66H44.7624C41.4524 28.66 38.7724 31.23 38.7724 34.39C38.7724 37.04 40.6424 39.33 43.3324 39.96L49.3324 41.38C50.6624 41.7 51.5824 42.79 51.5824 44.03C51.5824 45.54 50.2424 46.76 48.5924 46.76H46.7924C46.7924 46.76 46.7224 46.75 46.6824 46.75C46.6424 46.75 46.6124 46.75 46.5724 46.76H45.0824C43.9824 46.76 42.9924 46.22 42.3824 45.28C41.9324 44.59 41.0024 44.39 40.3024 44.84C39.6124 45.29 39.4124 46.22 39.8624 46.92C41.0224 48.7 42.9724 49.77 45.0724 49.77H45.1724V51.28C45.1724 52.11 45.8424 52.78 46.6724 52.78Z" fill="url(#paint2_linear_2495_7828)"/>
<defs>
<linearGradient id="paint0_linear_2495_7828" x1="74.8025" y1="-0.0699441" x2="14.8109" y2="63.9695" gradientUnits="userSpaceOnUse">
<stop offset="0.122761" stop-color="#FF9900"/>
<stop offset="1" stop-color="#00DBFF"/>
</linearGradient>
<linearGradient id="paint1_linear_2495_7828" x1="74.8025" y1="-0.0699441" x2="14.8109" y2="63.9695" gradientUnits="userSpaceOnUse">
<stop offset="0.122761" stop-color="#FF9900"/>
<stop offset="1" stop-color="#00DBFF"/>
</linearGradient>
<linearGradient id="paint2_linear_2495_7828" x1="74.8025" y1="-0.0699441" x2="14.8109" y2="63.9695" gradientUnits="userSpaceOnUse">
<stop offset="0.122761" stop-color="#FF9900"/>
<stop offset="1" stop-color="#00DBFF"/>
</linearGradient>
</defs>
</svg>
