<svg xmlns="http://www.w3.org/2000/svg" version="1.1" xmlns:xlink="http://www.w3.org/1999/xlink" width="512" height="512" x="0" y="0" viewBox="0 0 468 468" style="enable-background:new 0 0 512 512" xml:space="preserve" class=""><g><path d="M32.163 92.297a15.986 15.986 0 0 1 9.889-14.427L227.881 1.21a16.018 16.018 0 0 1 12.208-.001l185.94 76.66a15.988 15.988 0 0 1 9.895 14.505c2.374 140.418-51.28 285.785-171.981 365.712-17.962 11.895-39.905 13.766-60.691 1.892C150.14 429.637 26.902 333.502 32.163 92.297zM64.009 103.4C62.74 319.723 171.61 405.243 219.061 432.179c8.53 4.843 19.21 4.551 27.206-.744 108.347-71.747 157.559-202.008 157.708-328.074L233.99 33.279z" fill="#ffffff" opacity="1" data-original="#000000" class=""></path><path d="M309.435 176.003V155.02c0-42.325-35.191-76.759-78.446-76.759s-78.446 34.434-78.446 76.759v20.983c-11.051 6.147-18.548 17.934-18.548 31.442v95.922c0 19.831 16.148 35.965 35.998 35.965h121.993c19.849 0 35.998-16.134 35.998-35.965v-95.922c-.002-13.508-7.498-25.295-18.549-31.442zm-78.447-65.773c25.612 0 46.448 20.093 46.448 44.79v16.46H184.54v-16.46c0-24.697 20.837-44.79 46.448-44.79zm64.996 193.137a4.003 4.003 0 0 1-4 3.996H169.992c-2.206 0-4-1.793-4-3.996v-95.922a4.003 4.003 0 0 1 4-3.996h121.993c2.206 0 4 1.793 4 3.996v95.922z" fill="#ffffff" opacity="1" data-original="#000000" class=""></path><path d="M250.987 241.84c0-11.035-8.954-19.981-19.999-19.981s-19.999 8.946-19.999 19.981c0 6.531 3.15 12.311 8 15.957v29.855h23.999v-29.855c4.849-3.646 7.999-9.426 7.999-15.957z" fill="#ffffff" opacity="1" data-original="#000000" class=""></path></g></svg>
