<svg xmlns="http://www.w3.org/2000/svg" version="1.1" xmlns:xlink="http://www.w3.org/1999/xlink" width="512" height="512" x="0" y="0" viewBox="0 0 800 800" style="enable-background:new 0 0 512 512" xml:space="preserve" class=""><g><path d="M466.7 691.7c-13.8 0-25-11.2-25-25s11.2-25 25-25c118.7 0 178.2 0 209.9-31.7 32.5-32.5 32-136.6 31.7-243.2 0-13.8 11.1-25 24.9-25.1h.1c13.8 0 25 11.1 25 24.9.2 58.5 0 145.4-5.1 183-5.8 43.5-18.6 73-41.3 95.7s-52.2 35.4-95.7 41.3c-37.9 5.1-84.7 5.1-149.5 5.1zm-400-383.4c-13.8 0-25-11.2-25-25 0-16.3 0-24.4.8-32.2 3.6-36.4 19.8-70.6 45.6-96.4s60.1-42 96.4-45.6c7.7-.8 15.9-.8 32.2-.8h250c64.8 0 111.7 0 149.6 5.1 43.5 5.8 73 18.6 95.7 41.3 18.7 18.7 30.6 42 37.4 73.3 2.9 13.5-5.6 26.8-19.1 29.7s-26.8-5.6-29.7-19.1c-4.8-21.8-12.1-36.8-23.9-48.6-31.7-31.7-91.3-31.7-209.9-31.7h-250c-14.6 0-22 0-27.3.5-51.3 5.1-92.1 45.9-97.2 97.2-.5 5.3-.5 12.6-.5 27.3-.1 13.8-11.3 25-25.1 25zM366.7 691.7c-13.8 0-25-11.2-25-25 0-151.6-123.4-275-275-275-13.8 0-25-11.2-25-25s11.2-25 25-25c86.8 0 168.4 33.8 229.8 95.2s95.2 143 95.2 229.8c0 13.8-11.2 25-25 25z" fill="#000000" opacity="1" data-original="#000000"></path><path d="M266.7 691.7c-13.8 0-25-11.2-25-25 0-96.5-78.5-175-175-175-13.8 0-25-11.2-25-25s11.2-25 25-25c60.1 0 116.6 23.4 159.1 65.9s65.9 99 65.9 159.1c0 13.8-11.2 25-25 25z" fill="#000000" opacity="1" data-original="#000000"></path><path d="M166.7 691.7c-13.8 0-25-11.2-25-25 0-41.4-33.6-75-75-75-13.8 0-25-11.2-25-25s11.2-25 25-25c68.9 0 125 56.1 125 125 0 13.8-11.2 25-25 25z" fill="#000000" opacity="1" data-original="#000000"></path></g></svg>
