<svg width="13" height="9" viewBox="0 0 13 9" fill="none" xmlns="http://www.w3.org/2000/svg">
<path d="M3.25702 8.02436C2.74926 8.02436 2.2582 7.96089 1.78384 7.83395C1.31617 7.71369 0.925327 7.52996 0.611317 7.28276L1.23266 6.16035C1.45981 6.34742 1.7471 6.4944 2.09451 6.6013C2.44861 6.71487 2.79602 6.77166 3.13676 6.77166C3.69129 6.77166 4.09215 6.64806 4.33935 6.40086C4.59323 6.15366 4.72017 5.78621 4.72017 5.29849V4.48674L4.82038 3.13383L4.80034 1.77089V0.608384H6.28354V5.09806C6.28354 6.10022 6.02298 6.83847 5.50185 7.31283C4.98073 7.78718 4.23245 8.02436 3.25702 8.02436ZM3.0165 5.73944C2.51542 5.73944 2.06111 5.63254 1.65356 5.41875C1.2527 5.19827 0.928667 4.89428 0.681468 4.50678C0.44095 4.1126 0.320691 3.65495 0.320691 3.13383C0.320691 2.60602 0.44095 2.14837 0.681468 1.76087C0.928667 1.36669 1.2527 1.0627 1.65356 0.848903C2.06111 0.635109 2.51542 0.528212 3.0165 0.528212C3.47081 0.528212 3.87167 0.621747 4.21909 0.808817C4.5665 0.989205 4.83709 1.27315 5.03084 1.66065C5.22459 2.04147 5.32146 2.53253 5.32146 3.13383C5.32146 3.72844 5.22459 4.2195 5.03084 4.607C4.83709 4.98782 4.5665 5.27176 4.21909 5.45883C3.87167 5.6459 3.47081 5.73944 3.0165 5.73944ZM3.32717 4.45668C3.60109 4.45668 3.84495 4.40323 4.05874 4.29633C4.27254 4.18275 4.43956 4.02575 4.55982 3.82532C4.68008 3.62488 4.74021 3.39439 4.74021 3.13383C4.74021 2.86658 4.68008 2.63609 4.55982 2.44234C4.43956 2.2419 4.27254 2.08824 4.05874 1.98134C3.84495 1.86776 3.60109 1.81098 3.32717 1.81098C3.05324 1.81098 2.80939 1.86776 2.59559 1.98134C2.3818 2.08824 2.21143 2.2419 2.08449 2.44234C1.96423 2.63609 1.9041 2.86658 1.9041 3.13383C1.9041 3.39439 1.96423 3.62488 2.08449 3.82532C2.21143 4.02575 2.3818 4.18275 2.59559 4.29633C2.80939 4.40323 3.05324 4.45668 3.32717 4.45668ZM9.37214 4.80743V0.177456H10.6649V4.80743H9.37214ZM7.63841 3.10376V1.88113H12.4087V3.10376H7.63841Z" fill="#000F21"/>
</svg>
