<svg width="10" height="8" viewBox="0 0 10 8" fill="none" xmlns="http://www.w3.org/2000/svg">
<path d="M0.721554 8V2.60838H2.28492V8H0.721554ZM1.50324 1.85677C1.21595 1.85677 0.982116 1.77325 0.801727 1.60623C0.621339 1.4392 0.531144 1.23209 0.531144 0.984887C0.531144 0.737688 0.621339 0.530575 0.801727 0.363549C0.982116 0.196522 1.21595 0.113009 1.50324 0.113009C1.79052 0.113009 2.02436 0.193182 2.20475 0.353527C2.38514 0.507192 2.47533 0.707623 2.47533 0.954823C2.47533 1.21538 2.38514 1.43252 2.20475 1.60623C2.03104 1.77325 1.79721 1.85677 1.50324 1.85677ZM7.01292 2.52821C7.44051 2.52821 7.82133 2.61507 8.15538 2.78877C8.49612 2.9558 8.76336 3.21636 8.95711 3.57046C9.15086 3.91787 9.24773 4.3655 9.24773 4.91335V8H7.68437V5.15387C7.68437 4.7196 7.58749 4.39891 7.39374 4.1918C7.20667 3.98468 6.93943 3.88113 6.59201 3.88113C6.34481 3.88113 6.121 3.93458 5.92057 4.04147C5.72682 4.14169 5.57315 4.29869 5.45957 4.51249C5.35268 4.72628 5.29923 5.0002 5.29923 5.33426V8H3.73586V2.60838H5.22908V4.1016L4.94847 3.65063C5.14222 3.28985 5.41949 3.01259 5.78026 2.81884C6.14104 2.62509 6.55193 2.52821 7.01292 2.52821Z" fill="#000F21"/>
</svg>
