<svg xmlns="http://www.w3.org/2000/svg" version="1.1" xmlns:xlink="http://www.w3.org/1999/xlink" width="512" height="512" x="0" y="0" viewBox="0 0 189.524 189.524" style="enable-background:new 0 0 512 512" xml:space="preserve" class=""><g><path fill-rule="evenodd" d="M94.762 180.048c47.102 0 85.286-38.183 85.286-85.286 0-47.102-38.183-85.286-85.286-85.286-47.102 0-85.286 38.184-85.286 85.286s38.184 85.286 85.286 85.286zm0 9.476c52.335 0 94.762-42.427 94.762-94.762C189.524 42.426 147.097 0 94.762 0 42.426 0 0 42.426 0 94.762c0 52.335 42.426 94.762 94.762 94.762z" clip-rule="evenodd" fill="#ffffff" opacity="1" data-original="#000000" class=""></path><path fill-rule="evenodd" d="M119.386 94.762 75.809 65.711v58.103zm8.804-5.519c3.939 2.626 3.939 8.413 0 11.039l-51.545 34.364c-4.408 2.939-10.313-.222-10.313-5.52V60.399c0-5.298 5.905-8.458 10.313-5.519z" clip-rule="evenodd" fill="#ffffff" opacity="1" data-original="#000000" class=""></path></g></svg>
