<svg xmlns="http://www.w3.org/2000/svg" id="Layer_1" width="40" height="40" data-name="Layer 1" viewBox="0 0 32 32"><defs><style>.cls-1{fill:#95bf47;}.cls-2{fill:#5e8e3e;}.cls-3{fill:#fff;}</style></defs><path class="cls-1" d="M22.63,9.85a.18.18,0,0,0-.17-.16l-1.5,0L19.65,8.39a.46.46,0,0,0-.43-.06l-.6.19a3.94,3.94,0,0,0-.29-.71,2,2,0,0,0-1.79-1.24h-.16a.46.46,0,0,0-.07-.07A1.58,1.58,0,0,0,15.06,6a3.59,3.59,0,0,0-2.71,2,7.86,7.86,0,0,0-1.09,2.82l-1.91.6c-.56.17-.58.19-.65.72S7.17,23.87,7.17,23.87L19.49,26l5.34-1.33S22.65,10,22.63,9.85ZM18,8.71,17.05,9a5.33,5.33,0,0,0-.3-1.76C17.49,7.38,17.85,8.21,18,8.71Zm-1.6.49-2,.64a5,5,0,0,1,1-2,2.16,2.16,0,0,1,.7-.5A4.49,4.49,0,0,1,16.4,9.2ZM15.08,6.65a1,1,0,0,1,.59.15,2.7,2.7,0,0,0-.76.58,5.72,5.72,0,0,0-1.27,2.68L12,10.58C12.28,9,13.59,6.69,15.08,6.65Z"/><path class="cls-2" d="M22.46,9.69l-1.5,0L19.65,8.39a.25.25,0,0,0-.16-.08V26l5.34-1.33S22.65,10,22.63,9.85A.18.18,0,0,0,22.46,9.69Z"/><path class="cls-3" d="M16.53,12.43l-.62,2.32a3.57,3.57,0,0,0-1.51-.26c-1.2.07-1.21.83-1.2,1,.06,1,2.79,1.27,2.94,3.69a2.87,2.87,0,0,1-2.64,3.33,4,4,0,0,1-3-1l.41-1.77a3.81,3.81,0,0,0,2,.77.77.77,0,0,0,.75-.83c-.09-1.35-2.31-1.27-2.45-3.49A3.7,3.7,0,0,1,15,12.23,3.43,3.43,0,0,1,16.53,12.43Z"/></svg>
