<svg width="14" height="8" viewBox="0 0 14 8" fill="none" xmlns="http://www.w3.org/2000/svg">
<path d="M2.9263 7.08017C2.2916 7.08017 1.79721 6.91983 1.44311 6.59914C1.08901 6.27176 0.911965 5.78739 0.911965 5.14601V0.415816H2.47533V5.12596C2.47533 5.35312 2.53546 5.53017 2.65572 5.65711C2.77598 5.77737 2.93967 5.8375 3.14678 5.8375C3.39398 5.8375 3.60443 5.77068 3.77814 5.63706L4.19905 6.73944C4.0387 6.85302 3.84495 6.93987 3.61779 7C3.39732 7.05345 3.16682 7.08017 2.9263 7.08017ZM0.0801727 2.93123V1.72864H3.81823V2.93123H0.0801727ZM6.21143 7L4.26724 1.60838H5.74041L7.35389 6.24838H6.65238L8.336 1.60838H9.65885L11.2924 6.24838H10.5909L12.2544 1.60838H13.6374L11.6832 7H10.17L8.73687 3.02143H9.19786L7.71467 7H6.21143Z" fill="#000F21"/>
</svg>
