<svg width="17" height="7" viewBox="0 0 17 7" fill="none" xmlns="http://www.w3.org/2000/svg">
<path d="M1.98989 6.05452C1.55829 6.05452 1.2221 5.94548 0.981314 5.72741C0.740529 5.5048 0.620136 5.17542 0.620136 4.73928V1.52275H1.68323V4.72565C1.68323 4.88012 1.72411 5.00051 1.80589 5.08683C1.88767 5.16861 1.99897 5.2095 2.13981 5.2095C2.30791 5.2095 2.45101 5.16407 2.56913 5.0732L2.85535 5.82282C2.74632 5.90005 2.61457 5.95911 2.4601 6C2.31018 6.03634 2.15344 6.05452 1.98989 6.05452ZM0.0545175 3.23324V2.41548H2.59639V3.23324H0.0545175ZM4.99905 6.05452C4.69466 6.05452 4.42207 5.99546 4.18129 5.87734C3.94504 5.75921 3.76105 5.57976 3.6293 5.33898C3.49755 5.09365 3.43167 4.78244 3.43167 4.40536V2.3337H4.49476V4.24863C4.49476 4.55302 4.55836 4.7779 4.68557 4.92328C4.81732 5.06412 5.00132 5.13454 5.23756 5.13454C5.40111 5.13454 5.54649 5.10046 5.6737 5.03232C5.80091 4.95963 5.90086 4.85059 5.97355 4.70521C6.04624 4.55529 6.08258 4.36902 6.08258 4.14641V2.3337H7.14567V6H6.1371V4.99143L6.3211 5.28446C6.19843 5.53887 6.01671 5.73196 5.77592 5.86371C5.53968 5.99091 5.28072 6.05452 4.99905 6.05452ZM10.2976 6.05452C9.97506 6.05452 9.69793 5.98637 9.46623 5.85008C9.23453 5.71378 9.05735 5.50707 8.93469 5.22994C8.81202 4.94827 8.75069 4.5939 8.75069 4.16685C8.75069 3.73525 8.81429 3.38089 8.9415 3.10376C9.07325 2.82663 9.25498 2.61992 9.48668 2.48362C9.71837 2.34733 9.98869 2.27918 10.2976 2.27918C10.6429 2.27918 10.9518 2.35642 11.2244 2.51088C11.5015 2.66535 11.7196 2.88342 11.8786 3.16509C12.0422 3.44677 12.124 3.78069 12.124 4.16685C12.124 4.54847 12.0422 4.88012 11.8786 5.16179C11.7196 5.44347 11.5015 5.66381 11.2244 5.82282C10.9518 5.97728 10.6429 6.05452 10.2976 6.05452ZM8.13055 6V0.943506H9.19364V3.0765L9.1255 4.16004L9.14594 5.25039V6H8.13055ZM10.1136 5.18224C10.2908 5.18224 10.4475 5.14135 10.5838 5.05957C10.7247 4.9778 10.836 4.86195 10.9178 4.71203C11.0041 4.55756 11.0472 4.37583 11.0472 4.16685C11.0472 3.95332 11.0041 3.7716 10.9178 3.62168C10.836 3.47175 10.7247 3.3559 10.5838 3.27413C10.4475 3.19235 10.2908 3.15146 10.1136 3.15146C9.93644 3.15146 9.77743 3.19235 9.6366 3.27413C9.49576 3.3559 9.38445 3.47175 9.30268 3.62168C9.2209 3.7716 9.18001 3.95332 9.18001 4.16685C9.18001 4.37583 9.2209 4.55756 9.30268 4.71203C9.38445 4.86195 9.49576 4.9778 9.6366 5.05957C9.77743 5.14135 9.93644 5.18224 10.1136 5.18224ZM14.6551 6.05452C14.2372 6.05452 13.8692 5.97274 13.5512 5.80919C13.2377 5.64564 12.9946 5.42302 12.822 5.14135C12.6493 4.85513 12.563 4.5303 12.563 4.16685C12.563 3.79886 12.6471 3.47402 12.8152 3.19235C12.9878 2.90613 13.2218 2.68352 13.5171 2.52451C13.8124 2.36096 14.1463 2.27918 14.5188 2.27918C14.8777 2.27918 15.2003 2.35642 15.4865 2.51088C15.7773 2.66081 16.0067 2.87888 16.1748 3.16509C16.3429 3.44677 16.4269 3.78523 16.4269 4.18048C16.4269 4.22137 16.4247 4.26907 16.4201 4.32359C16.4156 4.37356 16.411 4.42127 16.4065 4.4667H13.4285V3.84656H15.8477L15.4388 4.03056C15.4388 3.83975 15.4002 3.67392 15.323 3.53309C15.2457 3.39225 15.139 3.28321 15.0027 3.20598C14.8664 3.1242 14.7074 3.08332 14.5257 3.08332C14.3439 3.08332 14.1826 3.1242 14.0418 3.20598C13.9055 3.28321 13.7988 3.39452 13.7215 3.5399C13.6443 3.68074 13.6057 3.84883 13.6057 4.04419V4.20774C13.6057 4.40764 13.6488 4.58482 13.7351 4.73928C13.826 4.88921 13.9509 5.00506 14.11 5.08683C14.2735 5.16407 14.4643 5.20268 14.6824 5.20268C14.8777 5.20268 15.0481 5.17315 15.1935 5.11409C15.3434 5.05503 15.4797 4.96644 15.6024 4.84832L16.168 5.46164C15.9999 5.65245 15.7886 5.8001 15.5342 5.90459C15.2798 6.00454 14.9868 6.05452 14.6551 6.05452Z" fill="#000F21"/>
</svg>
