<?xml version="1.0" encoding="utf-8"?>
<!-- Generator: Adobe Illustrator 25.0.1, SVG Export Plug-In . SVG Version: 6.00 Build 0)  -->
<svg version="1.1" id="Layer_1" xmlns="http://www.w3.org/2000/svg" xmlns:xlink="http://www.w3.org/1999/xlink" x="0px" y="0px"
	 viewBox="0 0 441.63 143.78" style="enable-background:new 0 0 441.63 143.78;" xml:space="preserve">
<style type="text/css">
	.st0{fill-rule:evenodd;clip-rule:evenodd;fill:#F8C214;}
	.st1{fill-rule:evenodd;clip-rule:evenodd;fill:#EC8723;}
	.st2{fill-rule:evenodd;clip-rule:evenodd;fill:#E14226;}
	.st3{fill-rule:evenodd;clip-rule:evenodd;fill:#A72F28;}
	.st4{fill:#FFFFFF;}
</style>
<g>
	<g>
		<polygon class="st0" points="92.89,19.34 62.55,1.82 62.55,36.86 		"/>
		<polygon class="st1" points="123.22,36.86 92.89,19.34 92.89,54.37 		"/>
		<polygon class="st0" points="123.22,71.89 123.22,36.86 92.89,54.37 		"/>
		<polygon class="st2" points="32.21,19.34 32.21,54.37 62.55,36.86 		"/>
		<polygon class="st1" points="62.55,1.82 32.21,19.34 62.55,36.86 		"/>
		<polygon class="st2" points="1.87,36.86 1.87,71.89 32.21,54.37 		"/>
		<polygon class="st3" points="32.21,19.34 1.87,36.86 32.21,54.37 		"/>
		<polygon class="st0" points="62.55,71.89 32.21,54.37 32.21,89.4 		"/>
		<polygon class="st2" points="1.87,71.89 1.87,106.92 32.21,89.4 		"/>
		<polygon class="st1" points="32.21,54.37 1.87,71.89 32.21,89.4 		"/>
		<polygon class="st3" points="32.21,89.4 1.87,106.92 32.21,124.44 		"/>
		<polygon class="st0" points="62.55,141.95 92.89,124.44 62.55,106.92 		"/>
		<polygon class="st1" points="62.55,106.92 32.21,124.44 62.55,141.95 		"/>
		<polygon class="st1" points="123.22,71.89 92.89,54.37 92.89,89.4 		"/>
		<polygon class="st2" points="123.22,106.92 123.22,71.89 92.89,89.4 		"/>
		<polygon class="st3" points="92.89,124.44 123.22,106.92 92.89,89.4 		"/>
		<polygon class="st2" points="92.89,54.37 62.55,71.89 92.89,89.4 		"/>
		<polygon class="st2" points="92.89,89.4 62.55,106.92 92.89,124.44 		"/>
	</g>
	<g>
		<path class="st4" d="M196.98,50.04c-2.76-0.94-5.88-1.69-9.35-2.22c-3.47-0.54-6.93-0.81-10.37-0.81c-4.99,0-8.65,0.71-10.97,2.12
			c-2.33,1.42-3.49,3.84-3.49,7.28c0,2.36,0.96,4.13,2.88,5.31c1.92,1.18,4.33,2.16,7.23,2.93c2.9,0.78,6.02,1.53,9.35,2.28
			c3.34,0.74,6.46,1.84,9.35,3.29c2.9,1.45,5.31,3.47,7.23,6.07c1.92,2.6,2.88,6.08,2.88,10.47c0,7.08-2.22,12.24-6.67,15.47
			c-4.45,3.24-11.26,4.85-20.43,4.85c-8.36,0-16.38-1.11-24.07-3.34V93.13c7.55,2.43,15.24,3.64,23.06,3.64
			c5.19,0,8.98-0.76,11.38-2.28c2.39-1.52,3.59-4.03,3.59-7.53c0-2.49-0.96-4.38-2.88-5.66c-1.92-1.28-4.33-2.31-7.23-3.08
			c-2.9-0.78-6.02-1.52-9.35-2.22c-3.34-0.71-6.46-1.77-9.35-3.19c-2.9-1.42-5.31-3.37-7.23-5.87c-1.92-2.49-2.88-5.93-2.88-10.32
			c0-7.15,2.38-12.25,7.13-15.32c4.75-3.07,11.88-4.6,21.39-4.6c3.71,0,7.43,0.3,11.17,0.91c3.74,0.61,6.93,1.38,9.56,2.33
			L196.98,50.04z"/>
		<path class="st4" d="M212.45,68.05c0-1.01-0.05-1.65-0.15-1.92c-0.1-0.27-0.49-0.47-1.16-0.61l-6.27-1.72l1.21-7.48h6.37V42.05
			h12.84v14.26h15.57v9.81h-15.57v22.45c0,3.03,0.64,5.19,1.92,6.47c1.28,1.28,3.4,1.92,6.37,1.92c2.49,0,4.92-0.3,7.28-0.91v10.11
			c-2.97,0.61-6.07,0.91-9.3,0.91c-6.81,0-11.7-1.4-14.66-4.2c-2.97-2.8-4.45-7.4-4.45-13.8V68.05z"/>
		<path class="st4" d="M273.18,55.1c4.56,0,8.47,0.49,11.73,1.47c3.27,0.98,5.97,2.51,8.09,4.6c2.12,2.09,3.67,4.79,4.65,8.09
			c0.98,3.3,1.47,7.25,1.47,11.83c0,9.17-2.04,15.79-6.12,19.87c-4.07,4.07-10.68,6.11-19.82,6.12V96.97
			c4.56-0.01,7.83-1.24,9.81-3.69c1.99-2.46,2.98-6.52,2.98-12.19c0-5.66-0.99-9.73-2.98-12.19c-1.98-2.45-5.25-3.68-9.81-3.69V55.1
			z M247.24,81.09c0-4.58,0.49-8.53,1.47-11.83c0.98-3.3,2.51-6,4.6-8.09c2.09-2.09,4.77-3.62,8.04-4.6
			c3.27-0.98,7.2-1.47,11.78-1.47h0.05v10.11l-0.05,0c-4.52,0-7.77,1.23-9.76,3.69c-1.99,2.46-2.98,6.52-2.98,12.19
			c0,5.66,0.99,9.73,2.98,12.19c1.99,2.46,5.24,3.69,9.76,3.69l0.05,0v10.11l-0.05,0c-4.58,0-8.51-0.49-11.78-1.47
			c-3.27-0.98-5.95-2.53-8.04-4.65c-2.09-2.12-3.62-4.82-4.6-8.09C247.73,89.6,247.24,85.68,247.24,81.09z"/>
		<path class="st4" d="M309.23,65.92c0-0.74-0.07-1.23-0.2-1.47c-0.14-0.24-0.54-0.49-1.21-0.76l-3.54-1.42l1.21-5.97h15.27
			c0.61,0,0.91,0.34,0.91,1.01v5.46c1.75-2.49,3.81-4.4,6.17-5.71c2.36-1.31,5.26-1.97,8.7-1.97c1.15,0,2.17,0.03,3.08,0.1
			c0.91,0.07,1.67,0.17,2.28,0.3l-2.22,10.42c-0.47-0.13-1.16-0.25-2.07-0.35c-0.91-0.1-1.84-0.15-2.78-0.15
			c-2.16,0-4.38,0.4-6.67,1.21c-2.29,0.81-4.28,2.02-5.97,3.64v35.6h-12.94V65.92z"/>
		<path class="st2" d="M439.76,35.56l-46.48,46.45l32.88,32.86h-18.3l-23.73-23.71v-1.46l7.69-7.68l-7.69-7.68v-1.46l37.33-37.31
			H439.76z M384.14,91.16l-15.98,15.97h-18.2l-0.05-0.05l25.08-25.07l-27.01-27h18.3l17.86,17.85v1.46l-7.69,7.68l7.69,7.68V91.16z"
			/>
	</g>
</g>
</svg>
