<?xml version="1.0" encoding="utf-8"?>
<!-- Generator: Adobe Illustrator 26.0.1, SVG Export Plug-In . SVG Version: 6.00 Build 0)  -->
<svg version="1.1" id="Layer_1" xmlns="http://www.w3.org/2000/svg" xmlns:xlink="http://www.w3.org/1999/xlink" x="0px" y="0px"
	 viewBox="0 0 512 512" style="enable-background:new 0 0 512 512;" xml:space="preserve">
<style type="text/css">
	.st0{fill:url(#SVGID_1_);}
	.st1{fill:url(#SVGID_00000105419746289082627170000017678213202680159363_);}
	.st2{fill:url(#SVGID_00000176043995735992088500000005484631098793817265_);}
	.st3{fill:url(#SVGID_00000118380589209024715420000008793546122550846098_);}
	.st4{fill:url(#SVGID_00000052099416970497311740000013574752531448074398_);}
	.st5{fill:url(#SVGID_00000041977804773298848850000010320046988114957707_);}
	.st6{fill:url(#SVGID_00000170995587179527149220000004790939687428340899_);}
	.st7{fill:url(#SVGID_00000173131145193313930150000007535425651861887156_);}
</style>
<g>
	<linearGradient id="SVGID_1_" gradientUnits="userSpaceOnUse" x1="68.9262" y1="-3.17" x2="76.9262" y2="522.83">
		<stop  offset="4.154462e-02" style="stop-color:#FF9900"/>
		<stop  offset="0.8916" style="stop-color:#1DD3E2"/>
		<stop  offset="1" style="stop-color:#00DBFF"/>
	</linearGradient>
	<path class="st0" d="M75.3,434.1c9.1,0,17.6-3.5,24-10c3-3,3-7.8,0-10.8c0,0,0,0,0,0c-3-3-7.8-3-10.8,0c-7.3,7.3-19.2,7.3-26.5,0
		c-3-3-7.8-3-10.8,0c-3,3-3,7.8,0,10.8C57.7,430.5,66.3,434.1,75.3,434.1z"/>
	
		<linearGradient id="SVGID_00000067952052402932095410000017074338958978520985_" gradientUnits="userSpaceOnUse" x1="68.7725" y1="-3.1676" x2="76.7725" y2="522.8323">
		<stop  offset="4.154462e-02" style="stop-color:#FF9900"/>
		<stop  offset="0.8916" style="stop-color:#1DD3E2"/>
		<stop  offset="1" style="stop-color:#00DBFF"/>
	</linearGradient>
	<path style="fill:url(#SVGID_00000067952052402932095410000017074338958978520985_);" d="M89.6,279.8c-4.7-0.9-9.5-1.4-14.3-1.4
		C33.8,278.5,0,312.3,0,353.8v46.1c0,20.2,8,38.5,20.9,52C7.5,465.9,0,484.5,0,504c0,4.2,3.4,7.6,7.6,7.6c0,0,0,0,0,0h135.5
		c4.2,0,7.6-3.4,7.6-7.6c0,0,0,0,0,0c0-19.5-7.4-37.9-20.9-52c4.1-4.3,7.7-9.1,10.7-14.3c2-3.7,0.7-8.3-2.9-10.3
		c-3.6-2-8.1-0.8-10.2,2.7c-8.8,15.1-23.6,25.6-40.6,28.9c-3.8,0.7-7.6,1.1-11.4,1.1c-33.2,0-60.1-27-60.1-60.1v-31
		c10.4-4.8,20.4-13.7,25.3-24.2c13.9,10.1,43.1,25.1,94.9,26.5v28.6c0,1.1,0,2.2-0.1,3.3c-0.2,4.2,3,7.8,7.2,8c4.2,0.2,7.8-3,8-7.2
		c0.1-1.4,0.1-2.8,0.1-4.2v-46.1c0-20.1-7.8-39-22.1-53.3C117.9,289.8,104.4,282.7,89.6,279.8L89.6,279.8z M89.6,473.9
		c10.4-2,20.1-6.1,28.6-12c9.3,9.5,15.1,21.5,16.8,34.5H15.7c1.7-13.1,7.6-25.2,16.8-34.6c12.2,8.4,26.9,13.4,42.8,13.4
		C80.2,475.3,85,474.8,89.6,473.9z M135.5,356.1c-69-2-93.1-29.7-93.3-30c-2.7-3.3-7.4-3.8-10.7-1.1c-1.8,1.4-2.8,3.6-2.8,5.9
		c0,6.9-5.6,15-13.3,20.5c1.3-32.1,27.7-57.7,60.1-57.7c3.9,0,7.7,0.4,11.4,1.1c11.8,2.3,22.5,8,31.1,16.5
		c11.4,11.4,17.6,26.5,17.6,42.5V356.1z"/>
	
		<linearGradient id="SVGID_00000147933272315240814010000015785855563337293459_" gradientUnits="userSpaceOnUse" x1="153.9811" y1="-4.4636" x2="161.9811" y2="521.5364">
		<stop  offset="4.154462e-02" style="stop-color:#FF9900"/>
		<stop  offset="0.8916" style="stop-color:#1DD3E2"/>
		<stop  offset="1" style="stop-color:#00DBFF"/>
	</linearGradient>
	<path style="fill:url(#SVGID_00000147933272315240814010000015785855563337293459_);" d="M53.4,378.8c0.1-4.2-3.3-7.7-7.5-7.8
		c-4.2-0.1-7.7,3.3-7.8,7.5c0,0.1,0,0.2,0,0.3v16.6c0,4.2,3.3,7.6,7.5,7.7s7.6-3.3,7.7-7.5c0-0.1,0-0.1,0-0.2V378.8z M112.5,395.4
		v-16.7c0-4.2-3.4-7.6-7.6-7.6s-7.6,3.4-7.6,7.6v16.7c0,4.2,3.4,7.6,7.6,7.6S112.5,399.6,112.5,395.4z M269.3,413.4
		c-7.3,7.3-19.2,7.3-26.5,0c-3-3-7.8-3-10.8,0c-3,3-3,7.8,0,10.8c0,0,0,0,0,0c6.4,6.4,14.9,10,24,10c9.1,0,17.6-3.5,24-10
		c3-3,3-7.8,0-10.8c0,0,0,0,0,0C277.1,410.4,272.2,410.4,269.3,413.4L269.3,413.4z"/>
	
		<linearGradient id="SVGID_00000052806904086661261140000004025438945812945292_" gradientUnits="userSpaceOnUse" x1="249.3906" y1="-5.9147" x2="257.3906" y2="520.0853">
		<stop  offset="4.154462e-02" style="stop-color:#FF9900"/>
		<stop  offset="0.8916" style="stop-color:#1DD3E2"/>
		<stop  offset="1" style="stop-color:#00DBFF"/>
	</linearGradient>
	<path style="fill:url(#SVGID_00000052806904086661261140000004025438945812945292_);" d="M270.3,279.8c-4.7-0.9-9.5-1.4-14.3-1.4
		c-41.5,0-75.3,33.8-75.3,75.3v46.1c0,20.2,8,38.5,20.9,52c-13.4,14-20.9,32.5-20.9,52.1c0,4.2,3.4,7.6,7.6,7.6c0,0,0,0,0,0h135.5
		c4.2,0,7.6-3.4,7.6-7.6c0,0,0,0,0,0c0-19.5-7.4-37.9-20.9-52c13-13.6,20.9-32.1,20.9-52v-46.1c0-20.1-7.8-39-22.1-53.3
		C298.6,289.8,285.1,282.7,270.3,279.8L270.3,279.8z M196.4,496.4c1.7-13.1,7.6-25.2,16.8-34.6c12.2,8.4,26.9,13.4,42.8,13.4
		c4.8,0,9.6-0.5,14.3-1.4c10.3-2,20-6.1,28.6-12c9.3,9.5,15.1,21.5,16.8,34.5H196.4z M267.4,459c-3.8,0.7-7.6,1.1-11.4,1.1
		c-33.1,0-60.1-27-60.1-60.1v-31c10.5-4.8,20.4-13.7,25.4-24.2c13.9,10.1,43.1,25.1,94.9,26.5v28.6
		C316.1,428.7,295.6,453.5,267.4,459z M316.1,356.1c-69-2-93.1-29.7-93.3-30c-2.6-3.3-7.4-3.8-10.7-1.1c-1.8,1.4-2.8,3.6-2.8,5.9
		c0,6.9-5.6,15-13.3,20.5c1.3-32,27.7-57.7,60.1-57.7c3.8,0,7.7,0.4,11.4,1.1c11.8,2.3,22.5,8,31.1,16.5
		c11.4,11.4,17.6,26.5,17.6,42.5V356.1z"/>
	
		<linearGradient id="SVGID_00000065071730951846655920000007248027991165427892_" gradientUnits="userSpaceOnUse" x1="334.6003" y1="-7.2107" x2="342.6003" y2="518.7894">
		<stop  offset="4.154462e-02" style="stop-color:#FF9900"/>
		<stop  offset="0.8916" style="stop-color:#1DD3E2"/>
		<stop  offset="1" style="stop-color:#00DBFF"/>
	</linearGradient>
	<path style="fill:url(#SVGID_00000065071730951846655920000007248027991165427892_);" d="M234.1,395.4v-16.7c0-4.2-3.4-7.6-7.6-7.6
		s-7.6,3.4-7.6,7.6v16.7c0,4.2,3.4,7.6,7.6,7.6S234.1,399.6,234.1,395.4z M285.5,371.1c-4.2,0-7.6,3.4-7.6,7.6c0,0,0,0,0,0v16.6
		c0,4.2,3.4,7.6,7.6,7.6s7.6-3.4,7.6-7.6v-16.6C293.1,374.6,289.7,371.1,285.5,371.1C285.5,371.1,285.5,371.1,285.5,371.1
		L285.5,371.1z M449.9,413.4c-7.3,7.3-19.2,7.3-26.5,0c-3-3-7.8-3-10.8,0c-3,3-3,7.8,0,10.8c6.4,6.4,14.9,9.9,24,9.9
		c9.1,0,17.6-3.5,24-10c3-3,3-7.8,0-10.8c0,0,0,0,0,0C457.7,410.4,452.9,410.4,449.9,413.4L449.9,413.4z"/>
	
		<linearGradient id="SVGID_00000082343584603246036180000000328334922618589856_" gradientUnits="userSpaceOnUse" x1="430.0089" y1="-8.6617" x2="438.0089" y2="517.3383">
		<stop  offset="4.154462e-02" style="stop-color:#FF9900"/>
		<stop  offset="0.8916" style="stop-color:#1DD3E2"/>
		<stop  offset="1" style="stop-color:#00DBFF"/>
	</linearGradient>
	<path style="fill:url(#SVGID_00000082343584603246036180000000328334922618589856_);" d="M512,353.8c0-20.1-7.8-39-22.1-53.3
		c-10.7-10.7-24.2-17.9-39-20.7c-4.7-0.9-9.5-1.4-14.3-1.4c-41.5,0-75.3,33.8-75.3,75.3v46.1c0,20.2,8,38.5,20.9,52
		c-13.4,14-20.9,32.5-20.9,52.1c0,4.2,3.4,7.6,7.6,7.6c0,0,0,0,0,0h135.5c4.2,0,7.6-3.4,7.6-7.6c0,0,0,0,0,0
		c0-19.5-7.4-37.9-20.9-52c13-13.6,20.9-32.1,20.9-52V353.8z M436.7,293.7c3.8,0,7.7,0.4,11.4,1.1c11.8,2.3,22.5,8,31.1,16.5
		c11.4,11.4,17.6,26.5,17.6,42.5v2.3c-69-2-93.1-29.7-93.3-30c-2-2.5-5.4-3.4-8.5-2.4c-3,1.1-5.1,3.9-5.1,7.2
		c0,6.9-5.6,15-13.3,20.5C377.9,319.4,404.3,293.7,436.7,293.7L436.7,293.7z M377,496.4c1.7-13.1,7.6-25.2,16.8-34.6
		c12.2,8.4,26.9,13.4,42.8,13.4c4.8,0,9.6-0.5,14.3-1.4c10.3-2,20-6.1,28.6-12c9.3,9.5,15.1,21.5,16.8,34.5L377,496.4L377,496.4z
		 M448.1,459c-3.8,0.7-7.6,1.1-11.4,1.1c-33.2,0-60.1-27-60.1-60.1v-31c10.5-4.8,20.4-13.7,25.3-24.2c13.9,10.1,43.1,25.1,94.9,26.5
		v28.6C496.8,428.7,476.3,453.5,448.1,459z"/>
	
		<linearGradient id="SVGID_00000110461067637046425400000017978708397699023232_" gradientUnits="userSpaceOnUse" x1="273.5339" y1="-6.2819" x2="281.5339" y2="519.7181">
		<stop  offset="4.154462e-02" style="stop-color:#FF9900"/>
		<stop  offset="0.8916" style="stop-color:#1DD3E2"/>
		<stop  offset="1" style="stop-color:#00DBFF"/>
	</linearGradient>
	<path style="fill:url(#SVGID_00000110461067637046425400000017978708397699023232_);" d="M414.8,395.4v-16.7c0-4.2-3.4-7.6-7.6-7.6
		s-7.6,3.4-7.6,7.6v16.7c0,4.2,3.4,7.6,7.6,7.6S414.8,399.6,414.8,395.4z M466.2,371.1c-4.2,0-7.6,3.4-7.6,7.6c0,0,0,0,0,0v16.6
		c0,4.2,3.4,7.6,7.6,7.6s7.6-3.4,7.6-7.6v-16.6C473.8,374.6,470.4,371.1,466.2,371.1C466.2,371.1,466.2,371.1,466.2,371.1
		L466.2,371.1z M370.5,67c0,4.2,3.4,7.6,7.6,7.6h46.4c4.2,0,7.6-3.4,7.6-7.6c0-4.2-3.4-7.6-7.6-7.6c0,0,0,0,0,0h-46.4
		C373.9,59.4,370.5,62.8,370.5,67C370.5,67,370.5,67,370.5,67L370.5,67z M378.1,27.8c1.2,0,2.5-0.3,3.6-0.9l23-12.5
		c3.7-2,5-6.6,3-10.3c-2-3.7-6.6-5-10.3-3l-23,12.5c-3.7,2-5,6.6-3,10.3c0,0,0,0,0,0C372.7,26.2,375.3,27.8,378.1,27.8z
		 M374.4,120.6l23,12.5c3.7,2.1,8.3,0.8,10.4-2.9c2.1-3.7,0.8-8.3-2.9-10.4c-0.1,0-0.1-0.1-0.2-0.1l-23-12.5c-3.7-2-8.3-0.7-10.3,3
		C369.4,114,370.7,118.6,374.4,120.6C374.4,120.6,374.4,120.6,374.4,120.6z M87.9,74.6h46.4c4.2,0,7.6-3.4,7.6-7.6
		c0-4.2-3.4-7.6-7.6-7.6H87.9c-4.2,0-7.6,3.4-7.6,7.6c0,0,0,0,0,0C80.3,71.2,83.7,74.6,87.9,74.6L87.9,74.6z M107.7,14.3l23,12.5
		c3.7,2,8.3,0.6,10.3-3.1c2-3.7,0.6-8.2-3-10.2L115,0.9c-3.7-2-8.3-0.7-10.3,3C102.6,7.7,104,12.3,107.7,14.3L107.7,14.3z
		 M130.6,107.3l-23,12.5c-3.7,2-5,6.6-3,10.3c2,3.7,6.6,5,10.3,3c0,0,0,0,0,0l23-12.5c3.7-2,5-6.6,3-10.3c0,0,0,0,0,0
		C139,106.6,134.3,105.2,130.6,107.3C130.7,107.3,130.6,107.3,130.6,107.3L130.6,107.3z M387.5,227.1c0,4.2,3.4,7.6,7.6,7.6
		c0,0,0,0,0,0h33.9v27c0,4.2,3.4,7.6,7.6,7.6s7.6-3.4,7.6-7.6v-34.6c0-4.2-3.4-7.6-7.6-7.6c0,0,0,0,0,0h-41.5
		C390.9,219.5,387.5,222.9,387.5,227.1C387.5,227.1,387.5,227.1,387.5,227.1L387.5,227.1z"/>
	
		<linearGradient id="SVGID_00000086693769436983212550000014635589587399008415_" gradientUnits="userSpaceOnUse" x1="216.2183" y1="-5.4102" x2="224.2183" y2="520.5898">
		<stop  offset="4.154462e-02" style="stop-color:#FF9900"/>
		<stop  offset="0.8916" style="stop-color:#1DD3E2"/>
		<stop  offset="1" style="stop-color:#00DBFF"/>
	</linearGradient>
	<path style="fill:url(#SVGID_00000086693769436983212550000014635589587399008415_);" d="M75.3,269.3c4.2,0,7.6-3.4,7.6-7.6v-27
		h165.4v27c0,4.2,3.4,7.6,7.6,7.6s7.6-3.4,7.6-7.6v-27h101.1c4.2,0,7.6-3.4,7.6-7.6s-3.4-7.6-7.6-7.6H263.6v-19.3h8.2
		c6.5,0,12.7-2.5,17.3-7.2c4.6-4.6,7.2-10.8,7.2-17.3c0-4.1-1-8-2.8-11.4c2.7-1.2,5.2-2.9,7.4-5.1c4.6-4.6,7.2-10.8,7.2-17.3
		c0-5.7-2-10.9-5.2-15.1c16-13.6,25.3-33.4,25.3-54.8c0-16.5-5.7-32.6-16.1-45.4C301.8,14,287.5,5.2,271.8,1.7
		C266.7,0.6,261.4,0,256.2,0c-39.7,0-72,32.3-72,72c0,21.4,9.3,41.2,25.3,54.8c-3.4,4.3-5.2,9.6-5.2,15.1c0,10,6,18.5,14.5,22.4
		c-1.8,3.5-2.8,7.4-2.8,11.4c0,13.5,11,24.5,24.5,24.5h7.9v19.3h-173c-4.2,0-7.6,3.4-7.6,7.6c0,0,0,0,0,0v34.6
		C67.7,265.9,71.1,269.3,75.3,269.3L75.3,269.3z M228.8,151.2c-5.1,0-9.3-4.2-9.3-9.3c0-2.5,1-4.8,2.7-6.6c1.7-1.7,4.1-2.7,6.6-2.7
		h54.8c5.1,0,9.3,4.2,9.3,9.3c0,2.5-1,4.8-2.7,6.6c-1.7,1.7-4.1,2.7-6.5,2.7L228.8,151.2z M199.4,72c0-31.3,25.5-56.7,56.7-56.7
		c4.1,0,8.3,0.4,12.3,1.3c25.8,5.7,44.4,29,44.4,55.4c0,18.5-8.8,35.5-23.7,46.1c-1.9-0.4-3.8-0.7-5.7-0.7h-19.8v-16.8
		c10.8-3.3,18.8-13.3,18.8-25.2c0.1-4.2-3.3-7.7-7.5-7.8c-4.2-0.1-7.7,3.3-7.8,7.5c0,0.1,0,0.2,0,0.3c0,6.1-5,11.1-11.1,11.1
		c-6.1,0-11.1-5-11.1-11.1c0-4.2-3.4-7.6-7.6-7.6c0,0,0,0,0,0c-4.2,0-7.6,3.4-7.6,7.6c0,0,0,0,0,0c0,11.9,7.9,22,18.8,25.2v16.8
		h-19.8c-1.9,0-3.9,0.2-5.7,0.7C208.2,107.4,199.4,90.4,199.4,72L199.4,72z M231.2,175.6c0-2.5,1-4.8,2.7-6.6s4.1-2.7,6.6-2.7h31.3
		c5.1,0,9.3,4.2,9.3,9.3c0,2.5-1,4.8-2.7,6.6c-1.7,1.7-4.1,2.7-6.6,2.7h-31.3C235.4,184.9,231.2,180.7,231.2,175.6L231.2,175.6z"/>
</g>
</svg>
