<?xml version="1.0" encoding="utf-8"?>
<!-- Generator: Adobe Illustrator 26.0.1, SVG Export Plug-In . SVG Version: 6.00 Build 0)  -->
<svg version="1.1" id="Layer_1" xmlns="http://www.w3.org/2000/svg" xmlns:xlink="http://www.w3.org/1999/xlink" x="0px" y="0px"
	 viewBox="0 0 512 512" style="enable-background:new 0 0 512 512;" xml:space="preserve">
<style type="text/css">
	.st0{fill:none;stroke:url(#SVGID_1_);stroke-width:15;stroke-linecap:round;stroke-linejoin:round;stroke-miterlimit:10;}
	
		.st1{fill:none;stroke:url(#SVGID_00000013193381298537668570000012038251342970414516_);stroke-width:15;stroke-linecap:round;stroke-linejoin:round;stroke-miterlimit:10;}
	
		.st2{fill:none;stroke:url(#SVGID_00000116941746522112477940000002709869118014945198_);stroke-width:15;stroke-linecap:round;stroke-linejoin:round;stroke-miterlimit:10;}
	
		.st3{fill:none;stroke:url(#SVGID_00000147197249117692053890000016244553035013047204_);stroke-width:15;stroke-linecap:round;stroke-linejoin:round;stroke-miterlimit:10;}
	
		.st4{fill:none;stroke:url(#SVGID_00000100361018144727648600000016953016375368663939_);stroke-width:15;stroke-linecap:round;stroke-linejoin:round;stroke-miterlimit:10;}
	
		.st5{fill:none;stroke:url(#SVGID_00000111191628923701254910000013705775522908742808_);stroke-width:15;stroke-linecap:round;stroke-linejoin:round;stroke-miterlimit:10;}
	
		.st6{fill:none;stroke:url(#SVGID_00000031908417370884769900000000704114199596048005_);stroke-width:15;stroke-linecap:round;stroke-linejoin:round;stroke-miterlimit:10;}
	
		.st7{fill:none;stroke:url(#SVGID_00000004511123962436098630000002074226298579638422_);stroke-width:15;stroke-linecap:round;stroke-linejoin:round;stroke-miterlimit:10;}
</style>
<g>
	<linearGradient id="SVGID_1_" gradientUnits="userSpaceOnUse" x1="-9.536743e-07" y1="343.1445" x2="109.641" y2="343.1445">
		<stop  offset="4.154462e-02" style="stop-color:#FF9900"/>
		<stop  offset="0.8916" style="stop-color:#1DD3E2"/>
		<stop  offset="1" style="stop-color:#00DBFF"/>
	</linearGradient>
	<path class="st0" d="M46.3,309.8v-99.7c0-15.6-12.7-28.3-28.3-28.3l0,0c-5.8,0-10.5,4.7-10.5,10.5v135.8c0,7.1,2.4,14.1,6.9,19.6
		l81.8,102.7c3.8,4.8,5.9,10.8,5.9,16.9v37.1"/>
	
		<linearGradient id="SVGID_00000183929350405761041900000009790467700495891092_" gradientUnits="userSpaceOnUse" x1="38.85" y1="343.145" x2="512" y2="343.145">
		<stop  offset="4.154462e-02" style="stop-color:#FF9900"/>
		<stop  offset="0.8916" style="stop-color:#1DD3E2"/>
		<stop  offset="1" style="stop-color:#00DBFF"/>
	</linearGradient>
	
		<path style="fill:none;stroke:url(#SVGID_00000183929350405761041900000009790467700495891092_);stroke-width:15;stroke-linecap:round;stroke-linejoin:round;stroke-miterlimit:10;" d="
		M109,386.1l-57.2-62.3c-3.6-3.9-5.4-8.8-5.4-13.8v-0.2c0.1-5.2,2.1-10.3,6-14.2c7.9-7.8,20.7-7.8,28.6,0l46.4,46 M152.3,366.3
		l10.2,10.1c12.6,12.5,19.6,29.4,19.6,47.1v80.9 M409.9,504.5v-37.1c0-6.1,2.1-12.1,5.9-16.9l29.2-36.6 M465.6,309.8v-99.7
		c0-15.6,12.7-28.3,28.3-28.3c2.9,0,5.5,1.2,7.5,3.1c2,2,3.1,4.7,3.1,7.4v135.8c0,7.1-2.5,14.1-6.9,19.6l-30.8,38.7"/>
	
		<linearGradient id="SVGID_00000081633297125536189380000016177169243288582057_" gradientUnits="userSpaceOnUse" x1="229.484" y1="265.1665" x2="473.1514" y2="265.1665">
		<stop  offset="4.154462e-02" style="stop-color:#FF9900"/>
		<stop  offset="0.8916" style="stop-color:#1DD3E2"/>
		<stop  offset="1" style="stop-color:#00DBFF"/>
	</linearGradient>
	
		<path style="fill:none;stroke:url(#SVGID_00000081633297125536189380000016177169243288582057_);stroke-width:15;stroke-linecap:round;stroke-linejoin:round;stroke-miterlimit:10;" d="
		M329.8,504.5v-80.9c0-17.7,7.1-34.7,19.6-47.1l81.5-80.8c7.9-7.8,20.7-7.9,28.6,0l0,0c7.8,7.7,8.1,20.2,0.7,28.2L403,386.1
		 M261.6,25.8c75.6,2.5,138.4,55.3,156.1,126 M269.9,162.3c-1-1-8.3-8.2-19.7-4.8c-11.3,3.4-14.7,16.9-6.8,26.1
		c4.1,4.7,11,6.3,19.9,9.4c19.9,7,12.6,35.2-7.7,35.3c-7.9,0.1-11.6-0.4-18.6-5 M256,229.5v11.6 M256,143.8v11.6"/>
	
		<linearGradient id="SVGID_00000106141708828289570950000017209803581575547790_" gradientUnits="userSpaceOnUse" x1="163.37" y1="192.46" x2="348.63" y2="192.46">
		<stop  offset="4.154462e-02" style="stop-color:#FF9900"/>
		<stop  offset="0.8916" style="stop-color:#1DD3E2"/>
		<stop  offset="1" style="stop-color:#00DBFF"/>
	</linearGradient>
	
		<path style="fill:none;stroke:url(#SVGID_00000106141708828289570950000017209803581575547790_);stroke-width:15;stroke-linecap:round;stroke-linejoin:round;stroke-miterlimit:10;" d="
		M315.4,253.5c15.9-15.5,25.8-37.1,25.8-61c0-47-38.1-85.1-85.1-85.1s-85.1,38.1-85.1,85.1c0,47,38.1,85.1,85.1,85.1
		c10.5,0,20.5-1.9,29.8-5.4"/>
	
		<linearGradient id="SVGID_00000074444054221814732500000018034793291433466766_" gradientUnits="userSpaceOnUse" x1="81.87" y1="161.66" x2="386.86" y2="161.66">
		<stop  offset="4.154462e-02" style="stop-color:#FF9900"/>
		<stop  offset="0.8916" style="stop-color:#1DD3E2"/>
		<stop  offset="1" style="stop-color:#00DBFF"/>
	</linearGradient>
	
		<path style="fill:none;stroke:url(#SVGID_00000074444054221814732500000018034793291433466766_);stroke-width:15;stroke-linecap:round;stroke-linejoin:round;stroke-miterlimit:10;" d="
		M209.2,78.3c14.4-5.9,30.2-9.2,46.8-9.2c68.1,0,123.4,55.2,123.4,123.3c0,68.1-55.2,123.4-123.4,123.4s-123.4-55.2-123.4-123.4
		c0-39,18.1-73.8,46.4-96.4 M256,104.5V71.2 M179.8,148.5L151,131.8 M179.8,236.4L151,253.1 M256,280.4v33.3 M332.2,236.4l28.8,16.6
		 M332.2,148.5l28.8-16.6 M275,44l-19-18.8l19-17.7 M89.4,186.8c2.5-75.6,55.3-138.4,126-156.1"/>
	
		<linearGradient id="SVGID_00000127760345114803176250000014680333094290334378_" gradientUnits="userSpaceOnUse" x1="63.537" y1="266.2705" x2="257.859" y2="266.2705">
		<stop  offset="4.154462e-02" style="stop-color:#FF9900"/>
		<stop  offset="0.8916" style="stop-color:#1DD3E2"/>
		<stop  offset="1" style="stop-color:#00DBFF"/>
	</linearGradient>
	
		<path style="fill:none;stroke:url(#SVGID_00000127760345114803176250000014680333094290334378_);stroke-width:15;stroke-linecap:round;stroke-linejoin:round;stroke-miterlimit:10;" d="
		M107.5,173.4l-18.8,19l-17.7-19 M250.4,359.1c-75.6-2.5-138.4-55.3-156.1-126"/>
	
		<linearGradient id="SVGID_00000003076987578068173940000013017186522588614563_" gradientUnits="userSpaceOnUse" x1="229.485" y1="287.7655" x2="430.13" y2="287.7655">
		<stop  offset="4.154462e-02" style="stop-color:#FF9900"/>
		<stop  offset="0.8916" style="stop-color:#1DD3E2"/>
		<stop  offset="1" style="stop-color:#00DBFF"/>
	</linearGradient>
	
		<path style="fill:none;stroke:url(#SVGID_00000003076987578068173940000013017186522588614563_);stroke-width:15;stroke-linecap:round;stroke-linejoin:round;stroke-miterlimit:10;" d="
		M237,340.9l19,18.8l-19,17.7 M422.6,198.1c-2.5,75.6-55.3,138.4-126,156.1"/>
	
		<linearGradient id="SVGID_00000098200935363097599400000002295529493479247278_" gradientUnits="userSpaceOnUse" x1="396.984" y1="201.9705" x2="448.463" y2="201.9705">
		<stop  offset="4.154462e-02" style="stop-color:#FF9900"/>
		<stop  offset="0.8916" style="stop-color:#1DD3E2"/>
		<stop  offset="1" style="stop-color:#00DBFF"/>
	</linearGradient>
	
		<path style="fill:none;stroke:url(#SVGID_00000098200935363097599400000002295529493479247278_);stroke-width:15;stroke-linecap:round;stroke-linejoin:round;stroke-miterlimit:10;" d="
		M404.5,211.5l18.8-19l17.7,19"/>
</g>
</svg>
