<?xml version="1.0" encoding="utf-8"?>
<!-- Generator: Adobe Illustrator 26.0.1, SVG Export Plug-In . SVG Version: 6.00 Build 0)  -->
<svg version="1.1" id="Layer_1" xmlns="http://www.w3.org/2000/svg" xmlns:xlink="http://www.w3.org/1999/xlink" x="0px" y="0px"
	 viewBox="0 0 512 512" style="enable-background:new 0 0 512 512;" xml:space="preserve">
<style type="text/css">
	.st0{fill:url(#SVGID_1_);}
	.st1{fill:url(#SVGID_00000117672037060306066790000013471942418023576223_);}
	.st2{fill:url(#SVGID_00000044170466712796378330000001862880855829021598_);}
</style>
<g>
	<linearGradient id="SVGID_1_" gradientUnits="userSpaceOnUse" x1="263.7457" y1="0.3954" x2="253.7457" y2="550.3954">
		<stop  offset="4.154462e-02" style="stop-color:#FF9900"/>
		<stop  offset="0.8916" style="stop-color:#1DD3E2"/>
		<stop  offset="1" style="stop-color:#00DBFF"/>
	</linearGradient>
	<path class="st0" d="M400,284.3c-38.3-38-90.1-59.3-144-59.2C145.8,223,48.7,320,51,430.2c0,4.4,3.6,8,8,8c25.3,0,136.2,0,163.8,0
		c9.4,55.2,89.2,55.2,98.6,0c26.6,0,106.2,0,131.7,0c4.4,0,8-3.6,8-8C461.2,375.3,439.2,322.7,400,284.3L400,284.3z M307.3,394.5
		l-81.4-80.8c-5.1-4.9-13.3-4.8-18.2,0.4c-2.8,2.9-4,6.9-3.5,10.8l15.9,97.4H106.4c4.4-82.6,74.9-146.1,157.5-141.7
		c76.5,4,137.7,65.2,141.7,141.7h-84.2C319.8,411.7,314.8,402,307.3,394.5L307.3,394.5z M248,264.6c-37.8,1.8-73.8,16.5-102.1,41.7
		L129.6,290c32.5-29.5,74.4-46.7,118.4-48.4V264.6z M366.1,306.2c-28.2-25.2-64.3-39.9-102.1-41.7v-23
		c43.9,1.7,85.8,18.9,118.4,48.4L366.1,306.2z M118.2,301.2l16.3,16.3c-26.6,28.6-42.3,65.7-44.1,104.8H67.1
		C69,377,87.1,334,118.2,301.2L118.2,301.2z M305.6,435.2c-5.7,37.8-61.1,38-67.1,0.3l-16.9-103.6l74.4,74
		C303.8,413.5,307.4,424.4,305.6,435.2z M421.6,422.2c-1.8-39-17.5-76.2-44.1-104.8l16.3-16.3c31.1,32.8,49.2,75.8,51.1,121H421.6z"
		/>
	
		<linearGradient id="SVGID_00000124132921489060356570000008685862944782328216_" gradientUnits="userSpaceOnUse" x1="356.0645" y1="2.0739" x2="346.0645" y2="552.0739">
		<stop  offset="4.154462e-02" style="stop-color:#FF9900"/>
		<stop  offset="0.8916" style="stop-color:#1DD3E2"/>
		<stop  offset="1" style="stop-color:#00DBFF"/>
	</linearGradient>
	<path style="fill:url(#SVGID_00000124132921489060356570000008685862944782328216_);" d="M271.2,402.4c-14.3,0-25.8,11.6-25.8,25.8
		c0,14.3,11.6,25.8,25.8,25.8s25.8-11.6,25.8-25.8S285.4,402.4,271.2,402.4L271.2,402.4z M271.2,438.1c-5.4,0-9.8-4.4-9.8-9.8
		s4.4-9.8,9.8-9.8s9.8,4.4,9.8,9.8S276.6,438.1,271.2,438.1z M366.5,212.8c49.9-0.1,90.3-40.5,90.4-90.4
		c-5-119.9-175.9-119.9-180.8,0C276.1,172.3,316.6,212.7,366.5,212.8L366.5,212.8z M366.5,48c41.1,0,74.4,33.3,74.4,74.4
		c-4,98.7-144.8,98.6-148.8,0C292.1,81.3,325.4,48,366.5,48L366.5,48z"/>
	
		<linearGradient id="SVGID_00000109030069720122019350000001479445867294617473_" gradientUnits="userSpaceOnUse" x1="368.6441" y1="2.3026" x2="358.6441" y2="552.3026">
		<stop  offset="4.154462e-02" style="stop-color:#FF9900"/>
		<stop  offset="0.8916" style="stop-color:#1DD3E2"/>
		<stop  offset="1" style="stop-color:#00DBFF"/>
	</linearGradient>
	<path style="fill:url(#SVGID_00000109030069720122019350000001479445867294617473_);" d="M366.4,153.4c-6.4,0-11.5-5.2-11.5-11.5
		c0,0,0,0,0,0c0-4.4-3.6-8-8-8c-4.4,0-8,3.6-8,8c0,12.1,8,22.7,19.5,26.2V179c0,4.4,3.6,8,8,8s8-3.6,8-8v-10.9
		c14.5-4.4,22.7-19.7,18.3-34.2c-3.5-11.6-14.2-19.5-26.3-19.5c-6.4,0-11.5-5.2-11.5-11.5c0-6.4,5.2-11.5,11.5-11.5
		c6.3,0,11.5,5.2,11.5,11.5c0,4.4,3.6,8,8,8s8-3.6,8-8c0-12.1-8-22.7-19.5-26.2V65.8c0-4.4-3.6-8-8-8c-10.3,0.4-7.7,12-8,18.9
		c-14.5,4.4-22.7,19.7-18.3,34.2c3.5,11.6,14.2,19.5,26.4,19.5c6.4,0.2,11.3,5.6,11.1,12C377.3,148.4,372.5,153.2,366.4,153.4
		L366.4,153.4z"/>
</g>
</svg>
