<?xml version="1.0" encoding="utf-8"?>
<!-- Generator: Adobe Illustrator 26.0.1, SVG Export Plug-In . SVG Version: 6.00 Build 0)  -->
<svg version="1.1" id="Layer_1" xmlns="http://www.w3.org/2000/svg" xmlns:xlink="http://www.w3.org/1999/xlink" x="0px" y="0px"
	 viewBox="0 0 512 512" style="enable-background:new 0 0 512 512;" xml:space="preserve">
<style type="text/css">
	.st0{fill:none;stroke:url(#SVGID_1_);stroke-width:30;stroke-linecap:round;stroke-linejoin:round;stroke-miterlimit:10;}
	
		.st1{fill:none;stroke:url(#SVGID_00000150796938287632208900000012669731490198309299_);stroke-width:30;stroke-linecap:round;stroke-linejoin:round;stroke-miterlimit:10;}
	
		.st2{fill:none;stroke:url(#SVGID_00000013907508121424834810000018186770669659644577_);stroke-width:30;stroke-linecap:round;stroke-linejoin:round;stroke-miterlimit:10;}
</style>
<g>
	<linearGradient id="SVGID_1_" gradientUnits="userSpaceOnUse" x1="0" y1="256" x2="512.001" y2="256">
		<stop  offset="4.154462e-02" style="stop-color:#FF9900"/>
		<stop  offset="0.8916" style="stop-color:#1DD3E2"/>
		<stop  offset="1" style="stop-color:#00DBFF"/>
	</linearGradient>
	<path class="st0" d="M372.8,46L426,65.3l0,0l-19.3,53.2 M139.2,46L86,65.3l0,0l19.3,53.2 M396,246v10c0,77.3-62.7,140-140,140
		s-140-62.7-140-140v-10H15v60.2l22,1.8c32.5,2.7,48.4,41,27.3,66l-14.3,16.9l71,71l16.9-14.3c24.9-21.1,63.3-5.2,66,27.3l1.8,22
		h100.4l1.8-22c2.7-32.5,41-48.4,66-27.3l16.9,14.3l71-71L447.6,374c-21.1-24.9-5.2-63.3,27.3-66l22-1.8V246H396z M256,206V15
		 M216,55l40-40l0,0l40,40"/>
	
		<linearGradient id="SVGID_00000117672683403490007530000006224093385025755019_" gradientUnits="userSpaceOnUse" x1="71" y1="135.682" x2="441" y2="135.682">
		<stop  offset="4.154462e-02" style="stop-color:#FF9900"/>
		<stop  offset="0.8916" style="stop-color:#1DD3E2"/>
		<stop  offset="1" style="stop-color:#00DBFF"/>
	</linearGradient>
	
		<path style="fill:none;stroke:url(#SVGID_00000117672683403490007530000006224093385025755019_);stroke-width:30;stroke-linecap:round;stroke-linejoin:round;stroke-miterlimit:10;" d="
		M256.2,206c0.9-37.9,23.1-72.2,57.6-88.3L426,65.3 M255.8,206c-0.9-37.9-23.1-72.2-57.6-88.3L86,65.3"/>
	
		<linearGradient id="SVGID_00000018956520876850604890000015630288192019126150_" gradientUnits="userSpaceOnUse" x1="191" y1="256" x2="321" y2="256">
		<stop  offset="4.154462e-02" style="stop-color:#FF9900"/>
		<stop  offset="0.8916" style="stop-color:#1DD3E2"/>
		<stop  offset="1" style="stop-color:#00DBFF"/>
	</linearGradient>
	
		<circle style="fill:none;stroke:url(#SVGID_00000018956520876850604890000015630288192019126150_);stroke-width:30;stroke-linecap:round;stroke-linejoin:round;stroke-miterlimit:10;" cx="256" cy="256" r="50"/>
</g>
</svg>
