<?xml version="1.0" encoding="UTF-8"?>
<svg id="Layer_2" data-name="Layer 2" xmlns="http://www.w3.org/2000/svg" viewBox="0 0 335.19 379.85">
  <defs>
    <style>
      .cls-1 {
        fill: #e04023;
      }
    </style>
  </defs>
  <g id="Layer_1-2" data-name="Layer 1">
    <path class="cls-1" d="m323.56,86.44l-41.19-23.78L179.26,3.12c-7.22-4.16-16.1-4.16-23.29,0L11.63,86.44c-7.19,4.16-11.63,11.84-11.63,20.15l.04,166.64c0,8.31,4.44,15.99,11.66,20.15l144.27,83.32c7.19,4.19,16.07,4.19,23.29,0l144.31-83.29c7.19-4.19,11.63-11.87,11.63-20.19V106.59c0-8.31-4.44-15.99-11.63-20.15Zm-41.26,169.71l-114.71,66.2-61.73-35.65,22.69-13.11c24.17-13.92,39.04-39.67,39.04-67.57v-16.03l-114.61,66.16h-.04V123.71l114.64-66.23,61.83,35.72-22.79,13.14c-24.13,13.95-39.04,39.71-39.04,67.61v16.03l114.71-66.2v132.36Z"/>
  </g>
</svg>