<?xml version="1.0" encoding="utf-8"?>
<!-- Generator: Adobe Illustrator 26.0.1, SVG Export Plug-In . SVG Version: 6.00 Build 0)  -->
<svg version="1.1" id="Layer_1" xmlns="http://www.w3.org/2000/svg" xmlns:xlink="http://www.w3.org/1999/xlink" x="0px" y="0px"
	 viewBox="0 0 512 512" style="enable-background:new 0 0 512 512;" xml:space="preserve">
<style type="text/css">
	.st0{fill:url(#SVGID_1_);}
	.st1{fill:url(#SVGID_00000017518470453228824970000005716233845496653480_);}
	.st2{fill:url(#SVGID_00000139982860210331020560000000770682781241577139_);}
</style>
<g>
	<linearGradient id="SVGID_1_" gradientUnits="userSpaceOnUse" x1="149.3841" y1="-34.9262" x2="162.3841" y2="602.0738">
		<stop  offset="4.154462e-02" style="stop-color:#FF9900"/>
		<stop  offset="0.8916" style="stop-color:#1DD3E2"/>
		<stop  offset="1" style="stop-color:#00DBFF"/>
	</linearGradient>
	<path class="st0" d="M232.1,265.3l33.1-33.1c2.7-2.7,2.7-7.2,0-9.9c0,0,0,0,0,0l-17.6-17.6c3.6-6.6,6.5-13.7,8.7-20.9h24.9
		c3.9,0,7-3.1,7-7v-46.8c0-3.9-3.1-7-7-7h-24.9c-2.1-7.3-5.1-14.3-8.7-20.9l17.6-17.6c2.7-2.7,2.7-7.2,0-9.9c0,0,0,0,0,0l-33.1-33.1
		c-2.7-2.7-7.2-2.7-9.9,0c0,0,0,0,0,0l-17.6,17.6c-6.7-3.6-13.7-6.6-20.9-8.7V25.2c0-3.9-3.1-7-7-7c0,0,0,0,0,0h-46.9
		c-3.9,0-7,3.1-7,7c0,0,0,0,0,0v24.9c-7.3,2.1-14.3,5.1-20.9,8.7L84.2,41.2c-2.7-2.7-7.2-2.7-9.9,0c0,0,0,0,0,0L41.2,74.3
		c-2.7,2.7-2.7,7.2,0,9.9c0,0,0,0,0,0l17.6,17.6c-3.6,6.6-6.5,13.7-8.7,20.9H25.2c-3.9,0-7,3.1-7,7c0,0,0,0,0,0v46.8
		c0,3.9,3.1,7,7,7c0,0,0,0,0,0h24.9c2.1,7.3,5.1,14.3,8.7,20.9l-17.6,17.6c-2.7,2.7-2.7,7.2,0,9.9c0,0,0,0,0,0l33.1,33.1
		c2.7,2.7,7.2,2.7,9.9,0l17.6-17.6c6.7,3.6,13.7,6.6,21,8.7v24.9c0,3.9,3.1,7,7,7h46.9c3.9,0,7-3.1,7-7v-24.9
		c7.3-2.1,14.3-5.1,20.9-8.7l17.6,17.6C225,268,229.4,268,232.1,265.3L232.1,265.3z M210.7,233.9c-2.3-2.3-5.9-2.7-8.6-1
		c-8.4,5.1-17.5,8.9-27,11.2c-3.1,0.8-5.4,3.6-5.4,6.8v23.3h-32.9V251c0-3.2-2.2-6.1-5.4-6.8c-9.5-2.3-18.7-6.1-27-11.2
		c-2.8-1.7-6.3-1.3-8.6,1l-16.5,16.5l-23.2-23.2l16.5-16.5c2.3-2.3,2.7-5.9,1-8.6c-5.2-8.4-9-17.5-11.2-27c-0.7-3.2-3.6-5.4-6.8-5.4
		H32.2v-32.8h23.3c3.2,0,6-2.2,6.8-5.4c2.3-9.5,6.1-18.7,11.2-27c1.7-2.8,1.3-6.3-1-8.6L56.1,79.3l23.2-23.2l16.5,16.5
		c2.3,2.3,5.9,2.7,8.6,1c8.4-5.1,17.5-8.9,27-11.2c3.1-0.8,5.4-3.6,5.4-6.8V32.2h32.9v23.3c0,3.2,2.2,6.1,5.4,6.8
		c9.6,2.3,18.7,6.1,27,11.2c2.8,1.7,6.3,1.3,8.6-1L227.2,56l23.2,23.2l-16.5,16.5c-2.3,2.3-2.7,5.9-1,8.6c5.2,8.4,9,17.5,11.2,27
		c0.7,3.2,3.6,5.4,6.8,5.4h23.3v32.8h-23.3c-3.2,0-6,2.2-6.8,5.4c-2.3,9.5-6.1,18.7-11.2,27c-1.7,2.8-1.3,6.3,1,8.6l16.5,16.5
		l-23.2,23.2L210.7,233.9z"/>
	
		<linearGradient id="SVGID_00000172423909914471465370000011764230002918374789_" gradientUnits="userSpaceOnUse" x1="287.4406" y1="-37.7437" x2="300.4406" y2="599.2563">
		<stop  offset="4.154462e-02" style="stop-color:#FF9900"/>
		<stop  offset="0.8916" style="stop-color:#1DD3E2"/>
		<stop  offset="1" style="stop-color:#00DBFF"/>
	</linearGradient>
	<path style="fill:url(#SVGID_00000172423909914471465370000011764230002918374789_);" d="M153.2,92.6c-33.5,0-60.6,27.1-60.6,60.6
		s27.1,60.6,60.6,60.6s60.6-27.1,60.6-60.6C213.8,119.8,186.7,92.7,153.2,92.6z M153.2,199.8c-25.7,0-46.6-20.9-46.6-46.6
		c0-25.7,20.9-46.6,46.6-46.6c25.7,0,46.6,20.9,46.6,46.6C199.8,178.9,178.9,199.8,153.2,199.8L153.2,199.8z M486.8,328.3h-24.9
		c-2.1-7.3-5.1-14.3-8.7-20.9l17.6-17.6c2.7-2.7,2.7-7.2,0-9.9c0,0,0,0,0,0l-33.1-33.1c-2.7-2.7-7.2-2.7-9.9,0c0,0,0,0,0,0
		l-17.6,17.6c-6.6-3.6-13.7-6.6-20.9-8.7v-24.9c0-3.9-3.1-7-7-7h-46.9c-3.9,0-7,3.1-7,7v24.9c-7.3,2.1-14.3,5.1-20.9,8.7l-17.6-17.6
		c-2.7-2.7-7.2-2.7-9.9,0c0,0,0,0,0,0l-33.1,33.1c-2.7,2.7-2.7,7.2,0,9.9l17.7,17.6c-3.6,6.6-6.5,13.7-8.7,20.9h-25
		c-3.9,0-7,3.1-7,7v46.8c0,3.9,3.1,7,7,7l0,0h24.9c2.1,7.3,5.1,14.3,8.7,20.9l-17.6,17.6c-2.7,2.7-2.7,7.2,0,9.9l33.1,33.1
		c2.7,2.7,7.2,2.7,9.9,0c0,0,0,0,0,0l17.6-17.6c6.6,3.6,13.7,6.6,20.9,8.7v24.9c0,3.9,3.1,7,7,7c0,0,0,0,0,0h46.8c3.9,0,7-3.1,7-7
		c0,0,0,0,0,0v-24.9c7.3-2.1,14.3-5.1,20.9-8.7l17.6,17.6c2.7,2.7,7.2,2.7,9.9,0c0,0,0,0,0,0l33.1-33.1c2.7-2.7,2.7-7.2,0-9.9
		c0,0,0,0,0,0l-17.6-17.6c3.6-6.6,6.5-13.7,8.7-20.9h24.9c3.9,0,7-3.1,7-7c0,0,0,0,0,0v-46.9C493.8,331.5,490.6,328.4,486.8,328.3
		C486.8,328.3,486.8,328.3,486.8,328.3L486.8,328.3z M479.8,375.2h-23.3c-3.2,0-6,2.2-6.8,5.4c-2.3,9.5-6.1,18.7-11.2,27
		c-1.7,2.8-1.3,6.3,1,8.6l16.5,16.5l-23.2,23.2l-16.5-16.5c-2.3-2.3-5.9-2.7-8.6-1c-8.4,5.1-17.5,8.9-27,11.2
		c-3.1,0.8-5.4,3.6-5.4,6.8v23.3h-32.9v-23.3c0-3.2-2.2-6.1-5.4-6.8c-9.6-2.3-18.7-6.1-27-11.2c-2.8-1.7-6.3-1.3-8.6,1l-16.5,16.5
		l-23.2-23.2l16.5-16.5c2.3-2.3,2.7-5.9,1-8.6c-5.2-8.4-9-17.5-11.2-27c-0.7-3.2-3.6-5.4-6.8-5.4h-23.3v-32.8h23.3
		c3.2,0,6-2.2,6.8-5.4c2.3-9.5,6.1-18.7,11.2-27c1.7-2.8,1.3-6.3-1-8.6l-16.5-16.5l23.2-23.2l16.5,16.5c2.3,2.3,5.9,2.7,8.6,1
		c8.4-5.1,17.5-8.9,27-11.2c3.1-0.8,5.4-3.6,5.4-6.8v-23.3h32.9v23.3c0,3.2,2.2,6.1,5.4,6.8c9.6,2.3,18.7,6.1,27,11.2
		c2.8,1.7,6.3,1.3,8.6-1l16.5-16.5l23.2,23.2l-16.5,16.5c-2.3,2.3-2.7,5.9-1,8.6c5.2,8.4,9,17.5,11.2,27c0.7,3.2,3.6,5.4,6.8,5.4
		h23.3L479.8,375.2z"/>
	
		<linearGradient id="SVGID_00000034805283114027103910000015709648548316957847_" gradientUnits="userSpaceOnUse" x1="250.0308" y1="-36.9802" x2="263.0308" y2="600.0198">
		<stop  offset="4.154462e-02" style="stop-color:#FF9900"/>
		<stop  offset="0.8916" style="stop-color:#1DD3E2"/>
		<stop  offset="1" style="stop-color:#00DBFF"/>
	</linearGradient>
	<path style="fill:url(#SVGID_00000034805283114027103910000015709648548316957847_);" d="M358.8,298.2c-33.5,0-60.6,27.1-60.6,60.6
		s27.1,60.6,60.6,60.6s60.6-27.1,60.6-60.6C419.3,325.3,392.2,298.2,358.8,298.2z M358.8,405.4c-25.7,0-46.6-20.9-46.6-46.6
		c0-25.7,20.9-46.6,46.6-46.6c25.7,0,46.6,20.9,46.6,46.6C405.3,384.5,384.5,405.3,358.8,405.4L358.8,405.4z M306.8,83.4
		c40.7,12,75.8,37.9,99.2,73.3c-12.6,11.4-13.6,30.9-2.2,43.5s30.9,13.6,43.5,2.2s13.6-30.9,2.2-43.5c-7.9-8.7-20-12.2-31.2-9
		C393.1,111.4,355,83,310.8,70c-3.7-1.2-7.6,0.9-8.8,4.6c-1.2,3.7,0.9,7.6,4.6,8.8C306.7,83.4,306.8,83.4,306.8,83.4L306.8,83.4z
		 M443.2,179.5c0,9.2-7.5,16.7-16.7,16.7c-9.2,0-16.7-7.5-16.7-16.7c0-9.2,7.5-16.7,16.7-16.7l0,0
		C435.7,162.8,443.2,170.3,443.2,179.5z M205.2,428.6c-40.7-12-75.8-38-99.1-73.3c12.6-11.4,13.6-30.9,2.2-43.5s-30.9-13.6-43.5-2.2
		c-12.6,11.4-13.6,30.9-2.2,43.5c7.9,8.7,20,12.2,31.2,9c25.2,38.6,63.3,66.9,107.5,80c0.6,0.2,1.3,0.3,2,0.3c3.9,0,7-3.1,7-7
		C210.2,432.2,208.1,429.5,205.2,428.6L205.2,428.6z M68.8,332.5c0-9.2,7.5-16.7,16.7-16.7s16.7,7.5,16.7,16.7
		c0,9.2-7.5,16.7-16.7,16.7C76.3,349.2,68.8,341.7,68.8,332.5L68.8,332.5z"/>
</g>
</svg>
