<svg xmlns="http://www.w3.org/2000/svg" viewBox="0 0 341.53 66.37"><defs><style>.cls-1{fill:#165dfb;}</style></defs><g id="Layer_2" data-name="Layer 2"><g id="Layer_1-2" data-name="Layer 1"><path class="cls-1" d="M335.57,57.78a13.17,13.17,0,0,0,3-.32,25,25,0,0,0,2.95-.83v7.95a22.59,22.59,0,0,1-4,1.28,24.3,24.3,0,0,1-5.32.51,15.46,15.46,0,0,1-5.83-1,8.33,8.33,0,0,1-4-3.65A15.21,15.21,0,0,1,321,54.45V38.63h-4.49v-8h5.38V23.25h9.87v7.3h9.36v8.08h-9.36V54.07a3.66,3.66,0,0,0,1,2.82A4.06,4.06,0,0,0,335.57,57.78Z"/><path class="cls-1" d="M312.51,55.09a10.24,10.24,0,0,1-3.65,8.27q-3.58,3-11.28,3a41.91,41.91,0,0,1-6.53-.45,25.32,25.32,0,0,1-5.57-1.6V55.6a33.08,33.08,0,0,0,6.4,2.18,28.05,28.05,0,0,0,5.64.71,7.33,7.33,0,0,0,3.52-.64,2,2,0,0,0,1.09-1.8,2.16,2.16,0,0,0-.57-1.47,6.22,6.22,0,0,0-2.18-1.41c-1.07-.56-2.67-1.28-4.81-2.18a30.75,30.75,0,0,1-5.19-2.75,9.72,9.72,0,0,1-3-3.34,11.25,11.25,0,0,1-1-4.93,8.35,8.35,0,0,1,3.85-7.5q3.9-2.55,10.31-2.56a28.11,28.11,0,0,1,6.41.71,32.69,32.69,0,0,1,6.21,2.17l-3.07,7.31A39,39,0,0,0,304,38.24a16,16,0,0,0-4.42-.7q-3.72,0-3.72,1.92a2.12,2.12,0,0,0,.52,1.34,7.51,7.51,0,0,0,2.11,1.28c1.07.47,2.61,1.14,4.61,2a28.41,28.41,0,0,1,5.13,2.63,9.08,9.08,0,0,1,3.2,3.33A10.39,10.39,0,0,1,312.51,55.09Z"/><path class="cls-1" d="M263.78,29.91q7.44,0,11.79,4.1t4.36,11.92v5H257.7a7.74,7.74,0,0,0,2.24,5.51,8.33,8.33,0,0,0,6,2.05,27.37,27.37,0,0,0,6.09-.64,27.8,27.8,0,0,0,5.77-2.05v8a21.55,21.55,0,0,1-5.58,1.92,34.21,34.21,0,0,1-7.17.64,22.44,22.44,0,0,1-9.49-1.92,14.69,14.69,0,0,1-6.47-5.9,20.3,20.3,0,0,1-2.31-10.19,22.36,22.36,0,0,1,2.12-10.31A13.78,13.78,0,0,1,254.81,32,18.79,18.79,0,0,1,263.78,29.91Zm.2,7.5a5.77,5.77,0,0,0-4.17,1.6,7.59,7.59,0,0,0-1.92,4.93H270a7.49,7.49,0,0,0-1.54-4.61A5.29,5.29,0,0,0,264,37.41Z"/><path class="cls-1" d="M219.71,65.73,206.32,30.55h11.27L224,50.93a20.44,20.44,0,0,1,.58,2.69,18.33,18.33,0,0,1,.38,2.82h.26a22.36,22.36,0,0,1,.32-2.82,26.59,26.59,0,0,1,.7-2.63l6.54-20.44H244L230.6,65.73Z"/><path class="cls-1" d="M189.4,29.91a12.87,12.87,0,0,1,9,3.08q3.45,3,3.46,9.8V65.73H191.06V45.8a10.17,10.17,0,0,0-1.21-5.51A4.28,4.28,0,0,0,186,38.43c-2.6,0-4.38,1-5.32,3s-1.41,4.7-1.41,8.33v16H168.45V30.55h9.67V35.1h.51a10.3,10.3,0,0,1,4.49-3.84A14.35,14.35,0,0,1,189.4,29.91Z"/><path class="cls-1" d="M161.71,65.73H139.48V59.51h5.64V26.2h-5.64V20h22.23V26.2h-5.64V59.51h5.64Z"/><path class="cls-1" d="M125.45,65.73l-2.82-9.81H106.8L104,65.73H92.06l15.57-45.94h14l15.76,45.94Zm-8-28.07c-.21-.76-.51-1.79-.9-3.07s-.7-2.67-1.09-4-.62-2.52-.83-3.46c-.17.94-.45,2.12-.83,3.53s-.69,2.71-1,4-.62,2.29-.83,3l-2.69,9.17h10.89Z"/><path class="cls-1" d="M79.59,3.34,94.06,0,89.59,14.76l-3.84-4.39L64.17,31V11.26L5.24,64.72H0L67.66,3.35V22.8L83.43,7.72Zm-15.5,62V39.16l15.5-14.91V65.37Zm-5.17,0V24.25L12.4,65.37Z"/></g></g></svg>