<svg width="75" height="45" viewBox="0 0 75 45" fill="none" xmlns="http://www.w3.org/2000/svg">
<g clip-path="url(#clip0_244_17045)">
<path d="M20.9501 16.1456C20.9501 17.0604 21.049 17.8022 21.2221 18.3462C21.4199 18.8901 21.6671 19.4835 22.0133 20.1264C22.1369 20.3242 22.1864 20.522 22.1864 20.6951C22.1864 20.9423 22.038 21.1896 21.7166 21.4368L20.1589 22.4753C19.9364 22.6236 19.7138 22.6978 19.516 22.6978C19.2688 22.6978 19.0215 22.5742 18.7743 22.3516C18.4281 21.9808 18.1314 21.5852 17.8842 21.1896C17.6369 20.7692 17.3897 20.2995 17.1177 19.7308C15.1891 22.0055 12.766 23.1429 9.84846 23.1429C7.77153 23.1429 6.11494 22.5495 4.9034 21.3626C3.69186 20.1758 3.07373 18.5934 3.07373 16.6154C3.07373 14.5137 3.81549 12.8077 5.32373 11.522C6.83197 10.2363 8.83472 9.59341 11.3814 9.59341C12.2221 9.59341 13.0875 9.66758 14.0023 9.79121C14.9171 9.91484 15.8567 10.1126 16.8457 10.3352V8.53022C16.8457 6.6511 16.4501 5.34066 15.6836 4.57418C14.8924 3.80769 13.5572 3.43681 11.6534 3.43681C10.788 3.43681 9.89791 3.53571 8.98307 3.75824C8.06824 3.98077 7.17813 4.25275 6.31274 4.5989C5.91714 4.77198 5.62043 4.87088 5.44736 4.92033C5.27428 4.96978 5.15065 4.99451 5.05175 4.99451C4.7056 4.99451 4.53252 4.74725 4.53252 4.22802V3.01648C4.53252 2.62088 4.58197 2.32418 4.7056 2.1511C4.82923 1.97802 5.05175 1.80494 5.39791 1.63187C6.26329 1.18681 7.30175 0.815934 8.51329 0.519231C9.72483 0.197802 11.0105 0.0494505 12.3704 0.0494505C15.3127 0.0494505 17.4638 0.717033 18.8485 2.0522C20.2083 3.38736 20.9007 5.41484 20.9007 8.13462V16.1456H20.9501ZM10.9116 19.9038C11.7276 19.9038 12.5682 19.7555 13.4583 19.4588C14.3485 19.1621 15.1397 18.6181 15.8072 17.8764C16.2029 17.4066 16.4996 16.8874 16.6479 16.294C16.7963 15.7006 16.8952 14.9835 16.8952 14.1429V13.1044C16.1781 12.9313 15.4116 12.783 14.6204 12.6841C13.8292 12.5852 13.0627 12.5357 12.2963 12.5357C10.6397 12.5357 9.42813 12.8571 8.61219 13.5247C7.79626 14.1923 7.40065 15.1319 7.40065 16.3681C7.40065 17.5302 7.69736 18.3956 8.31549 18.989C8.9089 19.6071 9.77428 19.9038 10.9116 19.9038ZM30.766 22.5742C30.321 22.5742 30.0243 22.5 29.8265 22.3269C29.6287 22.1786 29.4556 21.8324 29.3072 21.3626L23.4968 2.25C23.3485 1.75549 23.2743 1.43407 23.2743 1.26099C23.2743 0.865385 23.4721 0.642857 23.8677 0.642857H26.2908C26.7605 0.642857 27.082 0.717033 27.2551 0.89011C27.4529 1.03846 27.6012 1.38462 27.7496 1.8544L31.9034 18.2225L35.7605 1.8544C35.8842 1.35989 36.0325 1.03846 36.2303 0.89011C36.4281 0.741758 36.7743 0.642857 37.2193 0.642857H39.1974C39.6671 0.642857 39.9886 0.717033 40.1864 0.89011C40.3842 1.03846 40.5572 1.38462 40.6561 1.8544L44.5627 18.4203L48.8402 1.8544C48.9886 1.35989 49.1616 1.03846 49.3347 0.89011C49.5325 0.741758 49.854 0.642857 50.299 0.642857H52.5985C52.9941 0.642857 53.2166 0.840659 53.2166 1.26099C53.2166 1.38462 53.1919 1.50824 53.1671 1.65659C53.1424 1.80495 53.093 2.00275 52.9941 2.27473L47.0353 21.3874C46.8869 21.8819 46.7138 22.2033 46.516 22.3516C46.3182 22.5 45.9968 22.5989 45.5765 22.5989H43.4501C42.9803 22.5989 42.6589 22.5247 42.4611 22.3516C42.2633 22.1786 42.0902 21.8571 41.9913 21.3626L38.1589 5.41483L34.3512 21.3379C34.2276 21.8324 34.0792 22.1538 33.8814 22.3269C33.6836 22.5 33.3375 22.5742 32.8924 22.5742H30.766ZM62.538 23.2418C61.2523 23.2418 59.9666 23.0934 58.7303 22.7967C57.4941 22.5 56.5298 22.1786 55.8869 21.8077C55.4913 21.5852 55.2193 21.3379 55.1204 21.1154C55.0215 20.8929 54.9721 20.6456 54.9721 20.4231V19.1621C54.9721 18.6429 55.1699 18.3956 55.5408 18.3956C55.6891 18.3956 55.8375 18.4203 55.9858 18.4698C56.1342 18.5192 56.3567 18.6181 56.604 18.717C57.4446 19.0879 58.3594 19.3846 59.3237 19.5824C60.3127 19.7802 61.277 19.8791 62.266 19.8791C63.8237 19.8791 65.0353 19.6071 65.8759 19.0632C66.7166 18.5192 67.1616 17.728 67.1616 16.7143C67.1616 16.022 66.9391 15.4533 66.4941 14.9835C66.049 14.5137 65.2083 14.0934 63.9968 13.6978L60.4116 12.5852C58.6067 12.0165 57.2715 11.1758 56.4556 10.0632C55.6397 8.97528 55.2193 7.76374 55.2193 6.47802C55.2193 5.43956 55.4419 4.52473 55.8869 3.73352C56.332 2.94231 56.9254 2.25 57.6671 1.70604C58.4089 1.13736 59.2496 0.717033 60.2386 0.42033C61.2276 0.123626 62.266 0 63.3539 0C63.8979 0 64.4666 0.0247253 65.0105 0.0989011C65.5792 0.173077 66.0985 0.271978 66.6177 0.370879C67.1122 0.494505 67.582 0.618132 68.027 0.766483C68.4721 0.914835 68.8182 1.06319 69.0655 1.21154C69.4116 1.40934 69.6589 1.60714 69.8072 1.82967C69.9556 2.02747 70.0298 2.29945 70.0298 2.6456V3.80769C70.0298 4.32692 69.832 4.5989 69.4611 4.5989C69.2633 4.5989 68.9419 4.5 68.5215 4.3022C67.1122 3.65934 65.5298 3.33791 63.7743 3.33791C62.3649 3.33791 61.2523 3.56044 60.4858 4.03022C59.7193 4.5 59.3237 5.21703 59.3237 6.23077C59.3237 6.92308 59.571 7.51648 60.0655 7.98626C60.56 8.45605 61.4748 8.92583 62.7853 9.34615L66.2963 10.4588C68.0765 11.0275 69.3622 11.8187 70.1287 12.8324C70.8952 13.8462 71.266 15.0082 71.266 16.294C71.266 17.3571 71.0435 18.3214 70.6232 19.1621C70.1781 20.0027 69.5847 20.7445 68.8182 21.3379C68.0518 21.956 67.1369 22.4011 66.0737 22.7225C64.9611 23.0687 63.799 23.2418 62.538 23.2418Z" fill="#fff"/>
<path fill-rule="evenodd" clip-rule="evenodd" d="M67.2112 35.2582C59.0766 41.2664 47.2579 44.456 37.0958 44.456C22.8541 44.456 10.0217 39.1895 0.329345 30.4368C-0.437139 29.7445 0.255169 28.8049 1.17 29.3489C11.6535 35.4313 24.5848 39.1153 37.9612 39.1153C46.9859 39.1153 56.9008 37.2362 66.0244 33.3791C67.3843 32.7609 68.5464 34.2692 67.2112 35.2582Z" fill="#FF9900"/>
<path fill-rule="evenodd" clip-rule="evenodd" d="M70.5986 31.4011C69.5601 30.0659 63.7249 30.7582 61.0793 31.0796C60.2881 31.1785 60.1645 30.4862 60.8815 29.967C65.5299 26.7033 73.17 27.6428 74.0601 28.7307C74.9502 29.8434 73.8129 37.4835 69.4612 41.1428C68.7936 41.7115 68.1508 41.4148 68.4475 40.673C69.4365 38.2252 71.637 32.7115 70.5986 31.4011Z" fill="#FF9900"/>
</g>
<defs>
<clipPath id="clip0_244_17045">
<rect width="74.3417" height="45" fill="white"/>
</clipPath>
</defs>
</svg>
