<svg width="363" height="339" viewBox="0 0 363 339" fill="none" xmlns="http://www.w3.org/2000/svg">
<path d="M166.609 275.001C167.498 274.283 168.442 273.639 169.432 273.073C171.302 271.845 174.088 270.15 177.681 267.952C184.854 263.544 195.229 257.244 207.975 249.532L208.293 249.336L208.635 249.483L243.267 264.072L243.682 264.244L243.78 264.686L255.279 312.429L255.45 313.117L254.839 313.473L213.107 338.217L212.716 338.45L212.301 338.266L177.766 323.395L177.412 323.248L177.339 322.892C173.905 308.156 171.155 296.22 169.298 287.919C168.369 283.768 167.66 280.551 167.208 278.341C166.921 277.228 166.721 276.095 166.609 274.952C167.037 276.014 167.377 277.111 167.624 278.23C168.21 280.404 169.041 283.609 170.068 287.735C172.17 295.974 175.139 307.886 178.732 322.536L178.304 322.032L212.973 336.62H212.179L253.837 311.778C253.703 312.122 253.556 312.466 253.397 312.835C249.377 295.938 245.528 279.777 242.033 265.066L242.546 265.68L208.036 250.797H208.696C195.865 258.312 185.367 264.415 178.072 268.603C174.406 270.703 171.571 272.287 169.628 273.392C168.667 274.009 167.657 274.547 166.609 275.001Z" fill="#2F87A5"/>
<path d="M212.63 337.493C212.374 337.554 211.005 332.888 208.964 325.287C206.923 317.686 204.333 307.15 201.534 295.496C201.082 293.593 200.63 291.726 200.215 289.946L200.765 290.609C190.988 286.409 182.434 282.627 176.324 279.827C170.214 277.028 166.548 275.222 166.548 275.001C166.548 274.78 170.495 276.168 176.764 278.685C183.033 281.203 191.709 284.739 201.498 288.878L201.938 289.062L202.048 289.528C202.475 291.309 202.927 293.212 203.392 295.067C206.19 306.732 208.61 317.305 210.284 324.992C211.958 332.679 212.911 337.383 212.63 337.493Z" fill="#2F87A5"/>
<path d="M201.192 289.724C200.923 289.27 210.052 283.351 221.563 276.511C233.075 269.671 242.656 264.489 242.924 264.944C243.193 265.398 234.065 271.317 222.541 278.157C211.017 284.997 201.461 290.179 201.192 289.724Z" fill="#2F87A5"/>
<g opacity="0.87">
<path d="M187.456 15.0508L199.762 63.3225L157.309 88.8643L145.003 40.5927L187.456 15.0508Z" fill="#4EC5FF"/>
<path d="M157.309 88.8648L121.699 74.301L109.394 26.0293L145.003 40.5931L157.309 88.8648Z" fill="#1B5AA6"/>
<path d="M145.003 40.593L109.394 26.0292L151.847 0.487305L187.456 15.0511L145.003 40.593Z" fill="#349DDC"/>
<path d="M187.456 15.0511L151.847 0.487305L109.394 26.0292L121.699 74.3009L157.346 88.8646L199.762 63.3228L187.456 15.0511Z" fill="url(#paint0_linear_221_1464)"/>
</g>
<path d="M137.06 59.9215C137.195 60.1548 134.127 62.2178 129.068 65.3614C124.009 68.5051 116.933 72.7293 109.076 77.3096C101.218 81.89 94.0449 85.9054 88.8147 88.7666C83.5844 91.6278 80.2605 93.261 80.1383 93.0277C80.0161 92.7944 83.0712 90.7437 88.1303 87.5878C93.1895 84.4319 100.265 80.2199 108.123 75.6519C115.98 71.0838 123.154 67.0561 128.384 64.1826C133.614 61.3091 136.926 59.7005 137.06 59.9215Z" fill="#2F87A5"/>
<g opacity="0.87">
<path d="M118.522 212.153L130.828 260.413L88.3873 285.967L76.0693 237.695L118.522 212.153Z" fill="#4EC5FF"/>
<path d="M88.3877 285.966L52.7657 271.403L40.46 223.131L76.0697 237.695L88.3877 285.966Z" fill="#1B5AA6"/>
<path d="M76.0697 237.695L40.46 223.131L82.9131 197.577L118.523 212.153L76.0697 237.695Z" fill="#349DDC"/>
<path d="M118.523 212.153L82.9131 197.577L40.46 223.131L52.7657 271.403L88.4122 285.967L130.829 260.413L118.523 212.153Z" fill="url(#paint1_linear_221_1464)"/>
</g>
<g opacity="0.87">
<path d="M350.193 204.049L362.499 252.321L320.046 277.862L307.74 229.591L350.193 204.049Z" fill="#4EC5FF"/>
<path d="M320.046 277.863L284.437 263.299L272.131 215.027L307.741 229.591L320.046 277.863Z" fill="#1B5AA6"/>
<path d="M307.741 229.591L272.131 215.027L314.584 189.485L350.194 204.049L307.741 229.591Z" fill="#349DDC"/>
<path d="M350.194 204.049L314.584 189.485L272.131 215.027L284.437 263.299L320.083 277.875L362.5 252.321L350.194 204.049Z" fill="url(#paint2_linear_221_1464)"/>
</g>
<g opacity="0.87">
<path d="M226.488 149.563L238.794 197.835L196.341 223.377L184.035 175.105L226.488 149.563Z" fill="#4EC5FF"/>
<path d="M196.341 223.377L160.732 208.814L148.426 160.542L184.036 175.106L196.341 223.377Z" fill="#1B5AA6"/>
<path d="M184.036 175.106L148.426 160.542L190.879 135L226.489 149.564L184.036 175.106Z" fill="#349DDC"/>
<path d="M226.489 149.564L190.879 135L148.426 160.542L160.732 208.814L196.378 223.377L238.794 197.835L226.489 149.564Z" fill="url(#paint3_linear_221_1464)"/>
</g>
<path d="M172.389 193.267C172.523 193.488 169.81 195.342 165.338 198.179C160.865 201.016 154.596 204.736 147.631 208.789C140.665 212.841 134.311 216.414 129.655 218.92C124.999 221.425 122.066 222.861 121.932 222.603C121.797 222.346 124.498 220.528 128.983 217.692C133.467 214.855 139.712 211.134 146.678 207.082C153.643 203.03 160.01 199.456 164.653 196.951C169.297 194.446 172.303 193.034 172.389 193.267Z" fill="#2F87A5"/>
<path d="M298.343 250.859C298.477 251.093 295.655 253.008 291.011 255.919C286.367 258.829 279.854 262.722 272.619 266.97C265.385 271.219 258.774 274.903 253.947 277.506C249.12 280.11 246.065 281.608 245.93 281.387C245.796 281.166 248.607 279.238 253.263 276.328C257.918 273.417 264.407 269.525 271.654 265.276C278.901 261.027 285.5 257.343 290.327 254.74C295.154 252.136 298.172 250.638 298.343 250.859Z" fill="#2F87A5"/>
<path d="M187.457 157.741C187.2 157.803 185.954 153.603 184.133 146.763C182.312 139.923 179.942 130.444 177.436 119.944C174.931 109.445 172.744 99.9161 171.265 92.9289C169.787 85.9417 169.004 81.6929 169.261 81.6315C169.518 81.5701 170.764 85.7698 172.585 92.6096C174.406 99.4494 176.777 108.929 179.294 119.429C181.811 129.928 183.974 139.457 185.404 146.383C186.834 153.308 187.714 157.68 187.457 157.741Z" fill="#2F87A5"/>
<path d="M77.3277 219.116C77.0711 219.177 75.8491 215.113 74.0893 208.494C72.3296 201.875 70.02 192.69 67.5882 182.522C65.1563 172.355 63.0545 163.12 61.6369 156.416C60.2194 149.711 59.4495 145.536 59.7061 145.474C59.9627 145.413 61.1848 149.478 62.9445 156.096C64.7042 162.715 67.0138 171.9 69.4456 182.08C71.8775 192.26 73.9794 201.47 75.4091 208.175C76.8389 214.879 77.5843 219.055 77.3277 219.116Z" fill="#2F87A5"/>
<path d="M312.629 208.088C312.372 208.15 311.211 204.306 309.537 198.031C307.863 191.756 305.663 183.062 303.354 173.472C301.044 163.881 299.065 155.052 297.733 148.74C296.401 142.429 295.68 138.425 295.936 138.364C296.193 138.303 297.366 142.146 299.04 148.421C300.714 154.696 302.914 163.39 305.15 172.981C307.387 182.571 309.44 191.4 310.784 197.712C312.128 204.024 312.837 208.027 312.629 208.088Z" fill="#2F87A5"/>
<path d="M168.173 277.506C168.064 277.752 164.446 276.278 158.691 273.822C152.935 271.366 145.028 267.682 136.352 263.679C127.676 259.676 119.855 255.845 114.246 253.033C108.637 250.221 105.215 248.342 105.325 248.121C105.435 247.9 109.052 249.349 114.808 251.805C120.563 254.261 128.47 257.945 137.159 261.96C145.847 265.976 153.644 269.795 159.253 272.607C164.862 275.419 168.283 277.273 168.173 277.506Z" fill="#2F87A5"/>
<path d="M274.721 213.467C274.623 213.712 270.994 212.448 265.226 210.2C259.458 207.953 251.515 204.76 242.802 201.077C234.089 197.393 226.231 193.967 220.585 191.4C214.94 188.834 211.506 187.114 211.604 186.869C211.701 186.623 215.27 187.9 221.111 190.148C226.952 192.395 234.822 195.624 243.535 199.308C252.248 202.992 260.106 206.418 265.739 208.985C271.373 211.551 274.831 213.221 274.721 213.467Z" fill="#2F87A5"/>
<path d="M213.278 186.832C213.281 187.205 213.173 187.57 212.968 187.881C212.764 188.192 212.472 188.434 212.13 188.578C211.788 188.722 211.411 188.76 211.047 188.688C210.683 188.616 210.349 188.437 210.087 188.173C209.824 187.91 209.646 187.574 209.574 187.208C209.503 186.843 209.541 186.464 209.684 186.12C209.827 185.776 210.068 185.483 210.378 185.277C210.687 185.072 211.05 184.963 211.421 184.966C211.914 184.966 212.386 185.163 212.734 185.513C213.083 185.863 213.278 186.337 213.278 186.832Z" fill="#2F87A5"/>
<path d="M189.326 157.742C189.326 158.114 189.217 158.477 189.011 158.786C188.806 159.095 188.514 159.336 188.172 159.478C187.83 159.62 187.455 159.657 187.092 159.585C186.729 159.512 186.396 159.333 186.135 159.071C185.873 158.808 185.695 158.473 185.623 158.109C185.551 157.744 185.588 157.366 185.729 157.023C185.871 156.68 186.11 156.386 186.418 156.18C186.725 155.973 187.087 155.863 187.457 155.863C187.952 155.863 188.428 156.061 188.779 156.414C189.129 156.766 189.326 157.244 189.326 157.742Z" fill="#2F87A5"/>
<path d="M174.247 193.268C174.247 193.64 174.137 194.003 173.931 194.313C173.725 194.622 173.432 194.863 173.09 195.004C172.748 195.146 172.371 195.183 172.008 195.109C171.645 195.036 171.312 194.856 171.051 194.592C170.79 194.328 170.613 193.992 170.542 193.626C170.472 193.261 170.51 192.883 170.654 192.54C170.797 192.197 171.039 191.904 171.348 191.699C171.657 191.494 172.019 191.386 172.39 191.389C172.635 191.389 172.877 191.437 173.103 191.532C173.33 191.627 173.535 191.765 173.707 191.94C173.88 192.114 174.017 192.322 174.109 192.549C174.202 192.777 174.249 193.021 174.247 193.268Z" fill="#2F87A5"/>
<path d="M108.172 248.097C108.172 248.468 108.062 248.831 107.857 249.14C107.651 249.449 107.359 249.69 107.018 249.832C106.676 249.975 106.3 250.012 105.938 249.939C105.575 249.867 105.242 249.688 104.98 249.425C104.719 249.162 104.541 248.828 104.469 248.463C104.396 248.099 104.433 247.721 104.575 247.378C104.716 247.034 104.956 246.741 105.264 246.534C105.571 246.328 105.932 246.218 106.302 246.218C106.798 246.218 107.274 246.416 107.624 246.768C107.975 247.12 108.172 247.598 108.172 248.097Z" fill="#2F87A5"/>
<path d="M79.1974 219.116C79.1974 219.488 79.0878 219.851 78.8823 220.16C78.6769 220.469 78.3849 220.71 78.0432 220.852C77.7016 220.994 77.3256 221.031 76.963 220.959C76.6003 220.886 76.2671 220.707 76.0056 220.445C75.7442 220.182 75.5661 219.847 75.4939 219.483C75.4218 219.118 75.4588 218.74 75.6003 218.397C75.7418 218.054 75.9815 217.76 76.289 217.554C76.5965 217.347 76.9579 217.237 77.3277 217.237C77.8236 217.237 78.2992 217.435 78.6498 217.788C79.0004 218.14 79.1974 218.618 79.1974 219.116Z" fill="#2F87A5"/>
<path d="M314.498 208.089C314.498 208.46 314.389 208.824 314.183 209.133C313.978 209.442 313.686 209.682 313.344 209.825C313.002 209.967 312.626 210.004 312.264 209.931C311.901 209.859 311.568 209.68 311.306 209.417C311.045 209.155 310.867 208.82 310.795 208.455C310.723 208.091 310.76 207.713 310.901 207.37C311.043 207.026 311.282 206.733 311.59 206.527C311.897 206.32 312.259 206.21 312.629 206.21C313.124 206.21 313.6 206.408 313.951 206.76C314.301 207.113 314.498 207.59 314.498 208.089Z" fill="#2F87A5"/>
<path d="M138.93 60.5477C138.93 60.9193 138.82 61.2826 138.615 61.5915C138.409 61.9005 138.117 62.1413 137.776 62.2835C137.434 62.4257 137.058 62.4629 136.695 62.3905C136.333 62.318 136 62.139 135.738 61.8763C135.477 61.6135 135.298 61.2787 135.226 60.9143C135.154 60.5498 135.191 60.1721 135.333 59.8288C135.474 59.4854 135.714 59.192 136.021 58.9856C136.329 58.7791 136.69 58.6689 137.06 58.6689C137.556 58.6689 138.032 58.8669 138.382 59.2192C138.733 59.5716 138.93 60.0495 138.93 60.5477Z" fill="#2F87A5"/>
<path d="M300.2 250.859C300.203 251.231 300.095 251.596 299.89 251.907C299.686 252.218 299.394 252.461 299.052 252.604C298.71 252.748 298.333 252.786 297.969 252.714C297.605 252.642 297.271 252.463 297.009 252.2C296.746 251.936 296.568 251.6 296.496 251.235C296.425 250.869 296.463 250.49 296.606 250.146C296.749 249.803 296.99 249.509 297.3 249.304C297.609 249.098 297.972 248.99 298.343 248.992C298.835 248.992 299.308 249.189 299.656 249.539C300.005 249.889 300.2 250.364 300.2 250.859Z" fill="#2F87A5"/>
<path d="M0.511719 89.9571C1.39891 89.242 2.34303 88.6013 3.33459 88.0414C5.20429 86.8135 7.9905 85.1066 11.5832 82.9085C18.7565 78.5001 29.1315 72.2129 41.8772 64.4889L42.1827 64.3047L42.5371 64.4398L77.1692 79.0281L77.5847 79.2L77.6825 79.6421L89.2062 127.398L89.3773 128.086L88.7663 128.454L47.0097 153.186L46.6186 153.419L46.2032 153.247L11.6566 138.45L11.3144 138.302L11.2411 137.946C7.8072 123.211 5.05762 111.287 3.20015 102.986C2.27141 98.8353 1.56265 95.618 1.1105 93.3954C0.813705 92.2852 0.613368 91.1512 0.511719 90.0062C0.938022 91.0738 1.27722 92.1744 1.52598 93.2972C2.11255 95.4584 2.94353 98.6634 3.97003 102.789C6.07191 111.029 9.04142 122.94 12.6342 137.603C12.4997 137.443 12.3653 137.271 12.2065 137.099L46.8753 151.675H46.0809L87.7397 126.821L87.2998 127.877C83.2794 110.98 79.43 94.8321 75.935 80.1087L76.4482 80.7227L41.9383 65.8519H42.5982C29.7547 73.3794 19.2697 79.4702 11.9743 83.6699C8.3082 85.7574 5.47312 87.3538 3.51789 88.4589C2.55679 89.0373 1.55159 89.5383 0.511719 89.9571Z" fill="#2F87A5"/>
<path d="M46.5572 152.449C46.3006 152.523 44.9319 147.844 42.8912 140.243C40.8504 132.642 38.2597 122.118 35.4612 110.453L34.2148 104.914C34.4103 105.135 34.5936 105.344 34.7647 105.565C24.9885 101.378 16.4344 97.5834 10.3243 94.7836C4.21413 91.9839 0.548049 90.1787 0.60915 89.9577C0.670252 89.7366 4.55629 91.1857 10.8131 93.6416C17.0698 96.0976 25.7706 99.7078 35.559 103.834L35.9989 104.018L36.1089 104.485C36.5366 106.265 36.9888 108.169 37.441 110.035C40.2394 121.689 42.6712 132.274 44.3454 139.949C46.0195 147.623 46.8139 152.388 46.5572 152.449Z" fill="#2F87A5"/>
<path d="M35.0947 104.694C34.8258 104.227 43.9421 98.3081 55.4658 91.4683C66.9895 84.6285 76.5579 79.4464 76.8268 79.9008C77.0956 80.3551 67.9671 86.274 56.4434 93.1261C44.9197 99.9782 35.3635 105.148 35.0947 104.694Z" fill="#2F87A5"/>
<path d="M243.425 78.4268C244.306 77.7093 245.247 77.0684 246.236 76.5112C248.118 75.2832 250.904 73.5763 254.485 71.3782C261.658 66.9698 272.033 60.6826 284.779 52.9586L285.096 52.7744L285.438 52.9095L320.083 67.4978L320.486 67.6698L320.596 68.1118C324.14 82.8475 328.026 98.9708 332.083 115.855L332.242 116.555L331.631 116.912L289.899 141.643L289.52 141.876L289.105 141.704L254.558 126.821L254.216 126.674L254.13 126.318C250.709 111.582 247.947 99.6585 246.089 91.3574C245.161 87.2068 244.452 83.9895 244 81.7669C243.71 80.6558 243.513 79.522 243.413 78.3777C243.838 79.4447 244.173 80.5455 244.415 81.6687C245.014 83.8299 245.845 87.0349 246.859 91.1609C248.961 99.4006 251.918 111.324 255.523 125.974C255.377 125.814 255.242 125.642 255.096 125.471L289.764 140.047L288.958 140.108L330.629 115.254L330.189 116.31C326.169 99.4006 322.331 83.2527 318.824 68.5293L319.35 69.1433L284.827 54.2725H285.487C272.656 61.8 262.171 67.9031 254.863 72.0905C251.197 74.178 248.362 75.7744 246.419 76.8796C245.467 77.4805 244.466 77.9981 243.425 78.4268Z" fill="#2F87A5"/>
<path d="M289.459 140.906C289.203 140.967 287.834 136.289 285.793 128.688C283.752 121.086 281.149 110.563 278.351 98.8969C277.899 97.0058 277.459 95.127 277.031 93.3587L277.581 94.0096C267.805 89.8222 259.251 86.0277 253.141 83.228C247.031 80.4282 243.364 78.6231 243.426 78.402C243.487 78.181 247.36 79.63 253.629 82.0859C259.898 84.5419 268.587 88.1521 278.363 92.2781L278.803 92.4623L278.913 92.9289C279.353 94.7095 279.793 96.6129 280.257 98.4794C283.056 110.133 285.488 120.718 287.15 128.393C288.811 136.068 289.716 140.906 289.459 140.906Z" fill="#2F87A5"/>
<path d="M277.996 93.1623C277.727 92.6957 286.856 86.7769 298.379 79.9371C309.903 73.0972 319.459 67.9152 319.728 68.3695C319.997 68.8239 310.868 74.7427 299.345 81.5948C287.821 88.4469 278.265 93.6167 277.996 93.1623Z" fill="#2F87A5"/>
<defs>
<linearGradient id="paint0_linear_221_1464" x1="204.861" y1="17.2666" x2="131.124" y2="60.8816" gradientUnits="userSpaceOnUse">
<stop stop-color="#3FFFAC"/>
<stop offset="1" stop-color="#73CAFF" stop-opacity="0"/>
</linearGradient>
<linearGradient id="paint1_linear_221_1464" x1="135.548" y1="215.119" x2="61.7983" y2="258.745" gradientUnits="userSpaceOnUse">
<stop stop-color="#3FFFAC"/>
<stop offset="1" stop-color="#73CAFF" stop-opacity="0"/>
</linearGradient>
<linearGradient id="paint2_linear_221_1464" x1="368.162" y1="207.115" x2="294.412" y2="250.741" gradientUnits="userSpaceOnUse">
<stop stop-color="#3FFFAC"/>
<stop offset="1" stop-color="#73CAFF" stop-opacity="0"/>
</linearGradient>
<linearGradient id="paint3_linear_221_1464" x1="243.987" y1="152.347" x2="170.238" y2="195.961" gradientUnits="userSpaceOnUse">
<stop stop-color="#3FFFAC"/>
<stop offset="1" stop-color="#73CAFF" stop-opacity="0"/>
</linearGradient>
</defs>
</svg>
