<svg xmlns="http://www.w3.org/2000/svg" viewBox="0 0 2500 422.1" style="enable-background:new 0 0 2500 422.1" xml:space="preserve"><path d="M398.5 93.9c-2.5-8-8.5-14.5-16-18.5L230.2 2.5c-4-2-8.5-2.5-12.5-2.5s-8.5 0-12.5 1L52.9 74.4c-7.5 3.5-13 10-15 18.5L.5 257.2c-1.5 8.5.5 17 5.5 24l105.4 130.3c6 6 14.5 10 23 10.5h167.8c9 1 17.5-3 23-10.5l105.4-130.3c5-7 7-15.5 6-24L398.5 93.9z" style="fill:#326de6"/><path d="M375 250.7c-.5 0-1 0-1-.5s-1-.5-2-.5c-2-.5-4-.5-6-.5-1 0-2 0-3-.5h-.5c-5.5-.5-11.5-1.5-17-3-1.5-.5-3-2-3.5-3.5.5 0 0 0 0 0l-4-1c2-14.5 1-29.5-2-43.9-3.5-14.5-9.5-28.5-17.5-40.9l3-3v-.5c0-1.5.5-3.5 1.5-4.5 4.5-4 9-7 14-10l3-1.5c2-1 3.5-2 5.5-3 .5-.5 1-.5 1.5-1s0-.5 0-1c4.5-3.5 5.5-9.5 2-14-1.5-2-4.5-3.5-7-3.5s-5 1-7 2.5l-.5.5c-.5.5-1 1-1.5 1-1.5 1.5-3 3-4 4.5-.5 1-1.5 1.5-2 2-3.5 4-8 8-12.5 11-1 .5-2 1-3 1-.5 0-1.5 0-2-.5h-.5l-4 2.5c-4-4-8.5-8-12.5-12-18.5-14.5-41.4-23.5-64.9-26l-.5-4v.5c-1.5-1-2-2.5-2.5-4 0-5.5 0-11 1-17v-.5c0-1 .5-2 .5-3 .5-2 .5-4 1-6v-3c.5-5-3.5-10-8.5-10.5-3-.5-6 1-8.5 3.5-2 2-3 4.5-3 7v2.5c0 2 .5 4 1 6 .5 1 .5 2 .5 3v.5c1 5.5 1 11 1 17-.5 1.5-1 3-2.5 4v1l-.5 4c-5.5.5-11 1.5-17 2.5-23.5 5-44.9 17.5-61.4 35l-3-2h-.5c-.5 0-1 .5-2 .5s-2-.5-3-1c-4.5-3.5-9-7.5-12.5-11.5-.5-1-1.5-1.5-2-2-1.5-1.5-2.5-3-4-4.5-.5-.5-1-.5-1.5-1l-.5-.5c-2-1.5-4.5-2.5-7-2.5-3 0-5.5 1-7 3.5-3 4.5-2 10.5 2 14 .5 0 .5.5.5.5s1 1 1.5 1c1.5 1 3.5 2 5.5 3l3 1.5c5 3 10 6 14 10 1 1 2 3 1.5 4.5v-.5l3 3c-.5 1-1 1.5-1.5 2.5-15.5 24.5-22 53.4-17.5 81.9l-4 1c0 .5-.5.5-.5.5-.5 1.5-2 2.5-3.5 3.5-5.5 1.5-11 2.5-17 3-1 0-2 0-3 .5-2 0-4 .5-6 .5-.5 0-1 .5-2 .5-.5 0-.5 0-1 .5-5.5 1-9 6-8 11.5 1 4.5 5.5 7.5 10 7 1 0 1.5 0 2.5-.5.5 0 .5 0 .5-.5s1.5 0 2 0c2-.5 4-1.5 5.5-2 1-.5 2-1 3-1h.5c5.5-2 10.5-3.5 16.5-4.5h.5c1.5 0 3 .5 4 1.5.5 0 .5.5.5.5l4.5-.5c7.5 23 21.5 43.4 40.9 58.4 4.5 3.5 8.5 6.5 13.5 9l-2.5 3.5c0 .5.5.5.5.5 1 1.5 1 3.5.5 5-2 5-5 10-8 14.5v.5c-.5 1-1 1.5-2 2.5s-2 3-3.5 5c-.5.5-.5 1-1 1.5 0 0 0 .5-.5.5-2.5 5-.5 11 4 13.5 1 .5 2.5 1 3.5 1 4 0 7.5-2.5 9.5-6 0 0 0-.5.5-.5 0-.5.5-1 1-1.5.5-2 1.5-3.5 2-5.5l1-3c1.5-5.5 4-10.5 6.5-15.5 1-1.5 2.5-2.5 4-3 .5 0 .5 0 .5-.5l2-4c14 5.5 28.5 8 43.4 8 9 0 18-1 27-3.5 5.5-1 11-3 16-4.5l2 3.5c.5 0 .5 0 .5.5 1.5.5 3 1.5 4 3 2.5 5 5 10 6.5 15.5v.5l1 3c.5 2 1 4 2 5.5.5.5.5 1 1 1.5 0 0 0 .5.5.5 2 3.5 5.5 6 9.5 6 1.5 0 2.5-.5 4-1 2-1 4-3 4.5-5.5s.5-5-.5-7.5c0-.5-.5-.5-.5-.5 0-.5-.5-1-1-1.5-1-2-2-3.5-3.5-5-.5-1-1-1.5-2-2.5v-1c-3.5-4.5-6-9.5-8-14.5-.5-1.5-.5-3.5.5-5 0-.5.5-.5.5-.5l-1.5-4c25.5-15.5 44.9-39.5 53.9-67.9l4 .5c.5 0 .5-.5.5-.5 1-1 2.5-1.5 4-1.5h.5c5.5 1 11 2.5 16 4.5h.5c1 .5 2 1 3 1 2 1 3.5 2 5.5 2.5.5 0 1 .5 2 .5.5 0 .5 0 1 .5 1 .5 1.5.5 2.5.5 4.5 0 8.5-3 10-7-.4-5.6-4.4-9.6-8.9-10.6zm-144.3-15.5-13.5 6.5-13.5-6.5-3.5-14.5 9.5-12h15l9.5 12-3.5 14.5zm81.4-32.4c2.5 10.5 3 21 2 31.5l-47.4-13.5c-4.5-1-7-5.5-6-10 .5-1.5 1-2.5 2-3.5l37.5-34c5.4 9 9.4 19 11.9 29.5zm-27-48-40.9 29c-3.5 2-8.5 1.5-11-2-1-1-1.5-2-1.5-3.5l-3-50.4c22 2.4 41.5 11.9 56.4 26.9zm-90.4-25.5 10-2-2.5 49.9c0 4.5-4 8-8.5 8-1.5 0-2.5-.5-4-1l-41.4-29.5c13-12.4 29-21.4 46.4-25.4zm-60.9 44 37 33c3.5 3 4 8 1 11.5-1 1.5-2 2-4 2.5l-48.4 14c-1.6-21.1 3.4-42.5 14.4-61zm-8.5 84.4 49.4-8.5c4 0 8 2.5 8.5 6.5.5 1.5.5 3.5-.5 5l-19 45.9c-17.4-11.5-31.4-28.9-38.4-48.9zm113.4 61.9c-7 1.5-14 2.5-21.5 2.5-10.5 0-21.5-2-31.5-5l24.5-44.4c2.5-3 6.5-4 10-2 1.5 1 2.5 2 4 3.5l24 43.4c-3 .5-6 1-9.5 2zm60.9-43.4c-7.5 12-18 22.5-30 30l-19.5-46.9c-1-4 1-8 4.5-9.5 1.5-.5 3-1 4.5-1l49.9 8.5c-2.4 6.9-5.4 13.4-9.4 18.9z" style="fill:#fff"/><path d="M2419.5 312.1c7 .5 14.5-.5 21-3 4-2 6.5-6.5 6-11-.5-5-3.5-9.5-8-11-7.5-4.5-16-8.5-24.5-11-8.5-3-16-6.5-23-10-6.5-3-12-7-17.5-12-5-5-8.5-10.5-11-17-3-7.5-4-15.5-4-23.5-.5-16.5 7-32.5 20-42.4 13.5-10.5 31.5-15.5 54.4-15.5 11 0 22.5 1 33.5 3.5 8.5 1.5 17 3.5 25.5 6.5l-9.5 42.4c-7-2.5-13.5-4-20.5-6-8-2-16.5-2.5-24.5-2.5-17 0-25.5 4.5-25.5 14 0 2 .5 4 1 6 1 2 2.5 3.5 4.5 5s5 3 8.5 5 8.5 4 14.5 6c10 3.5 20 8 29 13 7 3.5 13 8 18 14 4.5 4.5 7.5 10 9.5 16.5 2 7 3 14 3 21 1 17-7 33.5-21.5 42.9-14 9.5-34 14.5-59.9 14.5-14.5.5-28.5-1-42.4-4.5-8-2-15.5-4.5-23-7l9-43.9c9 3.5 18.5 6.5 28 8.5 9.9.5 19.4 1.5 29.4 1.5m-275.1-54.9c-.5-15 2.5-30 7.5-43.9 4.5-12 11.5-22.5 20.5-32 8.5-8.5 18-15 29-19 11-4.5 22.5-6.5 34-6.5 27 0 48.4 8.5 63.9 25s23.5 40.9 23.5 72.9c0 3 0 6.5-.5 10.5 0 4-.5 7-.5 10h-121.9c1 10.5 6.5 20.5 15.5 26.5 11 7 24 10.5 37 10 9.5 0 19.5-1 29-2.5 8-1.5 16-4 23.5-7.5l7.5 43.9c-3.5 2-7.5 3-11.5 4.5-5.5 1.5-11 3-16.5 3.5-6 1-12 2-19 3-6.5.5-13.5 1-20.5 1-15.5.5-30.5-2-44.9-7.5-12-4.5-22.5-11.5-31.5-20.5-8.5-9-14.5-20-18.5-31.5-3.6-13.4-5.6-26.9-5.6-39.9m126.3-20.5c0-4.5-1-9-2.5-13.5-1-4.5-3.5-8-6-11.5-3-3.5-6.5-6.5-10.5-8.5-5-2.5-10-3.5-15.5-3.5s-10.5 1-15.5 3.5c-4 2-8 4.5-11 8s-5.5 7.5-7 12-2.5 9-3 13.5h71M1998 112.9l53.9-8.5v55.9h64.9v44.9H2052v66.9c-.5 9.5 1.5 19 6 27 4 6.5 12 10 24.5 10 6 0 12-.5 17.5-1.5 6-1 11.5-2.5 17-4.5l7.5 41.9c-7 3-14.5 5-22 7-9.5 2-19.5 3-29.5 3-12.5.5-25-1.5-36.5-6-9-3.5-17-9.5-23-16.5-6-7.5-10-16.5-12.5-26-2.5-11-3.5-22.5-3-33.5V112.9m-218.2 144.3c-.5-15 2.5-30 7.5-43.9 4.5-12 11.5-22.5 20.5-32 8.5-8.5 18-15 29-19 11-4.5 22.5-6.5 34-6.5 27 0 48.4 8.5 63.9 25s23.5 40.9 23.5 72.9c0 3 0 6.5-.5 10.5s-.5 7-.5 10h-122.3c1 10.5 6.5 20.5 15.5 26.5 11 7 24 10.5 37 10 9.5 0 19.5-1 29-2.5 8-1.5 16-4 24-7.5l7.5 43.9c-3.5 2-7.5 3-11.5 4.5-5.5 1.5-11 3-16.5 3.5-6 1-12 2-19 3-6.5.5-13.5 1-20.5 1-15.5.5-30.5-2-44.9-7.5-12-4.5-22.5-11.5-31.5-20.5-8.5-9-14.5-20-18.5-31.5-4.2-13.4-6.2-26.9-5.7-39.9m126.3-20.5c0-4.5-1-9-2.5-13.5-1-4.5-3.5-8-6-11.5-3-3.5-6.5-6.5-10.5-8.5-5-2.5-10-3.5-15.5-3.5s-10.5 1-15.5 3.5c-4 2-7.5 4.5-10.5 8s-5.5 7.5-7 12-2.5 9-3 13.5h70.5m-331-69.9c11.5-3 23.5-5.5 35.5-7.5 15-2.5 30.5-3.5 45.4-3.5 13.5-.5 27 2 40 6.5 10 3.5 19 9.5 25.5 17.5s11 17.5 13.5 27.5c3 11.5 4 23.5 4 35.5v107.4h-53.4V249.7c0-17.5-2.5-29.5-7-37-4.5-7-13-11-25.5-11-4 0-8 0-12.5.5-4.5 0-8 .5-11.5 1V350h-53.9l-.1-183.2m-38 41.4c-5-1-10.5-2.5-17-3.5-7-1.5-14-2-21-2-4 0-8 .5-12.5 1-3.5.5-7 1-10.5 2V351h-53.9V170.3c11-4 22.5-7 34-9.5 14.5-3.5 29.5-5 43.9-4.5 3.5 0 7 .5 10.5.5 4 0 8 .5 12.5 1.5 4 .5 8 1 12.5 2 3.5.5 7 1.5 10.5 3l-9 44.9m-335.1 49c-.5-15 2.5-30 7.5-43.9 4.5-12 11.5-22.5 20.5-32 8.5-8.5 18-15 29-19 11-4.5 22.5-6.5 34-6.5 27 0 48.4 8.5 63.9 25s23.5 40.9 23.5 72.4c0 3 0 6.5-.5 10.5s-.5 7-.5 10h-122.3c1 10.5 6.5 20.5 15.5 26.5 11 7 24 10.5 37 10 9.5 0 19.5-1 29-2.5 8-1.5 16-4 23.5-7l7.5 43.9c-3.5 2-7.5 3-11.5 4.5-5.5 1.5-11 3-16.5 3.5-6 1-12 2-19 3-6.5.5-13.5 1-20.5 1-15.5.5-30.5-2-44.9-7.5-12-4.5-22.5-11.5-31.5-20.5-8.5-9-14.5-20-18.5-31.5-3.2-13.4-5.2-26.4-5.2-39.9m126.9-20.5c0-4.5-1-9-2.5-13.5-1-4.5-3.5-8-6-11.5-3-3.5-6.5-6.5-10.5-8.5-5-2.5-10-3.5-15.5-3.5s-10.5 1-15.5 3.5c-4 2-8 4.5-11 8s-5.5 7.5-7 12-2.5 9-3 13.5h71m-214.3 17.5c0-35-13-51.9-38.5-51.9-5.5 0-11 .5-16.5 2-4.5 1-9 3-13 5.5v97.9c2.5.5 6 1 10 1.5s8.5.5 13.5.5c13 1 25.5-4.5 33.5-15 7.5-12 11.5-26 11-40.5m54.9 2c0 14-2 28-7 41.4-4 12-10.5 22.5-19 31.5-9 9-19.5 16-31 20.5-13.5 5-27.5 7-41.9 7-6.5 0-13.5-.5-20.5-1s-14-1.5-21-2c-6.5-1-13-2-19.5-3.5-6.5-1-12-2.5-16.5-4.5V78.4l53.9-8.5v94.9c6-2.5 12.5-4.5 19-6 7-1.5 14-2 21-2 12.5 0 24.5 2 36 7.5 10 4.5 19 11.5 26 20 7.5 9.5 13 20 16 31.5 3.1 12.4 4.5 26.4 4.5 40.4m-227.7 87.9c-11.5 3-23.5 5.5-35.5 7-15 2.5-30.5 3.5-45.4 3.5-14 .5-27.5-2-40.5-6.5-10-4-18.5-10-25.5-18-6.5-8.5-11-18-13.5-28.5-3-11.5-4-24-4-36V160.3h53.9v99.4c0 17.5 2.5 30 7 37.5s13 11.5 25.5 11.5c4 0 8 0 12.5-.5s8-.5 11.5-1.5V160.3h53.9l.1 183.8M627.2 229.2c5.5-6 10.5-12 16.5-18 5.5-6.5 11-12.5 16.5-18.5 5.5-6.5 10.5-12 15-17.5s9-10.5 12.5-14.5h63.9c-13 14.5-25.5 29-37.5 42.4-12.5 13.5-25.5 27.5-40 41.4 8 7.5 15.5 15 22.5 23.5 7.5 9 15 18 22.5 28 7 9.5 14 19.5 20 29s11 18.5 15 26.5h-61.9c-4-6.5-8.5-13-13.5-20.5s-10.5-15-15.5-23c-5.5-7.5-11.5-15-18-22-5.5-6.5-11.5-12.5-18-17.5v83.4h-53.9V78.4l53.9-8.5v159.3"/></svg>