<?xml version="1.0" encoding="utf-8"?>
<!-- Generator: Adobe Illustrator 19.0.0, SVG Export Plug-In . SVG Version: 6.00 Build 0)  -->
<svg version="1.1" width="150" height="68" id="Layer_1" xmlns="http://www.w3.org/2000/svg" xmlns:xlink="http://www.w3.org/1999/xlink" x="0px" y="0px"
	 viewBox="308 215.1 1211.5 410.8" style="enable-background:new 308 215.1 1211.5 410.8;" xml:space="preserve">
<style type="text/css">
	.st0{fill:transparent;}
	.st1{fill:#4BA565;}
	.st2{fill:#ffffff;}
</style>
<g id="Layer_x0020_1">
	<g id="_2000100895936">
		<polygon class="st0" points="1970.6,4162.1 2362.3,4162.1 2362.3,4572.9 1970.6,4572.9 		"/>
		<g>
			<path class="st1" d="M2069.7,4398.7c22.2,46.2,59.4,75.3,93.7,93.5c0.1,0.1,3,1.6,3.1,1.6c0,0,2.9-1.5,3-1.6
				c58.1-30.6,124.4-92.8,112.2-215.5l-25.6-11.1c-4.8,38-28.3,70-60.9,93.2c-4.4,3.1-9,6.1-13.8,8.9l4.6,34.6
				c0.6,4.6-3.8,8.4-8.4,8.4h-23.2c-4.6,0-9.1-3.9-8.4-8.4l2.5-18.6c-22.4,8.6-46.5,13.7-70.5,14.9
				C2075.1,4398.6,2072.4,4398.7,2069.7,4398.7z"/>
			<path class="st2" d="M2051.2,4276.7c-4.5,45,1.6,81.8,14,111.9c4,0,8.1,0,12.2-0.2c24.7-1.2,49.6-6.9,72.5-16.3l2-14.7
				c-7.2-4.8-12-13-12-22.3c0-14.7,12-26.7,26.7-26.7c14.7,0,26.7,11.9,26.7,26.7c0,6.4-2.2,12.2-6,16.8c0.7-0.5,1.4-1,2.2-1.5
				c30-21.3,51.6-50.4,56.4-84.7c-28.1,7.4-53.7-2.3-69.5-23.2h-9.3h-0.9h-9.4c-17,22.5-45.3,32-75.8,21.3L2051.2,4276.7z"/>
			<path class="st2" d="M2267.9,4229.4c1.7,0,3.3,0.7,4.4,1.8c1.1,1.1,1.8,2.7,1.8,4.4c0,1.7-0.7,3.3-1.8,4.4
				c-1.1,1.1-2.7,1.8-4.4,1.8c-1.7,0-3.3-0.7-4.4-1.8c-1.1-1.1-1.8-2.7-1.8-4.4c0-1.7,0.7-3.3,1.8-4.4
				C2264.6,4230.1,2266.2,4229.4,2267.9,4229.4z M2265.6,4239.5v-8.1h2.9c0.6,0,1.1,0.1,1.4,0.2c0.3,0.1,0.5,0.4,0.7,0.8
				c0.2,0.3,0.3,0.7,0.3,1.2c0,0.6-0.2,1.1-0.5,1.5c-0.3,0.4-0.8,0.6-1.4,0.7c0.2,0.1,0.4,0.3,0.5,0.4c0.3,0.3,0.5,0.7,0.7,1
				l1.2,2.3c0.1-0.1,0.1-0.1,0.2-0.2c1-1,1.6-2.3,1.6-3.8c0-1.5-0.6-2.8-1.6-3.8c-1-1-2.3-1.6-3.8-1.6s-2.8,0.6-3.8,1.6
				c-1,1-1.6,2.3-1.6,3.8c0,1.5,0.6,2.8,1.6,3.8c1,1,2.3,1.6,3.8,1.6c1,0,1.9-0.3,2.7-0.7l-1.2-2.4c-0.3-0.7-0.6-1.1-0.8-1.3
				c-0.2-0.2-0.3-0.4-0.5-0.5c-0.1-0.1-0.4-0.1-0.7-0.1h-1v3.6H2265.6z M2266.5,4235h1.9c0.4,0,0.7,0,0.9-0.1
				c0.2-0.1,0.4-0.3,0.5-0.5c0.1-0.2,0.2-0.5,0.2-0.7c0-0.4-0.1-0.7-0.3-1c-0.3-0.2-0.6-0.3-1.1-0.3h-2.1V4235z"/>
		</g>
	</g>
	<polygon class="st0" points="308,215.1 1519.5,215.1 1519.5,625.9 308,625.9 	"/>
	<path class="st1" d="M776.8,390c-1.2-15.8-14.2-37.9-46.3-37.9c-27.6,0-49.3,19.1-49.3,56.6c0,37,20.5,56.3,49,56.3
		c26.9,0,42.1-16.3,46.6-39.6h-22.4c-2.7,13.2-11.3,20.2-23.7,20.2c-19,0-26.6-17.3-26.6-36.6c0-30.3,15.8-37.5,26.6-37.5
		c18.5,0,21.9,12.1,23.7,18.5H776.8z M1120.3,422.4c0-28.7-19.3-41.8-40.6-41.8c-21.3,0-40.6,13.1-40.6,41.8
		c0,28.7,19.3,41.8,40.6,41.8C1101.1,464.2,1120.3,451,1120.3,422.4z M1098.8,422.4c0,10.1-3,24.2-19.1,24.2
		c-16.1,0-19.1-14-19.1-24.2s3-24.2,19.1-24.2C1095.9,398.2,1098.8,412.2,1098.8,422.4z M1024.5,361.1h-20.9v21.5h-10.7v14.9h10.7
		v48.2c0,10.3,3.3,17.2,21.3,17.2h2.7c3.3,0,6.6-0.1,9.9-0.3v-15.8c-1.5,0.1-3,0.3-4.3,0.3c-8.5,0-8.7-1.8-8.7-6.4v-43.2h13v-14.9
		h-13V361.1z M782.9,462.1h20.9v-41.4c0-8.8,3-19,19.3-19c1.9,0,4.2,0,6,0.3v-21.2c-1.3-0.1-2.7-0.3-4-0.3
		c-12.7,0-17.5,7.8-21.8,15.8h-0.3v-13.7h-20V462.1z"/>
	<path class="st1" d="M911,382.7h-22.1l-16.3,58.5h-0.3l-17-58.5H832l29.3,82.7c-2,10.9-6.1,12-13.7,12c-1.8,0-3.1-0.2-4-0.3v16.7
		c3,0.1,6.6,0.3,9.4,0.3c18.2,0,20.9-3.9,30.8-33.3L911,382.7z"/>
	<path class="st1" d="M935.2,424.2c0-12.7,3.4-25.5,17.8-25.5c13.3,0,17.8,11.8,17.8,24.3c0,9.4-3.7,24-17.2,24
		C940.2,447,935.2,435.9,935.2,424.2z M935.2,382.7h-20v110.5H936v-41.2h0.3c2.5,4.3,7.8,12.2,22.4,12.2c23.6,0,33.4-20.9,33.4-42.7
		c0-27.5-15.5-40.9-33-40.9c-14,0-19.9,7.3-23.8,13.6h-0.3V382.7z"/>
	<g id="_2000100893216">
		<path class="st1" d="M425.4,450.3c22.2,46.2,59.4,75.3,93.7,93.5c0.1,0.1,3,1.6,3,1.6c0,0,2.9-1.5,3-1.6
			c58.1-30.6,124.4-92.8,112.2-215.5l-25.6-11.1c-4.8,38-28.2,70-60.8,93.2c-4.4,3.1-9,6.1-13.8,8.9l4.6,34.6
			c0.6,4.6-3.8,8.5-8.4,8.5H510c-4.6,0-9.1-3.9-8.4-8.5l2.4-18.6c-22.4,8.6-46.5,13.7-70.4,14.9
			C430.8,450.2,428.1,450.3,425.4,450.3z"/>
		<path class="st2" d="M406.9,328.3c-4.4,44.9,1.6,81.7,14,111.9c4.1,0.1,8.1,0,12.2-0.2c24.7-1.2,49.6-6.9,72.5-16.3l1.9-14.6
			c-7.2-4.8-12-13-12-22.3c0-14.7,12-26.7,26.7-26.7c14.7,0,26.7,12,26.7,26.7c0,6.3-2.2,12.2-6,16.8c0.7-0.5,1.4-1,2.1-1.5
			c30-21.3,51.6-50.5,56.5-84.7c-28.1,7.4-53.7-2.3-69.5-23.2h-9.3h-0.9h-9.3c-17,22.5-45.3,32-75.8,21.3L406.9,328.3z"/>
		<path class="st2" d="M623.6,280.9c1.7,0,3.3,0.7,4.4,1.8c1.1,1.1,1.8,2.7,1.8,4.4c0,1.7-0.7,3.3-1.8,4.4c-1.1,1.1-2.7,1.8-4.4,1.8
			c-1.7,0-3.3-0.7-4.4-1.8c-1.1-1.1-1.8-2.7-1.8-4.4c0-1.7,0.7-3.3,1.8-4.4C620.3,281.7,621.9,280.9,623.6,280.9z M621.3,291.1V283
			h2.9c0.6,0,1,0.1,1.4,0.2c0.3,0.1,0.5,0.4,0.7,0.7c0.2,0.4,0.3,0.8,0.3,1.2c0,0.6-0.2,1.1-0.5,1.5c-0.3,0.4-0.8,0.6-1.4,0.7
			c0.3,0.1,0.5,0.3,0.6,0.4c0.3,0.3,0.5,0.7,0.7,1l1.2,2.3c0.1-0.1,0.2-0.1,0.3-0.2c1-1,1.6-2.3,1.6-3.8c0-1.5-0.6-2.8-1.6-3.8
			s-2.3-1.6-3.8-1.6c-1.5,0-2.8,0.6-3.8,1.6c-1,1-1.6,2.3-1.6,3.8c0,1.5,0.6,2.8,1.6,3.8c1,1,2.3,1.6,3.8,1.6c1,0,1.9-0.3,2.7-0.7
			l-1.2-2.4c-0.3-0.7-0.6-1.1-0.8-1.3c-0.2-0.2-0.3-0.4-0.5-0.5c-0.2-0.1-0.4-0.1-0.7-0.1h-1v3.6H621.3z M622.1,286.6h1.9
			c0.4,0,0.7-0.1,0.9-0.1c0.2-0.1,0.4-0.3,0.5-0.5c0.1-0.2,0.2-0.5,0.2-0.7c0-0.4-0.1-0.7-0.4-0.9c-0.2-0.3-0.6-0.4-1-0.4h-2.1
			V286.6z"/>
	</g>
	<path class="st2" d="M1130,462.1h46.4c35.4,0,44.5-33.1,44.5-56.2c0-20.3-7.5-51.1-43.6-51.1H1130V462.1z M1444.1,382.7h-22.1
		l-16.3,58.5h-0.3l-17-58.5h-23.3l29.3,82.7c-1.9,10.9-6.1,12-13.7,12c-1.8,0-3.1-0.2-4.1-0.3v16.7c3,0.1,6.6,0.3,9.4,0.3
		c18.2,0,20.9-3.9,30.8-33.3L1444.1,382.7z M1358.1,354.9h-20.9v107.2h20.9V354.9z M1303.7,382.7v79.4h20.9v-79.4H1303.7z
		 M1324.6,353.8h-20.9v19.4h20.9V353.8z M1292.5,403.5c0-19.6-20.5-23-31.7-23c-16.3,0-33.1,3.4-35.5,27.8h20.2
		c0.6-4.6,2.4-11.1,12.8-11.1c5.4,0,13.7,0.5,13.7,9.2c0,4.5-4,5.8-7.3,6.3l-18.8,2.8c-13.3,1.9-23.1,9.9-23.1,25.4
		c0,16.4,12.2,23.2,24.2,23.2c14.2,0,20.9-6.6,25.7-11.5c0.5,4.5,0.8,5.7,2,9.4h22.5V459c-2.5-0.9-4.6-3-4.6-12.4V403.5z
		 M1272,433.6c0,9.7-9.4,15.7-18.7,15.7c-4,0-9.7-2.2-9.7-9.6c0-8.7,6.4-10.6,14.2-11.9c8.6-1.4,12.1-2.7,14.2-4.3V433.6z
		 M1151.9,373.4h21.5c9.6,0,24.6,2.6,24.6,34.2c0,17.6-6.1,36-24.3,36h-21.8V373.4z"/>
	<path class="st2" d="M1457.1,345v8.7c0,0.2-0.1,0.4-0.2,0.6s-0.3,0.2-0.5,0.2h-1.4c-0.2,0-0.4-0.1-0.6-0.2s-0.2-0.3-0.2-0.6v-22.3
		c0-0.2,0.1-0.4,0.2-0.6s0.3-0.2,0.6-0.2h8c2.2,0,4.1,0.6,5.5,1.8c1.2,1.2,2,2.9,2,5.1v0.5c0,1.6-0.4,3-1.4,4.2
		c-0.8,1-2,1.8-3.5,2.3l4.6,8.8c0.1,0.1,0.1,0.2,0.2,0.3c0,0.1,0,0.2,0,0.3c0,0.2-0.1,0.3-0.2,0.4c-0.1,0.1-0.3,0.2-0.4,0.2h-1.9
		c-0.2,0-0.4-0.1-0.5-0.2c-0.1-0.1-0.2-0.2-0.3-0.4l-4.6-8.9H1457.1z M1461.5,322.6c5.6,0,10.7,2.3,14.4,6c3.7,3.7,6,8.8,6,14.4
		s-2.3,10.7-6,14.4c-3.7,3.7-8.8,6-14.4,6c-5.6,0-10.7-2.3-14.4-6c-3.7-3.7-6-8.8-6-14.4s2.3-10.7,6-14.4
		C1450.7,324.9,1455.9,322.6,1461.5,322.6z M1473.9,330.5c-3.2-3.2-7.6-5.2-12.5-5.2s-9.3,2-12.5,5.2c-3.2,3.2-5.2,7.6-5.2,12.5
		s2,9.3,5.2,12.5c3.2,3.2,7.6,5.2,12.5,5.2s9.3-2,12.5-5.2c3.2-3.2,5.2-7.6,5.2-12.5S1477.1,333.7,1473.9,330.5z M1457.1,333.5v8.7
		h5.7c1.3,0,2.5-0.4,3.4-1.1c0.7-0.7,1.2-1.6,1.2-2.9v-0.6c0-1.4-0.5-2.4-1.2-3.1c-0.9-0.8-2.1-1.1-3.4-1.1H1457.1z"/>
</g>
</svg>
