<svg width="53" height="28" viewBox="0 0 53 28" fill="none" xmlns="http://www.w3.org/2000/svg"><path fill-rule="evenodd" clip-rule="evenodd" d="M15.511 11.4353C16.0055 11.4353 16.4575 11.4356 16.9094 11.4353C18.0646 11.4346 19.2207 11.4297 20.3509 11.1485C21.4421 10.877 22.3569 10.3606 22.7671 9.23616C23.089 8.35324 23.1283 7.44161 22.8864 6.53528C22.5507 5.27733 21.6164 4.66231 20.4257 4.36869C18.827 3.97433 17.1958 4.00278 15.5661 4.03572C15.549 4.036 15.5324 4.06118 15.511 4.07847V11.4353ZM15.5121 23.7521C16.8464 23.7521 18.1378 23.7847 19.4265 23.7389C20.0992 23.715 20.7795 23.6044 21.4344 23.4437C22.7981 23.1088 23.8721 22.3718 24.2694 20.9543C24.4403 20.3443 24.5103 19.6837 24.4966 19.049C24.4522 17.0094 23.406 15.7631 21.4285 15.2972C19.498 14.8423 17.5342 14.9682 15.5777 14.969C15.5593 14.969 15.5408 14.9897 15.5121 15.007V23.7521ZM10.0723 27.3825C10.2053 26.4945 10.3726 25.641 10.4509 24.7795C10.5296 23.913 10.5435 23.0387 10.5447 22.1678C10.5523 16.6648 10.5554 11.1619 10.544 5.65903C10.5409 4.14449 10.5481 2.62464 10.1736 1.13868C10.1215 0.931636 10.0639 0.725949 9.99707 0.475613C10.132 0.475613 10.2408 0.475613 10.3499 0.475613C12.9229 0.47643 15.4961 0.469079 18.0692 0.481058C19.8384 0.489362 21.6119 0.542179 23.3219 1.04326C24.0733 1.26351 24.8111 1.58531 25.4944 1.96905C26.5394 2.5559 27.2264 3.48795 27.6145 4.61549C28.1027 6.03392 28.2255 7.49469 27.8997 8.96241C27.4887 10.814 26.2857 11.998 24.574 12.7168C24.474 12.7588 24.3751 12.8039 24.2771 12.8469C24.9151 13.0669 25.5574 13.2372 26.1562 13.5043C28.128 14.3835 29.2455 15.9118 29.4992 18.0585C29.6934 19.7035 29.564 21.3166 28.9132 22.8533C28.085 24.8089 26.541 25.9734 24.5773 26.6385C22.9282 27.1972 21.2134 27.3631 19.4889 27.3788C16.3944 27.407 13.2997 27.3883 10.2052 27.3889C10.1495 27.3889 10.0939 27.3836 10.0723 27.3825Z" fill="#1A1919"/><path fill-rule="evenodd" clip-rule="evenodd" d="M44.5139 4.13272C44.5065 4.25551 44.4966 4.34372 44.4966 4.43193C44.5039 10.9668 44.5056 17.5017 44.5264 24.0366C44.5298 25.1118 44.6649 26.1796 44.9864 27.2148C45.006 27.278 45.0166 27.344 45.0363 27.4305H38.9759C39.0822 26.9092 39.2168 26.3969 39.2853 25.8759C39.3766 25.1818 39.4681 24.481 39.47 23.7828C39.487 17.3386 39.4847 10.8943 39.488 4.4499C39.488 4.3606 39.488 4.2713 39.488 4.13653C36.6047 4.09542 33.7429 4.01524 30.9922 5.15789V0.552734H53.0001V5.1602C50.2665 4.01797 47.4078 4.09923 44.5139 4.13272Z" fill="#1A1919"/><path fill-rule="evenodd" clip-rule="evenodd" d="M6.05463 27.4353H0C0.635982 25.3245 0.537154 23.1685 0.540285 21.0228C0.5475 16.0418 0.545867 11.0606 0.539605 6.07965C0.53838 5.15195 0.540149 4.22085 0.464599 3.29764C0.389185 2.37851 0.21821 1.46715 0.088346 0.546387H6.04292C5.5025 2.33522 5.50549 4.15795 5.50508 5.97987C5.50386 10.927 5.50223 15.8741 5.50645 20.821C5.5074 21.9302 5.51938 23.0395 5.54892 24.1481C5.57859 25.2571 5.70887 26.3549 6.05463 27.4353Z" fill="#1A1919"/></svg>