<svg width="276" height="124" viewBox="0 0 110 30" fill="none" xmlns="http://www.w3.org/2000/svg" class="ng-star-inserted"><g _ngcontent-ng-c2310472544="" name="icon"><path _ngcontent-ng-c2310472544="" fill="#4231C8" d="M16.1746 8.71007L13.7481 7.29166C13.3466 7.05724 12.6901 7.05724 12.2886 7.29166L9.86209 8.71007C9.33855 9.01591 9.33764 9.51863 9.85935 9.82722L12.2895 11.2649C12.6901 11.502 13.3466 11.502 13.7472 11.2649L16.1764 9.82722C16.6981 9.51863 16.6972 9.01591 16.1737 8.71007H16.1746Z"></path><path _ngcontent-ng-c2310472544="" fill="#4231C8" d="M25.6342 6.95284L13.9133 0.173952C13.5118 -0.0586349 12.8544 -0.0586349 12.4529 0.173952L0.73113 6.95284C0.32869 7.18543 0 7.75774 0 8.22383V21.7752C0 22.2413 0.32869 22.8136 0.73113 23.0462L12.452 29.8251C12.8535 30.0577 13.5109 30.0577 13.9124 29.8251L25.6333 23.0462C26.0357 22.8136 26.3644 22.2413 26.3644 21.7752V8.22383C26.3644 7.75774 26.0357 7.18543 25.6333 6.95284H25.6342ZM20.4188 10.0973L13.7476 14.0449C13.347 14.2821 12.6905 14.2821 12.2899 14.0449L8.05791 11.5414C7.53164 11.2301 7.10188 11.4782 7.10188 12.0917V19.6444C7.10188 20.2469 6.66849 20.5097 6.13858 20.2277L5.42019 19.8458C5.00774 19.6261 4.66994 19.0629 4.66994 18.5932V10.384C4.66994 9.91786 4.99772 9.34464 5.39834 9.11022L12.289 5.08116C12.6905 4.84674 13.347 4.84674 13.7485 5.08116L20.4161 8.97927C20.9396 9.28512 20.9405 9.78783 20.4188 10.0964V10.0973Z"></path></g><g _ngcontent-ng-c2310472544="" name="lettering"><g _ngcontent-ng-c2310472544="" name="probit.com"><path _ngcontent-ng-c2310472544="" fill="#4231C8" d="M40.2035 24.5827C40.2035 24.45 40.2691 24.3749 40.4111 24.3749H40.8063C40.9192 24.3749 41.023 24.4509 41.023 24.5827V26.6861C41.023 26.752 40.9947 26.8189 40.8909 26.8848L40.8718 26.904C40.2882 27.3399 39.5434 27.5862 38.7239 27.5862C36.7363 27.5862 35.1348 25.9764 35.1348 23.9766C35.1348 21.9767 36.7454 20.3577 38.7331 20.3577C39.1856 20.3577 39.6181 20.4438 40.0232 20.604C40.3437 20.7268 40.9838 21.0207 40.9838 21.2579C40.9838 21.2954 40.9747 21.3339 40.9556 21.3622L40.7489 21.7038C40.7015 21.7798 40.6451 21.8173 40.5886 21.8173C40.5413 21.8173 40.4757 21.7981 40.4102 21.7413C39.9486 21.4099 39.3549 21.1919 38.7431 21.1919C37.1133 21.1919 35.9551 22.5279 35.9551 23.9866C35.9551 25.5406 37.2362 26.7621 38.734 26.7621C39.3841 26.7621 39.9304 26.535 40.2035 26.3354V24.5827Z"></path><path _ngcontent-ng-c2310472544="" fill="#4231C8" d="M47.4738 26.6769C47.5867 26.6769 47.6805 26.7529 47.6805 26.8949V27.274C47.6805 27.3875 47.5958 27.4818 47.4738 27.4818H43.4704C43.3292 27.4818 43.2637 27.4159 43.2637 27.274V20.6617C43.2637 20.5482 43.3392 20.4539 43.4804 20.4539H43.8664C43.9884 20.4539 44.0731 20.5299 44.0731 20.6617V26.6769H47.4738Z"></path><path _ngcontent-ng-c2310472544="" fill="#4231C8" d="M56.054 23.9857C56.054 25.9755 54.4433 27.5853 52.4466 27.5853C50.4499 27.5853 48.8574 25.9755 48.8574 23.9756C48.8574 21.9758 50.4681 20.3568 52.4557 20.3568C54.4433 20.3568 56.054 21.9675 56.054 23.9848V23.9857ZM52.4557 26.7713C53.9817 26.7713 55.2245 25.5204 55.2245 23.9674C55.2245 22.4144 53.9808 21.1828 52.4557 21.1828C50.9306 21.1828 49.6769 22.4336 49.6769 23.9674C49.6769 25.5012 50.9106 26.7713 52.4557 26.7713Z"></path><path _ngcontent-ng-c2310472544="" fill="#4231C8" d="M62.4291 23.7211C63.0319 24.0434 63.437 24.7256 63.437 25.4545C63.437 26.5341 62.6085 27.4818 61.4968 27.4818H58.3983C58.2763 27.4818 58.1816 27.4058 58.1816 27.274V20.681C58.1816 20.5299 58.2572 20.4539 58.3983 20.4539H61.1772C62.2416 20.4539 63.071 21.2304 63.071 22.2917C63.071 22.8502 62.8261 23.3713 62.43 23.722L62.4291 23.7211ZM61.1672 21.2578H58.9911V23.4372H61.1672C61.779 23.4372 62.2406 22.9253 62.2406 22.2907C62.2406 21.6562 61.7981 21.2578 61.1672 21.2578ZM58.9911 24.2421V26.6769H61.4867C62.0986 26.6769 62.6167 26.1083 62.6167 25.4545C62.6167 24.8007 62.1177 24.2421 61.4867 24.2421H58.9911Z"></path><path _ngcontent-ng-c2310472544="" fill="#4231C8" d="M65.8366 27.2923C65.7801 27.425 65.7046 27.4818 65.5735 27.4818H65.1683C65.0363 27.4818 64.9707 27.4342 64.9707 27.3307C64.9707 27.2648 64.9898 27.208 64.9898 27.208C66.8047 22.8249 67.7152 20.6303 67.7213 20.6242C67.7495 20.5582 67.7869 20.4539 67.9562 20.4539H68.2294C68.3896 20.4539 68.437 20.5582 68.4652 20.6242L71.1776 27.2172C71.1776 27.2172 71.2058 27.2932 71.2058 27.3307C71.2058 27.4351 71.1211 27.4818 70.9991 27.4818H70.5939C70.4719 27.4818 70.3772 27.4058 70.3399 27.3023L69.7936 25.948H66.3647L65.8375 27.2932L65.8366 27.2923ZM66.7034 25.1413H69.4631L68.0882 21.6745L66.7034 25.1413Z"></path><path _ngcontent-ng-c2310472544="" fill="#4231C8" d="M77.4035 26.6769C77.5164 26.6769 77.6102 26.7529 77.6102 26.8949V27.274C77.6102 27.3875 77.5255 27.4818 77.4035 27.4818H73.4C73.2589 27.4818 73.1934 27.4159 73.1934 27.274V20.6617C73.1934 20.5482 73.2689 20.4539 73.4101 20.4539H73.7961C73.9181 20.4539 74.0028 20.5299 74.0028 20.6617V26.6769H77.4035Z"></path><path _ngcontent-ng-c2310472544="" fill="#4231C8" d="M34.9844 2.9925C34.9844 2.7297 35.141 2.60699 35.3504 2.60699H40.939C43.3245 2.60699 44.9607 4.72591 44.9607 6.86131C44.9607 8.99671 43.3764 11.0634 40.9918 11.0634H38.3277V15.2134C38.3277 15.4753 38.1884 15.598 37.9271 15.598H35.3504C35.0891 15.598 34.9844 15.4753 34.9844 15.2134V2.9925ZM38.3268 5.37331V8.29712H40.207C41.0601 8.29712 41.5472 7.57922 41.5472 6.84392C41.5472 6.10861 41.0419 5.37331 40.207 5.37331H38.3268Z"></path><path _ngcontent-ng-c2310472544="" fill="#4231C8" d="M48.04 2.9925C48.04 2.79929 48.162 2.60699 48.406 2.60699H54.1858C56.6405 2.60699 58.3122 4.77811 58.3122 6.96662C58.3122 8.36763 57.4591 9.73293 56.188 10.5561L58.6773 15.2143C58.782 15.3892 58.7119 15.5989 58.4679 15.5989H55.334C55.09 15.5989 55.0026 15.5293 54.8642 15.2317L52.7928 11.274H51.3997V15.2134C51.3997 15.4753 51.2604 15.598 51.0164 15.598H48.4051C48.1611 15.598 48.0391 15.4753 48.0391 15.2134V2.9925H48.04ZM51.3997 5.30372V8.47294H53.3318C54.2368 8.47294 54.8815 7.70284 54.8815 6.89703C54.8815 6.14432 54.2368 5.30372 53.3318 5.30372H51.3997Z"></path><path _ngcontent-ng-c2310472544="" fill="#4231C8" d="M67.7147 2.41376C71.3886 2.41376 74.365 5.40808 74.365 9.11939C74.365 12.8307 71.3877 15.7902 67.7147 15.7902C64.0418 15.7902 61.0645 12.8133 61.0645 9.11939C61.0645 5.42548 64.0245 2.41376 67.7147 2.41376ZM67.7147 12.5688C69.6295 12.5688 71.0053 11.046 71.0053 9.10199C71.0053 7.15797 69.6304 5.63517 67.7147 5.63517C65.799 5.63517 64.4242 7.17629 64.4242 9.10199C64.4242 11.0277 65.799 12.5688 67.7147 12.5688Z"></path><path _ngcontent-ng-c2310472544="" fill="#4231C8" d="M77.8633 3.0099C77.8633 2.76449 78.0026 2.60699 78.2466 2.60699H83.7651C85.8019 2.60699 87.4909 4.2699 87.4909 6.37142C87.4909 7.24682 87.2123 8.01692 86.7079 8.61304C87.5264 9.38314 88.0663 10.5039 88.0663 11.677C88.0663 13.7959 86.3255 15.5989 84.2714 15.5989H78.2475C78.0208 15.5989 77.8642 15.4762 77.8642 15.2317V3.0099H77.8633ZM82.8428 5.18101H81.2412V7.72023H82.8082C83.6094 7.72023 84.1485 7.19463 84.1485 6.45932C84.1485 5.72402 83.6085 5.18101 82.8428 5.18101ZM83.278 10.0836H81.2412V13.0075H83.278C84.0437 13.0075 84.6183 12.2896 84.6183 11.5369C84.6183 10.8373 84.0437 10.0836 83.278 10.0836Z"></path><path _ngcontent-ng-c2310472544="" fill="#4231C8" d="M92.1035 2.9925C92.1035 2.7297 92.2255 2.60699 92.4695 2.60699H95.0808C95.3249 2.60699 95.4642 2.7297 95.4642 2.9925V15.2143C95.4642 15.4762 95.3249 15.5989 95.0808 15.5989H92.4695C92.2255 15.5989 92.1035 15.4762 92.1035 15.2143V2.9925Z"></path><path _ngcontent-ng-c2310472544="" fill="#4231C8" d="M99.7988 2.9925C99.7988 2.7297 99.9208 2.60699 100.182 2.60699H109.619C109.863 2.60699 110.002 2.7297 110.002 2.9925V5.21581C110.002 5.46122 109.863 5.6004 109.619 5.6004H106.537V15.2134C106.537 15.4753 106.397 15.598 106.136 15.598H103.629C103.385 15.598 103.246 15.4753 103.246 15.2134V5.6004H100.182C99.9208 5.6004 99.7988 5.4603 99.7988 5.21581V2.9925Z"></path></g></g></svg>
