<?xml version="1.0" encoding="utf-8"?>
<!-- Generator: Adobe Illustrator 28.3.0, SVG Export Plug-In . SVG Version: 6.00 Build 0)  -->
<svg version="1.1" id="Layer_1" xmlns="http://www.w3.org/2000/svg" xmlns:xlink="http://www.w3.org/1999/xlink" x="0px" y="0px"
	 viewBox="0 0 1080 1080" style="enable-background:new 0 0 1080 1080;" xml:space="preserve">
<style type="text/css">
	.st0{fill:#DF4226;}
	.st1{fill:#0B1522;}
</style>
<g>
	<g>
		<g>
			<g>
				<path class="st0" d="M270.29,473.5l-20.96-12.1l-52.48-30.3c-3.68-2.12-8.19-2.12-11.85,0l-73.45,42.4
					c-3.66,2.12-5.92,6.02-5.92,10.25l0.02,84.8c0,4.23,2.26,8.14,5.93,10.25l73.42,42.4c3.66,2.13,8.18,2.13,11.85,0l73.43-42.38
					c3.66-2.13,5.92-6.04,5.92-10.27v-84.8C276.21,479.53,273.95,475.62,270.29,473.5z M249.3,559.86l-58.37,33.69l-31.41-18.14
					l11.55-6.67c12.3-7.08,19.86-20.19,19.86-34.39v-8.16l-58.32,33.67h-0.02v-67.39l58.34-33.71l31.46,18.18l-11.6,6.69
					c-12.28,7.1-19.86,20.21-19.86,34.4v8.16l58.37-33.69V559.86z"/>
			</g>
		</g>
		<g>
			<g>
				<path class="st1" d="M452.44,557.09c0,6-1.18,11.32-3.52,15.95c-2.35,4.63-5.51,8.58-9.49,11.84c-3.98,3.26-8.51,6-13.6,8.22
					c-5.08,2.22-10.4,3.98-15.94,5.28c-5.55,1.31-11.09,2.21-16.63,2.74c-5.55,0.52-10.66,0.78-15.36,0.78
					c-6.52,0-12.59-0.36-18.2-1.08c-5.61-0.72-11.12-1.86-16.53-3.42c-5.42-1.56-10.96-3.59-16.63-6.06
					c-5.68-2.48-11.91-5.48-18.69-9l12.52-26.61c6.52,2.87,12.43,5.38,17.71,7.53c5.28,2.15,10.14,3.95,14.58,5.38
					c4.43,1.44,8.47,2.51,12.13,3.23c3.65,0.72,7.11,1.08,10.38,1.08c4.43,0,9-0.32,13.7-0.98c4.7-0.65,8.93-1.6,12.72-2.84
					c3.78-1.24,6.88-2.87,9.29-4.89c2.41-2.02,3.62-4.4,3.62-7.14c0-2.61-1.37-4.73-4.11-6.36c-2.74-1.63-6.52-2.97-11.35-4.01
					c-3.39-0.65-7.04-1.21-10.96-1.66c-3.91-0.45-7.96-0.88-12.13-1.27c-2.22-0.26-4.5-0.49-6.85-0.68c-2.35-0.2-4.7-0.42-7.04-0.69
					c-6.66-0.78-13.27-1.96-19.86-3.52c-6.59-1.56-12.49-3.82-17.71-6.75c-5.22-2.93-9.42-6.75-12.62-11.44
					c-3.2-4.7-4.8-10.63-4.8-17.81c0-6,1.18-11.25,3.52-15.75c2.35-4.5,5.45-8.35,9.29-11.55c3.85-3.19,8.28-5.83,13.3-7.92
					c5.02-2.09,10.21-3.75,15.56-4.99c5.35-1.24,10.66-2.09,15.94-2.54c5.28-0.45,10.14-0.68,14.58-0.68
					c12.26,0,23.97,1.5,35.12,4.5c11.16,3,22.73,7.7,34.73,14.09l-11.94,24.85c-10.18-4.95-20.12-8.64-29.84-11.05
					c-9.72-2.41-19.08-3.62-28.08-3.62c-7.04,0-12.82,0.46-17.31,1.37c-4.5,0.91-8.06,2.06-10.66,3.42c-2.61,1.37-4.4,2.84-5.38,4.4
					c-0.98,1.56-1.46,3-1.46,4.3c0,2.22,1.37,4.05,4.1,5.48c2.74,1.44,6,2.54,9.78,3.33c3.79,0.78,7.66,1.34,11.64,1.66
					c3.97,0.33,7.27,0.55,9.88,0.68c0.65,0,1.17,0.03,1.56,0.1c0.39,0.07,0.78,0.1,1.18,0.1c4.56,0.39,9.49,0.88,14.78,1.47
					c5.28,0.59,10.49,1.47,15.65,2.64c5.15,1.18,10.11,2.74,14.87,4.7s8.97,4.5,12.62,7.63c3.65,3.13,6.55,6.94,8.7,11.45
					C451.36,545.45,452.44,550.83,452.44,557.09z"/>
				<polygon class="st1" points="464.21,520.02 464.21,473.27 503.52,459.46 503.52,493.69 547.82,493.69 547.82,520.02 				"/>
				<path class="st1" d="M555.74,583.45c-2.64,2.61-5.78,5.08-9.43,7.33c-3.68,2.27-7.38,4.27-11.2,5.92
					c-3.82,1.68-7.64,2.98-11.51,3.85c-3.88,0.9-7.36,1.32-10.44,1.32c-4.97,0-9.91-0.59-14.8-1.74c-4.91-1.18-9.77-3.23-14.6-6.15
					c-2.78-1.77-5.36-3.93-7.78-6.49c-2.42-2.56-4.52-5.36-6.26-8.45c-1.77-3.06-3.12-6.21-4.07-9.43c-0.95-3.2-1.43-6.35-1.43-9.43
					v-40.15l39.31,10.76v24.33c0,2.78,0.51,5.19,1.52,7.24c1.04,2.05,2.33,3.68,3.96,4.83c1.91,1.46,5.28,2.19,10.11,2.19
					c0.73,0,2.02-0.17,3.93-0.53c1.91-0.37,4.1-0.98,6.6-1.88c2.47-0.87,5.08-1.99,7.78-3.4c2.7-1.38,5.22-3.09,7.58-5.14
					L555.74,583.45z"/>
				<path class="st1" d="M703.3,548.11c0,9.95-1.9,18.47-5.71,25.57c-3.81,7.1-8.92,12.91-15.36,17.45
					c-6.44,4.54-13.93,7.87-22.49,9.99c-8.56,2.12-17.59,3.18-27.1,3.18c-9.22,0-18.14-1.1-26.77-3.29
					c-8.63-2.19-16.24-5.59-22.82-10.21c-6.59-4.61-11.85-10.46-15.8-17.56c-3.95-7.1-5.93-15.47-5.93-25.13
					c0-10.09,1.97-18.72,5.93-25.9c3.95-7.17,9.22-13.06,15.8-17.67c6.58-4.61,14.19-8.01,22.82-10.2
					c8.63-2.19,17.56-3.29,26.77-3.29s18.1,1.14,26.66,3.4c8.56,2.27,16.09,5.78,22.6,10.53c6.51,4.76,11.7,10.72,15.59,17.89
					C701.36,530.04,703.3,538.45,703.3,548.11z M665.11,547.89c0-3.51-0.73-6.87-2.19-10.09c-1.47-3.21-3.59-6-6.37-8.34
					c-2.78-2.34-6.18-4.2-10.2-5.59c-4.02-1.39-8.6-2.09-13.71-2.09c-5.12,0-9.69,0.7-13.71,2.09c-4.03,1.39-7.43,3.26-10.21,5.59
					c-2.78,2.34-4.91,5.09-6.37,8.23c-1.46,3.15-2.19,6.55-2.19,10.2c0,3.37,0.73,6.55,2.19,9.55c1.46,3,3.58,5.67,6.37,8.01
					c2.77,2.34,6.18,4.17,10.21,5.49c4.02,1.31,8.59,1.97,13.71,1.97c5.12,0,9.69-0.66,13.71-1.97c4.02-1.32,7.42-3.11,10.2-5.38
					c2.78-2.26,4.9-4.9,6.37-7.9C664.38,554.66,665.11,551.4,665.11,547.89z"/>
				<path class="st1" d="M793.74,492.13c-3.06-0.42-6.37-0.64-9.85-0.64c-3.4,0-6.58,0.47-9.68,1.4c-3.06,0.98-5.95,2.17-8.66,3.65
					c-2.72,1.44-5.14,3.06-7.35,4.8c-2.21,1.78-4.08,3.4-5.69,4.84V493.7h-39.28v108.17h39.28v-61.88c1.44-2.21,3.23-4.37,5.35-6.5
					c2.12-2.08,4.42-3.95,6.8-5.56c2.42-1.61,5.01-2.93,7.81-3.95c2.76-1.02,5.56-1.53,8.32-1.53c2.93,0,6.03,0.59,9.34,1.83
					c3.27,1.27,5.52,2.68,6.71,4.29v-35.84C795.91,492.47,794.85,492.3,793.74,492.13z"/>
			</g>
			<path class="st0" d="M974.26,595.95l-64.77-72.41l61.67-69.57l0.26-5.95h-43.45l-42.38,48.71l-43.23-48.71h-46.08l-0.21,5.95
				c10.53,11.85,21.15,23.78,31.81,35.84c10.66,12.1,21.36,24.04,32.06,35.89l24.12,26.8l43.91,49.39h46.5L974.26,595.95z
				 M796.05,596.17l0.21,5.73h42.81l44.98-49.39h-48.41L796.05,596.17z"/>
		</g>
	</g>
	<g>
		<path class="st1" d="M728.1,630.05c-0.54,1.01-1.4,1.83-2.58,2.47c-1.18,0.63-2.7,0.95-4.55,0.95h-4.07v9.1h-3.68v-22.43h7.75
			c1.72,0,3.18,0.3,4.37,0.89c1.19,0.59,2.09,1.39,2.68,2.4c0.59,1.01,0.89,2.14,0.89,3.39
			C728.91,627.97,728.64,629.04,728.1,630.05z M724.1,629.52c0.69-0.63,1.03-1.53,1.03-2.69c0-2.45-1.39-3.68-4.16-3.68h-4.07v7.33
			h4.07C722.37,630.47,723.41,630.16,724.1,629.52z"/>
		<path class="st1" d="M735.59,641.72c-1.36-0.76-2.42-1.84-3.2-3.23c-0.77-1.39-1.16-3-1.16-4.82c0-1.81,0.4-3.41,1.2-4.81
			c0.8-1.4,1.88-2.47,3.26-3.23c1.38-0.75,2.92-1.13,4.61-1.13c1.7,0,3.24,0.38,4.61,1.13c1.38,0.75,2.46,1.83,3.26,3.23
			s1.2,3,1.2,4.81c0,1.81-0.41,3.41-1.23,4.81c-0.82,1.4-1.93,2.48-3.34,3.24c-1.41,0.76-2.97,1.15-4.66,1.15
			C738.46,642.87,736.94,642.48,735.59,641.72z M742.8,638.99c0.83-0.45,1.5-1.13,2.02-2.03c0.52-0.9,0.77-2,0.77-3.29
			c0-1.29-0.25-2.38-0.74-3.28c-0.49-0.89-1.15-1.57-1.97-2.02c-0.82-0.45-1.7-0.68-2.65-0.68c-0.95,0-1.82,0.23-2.63,0.68
			c-0.81,0.45-1.45,1.12-1.92,2.02c-0.48,0.89-0.71,1.98-0.71,3.28c0,1.91,0.49,3.39,1.47,4.44c0.98,1.04,2.21,1.57,3.7,1.57
			C741.08,639.67,741.97,639.45,742.8,638.99z"/>
		<path class="st1" d="M776.9,624.79l-5.52,17.78h-3.87l-3.58-13.13l-3.58,13.13h-3.87l-5.55-17.78h3.74l3.71,14.3l3.78-14.3h3.84
			l3.62,14.23l3.68-14.23H776.9z"/>
		<path class="st1" d="M795.81,635.06h-13.59c0.11,1.42,0.63,2.56,1.58,3.42c0.95,0.86,2.11,1.29,3.49,1.29
			c1.98,0,3.38-0.83,4.19-2.48h3.97c-0.54,1.63-1.51,2.97-2.92,4.02c-1.41,1.04-3.16,1.57-5.24,1.57c-1.7,0-3.22-0.38-4.57-1.15
			c-1.34-0.76-2.4-1.84-3.16-3.23c-0.76-1.39-1.15-3-1.15-4.82c0-1.83,0.37-3.44,1.11-4.82c0.74-1.39,1.78-2.46,3.13-3.21
			c1.34-0.75,2.89-1.13,4.63-1.13c1.68,0,3.17,0.37,4.49,1.1c1.31,0.73,2.33,1.76,3.06,3.08c0.73,1.32,1.1,2.85,1.1,4.57
			C795.94,633.92,795.89,634.52,795.81,635.06z M792.1,632.09c-0.02-1.36-0.51-2.44-1.45-3.26c-0.95-0.82-2.12-1.23-3.52-1.23
			c-1.27,0-2.36,0.4-3.26,1.21c-0.9,0.81-1.44,1.9-1.61,3.28H792.1z"/>
		<path class="st1" d="M805.38,625.26c0.89-0.51,1.95-0.76,3.18-0.76v3.81h-0.93c-1.44,0-2.53,0.37-3.28,1.1
			c-0.74,0.73-1.11,2-1.11,3.81v9.36h-3.68v-17.78h3.68v2.58C803.77,626.47,804.48,625.77,805.38,625.26z"/>
		<path class="st1" d="M828.11,635.06h-13.59c0.11,1.42,0.63,2.56,1.58,3.42c0.95,0.86,2.11,1.29,3.49,1.29
			c1.98,0,3.38-0.83,4.19-2.48h3.97c-0.54,1.63-1.51,2.97-2.92,4.02c-1.41,1.04-3.16,1.57-5.24,1.57c-1.7,0-3.22-0.38-4.57-1.15
			c-1.34-0.76-2.4-1.84-3.16-3.23c-0.76-1.39-1.15-3-1.15-4.82c0-1.83,0.37-3.44,1.11-4.82c0.74-1.39,1.78-2.46,3.13-3.21
			c1.34-0.75,2.89-1.13,4.63-1.13c1.68,0,3.17,0.37,4.49,1.1c1.31,0.73,2.33,1.76,3.06,3.08c0.73,1.32,1.1,2.85,1.1,4.57
			C828.24,633.92,828.2,634.52,828.11,635.06z M824.4,632.09c-0.02-1.36-0.51-2.44-1.45-3.26c-0.95-0.82-2.12-1.23-3.52-1.23
			c-1.27,0-2.36,0.4-3.26,1.21c-0.9,0.81-1.44,1.9-1.61,3.28H824.4z"/>
		<path class="st1" d="M831.74,628.86c0.74-1.38,1.75-2.45,3.03-3.21c1.28-0.76,2.71-1.15,4.28-1.15c1.16,0,2.31,0.25,3.44,0.76
			c1.13,0.51,2.03,1.18,2.7,2.02v-8.58h3.71v23.88h-3.71v-2.68c-0.6,0.86-1.44,1.57-2.5,2.13c-1.06,0.56-2.28,0.84-3.66,0.84
			c-1.55,0-2.97-0.39-4.24-1.18c-1.28-0.79-2.29-1.88-3.03-3.29c-0.74-1.41-1.11-3.01-1.11-4.79
			C830.63,631.82,831,630.24,831.74,628.86z M844.43,630.47c-0.51-0.9-1.17-1.59-1.99-2.07c-0.82-0.47-1.7-0.71-2.65-0.71
			c-0.95,0-1.83,0.23-2.64,0.69c-0.82,0.46-1.48,1.14-1.99,2.03c-0.5,0.89-0.76,1.95-0.76,3.18s0.25,2.3,0.76,3.23
			c0.51,0.93,1.17,1.63,2,2.11c0.83,0.48,1.7,0.73,2.63,0.73c0.95,0,1.83-0.24,2.65-0.71c0.82-0.47,1.48-1.17,1.99-2.08
			c0.5-0.91,0.76-1.98,0.76-3.21S844.93,631.38,844.43,630.47z"/>
		<path class="st1" d="M877.2,632.96c0.84,1.05,1.26,2.25,1.26,3.58c0,1.14-0.29,2.17-0.89,3.08c-0.59,0.92-1.45,1.64-2.56,2.16
			c-1.12,0.53-2.42,0.79-3.91,0.79h-8.97v-22.43h8.55c1.53,0,2.84,0.26,3.94,0.77c1.1,0.52,1.93,1.21,2.48,2.08
			c0.56,0.87,0.84,1.84,0.84,2.92c0,1.29-0.34,2.37-1.03,3.23c-0.69,0.86-1.62,1.5-2.78,1.9
			C875.34,631.27,876.36,631.9,877.2,632.96z M865.8,629.57h4.55c1.21,0,2.15-0.27,2.82-0.82c0.68-0.55,1.02-1.34,1.02-2.37
			c0-1.01-0.34-1.8-1.02-2.37c-0.68-0.57-1.62-0.86-2.82-0.86h-4.55V629.57z M873.71,638.67c0.71-0.6,1.06-1.44,1.06-2.52
			c0-1.1-0.38-1.97-1.13-2.61c-0.75-0.65-1.75-0.97-3-0.97h-4.84v7h4.97C872.02,639.57,873,639.27,873.71,638.67z"/>
		<path class="st1" d="M898.46,624.79l-10.91,26.14h-3.81l3.61-8.65l-7-17.49h4.1l5,13.55l5.19-13.55H898.46z"/>
		<path class="st1" d="M919.92,631.38l6.97,11.2h-4.13l-5.07-8.13l-4.75,8.13h-4.1l6.97-11.2l-7-11.23h4.13l5.1,8.2l4.77-8.2h4.1
			L919.92,631.38z"/>
		<path class="st1" d="M944.53,621.52c1.8,0.92,3.18,2.23,4.16,3.94c0.98,1.71,1.47,3.71,1.47,5.99c0,2.28-0.49,4.26-1.47,5.94
			s-2.37,2.96-4.16,3.86c-1.8,0.89-3.89,1.34-6.28,1.34h-7.32v-22.43h7.32C940.64,620.15,942.74,620.6,944.53,621.52z
			 M944.29,637.44c1.4-1.42,2.1-3.42,2.1-6c0-2.6-0.7-4.64-2.1-6.1c-1.4-1.46-3.41-2.19-6.04-2.19h-3.65v16.43h3.65
			C940.88,639.57,942.89,638.86,944.29,637.44z"/>
		<path class="st1" d="M954.12,625.41c1.02-1.74,2.41-3.1,4.16-4.08c1.75-0.98,3.67-1.47,5.76-1.47c2.39,0,4.51,0.59,6.37,1.76
			c1.86,1.17,3.21,2.84,4.05,4.99h-4.42c-0.58-1.18-1.39-2.07-2.42-2.65c-1.03-0.58-2.23-0.87-3.58-0.87c-1.48,0-2.81,0.33-3.97,1
			c-1.16,0.67-2.07,1.62-2.73,2.87c-0.66,1.25-0.98,2.7-0.98,4.36c0,1.66,0.33,3.11,0.98,4.36c0.66,1.25,1.57,2.21,2.73,2.89
			c1.16,0.68,2.49,1.02,3.97,1.02c1.36,0,2.55-0.29,3.58-0.87c1.03-0.58,1.84-1.46,2.42-2.65h4.42c-0.84,2.15-2.19,3.81-4.05,4.97
			c-1.86,1.16-3.99,1.74-6.37,1.74c-2.11,0-4.03-0.49-5.78-1.47c-1.74-0.98-3.13-2.34-4.15-4.08c-1.02-1.74-1.53-3.71-1.53-5.91
			C952.59,629.12,953.1,627.15,954.12,625.41z"/>
	</g>
</g>
</svg>
