<?xml version="1.0" encoding="utf-8"?><!-- Generator: Adobe Illustrator 27.5.0, SVG Export Plug-In . SVG Version: 6.00 Build 0)  --><svg version="1.1" xmlns="http://www.w3.org/2000/svg" xmlns:xlink="http://www.w3.org/1999/xlink" x="0px" y="0px"	 viewBox="0 0 500 500" style="enable-background:new 0 0 500 500;" xml:space="preserve"><g id="Floor">	<path id="Floor_00000058573466528854243060000012553661817602741928_" style="fill:#FAFAFA;" d="M102.131,288.349		c-79.654,45.988-79.652,120.55,0.004,166.539c79.656,45.988,208.803,45.988,288.456,0c79.654-45.988,79.652-120.55-0.004-166.539		C310.931,242.361,181.785,242.361,102.131,288.349z"/></g>	<g id="Clouds">	<g id="Clouds_00000002386434772826173510000003553264309811756932_">		<g id="XMLID_4066_">			<path style="fill:#F0F0F0;" d="M215.361,73.503l-3.961,1.96v-9.162c0-6.917-5.518-8.576-11.508-5.117l0,0				c-5.991,3.459-10.847,11.87-10.847,18.788v1.267c-1.359-0.542-3.114-0.332-5.034,0.776l0,0c-4.311,2.489-7.806,8.542-7.806,13.52				v0.576l-5.523,3.189c-2.839,1.639-5.14,5.625-5.14,8.903c0,3.278,2.301,4.607,5.14,2.968l44.678-25.795				c2.839-1.639,5.14-5.625,5.14-8.903S218.2,71.864,215.361,73.503z"/>		</g>		<g id="XMLID_4059_">			<path style="fill:#F0F0F0;" d="M284.542,61.733l-7.181,4.146c0.036-0.321,0.061-0.639,0.061-0.951v-2.08				c0-3.702-2.599-5.202-5.805-3.352c-1.298,0.75-2.493,1.938-3.46,3.327c-0.525-4.655-4.177-6.389-8.613-3.828				c-4.796,2.769-8.685,9.504-8.685,15.042v3.112c0,1.435,0.265,2.643,0.735,3.605l-5.964,3.443c-1.778,1.027-3.22,3.524-3.22,5.577				c0,2.054,1.442,2.886,3.22,1.859l38.912-22.466c1.779-1.027,3.22-3.524,3.22-5.577C287.762,61.539,286.32,60.706,284.542,61.733z				"/>		</g>	</g></g>	<g id="Shadows">	<path id="Shadow_17_" style="fill:#E0E0E0;" d="M148.452,408.082c7.122,4.112,18.669,4.112,25.79,0		c7.122-4.112,7.122-10.778,0-14.89c-7.122-4.112-18.669-4.112-25.79,0C141.33,397.304,141.33,403.97,148.452,408.082z"/>		<path id="Shadow_37_" style="fill:#E0E0E0;" d="M119.416,396.487c7.122,4.112,18.668,4.112,25.79,0		c7.122-4.112,7.122-10.778,0-14.89c-7.122-4.112-18.668-4.112-25.79,0C112.294,385.709,112.294,392.375,119.416,396.487z"/>		<g id="Shadow_00000012450236629656562520000012068467060840979336_">		<path style="fill:#E0E0E0;" d="M213.841,408.193L213.841,408.193c-1.614-0.932-1.614-3.262,0-4.193l130.269-75.193			c0.749-0.432,1.672-0.432,2.421,0l0,0c1.614,0.932,1.614,3.262,0,4.194l-130.269,75.193			C215.513,408.626,214.59,408.626,213.841,408.193z"/>			<path style="fill:#E0E0E0;" d="M378.994,335.263l-7.237,4.178c-1.747,1.009-3.9,1.009-5.647,0l-28.339-16.362			c-1.618-0.934-1.618-3.271,0-4.205l7.237-4.178c1.747-1.009,3.9-1.009,5.647,0l28.339,16.362			C380.613,331.993,380.613,334.329,378.994,335.263z"/>	</g>		<path id="Shadow_4_" style="fill:#E0E0E0;" d="M331.495,365.313l6.876-3.988c2.072-1.202,5.434-1.205,7.509-0.007l2.395,1.383		l8.947-5.166c0.808-0.467,2.119-0.467,2.927,0l0.06,0.035c0.808,0.467,0.808,1.223,0,1.69l-8.948,5.166l0.497,0.287		c2.074,1.198,2.076,3.143,0.002,4.343l-6.88,3.985l-10.039,5.802l-13.391-7.732L331.495,365.313z"/>		<ellipse id="Shadow_00000099650532074972252410000005394458480592405635_" style="fill:#E0E0E0;" cx="430.35" cy="359.661" rx="45.922" ry="26.513"/>		<ellipse id="Shadow_00000114788803814339838790000008035567365369819305_" style="fill:#E0E0E0;" cx="75.03" cy="419.664" rx="45.922" ry="26.513"/></g>	<g id="Paint_Pot">	<g id="Paint_Pot_2_">		<path id="XMLID_3724_" style="fill:#37474F;" d="M147.881,362.882l-30.469-0.414l-0.265,24.882l0.003,0			c-0.025,2.252,1.437,4.52,4.394,6.271c5.911,3.499,15.558,3.604,21.547,0.233c3.021-1.701,4.529-3.961,4.526-6.233			L147.881,362.882z"/>		<path id="XMLID_00000003100758324104782620000003068998636818771095_" style="fill:#455A64;" d="M121.947,356.301			c-5.985,3.372-6.046,8.942-0.134,12.441c5.911,3.499,15.558,3.603,21.547,0.233c5.988-3.371,6.048-8.941,0.134-12.441			C137.579,353.034,127.933,352.93,121.947,356.301z"/>		<path id="XMLID_00000065046058001838655440000001679936122924629410_" style="fill:#263238;" d="M146.572,362.783			c0,0.398-0.083,0.796-0.215,1.194c-0.464,1.426-1.708,2.752-3.647,3.846c-2.702,1.508-6.299,2.321-10.145,2.288			c-3.829-0.05-7.41-0.928-10.079-2.503c-1.873-1.111-3.1-2.453-3.531-3.846c-0.149-0.414-0.215-0.846-0.215-1.276			c0.033-1.857,1.392-3.647,3.862-5.023c2.685-1.525,6.299-2.337,10.129-2.288c3.846,0.033,7.426,0.928,10.095,2.503			C145.262,359.119,146.588,360.926,146.572,362.783z"/>		<path id="XMLID_522_" style="fill:#F5F5F5;" d="M146.356,363.976c-0.464,1.426-1.708,2.752-3.647,3.846			c-2.702,1.508-6.299,2.321-10.145,2.288c-3.829-0.05-7.41-0.928-10.079-2.503c-1.873-1.111-3.1-2.453-3.531-3.846			c0.464-1.426,1.708-2.752,3.647-3.829c2.685-1.525,6.299-2.337,10.129-2.304c3.846,0.05,7.426,0.945,10.095,2.52			C144.699,361.258,145.909,362.584,146.356,363.976z"/>		<path style="opacity:0.15;" d="M142.709,367.822c0.512-0.289,0.973-0.595,1.386-0.914c-5.562,2.983-15.127,1.732-18.11-0.616			c-2.979-2.344-3.381-6.348,1.465-8.139c-1.799,0.389-3.452,0.984-4.849,1.778c-1.939,1.077-3.183,2.404-3.647,3.829			c0.431,1.392,1.658,2.735,3.531,3.846c2.669,1.575,6.25,2.453,10.079,2.503C136.41,370.143,140.007,369.331,142.709,367.822z"/>		<path id="XMLID_521_" style="fill:#263238;" d="M139.142,372.205c0.668-0.376,1.202-0.06,1.194,0.707			c-0.008,0.767-0.557,1.693-1.225,2.07c-0.668,0.377-1.203,0.06-1.194-0.707C137.926,373.508,138.474,372.581,139.142,372.205z"/>		<g id="XMLID_515_">			<path id="XMLID_520_" style="fill:#E0E0E0;" d="M117.363,366.844c-1.674,3.299-5.006,11.156-0.68,14.356				c0.183,0.133,0.348,0.249,0.531,0.365l-0.017,1.591c-0.431-0.265-0.879-0.564-1.309-0.879				c-6.465-4.791,0.829-17.091,1.144-17.605c0.083-0.149,0.215-0.232,0.365-0.282L117.363,366.844z"/>			<path id="XMLID_519_" style="fill:#E0E0E0;" d="M139.709,373.906c-0.182,0.381-4.89,9.383-12.632,11.19				c-0.895,0.216-1.774,0.315-2.669,0.315c-2.404,0-4.807-0.746-7.211-2.254l0.017-1.591c3.199,2.221,6.415,2.984,9.565,2.254				c7.145-1.674,11.72-10.444,11.753-10.526c0.166-0.332,0.58-0.448,0.895-0.282C139.759,373.176,139.891,373.574,139.709,373.906z"			/>		</g>	</g>		<g id="Paint_Pot_3_">		<path id="XMLID_00000116195564498497513130000012269990687297512833_" style="fill:#37474F;" d="M176.917,374.477l-30.469-0.414			l-0.265,24.882l0.003,0c-0.025,2.252,1.437,4.521,4.394,6.271c5.911,3.499,15.558,3.603,21.547,0.233			c3.021-1.701,4.528-3.961,4.526-6.233L176.917,374.477z"/>			<path id="XMLID_00000082358491290336869380000007528657979079389593_" style="fill:#455A64;" d="M150.983,367.896			c-5.986,3.372-6.046,8.942-0.134,12.441c5.911,3.499,15.558,3.604,21.546,0.233c5.988-3.371,6.048-8.941,0.134-12.441			C166.615,364.628,156.969,364.524,150.983,367.896z"/>			<path id="XMLID_598_" style="fill:#263238;" d="M175.608,374.377c0,0.398-0.083,0.796-0.215,1.194			c-0.464,1.426-1.708,2.752-3.647,3.846c-2.702,1.508-6.299,2.321-10.145,2.288c-3.829-0.05-7.41-0.928-10.079-2.503			c-1.873-1.111-3.1-2.453-3.531-3.846c-0.149-0.415-0.215-0.846-0.215-1.277c0.033-1.857,1.393-3.647,3.863-5.023			c2.685-1.525,6.299-2.337,10.128-2.288c3.846,0.033,7.426,0.928,10.095,2.503C174.298,370.714,175.624,372.521,175.608,374.377z"			/>			<path id="XMLID_524_" style="fill:#BA68C8;" d="M175.392,375.571c-0.464,1.426-1.708,2.752-3.647,3.846			c-2.702,1.508-6.299,2.321-10.145,2.288c-3.829-0.05-7.41-0.928-10.079-2.503c-1.873-1.111-3.1-2.453-3.531-3.846			c0.464-1.426,1.708-2.752,3.647-3.829c2.685-1.525,6.299-2.337,10.128-2.304c3.846,0.05,7.426,0.945,10.095,2.52			C173.735,372.852,174.945,374.178,175.392,375.571z"/>			<path style="opacity:0.15;" d="M171.745,379.417c0.512-0.289,0.972-0.595,1.386-0.914c-5.562,2.983-15.127,1.732-18.11-0.616			c-2.979-2.344-3.381-6.348,1.465-8.139c-1.799,0.389-3.452,0.984-4.849,1.778c-1.939,1.077-3.183,2.404-3.647,3.829			c0.431,1.392,1.658,2.735,3.531,3.846c2.669,1.575,6.25,2.453,10.079,2.503C165.446,381.737,169.043,380.925,171.745,379.417z"/>			<path id="XMLID_3745_" style="fill:#263238;" d="M168.178,383.799c0.668-0.376,1.202-0.06,1.194,0.707			c-0.008,0.767-0.557,1.693-1.225,2.07c-0.668,0.377-1.203,0.06-1.194-0.707C166.962,385.102,167.51,384.176,168.178,383.799z"/>			<g id="XMLID_3725_">			<path id="XMLID_3734_" style="fill:#E0E0E0;" d="M146.399,378.439c-1.674,3.299-5.006,11.156-0.68,14.356				c0.182,0.133,0.348,0.249,0.531,0.365l-0.017,1.591c-0.431-0.265-0.878-0.564-1.309-0.878				c-6.465-4.791,0.829-17.091,1.144-17.605c0.083-0.149,0.215-0.232,0.365-0.282L146.399,378.439z"/>				<path id="XMLID_3732_" style="fill:#E0E0E0;" d="M168.745,385.5c-0.182,0.381-4.89,9.383-12.632,11.19				c-0.895,0.215-1.774,0.315-2.669,0.315c-2.404,0-4.807-0.746-7.211-2.255l0.017-1.591c3.199,2.221,6.415,2.984,9.565,2.255				c7.145-1.674,11.72-10.444,11.753-10.526c0.166-0.332,0.58-0.448,0.895-0.282C168.795,384.771,168.927,385.169,168.745,385.5z"/>		</g>	</g></g>	<g id="Paint_Roller_00000079482041124467975580000017894911888423745974_">	<g id="Paint_Roller">		<g>			<path style="fill:#37474F;" d="M343.44,329.984c-0.151,0-0.298-0.079-0.381-0.219c-0.121-0.21-0.049-0.479,0.161-0.6l5.613-3.239				c0.213-0.118,0.478-0.048,0.6,0.161c0.121,0.21,0.049,0.479-0.161,0.6l-5.613,3.239				C343.589,329.964,343.514,329.984,343.44,329.984z"/>		</g>		<g>			<path style="fill:#455A64;" d="M344.255,327.296c0.907,0.529,1.638,1.809,1.633,2.858c-0.002,0.531-0.193,0.899-0.498,1.067				l-129.789,74.927l-2.305-4.039l129.782-74.923C343.378,327.006,343.794,327.027,344.255,327.296z"/>			<path style="fill:#37474F;" d="M216.088,405.088c-0.005,1.05-0.744,1.472-1.65,0.943c-0.907-0.529-1.638-1.809-1.633-2.858				c0.005-1.05,0.744-1.472,1.65-0.943C215.361,402.758,216.092,404.038,216.088,405.088z"/>		</g>		<g>			<g>				<path style="fill:#37474F;" d="M336.996,317.733c-0.151,0-0.298-0.079-0.381-0.219c-0.121-0.21-0.049-0.478,0.161-0.6					l7.73-4.464c0.205-0.118,0.475-0.05,0.6,0.161c0.121,0.21,0.049,0.478-0.161,0.6l-7.73,4.464					C337.147,317.714,337.072,317.733,336.996,317.733z"/>			</g>			<g>				<g>					<path style="fill:#BA68C8;" d="M342.184,305.349c-2.903,1.675-5.256,5.749-5.257,9.101c0,1.706,0.611,2.892,1.593,3.428l0,0						l31.071,17.904l7.486-12.842l-31.074-17.9l-0.006,0.01C345.04,304.433,343.688,304.481,342.184,305.349z"/>					<path style="fill:#BA68C8;" d="M368.001,332.349c0.001-3.351,2.354-7.426,5.257-9.101c2.903-1.675,5.255-0.316,5.254,3.035						c-0.001,3.351-2.354,7.426-5.257,9.101C370.352,337.059,368,335.7,368.001,332.349z"/>					<path style="opacity:0.25;" d="M368.001,332.349c0.001-3.351,2.354-7.426,5.257-9.101c2.903-1.675,5.255-0.316,5.254,3.035						c-0.001,3.351-2.354,7.426-5.257,9.101C370.352,337.059,368,335.7,368.001,332.349z"/>					<path d="M371.889,330.105c0-0.872,0.613-1.932,1.368-2.368c0.755-0.436,1.367-0.082,1.367,0.79						c0,0.872-0.613,1.932-1.368,2.368C372.501,331.33,371.889,330.977,371.889,330.105z"/>				</g>			</g>			<g>				<path style="fill:#37474F;" d="M363.741,334.8c-0.55,0-1.101-0.141-1.592-0.424l-25.373-14.649					c-0.509-0.294-0.811-0.819-0.811-1.406c0-0.587,0.303-1.113,0.811-1.407c0.205-0.118,0.475-0.05,0.6,0.161					c0.121,0.21,0.049,0.478-0.161,0.6c-0.233,0.135-0.373,0.376-0.373,0.646c0,0.269,0.139,0.51,0.373,0.645l25.372,14.649					c0.711,0.411,1.595,0.411,2.306,0l8.143-4.701c0.209-0.117,0.478-0.049,0.6,0.161c0.121,0.21,0.049,0.479-0.161,0.6					l-8.143,4.701C364.843,334.658,364.292,334.8,363.741,334.8z"/>			</g>		</g>	</g></g>	<g id="Brush">	<g id="Brush_7_">		<g id="XMLID_384_">			<path id="XMLID_386_" style="fill:#455A64;" d="M345.32,364.998l12.983-7.475c0.252-0.145,0.409-0.457,0.409-0.901				c0.001-0.888-0.621-1.969-1.39-2.414c-0.384-0.223-0.733-0.244-0.985-0.099l-12.983,7.475L345.32,364.998z"/>			<polygon id="XMLID_385_" style="fill:#37474F;" points="346.696,359.661 350.633,361.94 345.32,364.999 343.355,361.585 			"/>		</g>		<g id="XMLID_357_">			<g id="XMLID_369_">				<g id="XMLID_379_">					<path id="XMLID_383_" style="fill:#37474F;" d="M331.955,365.865l2.639-1.526l-2.636-1.526l5.427-3.139						c1.636-0.946,4.287-0.945,5.922,0.002l4.633,2.683c0.766,0.444,1.179,1.029,1.222,1.608c0.005,0.063,0.02,2.68-0.012,3.252						c-0.033,0.588-0.437,1.169-1.215,1.618l-5.43,3.136L331.955,365.865z"/>					<path id="XMLID_382_" style="fill:#455A64;" d="M347.94,362.359l-4.633-2.683c-1.635-0.947-4.286-0.948-5.922-0.002						l-5.427,3.139l10.55,6.108l5.43-3.136C349.574,364.84,349.575,363.306,347.94,362.359z"/>					<polygon id="XMLID_381_" style="fill:#F0F0F0;" points="342.508,368.921 331.958,362.813 324.031,367.377 334.585,373.487											"/>					<polygon id="XMLID_380_" style="fill:#EBEBEB;" points="342.508,368.921 334.585,373.487 334.581,376.535 342.504,371.973											"/>				</g>				<polygon id="XMLID_377_" style="fill:#BA68C8;" points="344.864,367.56 334.312,361.452 335.391,360.827 345.999,366.905					"/>				<polygon id="XMLID_376_" style="fill:#BA68C8;" points="344.864,367.56 344.86,370.611 345.996,369.955 345.999,366.905 				"/>				<polygon id="XMLID_370_" style="opacity:0.1;" points="344.864,367.56 344.86,370.611 345.996,369.955 345.999,366.905 				"/>			</g>			<g>				<path id="XMLID_368_" style="fill:#BA68C8;" d="M337.001,375.142c0,0,1.447-1.86,0.672-3.434l-3.088,1.78l-0.004,3.048					L337.001,375.142z"/>				<path id="XMLID_367_" style="opacity:0.1;" d="M337.001,375.142c0,0,1.447-1.86,0.672-3.434l-3.088,1.78l-0.004,3.048					L337.001,375.142z"/>			</g>			<path id="XMLID_366_" style="fill:#BA68C8;" d="M337.673,371.708c0,0-0.207-2.056-2.162-2.902				c-1.439-0.624-4.496,0.644-5.76-1.421c-0.89-1.454,0.087-3.35,0.087-3.35l-5.807,3.344l10.554,6.11L337.673,371.708z"/>			<g>				<polygon id="XMLID_365_" style="fill:#BA68C8;" points="324.031,367.377 324.027,370.427 334.581,376.535 334.585,373.487					"/>				<polygon id="XMLID_358_" style="opacity:0.15;" points="324.031,367.377 324.027,370.427 334.581,376.535 334.585,373.487					"/>			</g>		</g>	</g></g>	<g id="Letters_00000019664873328924652780000016941822024691806886_">	<g id="Letters">		<g>			<g>				<polygon style="fill:#BA68C8;" points="354.324,177.415 336.945,187.445 336.945,232.863 351.2,241.102 351.2,195.683					368.59,185.642 				"/>				<g>					<path style="fill:#BA68C8;" d="M336.945,232.863c0,11.82-3.101,20.164-9.28,25.056c0.609,10.814,4.529,14.125,11.761,9.947						c7.853-4.529,11.773-13.458,11.773-26.764L336.945,232.863z"/>					<path style="opacity:0.1;" d="M336.945,232.863c0,11.82-3.101,20.164-9.28,25.056c0.609,10.814,4.529,14.125,11.761,9.947						c7.853-4.529,11.773-13.458,11.773-26.764L336.945,232.863z"/>				</g>				<polygon style="fill:#BA68C8;" points="313.317,201.09 295.658,211.283 295.658,257.416 309.924,265.643 309.924,219.522					327.572,209.329 				"/>				<g>					<path style="fill:#BA68C8;" d="M317.636,289.845c-5.149-3.768-7.712-11.832-7.712-24.202l-14.266-8.227						c0,12.358,2.575,20.433,7.712,24.19c0.398,0.293,0.808,0.562,1.229,0.796c2.165,1.205,11.715,6.764,13.786,7.958						C318.127,290.195,317.882,290.02,317.636,289.845z"/>					<path style="opacity:0.1;" d="M317.636,289.845c-5.149-3.768-7.712-11.832-7.712-24.202l-14.266-8.227						c0,12.358,2.575,20.433,7.712,24.19c0.398,0.293,0.808,0.562,1.229,0.796c2.165,1.205,11.715,6.764,13.786,7.958						C318.127,290.195,317.882,290.02,317.636,289.845z"/>				</g>				<polygon style="opacity:0.5;fill:#FFFFFF;" points="351.201,195.685 336.94,187.45 354.327,177.412 368.588,185.647 				"/>				<polygon style="opacity:0.5;fill:#FFFFFF;" points="309.919,219.519 295.658,211.284 313.312,201.092 327.573,209.327 				"/>				<g>					<path style="fill:#BA68C8;" d="M317.631,289.845c-5.142-3.767-7.712-11.835-7.712-24.198v-46.128l17.654-10.193v45.414						c0,13.315,3.952,17.691,11.859,13.126c7.846-4.53,11.769-13.453,11.769-26.768v-45.414l17.387-10.038v46.128						c0,12.364-2.571,23.4-7.712,33.104c-5.143,9.706-12.349,17.234-21.622,22.588C329.98,292.82,322.772,293.614,317.631,289.845z"					/>					<path style="opacity:0.3;fill:#FFFFFF;" d="M317.631,289.845c-5.142-3.767-7.712-11.835-7.712-24.198v-46.128l17.654-10.193						v45.414c0,13.315,3.952,17.691,11.859,13.126c7.846-4.53,11.769-13.453,11.769-26.768v-45.414l17.387-10.038v46.128						c0,12.364-2.571,23.4-7.712,33.104c-5.143,9.706-12.349,17.234-21.622,22.588C329.98,292.82,322.772,293.614,317.631,289.845z"					/>				</g>			</g>			<g>				<path style="fill:#BA68C8;" d="M276.102,232.009c-1.826-1.042-3.85-1.709-6.074-2.001c-5.266-0.691-11.188,0.866-17.788,4.681					c-6.6,3.815-12.534,9.093-17.788,15.857l14.254,8.239c5.266-6.764,11.188-12.054,17.788-15.857					c6.601-3.815,12.534-5.372,17.788-4.681c2.27,0.293,4.33,0.971,6.167,2.048C288.578,239.195,278.513,233.378,276.102,232.009z"				/>				<path style="opacity:0.5;fill:#FFFFFF;" d="M276.102,232.009c-1.826-1.042-3.85-1.709-6.074-2.001					c-5.266-0.691-11.188,0.866-17.788,4.681c-6.6,3.815-12.534,9.093-17.788,15.857l14.254,8.239					c5.266-6.764,11.188-12.054,17.788-15.857c6.601-3.815,12.534-5.372,17.788-4.681c2.27,0.293,4.33,0.971,6.167,2.048					C288.578,239.195,278.513,233.378,276.102,232.009z"/>				<path style="fill:#BA68C8;" d="M234.452,250.546c-5.266,6.764-9.397,14.301-12.393,22.61l14.254,8.239					c3.007-8.309,7.139-15.846,12.393-22.61L234.452,250.546z"/>				<path style="opacity:0.15;fill:#FFFFFF;" d="M234.452,250.546c-5.266,6.764-9.397,14.301-12.393,22.61l14.254,8.239					c3.007-8.309,7.139-15.846,12.393-22.61L234.452,250.546z"/>				<path style="fill:#BA68C8;" d="M236.313,281.395l-14.254-8.239c-3.008,8.309-4.505,16.595-4.505,24.833					c0,8.239,1.498,14.781,4.505,19.637l14.254,8.227c-2.996-4.845-4.506-11.387-4.506-19.626					C231.807,297.978,233.317,289.704,236.313,281.395z"/>				<path style="fill:#BA68C8;" d="M236.313,325.854l-14.254-8.227c1.72,2.773,3.803,4.868,6.273,6.273					c1.779,1.018,11.246,6.495,14.008,8.087C239.988,330.582,237.975,328.534,236.313,325.854z"/>				<path style="opacity:0.1;" d="M236.313,325.854l-14.254-8.227c1.72,2.773,3.803,4.868,6.273,6.273					c1.779,1.018,11.246,6.495,14.008,8.087C239.988,330.582,237.975,328.534,236.313,325.854z"/>				<path style="fill:#37474F;" d="M267.946,261.664c0.158-0.076,0.312-0.138,0.469-0.208c0-0.001,0-0.002,0-0.003					C268.261,261.524,268.098,261.594,267.946,261.664z"/>				<path style="fill:#BA68C8;" d="M275.061,260.447c-2.033-0.396-4.244-0.059-6.647,1.009c0.444,1.977,0.678,4.223,0.678,6.773					c0,4.681-0.749,9.257-2.235,13.716c-1.486,4.47-3.511,8.426-6.062,11.878c-2.551,3.464-5.407,6.097-8.555,7.923					c-0.655,0.375-1.299,0.691-1.919,0.96c0.351,1.65,0.878,3.101,1.556,4.353c1.486,2.75,3.499,4.377,6.062,4.892					c2.551,0.503,5.407-0.152,8.555-1.978c3.148-1.814,6.004-4.459,8.566-7.911c2.551-3.452,4.576-7.42,6.062-11.878					c1.486-4.471,2.224-9.035,2.224-13.716c0-4.669-0.737-8.391-2.224-11.141C279.637,262.589,277.612,260.962,275.061,260.447z"/>				<path style="opacity:0.1;" d="M275.061,260.447c-2.033-0.396-4.244-0.059-6.647,1.009c0.444,1.977,0.678,4.223,0.678,6.773					c0,4.681-0.749,9.257-2.235,13.716c-1.486,4.47-3.511,8.426-6.062,11.878c-2.551,3.464-5.407,6.097-8.555,7.923					c-0.655,0.375-1.299,0.691-1.919,0.96c0.351,1.65,0.878,3.101,1.556,4.353c1.486,2.75,3.499,4.377,6.062,4.892					c2.551,0.503,5.407-0.152,8.555-1.978c3.148-1.814,6.004-4.459,8.566-7.911c2.551-3.452,4.576-7.42,6.062-11.878					c1.486-4.471,2.224-9.035,2.224-13.716c0-4.669-0.737-8.391-2.224-11.141C279.637,262.589,277.612,260.962,275.061,260.447z"/>				<g>					<path style="fill:#BA68C8;" d="M248.709,334.155c-5.261-0.686-9.394-3.453-12.395-8.298						c-3.002-4.845-4.502-11.389-4.502-19.633c0-8.242,1.5-16.518,4.502-24.83c3.001-8.31,7.133-15.847,12.395-22.611						c5.26-6.762,11.19-12.049,17.788-15.858c6.599-3.81,12.528-5.37,17.789-4.682c2.266,0.297,4.323,0.979,6.17,2.047						c2.44,1.411,4.515,3.495,6.224,6.253c3.001,4.847,4.502,11.389,4.502,19.631c0,8.244-1.501,16.521-4.502,24.832						c-3.003,8.312-7.133,15.849-12.393,22.61c-5.26,6.764-11.19,12.048-17.789,15.858						C259.899,333.281,253.97,334.844,248.709,334.155z M275.057,302.062c2.555-3.456,4.577-7.417,6.063-11.883						c1.485-4.462,2.229-9.032,2.229-13.71c0-4.675-0.744-8.386-2.229-11.136c-1.487-2.747-3.509-4.373-6.063-4.881						c-2.557-0.504-5.41,0.151-8.56,1.97c-3.151,1.819-6.005,4.459-8.559,7.914c-2.557,3.458-4.579,7.419-6.063,11.882						c-1.487,4.466-2.229,9.035-2.229,13.71c0,4.678,0.742,8.389,2.229,11.136c1.485,2.751,3.507,4.377,6.063,4.882						c2.555,0.507,5.408-0.15,8.559-1.97C269.647,308.157,272.5,305.52,275.057,302.062z"/>					<path style="opacity:0.3;fill:#FFFFFF;" d="M248.709,334.155c-5.261-0.686-9.394-3.453-12.395-8.298						c-3.002-4.845-4.502-11.389-4.502-19.633c0-8.242,1.5-16.518,4.502-24.83c3.001-8.31,7.133-15.847,12.395-22.611						c5.26-6.762,11.19-12.049,17.788-15.858c6.599-3.81,12.528-5.37,17.789-4.682c2.266,0.297,4.323,0.979,6.17,2.047						c2.44,1.411,4.515,3.495,6.224,6.253c3.001,4.847,4.502,11.389,4.502,19.631c0,8.244-1.501,16.521-4.502,24.832						c-3.003,8.312-7.133,15.849-12.393,22.61c-5.26,6.764-11.19,12.048-17.789,15.858						C259.899,333.281,253.97,334.844,248.709,334.155z M275.057,302.062c2.555-3.456,4.577-7.417,6.063-11.883						c1.485-4.462,2.229-9.032,2.229-13.71c0-4.675-0.744-8.386-2.229-11.136c-1.487-2.747-3.509-4.373-6.063-4.881						c-2.557-0.504-5.41,0.151-8.56,1.97c-3.151,1.819-6.005,4.459-8.559,7.914c-2.557,3.458-4.579,7.419-6.063,11.882						c-1.487,4.466-2.229,9.035-2.229,13.71c0,4.678,0.742,8.389,2.229,11.136c1.485,2.751,3.507,4.377,6.063,4.882						c2.555,0.507,5.408-0.15,8.559-1.97C269.647,308.157,272.5,305.52,275.057,302.062z"/>				</g>			</g>			<g>				<polygon style="fill:#BA68C8;" points="218.979,255.555 201.86,265.439 190.501,297.359 186.518,290.765 172.257,282.53					153.622,293.289 177.429,332.567 177.429,362.764 191.689,370.998 209.343,360.806 209.343,330.966 233.24,263.79 				"/>				<polygon style="opacity:0.5;fill:#FFFFFF;" points="218.979,255.555 201.86,265.439 190.501,297.359 186.518,290.765					172.257,282.53 153.622,293.289 177.429,332.567 177.429,362.764 191.689,370.998 209.343,360.806 209.343,330.966					233.24,263.79 				"/>				<polygon style="fill:#BA68C8;" points="201.86,265.439 216.12,273.674 201.318,315.27 190.501,297.359 				"/>				<polygon style="fill:#BA68C8;" points="153.622,293.289 167.882,301.524 191.689,340.802 177.429,332.567 				"/>				<polygon style="fill:#BA68C8;" points="177.429,362.764 191.689,370.998 191.689,340.802 177.429,332.567 				"/>				<polygon style="opacity:0.1;" points="177.429,362.764 191.689,370.998 191.689,340.802 177.429,332.567 				"/>				<g>					<path style="fill:#BA68C8;" d="M209.343,330.966v29.84l-17.654,10.193v-30.196l-23.807-39.278l18.636-10.759l14.801,24.505						l14.802-41.596l17.12-9.884L209.343,330.966z"/>					<path style="opacity:0.3;fill:#FFFFFF;" d="M209.343,330.966v29.84l-17.654,10.193v-30.196l-23.807-39.278l18.636-10.759						l14.801,24.505l14.802-41.596l17.12-9.884L209.343,330.966z"/>				</g>			</g>		</g>		<g>			<g>				<polygon style="fill:#37474F;" points="344.094,69.884 326.796,79.871 326.796,117.731 313.504,104.013 299.244,95.778					284.711,104.169 284.711,187.389 298.971,195.623 316.269,185.637 316.269,147.776 329.56,161.495 343.82,169.73					358.354,161.338 358.354,78.119 				"/>				<path style="fill:#455A64;" d="M358.354,78.119v83.219l-14.534,8.391l-27.551-28.438v44.344l-17.298,9.987v-83.22l14.533-8.391					l27.552,28.436V88.106L358.354,78.119z"/>				<polygon style="fill:#455A64;" points="284.711,104.169 298.971,112.404 313.504,104.013 299.244,95.778 				"/>				<polygon style="opacity:0.2;fill:#FFFFFF;" points="284.711,104.169 298.971,112.404 313.504,104.013 299.244,95.778 				"/>				<polygon style="fill:#455A64;" points="326.796,79.871 341.057,88.106 358.354,78.119 344.094,69.884 				"/>				<polygon style="opacity:0.2;fill:#FFFFFF;" points="326.796,79.871 341.057,88.106 358.354,78.119 344.094,69.884 				"/>				<polygon style="fill:#263238;" points="316.269,141.292 343.82,169.73 329.56,161.495 316.269,147.776 				"/>			</g>			<g>				<path style="fill:#37474F;" d="M266.337,131.245l-14.26-8.235l-17.387,10.038l-27.551,99.126l14.26,8.235l18.011-10.399					l4.903-18.999l26.392-15.238l4.904,13.337l18.368-10.605L266.337,131.245z"/>				<path style="fill:#455A64;" d="M270.706,195.774l-26.392,15.238l-4.903,18.999l-18.011,10.399l27.551-99.126l17.387-10.038					l27.641,67.261l-18.368,10.605L270.706,195.774z M265.534,181.402l-8.025-21.997l-8.025,31.263L265.534,181.402z"/>				<polygon style="fill:#455A64;" points="234.69,133.048 248.95,141.283 266.337,131.245 252.077,123.01 				"/>				<polygon style="opacity:0.2;fill:#FFFFFF;" points="234.69,133.048 248.95,141.283 266.337,131.245 252.077,123.01 				"/>				<polygon style="fill:#263238;" points="265.53,181.393 253.628,174.524 257.513,159.404 				"/>			</g>			<g>				<polygon style="fill:#37474F;" points="202.145,151.838 184.49,162.031 184.49,193.298 174.677,198.964 174.677,184.165					160.417,175.93 142.762,186.123 142.762,269.343 157.022,277.577 174.677,267.384 174.677,234.929 184.49,229.263					184.49,245.251 198.751,253.486 216.406,243.292 216.406,160.073 				"/>				<path style="fill:#455A64;" d="M216.406,160.073v83.219l-17.655,10.193V221.03l-24.073,13.899v32.456l-17.655,10.193v-83.219					l17.655-10.193v31.266l24.073-13.899v-31.267L216.406,160.073z"/>				<polygon style="fill:#455A64;" points="142.762,186.123 157.022,194.358 174.677,184.165 160.417,175.93 				"/>				<polygon style="opacity:0.2;fill:#FFFFFF;" points="142.762,186.123 157.022,194.358 174.677,184.165 160.417,175.93 				"/>				<polygon style="fill:#455A64;" points="184.49,162.031 198.751,170.266 216.406,160.073 202.145,151.838 				"/>				<polygon style="opacity:0.2;fill:#FFFFFF;" points="184.49,162.031 198.751,170.266 216.406,160.073 202.145,151.838 				"/>				<polygon style="fill:#455A64;" points="184.49,193.298 198.751,201.533 174.677,215.431 174.677,198.964 				"/>				<polygon style="opacity:0.2;fill:#FFFFFF;" points="184.49,193.298 198.751,201.533 174.677,215.431 174.677,198.964 				"/>				<polygon style="fill:#263238;" points="198.751,221.03 198.751,253.486 184.49,245.251 184.49,229.263 				"/>			</g>		</g>	</g></g>	<g id="Chartacter_2">	<g id="Chartacter_00000150098139289133220290000005037121317606044045_">		<g id="Bottom_00000124858965129860360500000002597731570510407325_">			<g>				<path style="fill:#FFA8A7;" d="M422.848,344.507l0.515-9.808l-11.122,1.343c0,0,0.458,5.284,0.778,8.271					c0.189,1.766-2.019,5.184-2.019,5.184s5.397,2.525,8.152,1.388c2.755-1.137,4.051-4.713,3.971-5.473					C423.043,344.652,422.848,344.507,422.848,344.507z"/>				<path style="fill:#263238;" d="M396.796,361.204c-0.176,0.007-0.373,1.834,0.614,2.571c1.139,0.85,4.44,2.194,8.706,1.514					c4.267-0.679,6.541-2.007,8.205-3.414c1.664-1.407,3.996-3.392,5.919-3.864c1.787-0.439,3.714-1.276,4.27-1.818					c0.557-0.543,0.388-2.856,0.388-2.856L396.796,361.204z"/>				<path id="XMLID_00000065062170536110913600000010720665358170493117_" style="fill:#455A64;" d="M422.849,344.489					c0,0,0.538-0.014,0.669,0.518c0.156,0.633,0.37,2.484,0.694,3.521c0.449,1.441,0.827,4.415,0.637,5.611					c-0.191,1.195-3.096,2.13-4.946,2.869c-1.891,0.755-4.053,2.245-5.942,3.819c-1.955,1.629-6.13,3.404-8.925,3.49					c-3.307,0.101-7.067-0.761-7.975-2.163c-1.123-1.735-1.971-3.768,2.849-6.076c0.913-0.437,4.102-2.364,5.188-3.059					c2.938-1.882,4.99-3.585,6.253-6.769c0.148-0.372,0.302-0.784,0.668-0.984c0.281-0.153,0.627-0.146,0.95-0.116					c0.821,0.077,4.094,0.375,4.851,0.679c0.669,0.269,1.615,0.575,1.631,1.364c0.005,0.274-0.069,0.545-0.154,0.808					c-0.053,0.163-0.091,0.379,0.064,0.468c0.146,0.085,0.33-0.025,0.454-0.137c0.497-0.449,0.852-1.015,1.264-1.533					c0.221-0.278,0.464-0.545,0.747-0.768c0.258-0.203,0.593-0.312,0.82-0.54C422.934,345.201,422.849,344.859,422.849,344.489z"/>				<path style="fill:#37474F;" d="M413.961,360.826c0.83-0.692,1.713-1.363,2.602-1.967l0-0.004c0,0-5.639,3.494-8.025,2.093					c-1.537-0.903-0.868-2.094-0.846-2.468c0.022-0.374-5.376-2.803-6.84-2.911l0,0c-0.398,0.225-0.732,0.407-0.942,0.508					c-4.82,2.308-3.972,4.341-2.849,6.076c0.908,1.402,3.647,2.42,7.919,2.26C407.775,364.308,412.006,362.455,413.961,360.826z"/>				<path style="fill:#37474F;" d="M408.053,357.379c-3.004,1.254-1.684,1.738-0.826,1.82c0.858,0.082,5.881-2.913,8.921-5.346					c3.171-2.538,5.128-5.255,6.306-6.188c0.439-0.348,0.91-0.772,1.328-1.168c-0.104-0.625-0.191-1.194-0.265-1.492					c-0.131-0.532-0.669-0.517-0.669-0.517c0,0.37,0.085,0.712-0.203,1c-0.227,0.228-0.562,0.337-0.82,0.54					c-0.284,0.224-0.526,0.491-0.747,0.768c-0.413,0.519-0.768,1.084-1.264,1.533C417.273,351.591,411.057,356.125,408.053,357.379z					"/>				<g>					<g>						<path style="fill:#263238;" d="M407.428,358.772c0.068-0.003,0.134-0.026,0.189-0.071c0.125-0.103,0.138-0.282,0.027-0.399							c-0.898-0.953-5.064-3.139-7.298-2.825c-0.166,0.023-0.28,0.167-0.256,0.321c0.023,0.154,0.159,0.257,0.341,0.238							c2.086-0.289,6.047,1.886,6.759,2.642C407.252,358.743,407.34,358.776,407.428,358.772z"/>					</g>					<g>						<path style="fill:#263238;" d="M410.028,357.142c0.067-0.003,0.134-0.026,0.189-0.071c0.125-0.103,0.137-0.282,0.027-0.398							c-0.897-0.953-5.062-3.137-7.298-2.824c-0.165,0.023-0.28,0.167-0.256,0.32c0.023,0.154,0.172,0.261,0.341,0.238							c2.087-0.286,6.047,1.885,6.759,2.641C409.852,357.113,409.94,357.145,410.028,357.142z"/>					</g>					<g>						<path style="fill:#263238;" d="M412.632,355.593c0.067-0.002,0.134-0.026,0.188-0.071c0.126-0.103,0.137-0.282,0.027-0.399							c-0.898-0.953-5.064-3.141-7.298-2.824c-0.165,0.023-0.28,0.167-0.255,0.321c0.023,0.154,0.17,0.261,0.341,0.238							c2.087-0.289,6.047,1.885,6.759,2.641C412.456,355.564,412.544,355.596,412.632,355.593z"/>					</g>					<g>						<path style="fill:#263238;" d="M415.033,353.845c0.067-0.003,0.134-0.026,0.189-0.071c0.125-0.103,0.137-0.282,0.027-0.398							c-0.897-0.953-5.073-3.138-7.298-2.824c-0.165,0.023-0.28,0.167-0.256,0.32c0.023,0.154,0.171,0.26,0.342,0.238							c2.084-0.287,6.047,1.885,6.759,2.641C414.857,353.816,414.945,353.848,415.033,353.845z"/>					</g>					<g>						<path style="fill:#263238;" d="M417.383,352.099c0.066-0.002,0.131-0.025,0.185-0.068c0.127-0.102,0.142-0.28,0.034-0.398							c-1.236-1.353-5.58-3.147-7.813-2.834c-0.165,0.023-0.28,0.167-0.256,0.321c0.024,0.154,0.172,0.256,0.342,0.238							c2.01-0.281,6.171,1.444,7.268,2.643C417.205,352.069,417.295,352.102,417.383,352.099z"/>					</g>				</g>			</g>			<g>				<path style="fill:#FFA8A7;" d="M445.693,348.588l-2.768-9.189l11.335-2.027l0.719,8.94c0,0,1.285,3.166,0.618,4.361					c-0.667,1.194-8.197,2.704-8.92,1.952C445.953,351.872,445.693,348.588,445.693,348.588z"/>				<path style="fill:#263238;" d="M447.332,368.732c0.438,2.857,1.108,4.69,2.406,6.199c1.299,1.508,3.518,1.691,5.678,0.842					c2.159-0.849,4.865-2.627,5.28-5.218c0.416-2.592,0.141-4.279-0.59-6.876L447.332,368.732z"/>				<path id="XMLID_00000013880222838951787020000003310119351930782592_" style="fill:#455A64;" d="M454.978,346.312					c0.913-0.082,0.825,3.858,1.683,7.656c0.92,4.071,2.466,5.567,3.261,8.898c0.909,3.806,0.829,5.584-0.504,8.187					c-1.332,2.603-6.571,5.787-9.543,2.842c-2.422-2.401-2.776-5.438-2.913-9.361c-0.141-4.056-0.205-6.915-0.653-9.938					c-0.429-2.89-1.37-5.44-0.609-5.891c0.098,0.419,0.203,0.953,0.304,1.363c0.077,0.315,0.304,1.88,0.814,1.814					c0.015-0.38-0.024-0.726-0.085-1.101c-0.053-0.326-0.053-0.691,0.167-0.981c0.222-0.293,1.08-0.679,1.442-0.802					c0.879-0.3,2.456-0.692,3.356-0.91c0.449-0.109,0.9-0.201,1.354-0.269c0.368-0.055,0.804-0.097,1.162-0.039					c0.22,0.036,0.43,0.14,0.525,0.317c0.071,0.131,0.073,0.288,0.086,0.437c0.023,0.27,0.085,0.533,0.183,0.782					c0.043,0.11,0.145,0.236,0.272,0.187c0.104-0.04,0.135-0.163,0.127-0.259c-0.037-0.471-0.134-0.802-0.206-1.345					c-0.033-0.251-0.109-0.588-0.135-0.842C455.043,346.808,455.019,346.558,454.978,346.312z"/>				<path style="fill:#37474F;" d="M459.621,361.79c0.137,0.548,0.994,4.184-0.089,5.038c-1.171,0.924-2.101-1.894-2.101-1.894					s-2.963-0.324-7.035,1.991c0.268,0.569-0.21,2.665-1.402,2.43c-1.184-0.233-2.006-4.43-2.017-4.485					c0.147,3.759,0.548,6.692,2.899,9.023c2.971,2.945,8.21-0.238,9.543-2.842c1.333-2.603,1.413-4.381,0.504-8.187					C459.831,362.485,459.729,362.13,459.621,361.79z"/>				<path style="fill:#37474F;" d="M457.121,365.238c0.14,1.406,1.664,0.679,1.56-1.321c-0.104-2-1.737-6.524-2.02-9.949					c-0.44-4.698-0.77-7.738-1.683-7.656c0.008,0.047,0.01,0.095,0.017,0.142l0.29,1.953c0.051,0.283,0.1,0.532,0.124,0.836					c0.271,2.87,0.516,8.457,1.021,11.039C456.935,362.865,456.982,363.832,457.121,365.238z"/>				<path style="fill:#37474F;" d="M450.88,366.809c-0.417-1.336-0.749-2.231-1.291-4.804c-0.538-2.555-2.267-7.644-3.131-10.384					c-0.263-0.445-0.398-1.326-0.454-1.554c-0.094-0.383-0.192-0.871-0.284-1.275c-0.009-0.028-0.017-0.056-0.024-0.085					c-0.547,0.335-0.272,2.556,0.067,3.699c0.339,1.143,0.747,2.366,1.178,4.008c1.067,3.227,1.339,8.122,2.019,9.977					C449.639,368.248,451.297,368.145,450.88,366.809z"/>				<g>					<g>						<path style="fill:#263238;" d="M450.316,367.055c0.042-0.01,0.082-0.028,0.12-0.052c0.031-0.021,3.195-2.046,6.933-1.765							c0.184,0.013,0.359-0.112,0.393-0.278c0.034-0.167-0.087-0.313-0.27-0.327c-3.999-0.3-7.275,1.8-7.413,1.891							c-0.157,0.103-0.206,0.293-0.107,0.426C450.046,367.05,450.185,367.088,450.316,367.055z"/>					</g>					<g>						<path style="fill:#263238;" d="M449.294,364.118c0.038-0.01,0.074-0.025,0.109-0.046c0.035-0.021,3.604-2.158,7.763-1.973							c0.184,0.005,0.355-0.121,0.384-0.289c0.028-0.168-0.099-0.31-0.284-0.318c-4.398-0.193-8.047,1.995-8.201,2.087							c-0.161,0.099-0.217,0.288-0.124,0.425C449.015,364.111,449.158,364.153,449.294,364.118z"/>					</g>					<g>						<path style="fill:#263238;" d="M456.696,359.23c0.126-0.032,0.234-0.125,0.268-0.247c0.045-0.166-0.063-0.321-0.243-0.346							c-4.173-0.572-8.033,1.91-8.196,2.017c-0.158,0.103-0.206,0.293-0.107,0.426c0.099,0.132,0.309,0.152,0.465,0.053							c0.037-0.023,3.787-2.431,7.67-1.894C456.601,359.246,456.649,359.242,456.696,359.23z"/>					</g>					<g>						<path style="fill:#263238;" d="M456.226,356.529c0.124-0.031,0.23-0.123,0.266-0.242c0.049-0.167-0.056-0.323-0.236-0.35							c-4.596-0.707-8.212,1.91-8.364,2.021c-0.151,0.111-0.186,0.303-0.077,0.429c0.109,0.126,0.323,0.137,0.471,0.026							c0.033-0.025,3.513-2.533,7.791-1.877C456.128,356.544,456.178,356.541,456.226,356.529z"/>					</g>					<g>						<path style="fill:#263238;" d="M455.685,353.496c0.122-0.031,0.228-0.12,0.265-0.237c0.052-0.166-0.051-0.324-0.23-0.354							c-4.312-0.723-8.251,1.997-8.416,2.114c-0.155,0.107-0.193,0.299-0.088,0.428c0.104,0.129,0.314,0.147,0.469,0.036							c0.039-0.027,3.844-2.652,7.848-1.98C455.583,353.511,455.635,353.509,455.685,353.496z"/>					</g>				</g>			</g>			<g>				<path id="XMLID_00000059989126681424666530000014517263000247191685_" style="fill:#455A64;" d="M444.931,247.433					c3.372,22.539,4.563,55.001,4.563,55.001c0.28,1.71,1.869,6.766,3.456,15.168c1.414,7.489,1.972,23.21,2.028,24.157					c0,0-5.86,4.035-10.927,2.703c0,0-7.433-22.97-10.729-33.342c-3.119-9.816-7.423-25.633-7.423-25.633l-1.064,16.385					c0,0,0.826,6.548,0.965,11.082c0.161,5.273-2.395,26.414-2.395,26.414s-5.789,3.701-11.215,0.037c0,0-4.845-30.469-5.444-36.783					c-1.176-12.385-2.737-37.873-2.064-53.219L444.931,247.433z"/>				<path id="XMLID_00000136396197187658233380000001110738266156938164_" style="fill:#263238;" d="M425.9,285.487l-3.705-15.943					c0,0-6.058-0.459-9.333-3.067c0,0,2.251,3.599,8.009,4.654l3.588,14.497l0.378,16.243L425.9,285.487z"/>			</g>		</g>		<g id="Top_00000049198543510748853100000012208840906204268946_">			<g id="Arm_00000052805834073850946760000018358998421029214345_">				<g>					<path style="fill:#FFA8A7;" d="M386.836,185.936c1.145,5.281,0.495,4.687,3.522,8.841c6.37,8.739,14.006,19.024,14.006,19.024						c6.818,2.65,7.333-6.192,11.452-10.661c-3.739-3.914-5.277-3.922-9.792-9.173c-2.848-3.311-7.582-8.775-7.582-8.775						s-2.144-5.602-3.915-10.709c-2.234-6.441-2.96-7.358-1.983-10.459c0.472-1.499,0.651-3.478,0.767-4.407						c0.27-2.165,0.218-4.344,0.396-6.512c0.013-0.154,0.024-0.315-0.038-0.456c-0.241-0.545-0.968-0.169-1.296,0.075						c-0.445,0.332-0.661,0.902-0.818,1.425c-0.207,0.693-0.382,1.388-0.583,2.086c-0.053,0.185-0.176,0.836-0.439,0.833						c-0.28-0.003-0.247-0.696-0.259-0.871c-0.048-0.714-0.022-1.43,0.004-2.144c0.064-1.786,0.128-3.573,0.192-5.359						c0.009-0.246,0.017-0.497-0.047-0.734c-0.257-0.948-1.35-0.822-1.783,0.203c-0.115,0.273-0.205,0.556-0.266,0.846						c-0.187,0.898-0.322,1.807-0.405,2.721c-0.034,0.379-0.055,0.746-0.141,1.117c-0.017,0.073-0.129,0.59-0.272,0.379						c-0.035-0.051-0.038-0.117-0.039-0.179c-0.026-1.214,0.065-2.427,0.125-3.639c0.03-0.614,0.053-1.229,0.048-1.844						c-0.004-0.411,0.109-1.171-0.214-1.49c-0.107-0.106-0.257-0.161-0.406-0.185c-0.465-0.076-0.97,0.141-1.237,0.528						c-0.15,0.217-0.273,0.485-0.365,0.733c-0.065,0.172-0.137,0.504-0.187,0.811c-0.287-0.693-1.214-0.509-1.564,0.05						c-0.534,0.854-0.551,1.811-0.607,2.999c-0.064,1.345-0.091,2.001-0.103,4.017c-0.002,0.393-0.185,0.638-0.258,0.196						c-0.062-0.375-0.096-0.725-0.116-1.107c-0.025-0.469-0.024-0.619-0.055-1.117c-0.041-0.657,0.027-1.901-0.2-2.171						c-0.215-0.255-0.665-0.126-0.9,0.07c-0.179,0.149-0.286,0.367-0.372,0.583c-0.553,1.392-0.462,2.946-0.346,4.439						c0.093,1.195,0.196,2.389,0.299,3.583c0.19,2.195,0.406,4.475,1.534,6.368c0.387,0.649,0.767,1.519,0.958,2.25						c0.7,2.678,1.124,5.719,1.678,8.884C385.638,179.35,385.966,181.925,386.836,185.936z"/>					<path style="fill:#F28F8F;" d="M388.653,158.118c-1.989-0.151-2.841,2.509-3.19,4.043c-0.069,0.305,0.047,1.233,0.366,0.554						c0.112-0.237,0.218-0.477,0.333-0.712c0.22-0.452,0.458-0.897,0.735-1.318c0.477-0.723,1.082-1.378,1.838-1.8						c0.205-0.114,0.457-0.29,0.393-0.515c-0.041-0.144-0.202-0.22-0.35-0.239C388.736,158.125,388.694,158.121,388.653,158.118z"/>					<g>						<path style="fill:#F28F8F;" d="M385.28,147.96c0.022,2.386-0.061,4.76-0.487,7.116							C384.642,152.691,384.735,150.294,385.28,147.96L385.28,147.96z"/>					</g>				</g>				<path style="fill:#37474F;" d="M413.972,200.942c-2.923-2.382-6.067-5.638-8.642-8.385c-2.575-2.747-6.577-7.447-6.577-7.447					l-5.398-13.929c0,0-0.707,1.517-3.963,2.462c-3.256,0.945-4.755-0.137-4.755-0.137s0.802,6.983,1.805,12.071					c1.002,5.088,0.661,5.235,3.867,9.868c3.205,4.633,11.616,16.109,13.822,18.843c2.206,2.734,4.732,8.287,4.732,8.134					C408.861,222.269,413.972,200.942,413.972,200.942z"/>			</g>			<g id="Chest_00000051365448945902719470000007137074085711732108_">				<path id="Chest_00000065771582279412035280000006921486978996432526_" style="fill:#F0F0F0;" d="M431.48,203.731					c2.294,0.439,9.443,2.988,12.098,4.411c0,0,2.976,6.462,1.645,21.23c-0.213,2.363-0.749,8.734-0.97,13.651					c-0.299,6.633,0.017,8.49,0.254,12.011c0,0-6.124,5.513-22.304,4.529c-12.703-0.773-16.594-5.932-16.594-5.932					s-0.189-17.118,0.005-26.481c0.256-12.297,3.875-19.444,6.584-21.63l8.309-1.508L431.48,203.731z"/>				<g>					<path style="fill:#BA68C8;" d="M432.942,203.76l0.009,0.825c0,0-2.942,7.355-2.987,21.776						c-0.045,14.421,0.59,37.495,0.59,37.495s9.841-0.349,16.364-5.752c0,0-1.411-12.487-1.353-18.22						c0.058-5.734,1.521-14.027,3.029-22.199c1.532-8.299-10.175-19.145-10.175-19.145						C436.805,200.75,434.99,202.513,432.942,203.76z"/>					<path style="fill:#BA68C8;" d="M420.202,203.105c-2.955-0.183-3.862-0.73-6.23-2.163c0,0-6.604,7.694-8.169,19.028						c-1.564,11.334-2.026,38.752-2.026,38.752c1.117,0.676,4.06,1.788,5.454,1.961c0,0,0.316-13.502,0.853-25.944						c0.647-15.011,1.532-24.464,10.138-30.7L420.202,203.105z"/>					<path style="opacity:0.3;" d="M435.336,228.471c-1.416,1.436-2.811,2.893-4.186,4.372c1.56-1.371,3.1-2.762,4.615-4.178						l0.119-0.111c-0.622-1.226-1.213-2.467-1.855-3.682c0,0-1.368-2.638-1.648-3.178c1.32-0.504,2.632-1.029,3.942-1.561						l0.203-0.082l0.004-0.213c0.086-4.472,0.124-9.122,0.006-13.583c-0.329,4.375-0.518,8.947-0.65,13.349						c-1.483,0.568-2.964,1.143-4.432,1.749l0.173,0.321C432.707,223.674,434.205,226.485,435.336,228.471z M406.18,224.493						l0.05,0.108c0.856,1.887,1.728,3.765,2.651,5.621c-0.682-1.911-1.415-3.801-2.163-5.686c1.117-1.65,2.209-3.316,3.285-4.992						l0.119-0.185l-0.125-0.184l-1.606-2.372c0.322-1.012,0.72-2.001,1.16-2.976c1.446-3.068,3.274-5.927,5.274-8.676						c-3.082,3.421-5.776,7.335-7.19,11.756c0,0,0.094,0.138,0.094,0.138l1.589,2.329c-1.041,1.657-2.068,3.323-3.069,5.006						L406.18,224.493z"/>				</g>			</g>			<g>				<g id="Head_00000078738990981868717880000017036297375402221227_">					<g>						<g id="XMLID_00000029749340649070971700000018321113064062813101_">							<g id="XMLID_00000099657568248144820870000004410764897306253456_">								<path style="fill:#263238;" d="M435.019,178.166c0,0,2.341,0.12,3.44,1.9c1.099,1.781,1.767,5.029,0.372,8.663									c-1.536,3.999-4.526,7.854-5.179,8.977c-0.653,1.123-1.905,1.391-1.905,1.391l0.341-4.925l0.332-3.427									c0,0-2.662-2.634-2.794-5.113c-0.17-3.19,1.148-4.936,1.148-4.936L435.019,178.166z"/>								<path style="fill:#263238;" d="M417.915,183.202c1.357-0.579,3.065-0.737,4.517-0.766c1.382-0.027,2.763-0.061,4.145-0.092									c1.479-0.033,2.959-0.065,4.438-0.098c0,0,4.753-0.583,4.898-3.924c0.071-1.644-0.688-2.778-0.85-3.023									c-0.575-0.864-1.505-1.853-2.349-2.45c-2.009-1.42-3.855-2.182-6.36-2.467c-1.806-0.206-3.634-0.029-5.432,0.24									c-1.216,0.182-2.461,0.405-3.665,0.154c-0.863-0.18-1.769-0.736-1.88-1.61c-0.984,1.093-1.223,2.796-0.577,4.117									c-1.183-0.104-2.34,0.762-2.698,1.895c-0.401,1.267,0.149,2.321,0.865,3.317c-0.088-0.123-0.604,0.801-0.645,0.879									c-0.283,0.54-0.398,1.165-0.309,1.778c0.127,0.87,0.873,1.517,1.647,1.935C415.02,183.824,416.51,183.801,417.915,183.202z"								/>								<path style="fill:#FFA8A7;" d="M436.532,195.81c-2.609,1.132-3.687-0.94-3.687-0.94l0.106,9.714									c-4.159,7.24-17.283,5.839-13.486,0.125l0.075-2.861c0,0-0.862-0.011-2.203-0.312c-3.531-0.791-4.352-2.946-4.799-5.449									c-0.695-3.891-0.336-9.241,1.296-15.352c0.315-1.18,0.885-2.458,2.002-2.951c2.773-1.225,5.2,0.818,8.918,2.456									c1.54,0.678,5.327,1.111,6.349,0.684c-1.383,1.399-1.57,6.002,0.293,7.954c0.312,0.663,0.654,1.057,0.919,1.311									c0.796,0.755,1.554-1.072,2.28-1.77c0.733-0.691,3.368-1.228,4.388,1.211C440.013,192.115,438.949,194.762,436.532,195.81z"								/>								<path style="fill:#F28F8F;" d="M419.539,201.849c2.968,0.111,5.505-0.131,7.588-1.128c1.716-0.821,4.157-3.203,4.767-5.531									c-0.208,3.762-1.675,5.473-4.39,6.751c-2.715,1.278-6.057,1.412-8,1.37L419.539,201.849z"/>							</g>							<g id="XMLID_00000005975523842718131890000007948468663023711116_">								<path id="XMLID_00000176018962264948251310000003843558256585292417_" style="fill:#263238;" d="M424.27,183.504									l2.211,1.592c0.431-0.638,0.285-1.512-0.325-1.952C425.545,182.704,424.701,182.866,424.27,183.504z"/>								<path id="XMLID_00000134961348193590745600000007194962720239376019_" style="fill:#263238;" d="M414.611,183.858									l2.511-1.11c-0.283-0.711-1.074-1.038-1.767-0.731C414.661,182.324,414.328,183.148,414.611,183.858z"/>								<path style="fill:#263238;" d="M425.335,187.08c-0.048,0.611-0.583,1.067-1.194,1.019c-0.611-0.048-1.067-0.583-1.019-1.194									c0.048-0.611,0.583-1.067,1.194-1.019C424.927,185.934,425.383,186.469,425.335,187.08z"/>								<path style="fill:#263238;" d="M417.052,186.375c-0.048,0.611-0.583,1.068-1.194,1.019									c-0.611-0.048-1.067-0.583-1.019-1.194c0.048-0.611,0.583-1.068,1.194-1.019									C416.736,185.236,417.108,185.672,417.052,186.375z"/>								<path id="XMLID_00000075863519760702120350000006746055035840188059_" style="fill:#F28F8F;" d="M420.706,185.122									l-1.22,7.02l-3.67-1.538C417.251,188.171,418.881,186.344,420.706,185.122z"/>								<path id="XMLID_00000080185196083503345620000010099389425776352415_" style="fill:#B16668;" d="M423.269,192.924									l-4.571,1.088c0.346,1.283,1.651,2.079,2.913,1.778C422.873,195.49,423.616,194.206,423.269,192.924z"/>								<path style="fill:#F28F8F;" d="M420.516,195.777c0.408-1.239,1.513-2.142,2.83-2.275c0.025,1.069-0.664,2.033-1.735,2.289									C421.24,195.878,420.869,195.862,420.516,195.777z"/>							</g>						</g>					</g>				</g>			</g>			<g>				<polygon style="fill:#37474F;" points="417.857,116.12 443.358,64.543 429.098,56.308 409.66,67.53 398.872,89.205					385.496,81.481 368.021,91.571 368.021,174.79 382.281,183.025 399.757,172.935 399.757,152.131 403.891,143.859					409.927,150.596 424.188,158.83 444.696,146.99 				"/>				<path style="fill:#455A64;" d="M406.355,138.929l-6.599,13.202v20.804l-17.476,10.09V99.806l17.476-10.09v34.596l24.163-48.546					l19.438-11.222l-25.501,51.577l26.839,30.87l-20.508,11.841L406.355,138.929z"/>				<polygon style="fill:#455A64;" points="368.021,91.571 382.281,99.806 399.757,89.716 385.496,81.481 				"/>				<polygon style="opacity:0.2;fill:#FFFFFF;" points="368.021,91.571 382.281,99.806 399.757,89.716 385.496,81.481 				"/>				<polygon style="fill:#455A64;" points="409.66,67.53 423.92,75.765 443.358,64.543 429.098,56.308 				"/>				<polygon style="opacity:0.2;fill:#FFFFFF;" points="409.66,67.53 423.92,75.765 443.358,64.543 429.098,56.308 				"/>				<polygon style="fill:#263238;" points="406.355,138.929 424.188,158.83 409.927,150.596 403.891,143.859 				"/>			</g>			<g id="Arm_00000036219391007204093760000015429294174840841859_">				<g>					<path style="fill:#FFA8A7;" d="M425.555,150.412c0.03-0.268,0.167-0.533,0.403-0.661c0.252-0.137,0.572-0.093,0.825,0.043						c0.253,0.136,0.452,0.351,0.643,0.566c0.622,0.702,1.203,1.439,1.74,2.208c0.118,0.169,0.996,1.393,0.971,0.689						c-0.009-0.244-0.156-0.593-0.256-0.797c-1.063-2.175-2.063-4.381-2.998-6.613c-0.198-0.472-0.331-1.282,0.159-1.639						c0.458-0.334,1.088-0.04,1.437,0.31c0.21,0.21,0.399,0.438,0.564,0.684c0.511,0.762,0.977,1.554,1.396,2.371						c0.174,0.339,0.331,0.671,0.55,0.982c0.043,0.061,0.341,0.498,0.395,0.25c0.013-0.061-0.009-0.123-0.031-0.18						c-0.431-1.136-0.971-2.225-1.481-3.326c-0.259-0.558-0.51-1.119-0.736-1.692c-0.151-0.383-0.54-1.044-0.361-1.462						c0.059-0.139,0.178-0.245,0.307-0.324c0.402-0.244,0.952-0.233,1.345,0.025c0.221,0.145,0.435,0.348,0.613,0.542						c0.124,0.135,0.316,0.416,0.477,0.682c0.006-0.75,0.934-0.927,1.468-0.54c0.816,0.591,1.19,1.472,1.688,2.552						c0.488,1.058,0.933,2.135,1.396,3.205c0.355,0.821,0.601,1.697,0.997,2.517c0.081,0.167,0.191,0.327,0.383,0.304						c0.048-1.624-0.98-3.559,0.645-4.787c0.091-0.069,0.191-0.132,0.304-0.147c0.559-0.077,1.37,3.518,1.545,4.072						c0.357,1.132,0.585,2.201,0.698,3.379c0.093,0.969-0.037,2.005,0.255,2.953c0.263,0.856,0.616,1.687,1.074,2.458						c0.681,1.146,1.592,2.257,3.126,3.897c1.601,1.711,2.989,2.936,4.964,5.186c-1.199,0.909-2.463,1.75-3.862,2.481						c-1.813,0.947-3.628,1.424-5.492,1.813c-1.499-2.497-2.663-4.418-4.252-6.923c-0.073-0.115-0.151-0.227-0.232-0.337						c-0.105-0.141-0.218-0.278-0.335-0.409c-1.53-1.717-3.36-2.858-4.863-4.638c-1.313-1.554-2.073-3.063-2.992-4.61						c-0.404-0.68-0.742-1.399-1.155-2.064c-0.423-0.682-0.852-1.367-1.147-2.117c-0.106-0.269-0.195-0.553-0.18-0.842						C425.551,150.454,425.552,150.433,425.555,150.412z"/>					<g>						<path style="fill:#F28F8F;" d="M431.516,143.071c0.874,2.22,1.843,4.39,3.121,6.414							C433.883,147.216,432.897,145.029,431.516,143.071L431.516,143.071z"/>					</g>				</g>				<path style="fill:#37474F;" d="M438.419,198.541c1.881-3.268,3.656-7.432,5.081-10.917c1.425-3.485,2.084-5.723,2.084-5.723					l-9.312-16.139c0,0,1.27,0.344,4.26-1.461c3.028-1.827,2.765-3.397,2.765-3.397s9.918,9.088,13.552,13.207					c3.431,3.888,3.058,5.38,1.716,10.851c-1.342,5.471-5.71,17.951-6.795,21.292c-1.085,3.341-3.176,11.431-3.176,11.431					C443.9,218.94,436.975,208.992,438.419,198.541z"/>			</g>		</g>	</g></g>	<g id="Character_1">	<g id="Character_00000047751151165220534790000006481447641843556519_">		<g id="Bottom_9_">			<g id="XMLID_00000079464079284842920640000001921181737304662942_">				<g>					<path style="fill:#37474F;" d="M111.331,420.721c0.474-0.096,0.575,1.331,0.476,1.96c-0.099,0.629-1.825,2.89-5.217,3.996						c-3.392,1.106-8.26,0.985-10.327,1.128c-2.067,0.143-5.093,1.482-7.078,2.128c-4.608,1.5-7.438,0.085-8.783-0.939						c-0.528-0.401-0.645-1.064-0.691-1.641c-0.11-1.369-0.015-1.657,0.145-1.663L111.331,420.721z"/>					<g id="XMLID_00000177483885882616754900000006566018624585624192_">						<g id="XMLID_00000180347045518491410460000006079525757734484108_">							<path id="XMLID_00000098182384763190531760000005199712946767124364_" style="fill:#455A64;" d="M80.002,421.251								c-0.194,0.946-0.354,1.945-0.441,2.907c-0.106,1.176-0.168,2.676,0.712,3.507c1.485,1.402,3.149,1.639,4.873,1.635								c2.067-0.004,4.055-0.464,5.954-1.315c1.735-0.778,3.119-1.452,5.064-1.556c2.137-0.114,5.102-0.063,7.198-0.515								c1.79-0.387,3.546-0.792,5.134-1.713c1.342-0.778,2.142-1.707,2.859-3.226c-0.189-2.668-1.682-3.788-3.242-4.463								c-1.647-0.713-3.681-0.718-5.462-0.499c-2.004,0.246-3.487,0.688-5.28,0.768c-1.215,0.055-2.491,0.017-3.635-0.439								c-0.546-0.217-1.003-0.964-1.299-1.454c-0.36-0.597-0.528-1.148-1.105-1.139c0,0-9.382,1.044-10.23,1.187								c-0.964,0.162-0.695,1.466-0.658,2.171c0.032,0.609,0.012,0.623,0.041,1.232c0.029,0.597-0.149,1.459-0.289,2.039								C80.127,420.667,80.062,420.959,80.002,421.251z"/>						</g>					</g>					<path style="fill:#FAFAFA;" d="M98.883,416.254c0.126-0.093,0.266-0.168,0.418-0.209c0.8-0.218,1.515,0.51,1.934,1.097						c0.257,0.36,0.408,0.758,0.567,1.169c0.194,0.501,0.32,1.048,0.214,1.584c-0.027,0.136-0.111,0.3-0.248,0.283						c-0.125-0.016-0.175-0.167-0.201-0.29c-0.157-0.734-0.451-1.438-0.86-2.067c-0.182-0.279-0.317-0.518-0.589-0.722						c-0.259-0.195-0.554-0.342-0.87-0.416c-0.128-0.03-0.673,0.033-0.57-0.219c0.02-0.048,0.058-0.087,0.097-0.121						C98.81,416.31,98.846,416.281,98.883,416.254z"/>					<path style="fill:#FAFAFA;" d="M96.529,416.529c0.371-0.08,0.783-0.023,1.114,0.177c0.391,0.236,0.562,0.611,0.764,1						c0.394,0.757,0.762,1.901,0.379,2.729c-0.123,0.266-0.355,0.161-0.466-0.053c-0.124-0.237-0.134-0.575-0.195-0.834						c-0.15-0.612-0.42-1.196-0.714-1.751c-0.116-0.22-0.242-0.438-0.411-0.62c-0.114-0.122-0.248-0.228-0.401-0.296						c-0.074-0.033-0.152-0.059-0.232-0.068c-0.073-0.009-0.153-0.002-0.227-0.003c-0.014-0.115,0.11-0.195,0.219-0.233						C96.414,416.557,96.471,416.542,96.529,416.529z"/>					<path style="fill:#FAFAFA;" d="M94.077,416.127c0.28,0.063,0.545,0.185,0.745,0.387c0.188,0.19,0.308,0.438,0.406,0.687						c0.223,0.56,0.448,1.148,0.529,1.749c0.057,0.425,0.028,0.873-0.159,1.259c-0.074,0.153-0.224,0.315-0.386,0.262						c-0.177-0.058-0.191-0.327-0.223-0.48c-0.059-0.282-0.067-0.58-0.102-0.866c-0.128-1.055-0.593-2.031-1.311-2.818						c-0.036-0.039-0.075-0.086-0.066-0.139c0.014-0.078,0.118-0.096,0.197-0.092C93.831,416.084,93.956,416.1,94.077,416.127z"/>					<path style="fill:#FAFAFA;" d="M101.41,416.195c0.825-0.107,2.698,0.826,3.835,3.273c1.137,2.447,1.022,5.705,1.022,5.705						s2.43-0.435,4.358-2.695c0.537-0.629,0.842-1.141,0.99-1.586c0.029-1.691-0.52-3.04-1.302-3.784						c-1.37-1.304-3.333-2.038-6.285-1.863c-3.311,0.196-3.497,1.105-3.497,1.105L101.41,416.195z"/>				</g>				<path id="XMLID_00000067215714568060064380000014821136604995884210_" style="fill:#C8856A;" d="M79.502,400.403					c0,0,1.393,13.135,1.666,15.824c0.116,1.144,2.643,2.4,6.144,2.053c2.46-0.245,3.985-1.73,4.207-3.001					c0.222-1.271,0.938-16.685,0.938-16.685L79.502,400.403z"/>			</g>			<g>				<polygon style="fill:#C8856A;" points="43.894,397.081 47.552,383.587 60.297,388.258 51.217,403.838 				"/>				<g>					<path id="XMLID_16854_" style="fill:#455A64;" d="M39.282,400.815c-0.281,1.16,0.011,2.373,0.167,3.534						c0.157,1.169,0.328,2.316,0.416,3.495c0.055,0.738,0.127,1.417,0.294,2.129c0.188,0.799,0.081,1.75,0.1,2.569						c0.021,0.899,0.042,1.797,0.055,2.696c0.005,0.352,0.083,0.805-0.004,1.151c-0.093,0.372,5.694,3.689,8.029,4.967						c0.135,0.076,0.271,0.135,0.423,0.203c2.132,0.838,3.791-0.888,3.791-0.888c1.641-4.349-1.574-7.09-1.574-7.09						s-0.296,0.017-0.237-2.267c0-1.625,0.021-3.277,0.174-4.896c0.098-1.024,0.518-1.352,0.904-2.296						c0.353-0.864,1.029-1.779,0.992-2.747c-0.029-0.776-0.678-1.958-1.044-2.587c-0.852-1.46-2.724-2.665-4.232-3.342						c-0.859-0.385-2.258-0.806-3.141-0.272c-0.476,0.288-0.7,0.848-1.041,1.288c-0.403,0.521-0.976,0.878-1.519,1.251						c-1.05,0.722-2.078,1.612-2.475,2.823C39.331,400.629,39.305,400.722,39.282,400.815z"/>					<path id="XMLID_00000076592033328238611910000000712604670676724918_" style="fill:#FAFAFA;" d="M50.979,413.581						c0.288,0.355,0.542,0.719,0.753,1.092h0.009c1.032,1.768,1.286,3.774,0.812,5.999c4.086-0.372,5.161-2.733,5.161-2.733						s0.228-2.039-2.124-3.52c-0.296-0.186-0.592-0.347-0.888-0.465c-0.017-0.008-0.034-0.017-0.042-0.025						C52.68,413.09,50.979,413.581,50.979,413.581z"/>					<path id="XMLID_16847_" style="fill:#263238;" d="M38.33,401.454c-1.075,0.416-0.799,3.367-0.118,6.208						c0.681,2.841,1.048,3.832,0.703,6.195c-0.345,2.363-0.543,3.421,0.42,4.288c0.964,0.867,8.628,4.446,8.628,4.446						s-1.51-3.638-1.712-8.876c-0.202-5.237-0.552-8.61-2.981-10.991C40.84,400.344,38.33,401.454,38.33,401.454z"/>					<path id="XMLID_00000180326931783592206980000006794831937494315706_" style="fill:#37474F;" d="M57.716,417.936						c0,0-2.977,2.404-6.397,2.792c-3.42,0.389-3.591-0.925-3.951-4.979c-0.36-4.054-0.499-9.659-2.095-12.127						c-1.596-2.469-4.281-3.563-5.337-3.312c-0.217-0.112-1.265,0.671-1.607,1.143c0,0,2.343-0.293,4.478,1.796						c2.136,2.088,2.526,6.497,2.624,10.505c0.098,4.008,0.274,8.651,3.466,9.139c3.191,0.488,6.583-0.881,8.699-2.645						C58.815,419.234,57.716,417.936,57.716,417.936z"/>					<g>						<path id="XMLID_00000165232246604059835580000015474838630613610682_" style="fill:#FAFAFA;" d="M50.737,412.091							c0,0,0.427,0.28,0.473,0.742c0.046,0.462-0.143,1.523-1.16,2.104c-0.431,0.246-0.8,0.148-0.106-0.695							C50.639,413.397,50.737,412.091,50.737,412.091z"/>						<path id="XMLID_00000161597890127318269740000016887691945533582265_" style="fill:#FAFAFA;" d="M50.805,409.269							c0,0,0.27,0.247,0.289,0.613c0.02,0.366-0.655,1.874-1.407,2.209c-0.751,0.334-0.347-0.494,0-0.879							C50.034,410.826,50.805,409.269,50.805,409.269z"/>						<path id="XMLID_00000019662547169728067630000015087903289649503673_" style="fill:#FAFAFA;" d="M50.991,406.163							c0,0,0.335,0.174,0.354,0.502c0.019,0.327-1.522,1.483-2.004,1.445c-0.482-0.039-0.598-0.193,0-0.597							C49.938,407.108,50.991,406.163,50.991,406.163z"/>					</g>				</g>			</g>			<path id="XMLID_00000178164178500814174600000010095084035636033204_" style="fill:#37474F;" d="M55.326,397.026				c0,0,4.574-7.335,12.923-20.991c2.366-3.869,3.67-6.709,4.243-9.651c0.572-2.942,2.895-11.899,2.895-11.899l2.229,15.265				c-0.608,3.858-0.667,9.88,0.167,20.067c0.74,9.049,2.317,20.223,2.317,20.223c0.806,0.609,4.136,1.145,6.216,0.974				c5.203-0.429,6.145-2.548,6.145-2.548s1.716-18.018,2.309-24.738c1.393-15.797,1.801-19.525,2.582-37.725				c0.66-15.4-0.803-24.93-5.128-38.729c-11.265,5.108-26.568,4.146-32.882-1.483c0,0-5.062,8.552-5.183,22.067				c-0.102,11.395,0.859,33.51,0.859,33.51c-2.507,3.791-4.076,6.796-5.459,12.301c-1.595,6.348-2.73,10.637-4.412,17.735				C51.588,391.24,55.326,397.026,55.326,397.026z"/>			<path style="fill:#263238;" d="M54.199,392.606c0.818-1.533,1.634-3.067,2.457-4.598c1.541-2.866,4.992-8.718,6.457-11.624				c2.95-5.851,5.528-11.927,7.06-18.315c0.416-1.735,0.761-3.485,0.992-5.255c0.122-0.935,0.215-1.874,0.275-2.816				c0.095-1.482-0.005-2.985,0.191-4.46c0.026-0.193,0.363-0.643,0.481-0.247c0.48,1.603,0.335,3.435,0.258,5.089				c-0.08,1.701-0.259,3.397-0.526,5.079c-0.526,3.321-1.402,6.585-2.537,9.748c-2.313,6.445-7.438,15.504-10.68,21.518				c-0.918,1.704-1.84,3.405-2.768,5.104c-0.635,1.163-1.249,2.363-1.911,3.529c-0.244-0.254-0.516-0.519-0.822-0.792				C53.484,393.907,53.853,393.254,54.199,392.606z"/>			<path style="fill:#263238;" d="M90.065,325.441c-0.619-5.448-1.715-10.966-3.618-16.15c0.296-0.077,0.59-0.158,0.883-0.241				c2.156,5.214,3.338,10.717,4.005,16.321c2.776-0.638,3.293-4.569,3.202-6.927c-0.055-1.406-0.273-2.798-0.516-4.182				c-0.167-0.953-0.41-1.939-0.581-2.926c0.796,2.766,1.474,5.394,2.026,7.965c-0.004,0.106,0.002,0.211-0.004,0.317				c-0.141,2.541-1.253,6.058-4.027,6.699c0.579,5.314,0.732,10.705,0.844,16.011c0.3,14.221-0.004,28.452-0.904,42.647				c-0.414,6.519-1.197,19.003-2.054,25.501c-0.37,0.111-0.777,0.215-1.235,0.302c0.423-5.674,1.441-17.229,1.829-22.906				c0.479-7.013,0.813-14.036,1.002-21.063c0.196-7.306,0.239-14.617,0.125-21.924C90.942,338.399,90.798,331.891,90.065,325.441z"			/>			<path style="fill:#263238;" d="M92.222,307.274l-0.921-5.489c0,0-7.365,4.121-16.134,3.595				c-8.768-0.526-14.555-5.086-14.555-5.086l-1.272,5.496c0,0,3.727,5.464,15.915,5.289				C87.443,310.904,92.222,307.274,92.222,307.274z"/>			<path id="XMLID_00000044870005553908774220000017809766221412802209_" style="fill:#263238;" d="M75.386,354.486l-3.584-21.62				c0,0-4.038,0.275-10.264-5.19c0,0,0.993,4.635,7.681,7.814l3.754,20.843l-0.482,10.052L75.386,354.486z"/>		</g>		<g id="Top_00000074438424706044730330000018170238170710568617_">			<g>				<g>					<path style="fill:#C8856A;" d="M103.974,216.371c-0.583,0.382-0.997,0.968-1.414,1.527c-0.561,0.754-1.151,1.485-1.769,2.193						c-0.074,0.084-0.223,0.164-0.277,0.066c-0.022-0.039-0.011-0.088,0.002-0.131c0.147-0.512,0.398-0.987,0.645-1.459						c0.684-1.311,1.339-2.638,1.916-4c0.14-0.33,0.277-0.668,0.313-1.025c0.037-0.36-0.015-0.828-0.294-1.084						c-0.157-0.144-0.54-0.439-1.017-0.146c0.214-0.419,0.276-0.758,0.155-1.137c-0.233-0.725-1.026-1.003-1.623-0.516						c-0.221,0.18-0.382,0.421-0.538,0.66c-1.205,1.856-2.167,3.846-3.276,5.758c-0.153,0.263-0.427,0.257-0.352-0.093						c0.354-1.641,1.204-3.129,1.534-4.776c0.131-0.654,0.31-1.348-0.269-1.804c-0.697-0.549-1.23-0.013-1.563,0.634						c-1.13,2.2-2.171,4.457-3.069,6.762c-0.186,0.476-1.215,3.234-1.539,1.486c-0.125-0.677-0.227-1.349-0.358-2.021						c-0.099-0.508-0.251-1.065-0.64-1.419c-0.286-0.26-0.938-0.681-1.215-0.19c-0.072,0.128-0.076,0.281-0.078,0.427						c-0.032,2.061-0.281,4.111-0.225,6.177c0.024,0.887,0.01,2.77,0.318,4.226c0.298,1.413-2.137,7.255-4.651,12.753						c1.979,2.512,4.749,4.126,9.72,3.245c1.178-4.349,2.286-8.493,2.541-9.35c0,0,0.733-2.033,1.166-3.019						c0.38-0.868,0.854-1.67,1.292-2.506c0.452-0.862,0.852-1.757,1.289-2.627c0.892-1.777,1.826-3.534,2.883-5.219						c0.474-0.755,0.978-1.508,1.235-2.362C105.004,216.774,104.767,215.851,103.974,216.371z"/>					<g>						<path style="fill:#AF6152;" d="M95.489,223.744c-0.124-0.891-0.61-1.831-1.441-2.24c-0.132-0.065-0.179,0.225-0.091,0.29							c0.674,0.493,1.062,1.376,1.067,2.204c0.006,0.989-0.167,1.85-0.621,2.766c-0.037,0.075,0.034,0.255,0.136,0.146							C95.314,226.08,95.643,224.853,95.489,223.744z"/>						<path style="fill:#AF6152;" d="M99.527,217.529c0.331-0.528,0.587-1.075,0.897-1.616c0.302-0.528,0.599-1.059,0.869-1.604							c0.245-0.495,0.801-1.347,0.785-1.916c-0.002-0.079-0.14,0.151-0.172,0.202c-0.428,0.684-1.425,2.618-1.762,3.22							c-0.604,1.077-1.321,2.236-1.843,3.357c-0.045,0.096,0.066,0.112,0.122,0.053C98.906,218.713,99.154,218.125,99.527,217.529z"						/>					</g>				</g>				<path style="fill:#E0E0E0;" d="M84.69,239.239c-2.522,5.516-5.496,10.47-5.496,10.47s-14.907,13.634-18.661,17.572					c-3.754,3.938-6.783,12.879-2.903,19.58c1.661-3.631,2.417-5.135,6.93-8.47c5.813-4.295,16.813-12.338,20.13-15.49					c3.141-2.983,5.245-4.838,6.896-10.269c0.588-1.935,1.736-6.129,2.825-10.148C90.349,242.694,87.205,241.461,84.69,239.239z"/>			</g>			<g id="XMLID_00000031190505600863958480000000654572433149503921_">				<g>					<path id="XMLID_00000085959891275099512930000015967944390932481448_" style="fill:#AF6152;" d="M83.135,246.576						c0,0,4.135,3.468,3.929,3.93c-0.206,0.462-1.609,1.286-1.609,1.286L83.135,246.576z"/>					<path id="XMLID_00000049193558103731215020000002891499635796407984_" style="fill:#C8856A;" d="M73.456,237.99						c2.259,0.449,5.995,0.525,9.132,5.788c0.541,0.907,0.577,2.532,1.075,3.723c0.559,1.338,1.589,2.709,1.931,3.811						c1.783,5.749,0.734,8.451-0.003,9.68c-0.593,0.988-4.677,2.433-7.034,2.38c-2.949-0.067-9.635-1.273-13.642-4.945						c-4.713-4.32-7.34-11.103-4.361-14.888C64.746,238.213,71.214,237.545,73.456,237.99z"/>					<path style="fill:#AF6152;" d="M85.41,261.208c-0.825,0.811-3.53,1.81-5.677,2.088l-0.956-1.565c0,0,1.887,0.211,3.582,0.124						C84.045,261.769,85.394,261.215,85.41,261.208z"/>					<path style="fill:#C8856A;" d="M80.08,261.543l-0.655,7.612c0,0-5.813,1.765-11.938,0.015l0.654-4.124						C71.202,260.876,75.621,259.779,80.08,261.543z"/>				</g>				<path id="XMLID_00000163035494021288102000000009557884825422509200_" style="fill:#263238;" d="M75.855,234.483					c0.199-0.021,0.398-0.034,0.6-0.021c1.101,0.074,2.181,0.432,3.119,1.009c1.416,0.87,2.513,2.212,3.213,3.719					c0.444,0.955,0.739,2.03,0.52,3.06c-0.228,1.071-0.98,1.955-1.801,2.68c0.197-1.135-0.341-2.364-1.31-2.988					c0.512,1.169,0.56,2.534,0.132,3.736c-0.428,1.202-1.329,2.229-2.465,2.81c0.56,0.633,0.903,1.454,0.958,2.297					c0.016,0.245,0.006,0.501-0.108,0.718c-0.313,0.596-1.009,0.282-1.418-0.012c-0.279-0.201-0.524-0.444-0.799-0.65					c-0.811-0.608-1.276-0.917-2.569-0.795c-0.928,0.087-1.964,1.139-2.035,1.964c-0.148,1.738,0.865,3.342,1.611,4.007					c0.998,0.89,2.013,1.281,2.875,1.087c0.435-0.098,1.396-0.571,1.585-1.252c0,0,1.764,4.639-1.673,7.249					c0,0-3.949,2.323-8.151,1.945c-0.471-0.042-1.5-1.127-1.912-1.413c-0.793-0.551-1.602-1.079-2.411-1.607					c-1.35-0.88-2.361-1.909-3.511-3.029c-2.448-2.382-3.825-5.622-4.57-9.004c-0.558-2.53,0.509-5.756,0.509-5.756					c0.437-1.319,0.541-2.547,1.284-3.787c0.719-1.198,1.684-2.237,2.777-3.102c2.346-1.856,5.281-2.949,8.241-3.276					c1.705-0.188,3.444-0.121,5.123,0.245c0.388,0.085,0.787,0.242,1.179,0.252C75.182,234.579,75.517,234.519,75.855,234.483z"/>			</g>			<g>				<path id="XMLID_00000067953254623650411050000004795344670758289057_" style="fill:#BA68C8;" d="M58.183,273.629					c0.908-3.445,2.033-5.708,8.583-5.408l0.912,0.029c2.332,0.337,4.152,0.386,9.613-0.153c5.461-0.538,6.962-0.859,8.575-0.407					c0,0,6.965,7.049,9.334,14.533c1.828,5.776-1.013,9.698-2.319,11.217c0.161,6.95,1.305,18.901,1.305,18.901					s-5.424,6.47-20.784,5.904c-10.015-0.368-15.491-5.845-16.625-7.603c0,0,2.886-7.494,3.013-12.251					C58.957,291.459,55.529,283.697,58.183,273.629z"/>			</g>			<path style="fill:#263238;" d="M50.143,246.781c-0.9,1.781-1.218,3.864-0.9,5.84c0.502,3.121,2.269,5.892,3.014,8.957				c0.727,2.991-1.688,6.115-2.426,8.969c-1.253,4.848,0.658,10.362,4.644,13.394c-0.367-1.253-0.472-2.584-0.304-3.879				c0.052,1.801,1.162,3.44,2.576,4.557c1.414,1.117,3.117,1.795,4.794,2.455c-1.69-1.341-2.093-3.813-1.618-5.917				c0.475-2.104,1.66-3.964,2.687-5.861c1.016-1.874,1.612-3.856,2.174-5.9c0.655-2.381-0.033-5.039-1.054-7.198				c-1.159-2.451-2.445-4.853-3.313-7.421c-0.868-2.568-1.302-5.355-0.703-7.999c0.144-0.634,0.347-1.266,0.336-1.917				c-0.033-1.886-1.558-2.901-3.317-2.704c-2.043,0.229-3.993,1.248-5.353,2.788C50.89,245.503,50.476,246.122,50.143,246.781z"/>			<g>				<polygon style="fill:#37474F;" points="136.708,140.888 80.803,173.165 80.803,191.83 95.063,200.065 99.973,197.23					99.973,245.316 114.233,253.551 131.888,243.358 131.888,178.804 150.969,167.788 150.969,149.123 				"/>				<path style="fill:#455A64;" d="M114.233,188.997l-19.17,11.068V181.4l55.906-32.277v18.665l-19.08,11.016v64.554l-17.655,10.193					V188.997z"/>				<polygon style="fill:#455A64;" points="80.803,173.165 95.063,181.4 150.969,149.123 136.708,140.888 				"/>				<polygon style="opacity:0.2;fill:#FFFFFF;" points="80.803,173.165 95.063,181.4 150.969,149.123 136.708,140.888 				"/>				<polygon style="fill:#263238;" points="114.233,188.997 99.973,197.23 99.973,245.316 114.233,253.551 				"/>			</g>			<g>				<path style="fill:#E0E0E0;" d="M118.798,257.19c-3.026,3.315-6.263,6.811-6.263,6.811s-13.479,2.175-20.284,2.791					c-2.011,0.182-3.969,0.603-6.385,0.898c0,0-2.022,4.954,1.489,11.312c1.447,2.62,4.321,3.937,5.516,4.228					c2.295-3.243,10.977-4.442,19.079-6.866c5.322-1.592,6.899-2.491,8.521-4.508c1.071-1.331,3.91-5.854,6.268-9.677					C123.583,261.486,120.685,260.577,118.798,257.19z"/>				<path style="fill:#C8856A;" d="M135.825,244.377c-0.377-0.659-0.506-1.044-0.446-1.806c0.047-0.593-0.07-1.462-0.431-1.958					c-0.127-0.175-0.285-0.352-0.389-0.541c-0.301-0.55-0.19-1.295-0.212-1.912c-0.026-0.732-0.094-1.063-0.551-1.639					c-0.35-0.441-0.462-0.827-0.559-1.37c-0.078-0.438-0.094-1.886-0.862-1.675c-0.392,0.108-0.839,0.748-1.033,1.066					c-0.374,0.612-0.63,1.393-0.789,2.087c-0.18,0.789-0.166,1.569-0.291,2.364c-0.284,1.81-0.98,3.664-1.968,5.209					c-0.15,0.235-0.502,0.744-0.834,0.601c-0.148-0.063-0.251-0.24-0.318-0.382c-0.141-0.294-0.169-0.641-0.247-0.954					c-0.085-0.342-0.19-0.681-0.277-1.023c-0.184-0.717-0.641-1.581-1.325-1.937c-0.515-0.269-1.192-0.312-1.213,0.419					c-0.019,0.675,0.229,1.321,0.194,1.999c-0.037,0.732-0.24,1.461-0.318,2.193c-0.118,1.111-0.14,2.251,0.064,3.355					c0.178,0.961,0.254,1.923-0.072,2.903c-0.071,0.215-2.533,2.947-5.151,5.814c1.887,3.387,4.785,4.296,7.941,4.989					c1.846-2.993,3.398-5.559,3.576-5.829c0.405-0.616,0.916-1.152,1.366-1.736c0.502-0.653,0.935-1.356,1.422-2.022					c0.902-1.235,1.734-2.538,2.325-3.953C135.941,247.408,136.551,245.647,135.825,244.377z"/>			</g>		</g>	</g></g>	<g id="Speech_Bubble">	<g id="Speech_Bubble_10_">		<g id="Speech_Bubble_12_">			<path id="XMLID_1279_" style="fill:#BA68C8;" d="M88.87,142.136l-4.377-8.229l3.521-10.164v-6.222l-10.776,6.222v6.222				l4.633,8.025c0.078,0.135,0.191,0.224,0.315,0.28l-0.003,0.004L88.87,142.136z"/>			<path id="XMLID_1259_" style="opacity:0.2;" d="M88.87,142.136l-4.377-8.229l3.521-10.164v-6.222l-10.776,6.222v6.222				l4.633,8.025c0.078,0.135,0.191,0.224,0.315,0.28l-0.003,0.004L88.87,142.136z"/>			<path id="XMLID_1258_" style="fill:#BA68C8;" d="M114.605,68.058c0-2.061-1.446-4.566-3.231-5.596l-2.631-1.519				c-1.784-1.03-4.677-1.03-6.462,0L61.937,84.278c-1.785,1.03-3.231,3.535-3.231,5.596v44.39c0,2.061,1.447,4.566,3.231,5.596				l2.631,1.519c1.785,1.03,4.678,1.03,6.462,0l12.976-7.497l4.623,8.008c0.296,0.512,1.056,0.44,1.25-0.119l4.887-14.106				l16.61-9.622c1.784-1.03,3.23-3.535,3.23-5.596L114.605,68.058z"/>			<path id="XMLID_1234_" style="opacity:0.2;" d="M58.706,134.265c0,2.061,1.446,4.566,3.231,5.596l2.631,1.519				c1.613,0.931,4.123,1.012,5.91,0.26c-1.521,0.575-2.679-0.283-2.679-2.126l0-44.391c0-1.03,0.362-2.172,0.946-3.184l-9.092-5.249				c-0.585,1.012-0.946,2.154-0.946,3.184V134.265z"/>			<path id="XMLID_1219_" style="opacity:0.3;fill:#FFFFFF;" d="M114.5,67.14c-0.377-1.372-1.628-1.809-3.12-0.949l-40.352,23.34				c-0.889,0.512-1.703,1.387-2.276,2.411l-9.089-5.245c0.588-1.025,1.387-1.899,2.276-2.412l40.337-23.34				c1.794-1.025,4.688-1.025,6.467,0l2.638,1.523C112.902,63.342,114.183,65.301,114.5,67.14z"/>		</g>		<path id="XMLID_1204_" style="fill:#FAFAFA;" d="M79.021,104.713c-0.012-2.427,0.565-4.973,1.522-7.222l-0.004-0.005l0.02-0.048			c1.118-2.608,2.76-4.805,4.587-5.876c3.136-1.846,5.754,1.94,6.171,6.389c0.369-4.909,2.933-11.734,6.069-13.565			c1.827-1.071,3.481-0.806,4.619,0.478l0.021,0.025l-0.004,0.009c0.973,1.118,1.573,2.973,1.585,5.4			c0.038,7.521-4.458,14.324-8.218,21.477l-4.059,6.914l-3.921-2.235C83.597,113.74,79.059,112.234,79.021,104.713z"/>	</g></g></svg>