<svg xmlns="http://www.w3.org/2000/svg" width="125" height="40" viewBox="0 0 125 40" fill="none">
    <g clip-path="url(#clip0_2607_6761)">
        <path d="M73.0632 19.0061V5.75781H77.6639C78.8615 5.75781 79.9471 6.04088 80.9208 6.61013C81.8913 7.17938 82.6534 7.96638 83.2009 8.97735C83.7484 9.98831 84.0252 11.1237 84.0252 12.3835C84.0252 13.6433 83.7515 14.7818 83.2009 15.7897C82.6534 16.8007 81.8913 17.5877 80.9208 18.1569C79.9502 18.7262 78.8646 19.0092 77.6639 19.0092H73.0632V19.0061ZM77.6608 17.1335C78.482 17.1335 79.2255 16.9313 79.8942 16.5269C80.563 16.1225 81.0887 15.5626 81.4745 14.8409C81.8602 14.1224 82.053 13.3012 82.053 12.3804C82.053 11.4597 81.8602 10.6384 81.4745 9.91988C81.0887 9.20131 80.563 8.63829 79.8942 8.2339C79.2255 7.82951 78.482 7.62732 77.6608 7.62732H75.0292V17.1304H77.6608V17.1335Z" fill="#000"/>
        <path d="M90.343 19.1959C89.4595 19.1959 88.6601 18.9844 87.9478 18.5613C87.2354 18.1383 86.6693 17.5504 86.2524 16.8007C85.8356 16.051 85.6272 15.1956 85.6272 14.2344C85.6272 13.2732 85.8356 12.4396 86.2524 11.6899C86.6693 10.9402 87.2323 10.3523 87.9478 9.92925C88.6601 9.5062 89.4595 9.29468 90.343 9.29468C91.1766 9.29468 91.9387 9.49687 92.6324 9.90126C93.3261 10.3056 93.8736 10.8593 94.2686 11.5655C94.6668 12.2716 94.8659 13.0679 94.8659 13.9513C94.8659 14.1784 94.8565 14.3837 94.8379 14.5673C94.8192 14.7508 94.7974 14.8783 94.7726 14.9561H87.4843C87.5465 15.4725 87.7113 15.9297 87.9758 16.3279C88.2402 16.726 88.5792 17.0309 88.9898 17.2455C89.4004 17.4602 89.8515 17.5659 90.343 17.5659C90.8718 17.5659 91.3384 17.4508 91.7428 17.2175C92.1471 16.9842 92.4551 16.6732 92.6697 16.2812H94.5828C94.393 16.838 94.1069 17.3326 93.7211 17.7681C93.3354 18.2036 92.8595 18.552 92.2934 18.8102C91.7241 19.0684 91.074 19.199 90.343 19.199V19.1959ZM93.0119 13.519C92.987 13.0275 92.8533 12.5826 92.6138 12.1845C92.3742 11.7863 92.0569 11.4753 91.6588 11.2482C91.2606 11.0211 90.822 10.9091 90.343 10.9091C89.839 10.9091 89.3818 11.0211 88.9712 11.2482C88.5606 11.4753 88.2308 11.7832 87.9789 12.1752C87.7269 12.5671 87.562 13.015 87.4874 13.519H93.015H93.0119Z" fill="#000"/>
        <path d="M97.0433 19.0061V5.75781H102.929C103.672 5.75781 104.344 5.93823 104.944 6.29596C105.545 6.65679 106.018 7.15761 106.363 7.80152C106.711 8.44542 106.882 9.17643 106.882 9.99764C106.882 10.8189 106.708 11.5499 106.363 12.1938C106.014 12.8377 105.542 13.3385 104.944 13.6993C104.344 14.0602 103.672 14.2375 102.929 14.2375H99.0092V19.0061H97.0402H97.0433ZM102.873 12.3617C103.252 12.3617 103.594 12.2653 103.905 12.0693C104.213 11.8734 104.459 11.5965 104.643 11.2357C104.826 10.8749 104.916 10.4642 104.916 9.99453C104.916 9.52482 104.826 9.11422 104.643 8.75338C104.459 8.39254 104.213 8.11569 103.905 7.91972C103.597 7.72375 103.252 7.62732 102.873 7.62732H99.0123V12.3586H102.873V12.3617Z" fill="#000"/>
        <path d="M109.215 19.0061V5.75781H111.184V19.0061H109.215Z" fill="#000"/>
        <path d="M114.096 19.0061V5.75781H116.992L122.405 16.1505H122.784V5.75781H124.772V19.0061H121.857L116.444 8.6134H116.065V19.0061H114.096Z" fill="#000"/>
        <path d="M78.23 34.2422C77.2066 34.2422 76.289 34.0151 75.4771 33.561C74.6621 33.1068 74.0275 32.4629 73.5734 31.6292C73.1192 30.7956 72.8922 29.8375 72.8922 28.7519V20.801H74.8799V28.7519C74.8799 29.458 75.0261 30.0832 75.3154 30.6245C75.6046 31.1689 76.0059 31.5919 76.5161 31.903C77.0262 32.2109 77.5986 32.3665 78.23 32.3665C78.8615 32.3665 79.4121 32.2109 79.9254 31.903C80.4386 31.595 80.8368 31.1689 81.1261 30.6245C81.4154 30.0832 81.5616 29.458 81.5616 28.7519V20.801H83.5493V28.7519C83.5493 29.8375 83.3222 30.7956 82.868 31.6292C82.4139 32.4629 81.7793 33.1068 80.9643 33.561C80.1493 34.0151 79.2379 34.2422 78.23 34.2422Z" fill="#000"/>
        <path d="M86.1031 34.0524V24.5306H87.7113L87.9011 25.5136H87.9944C88.2339 25.2119 88.601 24.9412 89.0924 24.6986C89.5839 24.4591 90.1532 24.3378 90.7971 24.3378C91.5156 24.3378 92.1627 24.5057 92.7381 24.8386C93.3136 25.1745 93.7647 25.6442 94.0913 26.2477C94.4179 26.8543 94.5828 27.548 94.5828 28.3287V34.0461H92.7101V28.4812C92.7101 28.027 92.6075 27.6195 92.4084 27.2618C92.2062 26.901 91.9325 26.6179 91.5841 26.4095C91.2357 26.2011 90.8437 26.0984 90.402 26.0984C89.9603 26.0984 89.5497 26.2042 89.1702 26.4188C88.7907 26.6334 88.4952 26.9227 88.2806 27.2898C88.0659 27.6568 87.9602 28.0519 87.9602 28.4812V34.0461H86.1062L86.1031 34.0524Z" fill="#000"/>
        <path d="M97.006 22.5429V20.6703H99.031V22.5429H97.006ZM97.0806 34.0524V24.5306H98.9346V34.0524H97.0806Z" fill="#000"/>
        <path d="M105.638 34.2422C104.755 34.2422 103.952 34.0307 103.234 33.6076C102.515 33.1846 101.949 32.5966 101.538 31.847C101.128 31.0973 100.922 30.2419 100.922 29.2807C100.922 28.3195 101.128 27.4858 101.538 26.7362C101.949 25.9865 102.512 25.3986 103.234 24.9755C103.952 24.5525 104.755 24.3409 105.638 24.3409C106.521 24.3409 107.302 24.5525 108.024 24.9755C108.746 25.3986 109.309 25.9865 109.719 26.7362C110.13 27.4858 110.335 28.335 110.335 29.2807C110.335 30.2263 110.13 31.0942 109.719 31.847C109.309 32.5966 108.746 33.1846 108.024 33.6076C107.302 34.0307 106.509 34.2422 105.638 34.2422ZM105.638 32.5189C106.154 32.5189 106.63 32.3851 107.066 32.1207C107.501 31.8563 107.844 31.4768 108.099 30.9853C108.351 30.4938 108.478 29.9246 108.478 29.2807C108.478 28.6368 108.351 28.0893 108.099 27.5947C107.847 27.1032 107.501 26.7237 107.066 26.4593C106.63 26.1949 106.154 26.0611 105.638 26.0611C105.122 26.0611 104.646 26.1949 104.21 26.4593C103.775 26.7237 103.433 27.1032 103.178 27.5947C102.926 28.0862 102.798 28.6492 102.798 29.2807C102.798 29.9121 102.926 30.4907 103.178 30.9853C103.429 31.4768 103.775 31.8563 104.21 32.1207C104.646 32.3851 105.122 32.5189 105.638 32.5189Z" fill="#000"/>
        <path d="M112.317 34.0524V24.5306H113.925L114.115 25.5136H114.208C114.447 25.2119 114.815 24.9412 115.306 24.6986C115.797 24.4591 116.367 24.3378 117.011 24.3378C117.729 24.3378 118.376 24.5057 118.952 24.8386C119.527 25.1745 119.978 25.6442 120.305 26.2477C120.631 26.8543 120.796 27.548 120.796 28.3287V34.0461H118.924V28.4812C118.924 28.027 118.821 27.6195 118.622 27.2618C118.42 26.901 118.146 26.6179 117.798 26.4095C117.449 26.2011 117.057 26.0984 116.616 26.0984C116.174 26.0984 115.763 26.2042 115.384 26.4188C115.004 26.6334 114.709 26.9227 114.494 27.2898C114.279 27.6568 114.174 28.0519 114.174 28.4812V34.0461H112.32L112.317 34.0524Z" fill="#000"/>
        <path d="M58.6546 0H51.3415C50.598 0 49.9977 0.600358 49.9977 1.34381V28.6554C49.9977 29.3989 49.3973 29.9992 48.6539 29.9992H31.343C30.5996 29.9992 29.9992 29.3989 29.9992 28.6554V11.3446C29.9992 10.6011 30.5996 10.0008 31.343 10.0008H38.6562C39.3996 10.0008 40 9.40042 40 8.65697V1.34381C40 0.600358 39.3996 0 38.6562 0H31.343C30.5996 0 29.9992 0.600358 29.9992 1.34381V10.0008L20.5926 0.591026C20.2131 0.211525 19.6998 0 19.1617 0H1.34381C0.600358 0 0 0.600358 0 1.34381V8.65697C0 9.40042 0.600358 10.0008 1.34381 10.0008H18.6546C19.3981 10.0008 19.9984 10.6011 19.9984 11.3446V28.6554C19.9984 29.3989 19.3981 29.9992 18.6546 29.9992H11.3415C10.598 29.9992 9.99767 29.3989 9.99767 28.6554V21.3423C9.99767 20.5988 9.39731 19.9984 8.65386 19.9984H1.34381C0.600358 19.9984 0 20.5988 0 21.3423V28.6554C0 29.3989 0.600358 29.9992 1.34381 29.9992H8.65697C9.40042 29.9992 10.0008 30.5996 10.0008 31.343V38.6562C10.0008 39.3996 10.6011 40 11.3446 40H19.1617C19.6967 40 20.2131 39.7854 20.5926 39.409L28.475 31.5266L28.898 31.1035C29.5077 30.4938 30.4938 30.4938 31.1004 31.1035L31.5234 31.5266L39.4059 39.409C39.7854 39.7885 40.2986 40 40.8368 40H49.1609C49.6959 40 50.2123 39.7854 50.5918 39.409L59.9984 30.0023V1.34381C59.9984 0.600358 59.3981 0 58.6546 0Z" fill="#000"/>
    </g>
    <defs>
        <clipPath id="clip0_2607_6761">
            <rect width="124.772" height="40" fill="#000"/>
        </clipPath>
    </defs>
</svg>
