<svg xmlns="http://www.w3.org/2000/svg" width="32" height="32" viewBox="0 0 32 32" fill="none">
    <path d="M25.3828 23.9911C14.858 29 8.32624 24.8092 4.14504 22.2638C3.88631 22.1034 3.44656 22.3013 3.8281 22.7396C5.22107 24.4286 9.78611 28.4995 15.7448 28.4995C21.7076 28.4995 25.255 25.246 25.6987 24.6784C26.1395 24.1156 25.8281 23.8052 25.3827 23.9911H25.3828ZM28.3386 22.3587C28.056 21.9907 26.62 21.9221 25.7163 22.0331C24.8112 22.1409 23.4526 22.6941 23.5708 23.0262C23.6314 23.1506 23.7551 23.0948 24.3769 23.0389C25.0003 22.9767 26.7469 22.7563 27.1109 23.232C27.4765 23.7111 26.5538 25.9931 26.3853 26.3612C26.2225 26.7292 26.4475 26.8241 26.7533 26.579C27.055 26.334 27.601 25.6994 27.9675 24.8014C28.3314 23.8985 28.5534 22.639 28.3385 22.3587H28.3386Z" fill="#FF9900"/>
    <path fill-rule="evenodd" clip-rule="evenodd" d="M18.3061 13.7705C18.3061 15.0847 18.3393 16.1808 17.675 17.3479C17.1388 18.2969 16.2895 18.8805 15.3406 18.8805C14.0453 18.8805 13.2909 17.8936 13.2909 16.437C13.2909 13.5617 15.8672 13.0398 18.3061 13.0398V13.7705ZM21.708 21.9931C21.4849 22.1923 21.1623 22.2066 20.9109 22.0737C19.7912 21.1438 19.5918 20.712 18.9751 19.8247C17.1246 21.7131 15.8151 22.2777 13.4143 22.2777C10.577 22.2777 8.36591 20.5269 8.36591 17.0206C8.36591 14.2829 9.85108 12.4182 11.9623 11.5073C13.7938 10.7006 16.3512 10.5583 18.3061 10.3354V9.89882C18.3061 9.09693 18.3677 8.14801 17.898 7.45533C17.4852 6.83376 16.6976 6.57753 16.0048 6.57753C14.7191 6.57753 13.5708 7.237 13.2909 8.60347C13.2339 8.9072 13.011 9.20614 12.7073 9.22034L9.43343 8.8693C9.1583 8.80749 8.85466 8.58457 8.93057 8.16222C9.68496 4.19574 13.2671 3 16.4745 3C18.1162 3 20.2607 3.43655 21.5561 4.6797C23.1978 6.21218 23.0411 8.25713 23.0411 10.4824V15.7395C23.0411 17.3195 23.6959 18.0122 24.3127 18.8663C24.5309 19.1699 24.5784 19.5354 24.3032 19.763C23.6152 20.3371 22.3911 21.4047 21.7174 22.0026L21.7079 21.9931" fill="black"/>
</svg>
