<svg xmlns="http://www.w3.org/2000/svg" width="32" height="32" viewBox="0 0 32 32" fill="none">
    <path d="M22.3499 25.3178C22.3109 25.3262 18.9152 25.9324 14.804 26.6649L7.32898 27.9968L19.6645 27.9984L32 28L31.9494 27.9109C31.9216 27.8618 28.9294 22.6305 25.3 16.2857C21.4234 9.50869 18.6959 4.75905 18.6884 4.77229C18.6659 4.81189 14.658 15.9442 14.658 15.9671C14.658 15.9793 16.4046 18.0847 18.5394 20.6459L22.4208 25.3027L22.3499 25.3178Z" fill="#0089D6"/>
    <path d="M4.06425 18.1286C1.82891 22.036 0 25.2383 0 25.2448C0 25.2514 1.65293 25.2546 3.67317 25.2521L7.34634 25.2474L12.3977 14.3201C15.1759 8.31004 17.4903 3.30304 17.5408 3.19341C17.5912 3.08379 17.6255 2.9968 17.6169 3.00009C17.6083 3.00339 15.4699 4.8102 12.8649 7.01523L8.1285 11.0244L4.06425 18.1286Z" fill="#0089D6"/>
</svg>
