<svg xmlns="http://www.w3.org/2000/svg" viewBox="0 0 29.26 24"><defs/><g id="Layer_2" data-name="Layer 2"><g id="Layer_1-2" data-name="Layer 1"><g id="cloud"><path class="cls-1" d="M10.93,4.49A5.24,5.24,0,0,1,14.62,3a5.32,5.32,0,0,1,3.69,1.49,5,5,0,0,1,1.34,2.27,9.92,9.92,0,0,1,3.17.09,8,8,0,0,0-2.33-4.48A8.37,8.37,0,0,0,14.63,0,8.42,8.42,0,0,0,8.74,2.37,8.09,8.09,0,0,0,6.41,6.86a9.69,9.69,0,0,1,3.18-.1,4.93,4.93,0,0,1,1.34-2.27"/><path class="cls-1" d="M26.84,10.19a8.35,8.35,0,0,0-3-1.87l-.41-.14-.09,0-.22-.06a7.87,7.87,0,0,0-1.4-.24,7.45,7.45,0,0,0-.76,0,7,7,0,0,0-.79,0,9.64,9.64,0,0,0-1,.14l-.34.08a8.42,8.42,0,0,0-3.22,1.61.08.08,0,0,0,0,0l2.19,2.14h0a5.22,5.22,0,0,1,3.14-1,5.28,5.28,0,0,1,3.71,1.51A5,5,0,0,1,25.11,19l-.18.25-.26.26a5.34,5.34,0,0,1-6.6.65L18,20.08l-7.32-7.14a3.88,3.88,0,0,0-2.37-.79l-.36,0H7.82l-.24,0-.13,0-.22.06-.09,0h0l-.2.07-.13.06-.19.08-.13.07a1.18,1.18,0,0,0-.19.11l-.12.07,0,0,9.57,9.34A8.45,8.45,0,0,0,21,24a8.63,8.63,0,0,0,2.2-.29,8.33,8.33,0,0,0,3.68-2.1,7.95,7.95,0,0,0,0-11.42"/><path class="cls-1" d="M11.3,20.07a5.33,5.33,0,0,1-6.69-.57,5,5,0,0,1-.25-6.92l.17-.19h0l.08-.07a5.24,5.24,0,0,1,2.67-1.4,5.78,5.78,0,0,1,1-.1,5.23,5.23,0,0,1,3.27,1.13l0,0,7.29,7.1a3.79,3.79,0,0,0,1.23.5,4,4,0,0,0,1.2.07l.11,0a1.9,1.9,0,0,0,.25,0l.09,0h0l.22,0,.14-.05.2-.07.14-.05.19-.09.13-.07.18-.1.12-.08,0,0-8.64-8.44-.35-.36-.35-.31a8.21,8.21,0,0,0-3.46-1.8L10,8c-.31-.06-.62-.11-.92-.14s-.54,0-.8,0a7.36,7.36,0,0,0-.77,0,8.33,8.33,0,0,0-1.37.23L6,8.14l-.1,0-.44.15a8.47,8.47,0,0,0-3,1.86,8,8,0,0,0,0,11.45,8.34,8.34,0,0,0,3.69,2.09A9,9,0,0,0,8.3,24a8.43,8.43,0,0,0,5.37-1.92l-2.19-2.14-.18.13"/></g></g></g></svg>
