<svg xmlns="http://www.w3.org/2000/svg" width="739" height="140" viewBox="0 0 739 140" fill="none">
    <path fill-rule="evenodd" clip-rule="evenodd" d="M62.2326 57.5295C62.2326 56.5378 61.4285 55.7324 60.4356 55.7324H27.7994C26.8066 55.7324 26 56.5378 26 57.5295V65.9167C26 66.9084 26.8066 67.7137 27.7994 67.7137H60.4356C61.4285 67.7137 62.2326 66.9084 62.2326 65.9167V57.5295Z" fill="#0178E2"/>
    <path fill-rule="evenodd" clip-rule="evenodd" d="M91.3083 78.0849C91.3083 77.0932 90.5042 76.2878 89.5114 76.2878H56.8752C55.8823 76.2878 55.0757 77.0932 55.0757 78.0849V86.472C55.0757 87.4637 55.8823 88.2691 56.8752 88.2691H89.5114C90.5042 88.2691 91.3083 87.4637 91.3083 86.472V78.0849Z" fill="#0FECC7"/>
    <path fill-rule="evenodd" clip-rule="evenodd" d="M82.4944 36.9741C82.4944 35.9824 81.6894 35.177 80.6987 35.177H44.5019C43.5112 35.177 42.7035 35.9824 42.7035 36.9741V45.3613C42.7035 46.353 43.5112 47.1583 44.5019 47.1583H80.6987C81.6894 47.1583 82.4944 46.353 82.4944 45.3613V36.9741Z" fill="#D2007D"/>
    <path fill-rule="evenodd" clip-rule="evenodd" d="M129.077 63.7079C130.15 62.635 130.156 60.8923 129.086 59.8227L94.2016 24.938C93.1321 23.8685 91.3894 23.8742 90.3165 24.9471L55.4464 59.8173C54.3734 60.8903 54.3677 62.6329 55.4373 63.7025L90.3219 98.5872C91.3914 99.6568 93.1341 99.651 94.207 98.5781L129.077 63.7079Z" fill="#333"/>
    <path d="M179.156 30.1303L144.188 101.476H157.63L164.586 86.7183H193.82L200.776 101.476H214.124L179.156 30.1303ZM179.156 55.6983L189.214 76.9423H169.192L179.156 55.6983Z" fill="#333"/>
    <path d="M232.084 73.9343C232.084 68.2003 235.562 63.4063 241.484 63.4063C247.688 63.4063 250.884 68.2003 250.884 73.8403V101.476H263.292V70.5503C263.292 59.8343 256.806 52.2203 245.714 52.2203C239.604 52.2203 234.622 55.1343 232.084 58.9883V53.3483H219.676V101.476H232.084V73.9343Z" fill="#333"/>
    <path d="M297.749 91.7943C290.041 91.7943 283.367 85.8723 283.367 77.4123C283.367 69.0463 290.041 63.1243 297.749 63.1243C302.167 63.1243 305.269 64.4403 308.183 66.6963V54.8523C305.175 53.1603 301.227 52.2203 296.997 52.2203C283.273 52.2203 271.523 62.9363 271.523 77.4123C271.523 91.8883 283.273 102.604 296.997 102.604C301.227 102.604 305.175 101.664 308.183 99.9723V88.1283C305.269 90.4783 302.167 91.7943 297.749 91.7943Z" fill="#333"/>
    <path d="M329.877 73.9343C329.877 68.2003 333.355 63.4063 339.277 63.4063C345.481 63.4063 348.677 68.2003 348.677 73.8403V101.476H361.085V70.5503C361.085 59.8343 354.599 52.2203 343.507 52.2203C337.397 52.2203 332.415 55.1343 329.877 58.9883V30.0363H317.469V101.476H329.877V73.9343Z" fill="#333"/>
    <path d="M395.166 102.604C409.078 102.604 420.828 91.8883 420.828 77.4123C420.828 63.0303 409.078 52.2203 395.166 52.2203C381.16 52.2203 369.41 63.0303 369.41 77.4123C369.41 91.8883 381.16 102.604 395.166 102.604ZM395.166 62.9363C402.78 62.9363 408.514 69.0463 408.514 77.4123C408.514 85.7783 402.78 91.8883 395.166 91.8883C387.552 91.8883 381.724 85.7783 381.724 77.4123C381.724 69.0463 387.552 62.9363 395.166 62.9363Z" fill="#333"/>
    <path d="M457.312 52.5963C456.842 52.5963 456.372 52.5023 455.902 52.5023C449.322 52.5023 444.34 56.1683 441.708 60.7743V53.3483H429.3V101.476H441.708V77.9763C441.708 68.6703 447.254 64.8163 454.398 64.8163C455.338 64.8163 456.278 64.9103 457.312 65.0043V52.5963Z" fill="#333"/>
    <path d="M493.642 52.2203C486.498 52.2203 480.576 55.8863 477.944 60.1163V53.3483H465.536V121.216H477.944V94.7083C480.576 98.9383 486.498 102.604 493.642 102.604C506.896 102.604 517.048 91.7003 517.048 77.4123C517.048 63.2183 506.896 52.2203 493.642 52.2203ZM491.198 62.9363C498.812 62.9363 504.828 69.1403 504.828 77.4123C504.828 85.6843 498.812 91.9823 491.198 91.9823C483.49 91.9823 477.568 85.6843 477.568 77.4123C477.568 69.1403 483.49 62.9363 491.198 62.9363Z" fill="#333"/>
    <path d="M548.189 102.604C562.101 102.604 573.851 91.8883 573.851 77.4123C573.851 63.0303 562.101 52.2203 548.189 52.2203C534.183 52.2203 522.433 63.0303 522.433 77.4123C522.433 91.8883 534.183 102.604 548.189 102.604ZM548.189 62.9363C555.803 62.9363 561.537 69.0463 561.537 77.4123C561.537 85.7783 555.803 91.8883 548.189 91.8883C540.575 91.8883 534.747 85.7783 534.747 77.4123C534.747 69.0463 540.575 62.9363 548.189 62.9363Z" fill="#333"/>
    <path d="M588.81 31.5403H588.716C584.674 31.5403 581.478 34.6423 581.478 38.6843C581.478 42.7263 584.674 45.8283 588.716 45.8283H588.81C592.852 45.8283 596.048 42.7263 596.048 38.6843C596.048 34.6423 592.852 31.5403 588.81 31.5403ZM582.606 53.3483V101.476H595.014V53.3483H582.606Z" fill="#333"/>
    <path d="M619.401 73.9343C619.401 68.2003 622.879 63.4063 628.801 63.4063C635.005 63.4063 638.201 68.2003 638.201 73.8403V101.476H650.609V70.5503C650.609 59.8343 644.123 52.2203 633.031 52.2203C626.921 52.2203 621.939 55.1343 619.401 58.9883V53.3483H606.993V101.476H619.401V73.9343Z" fill="#333"/>
    <path d="M677.075 84.5563V63.2183H689.953V53.3483H677.075V38.2143L664.667 42.1623V53.3483H656.771V63.2183H664.667V85.8723C664.667 96.8703 671.905 102.604 681.681 102.604C685.253 102.604 688.919 101.758 691.363 100.348V89.3503C689.295 91.0423 686.851 91.8883 684.125 91.8883C679.707 91.8883 677.075 89.3503 677.075 84.5563Z" fill="#333"/>
</svg>
