<svg width="1200" height="199" viewBox="0 0 1200 199" fill="none" xmlns="http://www.w3.org/2000/svg">
<g clip-path="url(#clip0_1_1126)">
<path d="M369.423 171.976C361.81 171.976 354.768 170.723 348.295 168.218C341.823 165.712 336.207 162.163 331.449 157.572C326.691 152.98 322.982 147.579 320.322 141.368C317.662 135.156 316.333 128.343 316.333 120.931C316.333 113.519 317.662 106.708 320.322 100.497C322.982 94.2845 326.712 88.8824 331.511 84.2907C336.311 79.699 341.947 76.1503 348.419 73.6447C354.892 71.1391 361.934 69.8862 369.547 69.8862C377.64 69.8862 385.054 71.2794 391.788 74.0658C398.523 76.8521 404.185 80.9666 408.772 86.4093L396.9 97.7378C393.31 93.8036 389.29 90.8614 384.838 88.9112C380.387 86.9611 375.569 85.986 370.385 85.986C365.239 85.986 360.507 86.8414 356.189 88.5522C351.871 90.2631 348.119 92.6793 344.933 95.801C341.748 98.9212 339.279 102.615 337.527 106.881C335.775 111.148 334.899 115.831 334.899 120.931C334.899 126.031 335.775 130.714 337.527 134.981C339.279 139.248 341.748 142.942 344.933 146.064C348.119 149.184 351.871 151.599 356.189 153.31C360.507 155.021 365.239 155.877 370.385 155.877C375.569 155.877 380.387 154.901 384.838 152.951C389.29 151.001 393.31 148.018 396.9 144.001L408.772 155.331C404.185 160.761 398.523 164.892 391.788 167.726C385.054 170.559 377.599 171.976 369.423 171.976ZM424.891 170.571V65.3345H442.62V170.571H424.891ZM499.952 171.495C492.182 171.495 485.258 169.832 479.178 166.505C473.101 163.176 468.309 158.582 464.803 152.721C461.297 146.86 459.544 140.179 459.544 132.676C459.544 125.09 461.304 118.393 464.825 112.585C468.347 106.776 473.131 102.214 479.176 98.8969C485.222 95.5786 492.147 93.9195 499.952 93.9195C507.759 93.9195 514.71 95.5757 520.807 98.888C526.905 102.2 531.688 106.756 535.157 112.554C538.626 118.353 540.361 125.061 540.361 132.679C540.361 140.21 538.631 146.899 535.172 152.745C531.714 158.59 526.921 163.176 520.793 166.505C514.666 169.832 507.719 171.495 499.952 171.495ZM499.952 156.413C504.293 156.413 508.149 155.455 511.522 153.538C514.895 151.621 517.56 148.866 519.518 145.275C521.475 141.682 522.453 137.485 522.453 132.683C522.453 127.808 521.475 123.601 519.518 120.063C517.56 116.523 514.895 113.795 511.522 111.879C508.149 109.961 504.313 109.002 500.014 109.002C495.716 109.002 491.88 109.961 488.506 111.879C485.133 113.795 482.447 116.523 480.448 120.063C478.449 123.601 477.45 127.808 477.45 132.683C477.45 137.485 478.449 141.682 480.448 145.275C482.447 148.866 485.13 151.621 488.497 153.538C491.866 155.455 495.684 156.413 499.952 156.413ZM589.448 171.495C582.973 171.495 577.274 170.305 572.352 167.923C567.428 165.54 563.59 161.863 560.837 156.891C558.082 151.92 556.705 145.638 556.705 138.046V94.8437H574.433V135.726C574.433 142.526 575.99 147.591 579.103 150.919C582.218 154.246 586.611 155.91 592.283 155.91C596.397 155.91 600.002 155.063 603.097 153.37C606.192 151.677 608.609 149.137 610.347 145.751C612.088 142.365 612.959 138.163 612.959 133.146V94.8437H630.687V170.571H613.778V150.139L616.79 156.36C614.212 161.259 610.476 165.006 605.581 167.602C600.688 170.198 595.311 171.495 589.448 171.495ZM686.006 171.495C678.718 171.495 672.171 169.885 666.367 166.664C660.566 163.444 656.004 158.934 652.681 153.135C649.36 147.336 647.7 140.524 647.7 132.699C647.7 124.871 649.36 118.059 652.681 112.262C656.004 106.463 660.566 101.957 666.367 98.7417C672.171 95.5269 678.718 93.9195 686.006 93.9195C692.321 93.9195 697.981 95.3201 702.988 98.1212C707.997 100.922 711.974 105.175 714.919 110.879C717.864 116.583 719.336 123.856 719.336 132.699C719.336 141.47 717.914 148.731 715.071 154.483C712.226 160.234 708.303 164.507 703.301 167.303C698.298 170.098 692.533 171.495 686.006 171.495ZM688.109 156.413C692.365 156.413 696.18 155.455 699.553 153.538C702.926 151.621 705.612 148.866 707.61 145.275C709.611 141.682 710.612 137.49 710.612 132.699C710.612 127.813 709.611 123.601 707.61 120.063C705.612 116.523 702.926 113.795 699.553 111.879C696.18 109.961 692.365 109.002 688.109 109.002C683.851 109.002 680.036 109.961 676.665 111.879C673.291 113.795 670.605 116.523 668.605 120.063C666.607 123.601 665.608 127.813 665.608 132.699C665.608 137.49 666.607 141.682 668.605 145.275C670.605 148.866 673.291 151.621 676.665 153.538C680.036 155.455 683.851 156.413 688.109 156.413ZM711.11 170.571V152.668L711.709 132.575L710.29 112.484V65.3345H728.019V170.571H711.11ZM793.394 171.495C786.96 171.495 781.218 170.098 776.168 167.303C771.119 164.507 767.173 160.234 764.329 154.483C761.486 148.731 760.064 141.47 760.064 132.699C760.064 123.856 761.536 116.583 764.479 110.879C767.424 105.175 771.425 100.922 776.481 98.1212C781.536 95.3201 787.174 93.9195 793.394 93.9195C800.777 93.9195 807.346 95.5269 813.102 98.7417C818.857 101.957 823.395 106.463 826.717 112.262C830.039 118.059 831.7 124.871 831.7 132.699C831.7 140.524 830.039 147.336 826.717 153.135C823.395 158.934 818.857 163.444 813.102 166.664C807.346 169.885 800.777 171.495 793.394 171.495ZM751.381 170.571V65.3345H769.11V112.484L767.691 132.575L768.29 152.668V170.571H751.381ZM791.289 156.413C795.548 156.413 799.364 155.455 802.736 153.538C806.109 151.621 808.795 148.866 810.795 145.275C812.793 141.682 813.792 137.49 813.792 132.699C813.792 127.813 812.793 123.601 810.795 120.063C808.795 116.523 806.109 113.795 802.736 111.879C799.364 109.961 795.548 109.002 791.289 109.002C787.033 109.002 783.218 109.961 779.845 111.879C776.472 113.795 773.785 116.523 771.786 120.063C769.788 123.601 768.788 127.813 768.788 132.699C768.788 137.49 769.788 141.682 771.786 145.275C773.785 148.866 776.472 151.621 779.845 153.538C783.218 155.455 787.033 156.413 791.289 156.413ZM884.22 171.495C875.836 171.495 868.492 169.829 862.189 166.496C855.886 163.161 851.002 158.568 847.537 152.716C844.072 146.864 842.339 140.192 842.339 132.699C842.339 125.18 844.027 118.498 847.403 112.652C850.781 106.806 855.431 102.222 861.355 98.9013C867.281 95.5801 873.993 93.9195 881.49 93.9195C888.901 93.9195 895.495 95.5351 901.271 98.7661C907.05 101.997 911.592 106.55 914.899 112.426C918.204 118.3 919.857 125.222 919.857 133.193C919.857 133.915 919.83 134.757 919.778 135.717C919.725 136.676 919.651 137.558 919.556 138.363H856.512V126.609H910.194L903.202 130.35C903.283 126.007 902.388 122.176 900.518 118.855C898.649 115.534 896.091 112.933 892.843 111.052C889.593 109.17 885.821 108.229 881.526 108.229C877.233 108.229 873.438 109.17 870.14 111.052C866.844 112.933 864.285 115.554 862.462 118.917C860.641 122.279 859.73 126.214 859.73 130.722V133.567C859.73 138.112 860.762 142.122 862.825 145.598C864.89 149.073 867.81 151.772 871.585 153.696C875.362 155.618 879.739 156.579 884.719 156.579C888.971 156.579 892.791 155.9 896.178 154.542C899.565 153.185 902.576 151.108 905.211 148.311L914.782 159.263C911.33 163.246 907.023 166.28 901.863 168.366C896.703 170.452 890.822 171.495 884.22 171.495ZM936.893 170.571V94.8437H953.802V115.653L951.799 109.603C953.999 104.457 957.555 100.557 962.468 97.9018C967.38 95.247 973.435 93.9195 980.632 93.9195V110.799C979.873 110.693 979.176 110.613 978.54 110.56C977.908 110.507 977.271 110.48 976.63 110.48C969.914 110.48 964.567 112.433 960.589 116.337C956.61 120.242 954.622 126.091 954.622 133.884V170.571H936.893ZM996.461 170.571V94.8437H1013.37V115.653L1011.37 109.603C1013.57 104.457 1017.12 100.557 1022.04 97.9018C1026.95 95.247 1033 93.9195 1040.2 93.9195V110.799C1039.44 110.693 1038.74 110.613 1038.11 110.56C1037.48 110.507 1036.84 110.48 1036.2 110.48C1029.48 110.48 1024.13 112.433 1020.16 116.337C1016.18 120.242 1014.19 126.091 1014.19 133.884V170.571H996.461ZM1062.3 199.01C1058.54 199.01 1054.83 198.413 1051.18 197.22C1047.52 196.026 1044.45 194.306 1041.97 192.061L1049.03 179.092C1050.8 180.733 1052.82 182.014 1055.1 182.935C1057.38 183.857 1059.72 184.318 1062.1 184.318C1065.27 184.318 1067.85 183.521 1069.86 181.927C1071.87 180.332 1073.71 177.612 1075.4 173.767L1079.77 163.936L1081.3 161.804L1109.83 94.8437H1126.96L1091.47 176.701C1089.13 182.392 1086.5 186.873 1083.59 190.144C1080.68 193.416 1077.47 195.712 1073.95 197.031C1070.44 198.35 1066.55 199.01 1062.3 199.01ZM1077.85 173.253L1043.72 94.8437H1062.05L1089.88 160.202L1077.85 173.253Z" fill="black"/>
<mask id="mask0_1_1126" style="mask-type:luminance" maskUnits="userSpaceOnUse" x="1" y="-38" width="293" height="292">
<path d="M293.435 -38H1.43542V254H293.435V-38Z" fill="white"/>
</mask>
<g mask="url(#mask0_1_1126)">
<path fill-rule="evenodd" clip-rule="evenodd" d="M77.4601 114.679L77.4559 114.674C71.5921 106.395 67.9804 97.4057 66.6208 87.7065C61.4427 90.0811 56.7974 93.4282 52.6849 97.748C45.1577 105.655 41.287 114.918 41.0727 125.538C40.8528 136.449 44.5235 146.044 52.0849 154.323C59.582 162.532 68.9692 167.388 80.2464 168.891L137.984 168.893L176.537 168.889L176.501 189.746L137.948 189.75L78.9126 189.747L78.2838 189.671C61.6364 187.64 47.7658 180.551 36.6719 168.404C25.3717 156.031 19.8876 141.615 20.2195 125.156C20.5427 109.132 26.3331 95.2068 37.5907 83.3818C46.0232 74.5242 55.9561 68.481 67.3894 65.2521C69.8514 53.805 75.5951 43.5824 84.6204 34.5841C97.296 21.9462 112.77 15.416 131.044 14.9935C147.06 14.6232 161.336 19.1924 173.874 28.7013C186.371 38.18 194.29 50.3561 197.628 65.2296C197.779 65.9001 197.862 66.5788 197.879 67.2657C197.887 67.6072 197.878 67.9482 197.853 68.2887C197.827 68.6294 197.785 68.9679 197.727 69.3043C197.668 69.6408 197.593 69.9735 197.502 70.3025C197.411 70.6316 197.303 70.9554 197.18 71.2738C197.057 71.5924 196.919 71.904 196.765 72.2088C196.611 72.5138 196.443 72.8104 196.26 73.0986C196.077 73.3869 195.88 73.6655 195.67 73.9346C195.459 74.2035 195.236 74.4614 195.001 74.7083C194.765 74.9554 194.518 75.1904 194.259 75.4131C194 75.6357 193.731 75.8452 193.452 76.0415C193.172 76.2377 192.884 76.4198 192.587 76.5878C192.289 76.7556 191.985 76.9086 191.672 77.0467C191.36 77.1846 191.042 77.3069 190.717 77.4135C190.393 77.5202 190.064 77.6107 189.731 77.6851C189.397 77.7595 189.061 77.8173 188.722 77.8586C188.383 77.8999 188.043 77.9245 187.702 77.9325C187.403 77.9393 187.105 77.9334 186.807 77.9147C186.509 77.896 186.212 77.8645 185.916 77.8202C185.621 77.776 185.328 77.7192 185.037 77.6498C184.747 77.5805 184.46 77.4988 184.176 77.4048C183.893 77.3106 183.614 77.2046 183.339 77.0867C183.065 76.9686 182.796 76.839 182.533 76.6979C182.27 76.5569 182.013 76.4049 181.763 76.2418C181.512 76.0785 181.269 75.9049 181.034 75.721C180.799 75.537 180.572 75.3432 180.353 75.1397C180.134 74.9362 179.925 74.7238 179.724 74.5023C179.524 74.2808 179.333 74.0511 179.152 73.8134C178.971 73.5755 178.801 73.3303 178.641 73.078C178.482 72.8254 178.333 72.5666 178.196 72.3014C178.058 72.0361 177.932 71.7655 177.818 71.4895C177.704 71.2135 177.601 70.9331 177.511 70.6483C177.421 70.3635 177.343 70.0754 177.278 69.784L177.275 69.77L177.271 69.755C175.043 59.8593 169.712 51.7128 161.277 45.3156C152.612 38.7436 142.7 35.5866 131.541 35.8446C118.823 36.1385 108.093 40.6434 99.3518 49.359C90.754 57.9312 86.5953 68.0972 86.8754 79.8572C87.0733 88.1579 89.602 95.7421 94.4614 102.61L94.476 102.63C94.7744 103.052 95.0405 103.493 95.2736 103.954C95.5065 104.414 95.7042 104.89 95.8667 105.38C96.0291 105.87 96.1545 106.369 96.2428 106.878C96.3312 107.386 96.3816 107.898 96.3938 108.414C96.4019 108.756 96.3932 109.097 96.3679 109.437C96.3425 109.778 96.3005 110.116 96.242 110.453C96.1833 110.789 96.1083 111.122 96.0169 111.451C95.9256 111.78 95.8183 112.104 95.6953 112.422C95.5721 112.741 95.4336 113.052 95.2798 113.357C95.126 113.662 94.9577 113.959 94.7747 114.247C94.5918 114.535 94.3952 114.814 94.1848 115.083C93.9744 115.352 93.7514 115.61 93.5157 115.857C93.28 116.104 93.0328 116.339 92.774 116.562C92.5153 116.784 92.2462 116.994 91.9669 117.19C91.6875 117.386 91.3992 117.568 91.1019 117.736C90.8045 117.904 90.4997 118.057 90.1874 118.195C89.8751 118.333 89.5567 118.455 89.2323 118.562C88.9079 118.669 88.579 118.759 88.2457 118.833C87.9124 118.908 87.5763 118.966 87.2373 119.007C86.8983 119.048 86.5581 119.073 86.2166 119.081C85.7912 119.091 85.3668 119.074 84.9434 119.032C84.52 118.99 84.1007 118.923 83.6855 118.829C83.2703 118.736 82.8624 118.617 82.4617 118.474C82.0609 118.331 81.6704 118.163 81.2901 117.972C80.9098 117.781 80.5426 117.567 80.1884 117.331C79.8343 117.095 79.4958 116.838 79.1729 116.561C78.8502 116.283 78.5455 115.987 78.2589 115.673C77.9724 115.358 77.7061 115.027 77.4601 114.679Z" fill="url(#paint0_linear_1_1126)"/>
<path d="M203.201 185.17C236.686 185.17 263.831 159.071 263.831 126.876C263.831 94.6815 236.686 68.5825 203.201 68.5825C169.716 68.5825 142.571 94.6815 142.571 126.876C142.571 159.071 169.716 185.17 203.201 185.17Z" stroke="url(#paint1_linear_1_1126)" stroke-width="21"/>
<path fill-rule="evenodd" clip-rule="evenodd" d="M265.145 17.4988C264.897 18.1989 264.632 18.8928 264.349 19.5805C264.066 20.2681 263.767 20.9488 263.45 21.6224C263.133 22.2961 262.8 22.9619 262.449 23.6199C262.099 24.2779 261.733 24.9273 261.35 25.5682C260.967 26.209 260.569 26.8405 260.155 27.4626C259.74 28.0847 259.311 28.6968 258.866 29.2989C258.421 29.9009 257.961 30.4922 257.486 31.0726C257.012 31.6531 256.523 32.2222 256.02 32.7797C255.517 33.3373 255 33.8827 254.469 34.416C253.939 34.9493 253.396 35.4699 252.839 35.9778C252.282 36.4857 251.713 36.9803 251.132 37.4615C250.551 37.9427 249.958 38.41 249.353 38.8634C248.748 39.3168 248.133 39.7558 247.506 40.1803C246.879 40.605 246.242 41.0146 245.595 41.4093C244.948 41.8039 244.291 42.1833 243.625 42.5473C242.959 42.9112 242.284 43.2594 241.6 43.5917C240.916 43.924 240.225 44.24 239.525 44.5399C238.825 44.8398 238.119 45.1231 237.405 45.3899C236.691 45.6567 235.971 45.9066 235.245 46.1396C234.519 46.3726 233.787 46.5885 233.05 46.7873C232.313 46.986 231.571 47.1674 230.825 47.3315C230.079 47.4954 229.329 47.6418 228.576 47.7706C227.822 47.8994 227.066 48.0105 226.307 48.1039C225.548 48.1974 224.787 48.273 224.024 48.3307C223.261 48.3885 222.497 48.4284 221.732 48.4502C220.968 48.4722 220.203 48.4762 219.438 48.4623C218.673 48.4484 217.908 48.4166 217.145 48.3669C216.381 48.3172 215.62 48.2496 214.86 48.1642C214.1 48.0788 213.342 47.9756 212.587 47.8547C211.832 47.7338 211.081 47.5952 210.333 47.4391C209.585 47.283 208.841 47.1094 208.102 46.9184C207.363 46.7275 206.629 46.5193 205.9 46.2939C206.148 45.5938 206.413 44.8999 206.696 44.2122C206.979 43.5246 207.278 42.8439 207.595 42.1703C207.912 41.4967 208.245 40.8308 208.595 40.1728C208.946 39.5148 209.312 38.8654 209.695 38.2246C210.077 37.5837 210.476 36.9523 210.89 36.3301C211.304 35.7079 211.734 35.0959 212.179 34.4938C212.624 33.8918 213.084 33.3006 213.558 32.7201C214.033 32.1396 214.522 31.5706 215.025 31.013C215.528 30.4555 216.045 29.91 216.575 29.3767C217.106 28.8433 217.649 28.3227 218.206 27.8149C218.762 27.307 219.331 26.8125 219.913 26.3313C220.494 25.85 221.087 25.3827 221.692 24.9293C222.296 24.4759 222.912 24.0369 223.539 23.6123C224.166 23.1877 224.803 22.7781 225.45 22.3834C226.097 21.9887 226.754 21.6094 227.42 21.2454C228.086 20.8815 228.761 20.5333 229.445 20.201C230.129 19.8687 230.82 19.5527 231.52 19.2528C232.219 18.9529 232.926 18.6696 233.64 18.4028C234.354 18.136 235.074 17.8861 235.8 17.6531C236.526 17.4201 237.258 17.2042 237.995 17.0054C238.732 16.8067 239.473 16.6253 240.22 16.4613C240.966 16.2974 241.716 16.151 242.469 16.0221C243.223 15.8932 243.979 15.7821 244.738 15.6888C245.497 15.5953 246.258 15.5197 247.021 15.462C247.784 15.4043 248.547 15.3644 249.312 15.3425C250.077 15.3205 250.842 15.3165 251.607 15.3304C252.372 15.3443 253.137 15.3761 253.9 15.4258C254.663 15.4756 255.425 15.5431 256.185 15.6285C256.945 15.7139 257.703 15.8171 258.458 15.938C259.212 16.059 259.964 16.1975 260.712 16.3536C261.46 16.5097 262.203 16.6833 262.943 16.8743C263.682 17.0652 264.416 17.2734 265.145 17.4988Z" fill="url(#paint2_linear_1_1126)"/>
<path fill-rule="evenodd" clip-rule="evenodd" d="M182.692 129.148C183.154 131.246 184.006 133.23 185.247 135.101C186.561 137.08 188.216 138.783 190.211 140.209C190.434 140.368 190.648 140.537 190.853 140.717C191.059 140.897 191.256 141.087 191.443 141.286C191.63 141.485 191.807 141.693 191.973 141.91C192.14 142.126 192.296 142.35 192.44 142.582C192.585 142.814 192.718 143.053 192.839 143.298C192.961 143.543 193.07 143.793 193.167 144.049C193.263 144.304 193.347 144.564 193.418 144.828C193.49 145.092 193.548 145.359 193.593 145.629C193.638 145.898 193.67 146.17 193.688 146.442C193.707 146.715 193.712 146.988 193.703 147.261C193.695 147.535 193.673 147.807 193.638 148.078C193.603 148.349 193.555 148.618 193.494 148.884C193.432 149.151 193.358 149.413 193.27 149.672C193.183 149.931 193.084 150.186 192.971 150.435C192.859 150.684 192.735 150.927 192.599 151.164C192.463 151.401 192.316 151.631 192.157 151.853C191.998 152.076 191.829 152.29 191.65 152.496C191.47 152.702 191.281 152.898 191.082 153.086C190.883 153.273 190.676 153.45 190.459 153.617C190.243 153.783 190.019 153.939 189.787 154.084C189.556 154.229 189.318 154.362 189.073 154.483C188.828 154.604 188.578 154.714 188.323 154.81C188.068 154.907 187.808 154.991 187.544 155.062C187.281 155.133 187.014 155.192 186.745 155.237C186.476 155.282 186.205 155.313 185.932 155.332C185.66 155.35 185.387 155.355 185.114 155.346C184.841 155.338 184.569 155.316 184.298 155.281C184.028 155.246 183.759 155.197 183.493 155.136C183.227 155.074 182.965 155 182.706 154.912C182.447 154.825 182.193 154.725 181.944 154.612C181.695 154.5 181.452 154.376 181.216 154.239C180.979 154.103 180.749 153.956 180.527 153.797C176.863 151.179 173.807 148.025 171.359 144.337C168.968 140.734 167.317 136.869 166.407 132.74L166.407 132.738C166.344 132.453 166.297 132.166 166.264 131.877C166.231 131.587 166.214 131.297 166.211 131.005C166.209 130.714 166.222 130.424 166.25 130.134C166.278 129.844 166.321 129.556 166.379 129.271C166.438 128.985 166.511 128.704 166.598 128.426C166.686 128.148 166.788 127.876 166.904 127.609C167.02 127.342 167.15 127.081 167.293 126.828C167.436 126.575 167.592 126.329 167.761 126.092C167.92 125.87 168.089 125.655 168.269 125.45C168.448 125.244 168.637 125.047 168.836 124.86C169.035 124.673 169.243 124.496 169.459 124.329C169.675 124.162 169.899 124.006 170.131 123.861C170.363 123.717 170.601 123.584 170.845 123.462C171.09 123.341 171.34 123.232 171.595 123.135C171.851 123.038 172.11 122.954 172.374 122.883C172.638 122.812 172.904 122.754 173.173 122.709C173.443 122.664 173.714 122.632 173.986 122.614C174.259 122.595 174.531 122.591 174.804 122.599C175.077 122.607 175.349 122.629 175.62 122.665C175.891 122.7 176.159 122.748 176.425 122.81C176.691 122.871 176.954 122.946 177.213 123.033C177.471 123.121 177.725 123.221 177.974 123.333C178.223 123.445 178.466 123.57 178.703 123.706C178.94 123.842 179.169 123.99 179.391 124.149C179.808 124.446 180.194 124.779 180.549 125.148C180.904 125.517 181.223 125.915 181.505 126.342C181.787 126.769 182.028 127.219 182.227 127.69C182.427 128.162 182.581 128.648 182.692 129.148Z" fill="url(#paint3_linear_1_1126)"/>
</g>
<path d="M322.755 53.7713L340.102 15.8113H344.045L361.423 53.7713H357.195L341.234 18.1227H342.882L326.921 53.7713H322.755ZM329.572 43.65L330.759 40.3769H352.842L354.061 43.65H329.572ZM378.561 53.7713V15.8113H392.735C395.967 15.8113 398.74 16.3291 401.056 17.3645C403.372 18.3993 405.152 19.8847 406.396 21.8205C407.64 23.7563 408.262 26.0848 408.262 28.806C408.262 31.4914 407.64 33.806 406.396 35.7497C405.152 37.6935 403.372 39.183 401.056 40.2184C398.74 41.2533 395.967 41.7708 392.735 41.7708H380.756L382.534 39.8999V53.7713H378.561ZM382.534 40.2219L380.756 38.2822H392.659C396.45 38.2822 399.332 37.4532 401.303 35.7954C403.273 34.137 404.259 31.8072 404.259 28.806C404.259 25.769 403.273 23.4256 401.303 21.7757C399.332 20.125 396.45 19.2997 392.659 19.2997H380.756L382.534 17.3602V40.2219ZM422.264 53.7713L439.611 15.8113H443.554L460.933 53.7713H456.704L440.744 18.1227H442.391L426.431 53.7713H422.264ZM429.081 43.65L430.268 40.3769H452.352L453.57 43.65H429.081ZM494.54 54.1188C491.695 54.1188 489.062 53.6398 486.643 52.6818C484.224 51.7237 482.122 50.3719 480.338 48.6263C478.554 46.8803 477.164 44.8352 476.168 42.491C475.171 40.1467 474.673 37.5802 474.673 34.7913C474.673 32.0024 475.171 29.4359 476.168 27.0917C477.164 24.7475 478.559 22.7027 480.353 20.9572C482.148 19.211 484.255 17.859 486.674 16.9009C489.093 15.9429 491.725 15.4639 494.57 15.4639C497.352 15.4639 499.945 15.9282 502.351 16.8569C504.756 17.7856 506.803 19.1761 508.491 21.0283L505.936 23.5694C504.384 21.9883 502.665 20.839 500.779 20.1217C498.892 19.4037 496.874 19.0448 494.725 19.0448C492.429 19.0448 490.304 19.4394 488.349 20.2285C486.394 21.017 484.693 22.121 483.245 23.5406C481.797 24.9601 480.674 26.6254 479.875 28.5365C479.076 30.4468 478.676 32.5318 478.676 34.7913C478.676 37.0508 479.076 39.1361 479.875 41.047C480.674 42.9575 481.797 44.6226 483.245 46.0421C484.693 47.4616 486.394 48.5659 488.349 49.355C490.304 50.1436 492.429 50.5379 494.725 50.5379C496.874 50.5379 498.892 50.1752 500.779 49.4499C502.665 48.7241 504.384 47.5605 505.936 45.9591L508.491 48.5001C506.803 50.3524 504.756 51.7519 502.351 52.6987C499.945 53.6454 497.342 54.1188 494.54 54.1188ZM555.635 15.8113H559.606V53.7713H555.635V15.8113ZM531.881 53.7713H527.907V15.8113H531.881V53.7713ZM556.029 36.2378H531.455V32.7484H556.029V36.2378ZM586.42 32.7799H606.487V36.2063H586.42V32.7799ZM586.814 50.283H609.646V53.7713H582.841V15.8113H608.864V19.2997H586.814V50.283Z" fill="#909090"/>
<path d="M1167.95 90.4589V67.9541H1170.38L1181.45 85.1938H1180.19L1191.13 67.9541H1193.56L1193.59 90.4589H1190.75L1190.72 72.2H1191.33L1181.47 87.6756H1180.07L1170.02 72.2H1170.8V90.4589H1167.95ZM1153.08 90.4589V70.4359H1144.62V67.9541H1164.5V70.4359H1156.04V90.4589H1153.08Z" fill="black"/>
</g>
<defs>
<linearGradient id="paint0_linear_1_1126" x1="79.4053" y1="57.0286" x2="190.152" y2="214.271" gradientUnits="userSpaceOnUse">
<stop stop-color="#FF5900"/>
<stop offset="0.432306" stop-color="#FD9A2F"/>
<stop offset="1" stop-color="#FFAA00"/>
</linearGradient>
<linearGradient id="paint1_linear_1_1126" x1="169.066" y1="78.4995" x2="200.829" y2="185.872" gradientUnits="userSpaceOnUse">
<stop stop-color="#FE7C19"/>
<stop offset="1" stop-color="#FEA315"/>
</linearGradient>
<linearGradient id="paint2_linear_1_1126" x1="229.445" y1="20.2011" x2="240.964" y2="43.9007" gradientUnits="userSpaceOnUse">
<stop stop-color="#FF5900"/>
<stop offset="1" stop-color="#FEA015"/>
</linearGradient>
<linearGradient id="paint3_linear_1_1126" x1="177.635" y1="125.346" x2="184.697" y2="144.201" gradientUnits="userSpaceOnUse">
<stop stop-color="#FE7C19"/>
<stop offset="1" stop-color="#FEA315"/>
</linearGradient>
<clipPath id="clip0_1_1126">
<rect width="1200" height="199" fill="white"/>
</clipPath>
</defs>
</svg>
