<svg width="211" height="42" viewBox="0 0 211 42" fill="none" xmlns="http://www.w3.org/2000/svg">
<path d="M38.5511 29.7993C42.1448 22.4316 40.9134 13.3077 34.8029 7.19718C29.8091 2.20342 22.7963 0.470502 16.3915 1.96078L6.57914 3.50382C2.39582 4.16167 0.581496 9.19877 3.38065 12.3423C-0.128556 19.6849 1.12581 28.7312 7.19731 34.8027C11.9317 39.5371 18.4833 41.3412 24.6074 40.2451L35.2892 38.5653C39.4405 37.9125 41.2589 32.9472 38.5511 29.7993Z" fill="white"/>
<path d="M39.1387 29.7294C42.6512 22.2289 41.3439 13.0312 35.1564 6.84363C30.0393 1.72657 22.856 -0.0505265 16.296 1.46965L6.50147 3.00989C2.04275 3.71105 0.0405835 8.96748 2.7923 12.4198C-0.633388 19.8926 0.697143 29.0097 6.84375 35.1563C11.6979 40.0105 18.4144 41.8597 24.6901 40.7382L35.3668 39.0592C39.7914 38.3634 41.7964 33.1827 39.1387 29.7294Z" stroke="black" stroke-opacity="0.12"/>
<path d="M23.0403 10.683C25.012 11.0905 26.8882 12.0575 28.4154 13.5847C31.9878 17.1571 32.4949 22.6397 29.9463 26.7858L29.4088 25.2146C29.3047 24.9104 29.1327 24.6344 28.9057 24.4073C27.6809 23.1818 25.5754 23.8765 25.3052 25.5952L23.4966 37.1022L35.0096 35.2908C36.7226 35.0213 37.4149 32.9207 36.1936 31.6987C35.9613 31.4663 35.6776 31.2917 35.3652 31.1889L34.1434 30.7866C38.8058 24.3337 38.257 15.298 32.4796 9.52055C30.0704 7.11138 27.0947 5.61139 23.9759 5.01933C19.0801 4.51868 18.7217 10.1607 23.0805 10.6758L23.0403 10.683Z" fill="url(#paint0_linear)"/>
<path d="M16.5286 15.9767L18.2972 4.73013L7.03925 6.50051C5.36425 6.76391 4.68722 8.817 5.88153 10.0113C6.10867 10.2384 6.38604 10.4091 6.69153 10.5096L8.0468 10.9556C3.18056 17.4237 3.66577 26.6246 9.52057 32.4794C11.898 34.8568 14.8273 36.3489 17.9012 36.9567C22.5167 37.2071 22.7738 31.7819 18.5037 31.2772L18.6575 31.2499C16.7968 30.8088 15.0336 29.8641 13.5847 28.4152C9.99022 24.8207 9.49907 19.2923 12.1014 15.1374L12.516 16.3486C12.6177 16.6459 12.786 16.9157 13.0079 17.1377C14.2056 18.3354 16.2645 17.6564 16.5286 15.9767Z" fill="url(#paint1_linear)"/>
<path d="M61.9452 32.1768C58.4506 32.1768 55.7473 31.1834 53.8352 29.1967C51.9451 27.2099 51 24.1499 51 20.0166C51 15.9746 52.011 12.9374 54.033 10.905C56.055 8.87256 58.9122 7.85635 62.6045 7.85635C64.5606 7.85635 66.3408 8.17606 67.9452 8.81547C69.5716 9.43205 70.8573 10.3797 71.8024 11.6586C72.7694 12.9145 73.253 14.456 73.253 16.2829H68.3079C68.3079 15.0041 67.7584 13.9878 66.6595 13.2343C65.5826 12.4578 64.2858 12.0696 62.7693 12.0696C60.4616 12.0696 58.7363 12.709 57.5935 13.9878C56.4726 15.2667 55.9121 17.105 55.9121 19.5028V20.5304C55.9121 23.0424 56.4286 24.9149 57.4616 26.1481C58.5166 27.3584 60.121 27.9635 62.2748 27.9635C64.0551 27.9635 65.5276 27.5296 66.6925 26.6619C67.8573 25.7713 68.4507 24.5724 68.4727 23.0652H61.6155V18.989H73.253V31.7657H69.9562L69.5276 29.1624C68.4727 30.2129 67.3628 30.9779 66.1979 31.4575C65.0331 31.937 63.6155 32.1768 61.9452 32.1768Z" fill="black"/>
<path d="M84.9999 32.1768C82.0328 32.1768 79.824 31.4118 78.3734 29.8818C76.9229 28.3517 76.1976 25.9768 76.1976 22.7569C76.1976 19.537 76.9229 17.1621 78.3734 15.632C79.824 14.102 82.0328 13.337 84.9999 13.337C87.9669 13.337 90.1758 14.102 91.6263 15.632C93.0989 17.1621 93.8351 19.537 93.8351 22.7569C93.8351 25.9768 93.0989 28.3517 91.6263 29.8818C90.1758 31.4118 87.9669 32.1768 84.9999 32.1768ZM84.9999 28.3403C86.4724 28.3403 87.5384 27.9064 88.1977 27.0387C88.8571 26.1481 89.1867 24.8122 89.1867 23.0309V22.4829C89.1867 20.7017 88.8571 19.3772 88.1977 18.5094C87.5384 17.6188 86.4724 17.1735 84.9999 17.1735C83.5273 17.1735 82.4614 17.6188 81.8021 18.5094C81.1647 19.3772 80.846 20.7017 80.846 22.4829V23.0309C80.846 24.8122 81.1647 26.1481 81.8021 27.0387C82.4614 27.9064 83.5273 28.3403 84.9999 28.3403Z" fill="black"/>
<path d="M104.824 32.1768C101.857 32.1768 99.6482 31.4118 98.1976 29.8818C96.7471 28.3517 96.0218 25.9768 96.0218 22.7569C96.0218 19.537 96.7471 17.1621 98.1976 15.632C99.6482 14.102 101.857 13.337 104.824 13.337C107.791 13.337 110 14.102 111.451 15.632C112.923 17.1621 113.659 19.537 113.659 22.7569C113.659 25.9768 112.923 28.3517 111.451 29.8818C110 31.4118 107.791 32.1768 104.824 32.1768ZM104.824 28.3403C106.297 28.3403 107.363 27.9064 108.022 27.0387C108.681 26.1481 109.011 24.8122 109.011 23.0309V22.4829C109.011 20.7017 108.681 19.3772 108.022 18.5094C107.363 17.6188 106.297 17.1735 104.824 17.1735C103.352 17.1735 102.286 17.6188 101.626 18.5094C100.989 19.3772 100.67 20.7017 100.67 22.4829V23.0309C100.67 24.8122 100.989 26.1481 101.626 27.0387C102.286 27.9064 103.352 28.3403 104.824 28.3403Z" fill="black"/>
<path d="M122.736 32.1768C120.538 32.1768 118.835 31.4004 117.626 29.8475C116.417 28.2718 115.813 25.8969 115.813 22.7227C115.813 19.6169 116.417 17.2762 117.626 15.7006C118.857 14.1249 120.483 13.337 122.505 13.337C123.67 13.337 124.692 13.554 125.571 13.9878C126.472 14.4217 127.176 15.0383 127.681 15.8376H127.879V7H132.396V31.7657H128.538L128.242 29.4022H128.011C127.461 30.3157 126.725 31.0122 125.802 31.4917C124.879 31.9484 123.857 32.1768 122.736 32.1768ZM124.187 28.1006C126.648 28.1006 127.879 26.4221 127.879 23.0652V22.5171C127.879 19.1145 126.648 17.4133 124.187 17.4133C122.846 17.4133 121.89 17.8357 121.319 18.6807C120.747 19.5028 120.461 20.7587 120.461 22.4486V23.0652C120.461 24.7551 120.747 26.0225 121.319 26.8674C121.89 27.6895 122.846 28.1006 124.187 28.1006Z" fill="black"/>
<path d="M145.297 32.1768C143.56 32.1768 141.967 31.9028 140.516 31.3547C139.088 30.7838 137.945 29.9503 137.088 28.8541C136.231 27.758 135.802 26.4335 135.802 24.8807L135.835 24.1271H140.681L140.648 24.6751C140.648 25.6799 141.077 26.4792 141.934 27.0729C142.791 27.6667 143.989 27.9635 145.527 27.9635C147.154 27.9635 148.33 27.7466 149.055 27.3127C149.78 26.856 150.143 26.2508 150.143 25.4972C150.143 24.835 149.901 24.2869 149.418 23.853C148.956 23.3963 148.363 23.0424 147.637 22.7912C146.934 22.5171 145.956 22.1974 144.703 21.832C142.923 21.3068 141.483 20.8044 140.384 20.3249C139.286 19.8453 138.341 19.1374 137.549 18.2011C136.758 17.242 136.362 15.986 136.362 14.4331C136.362 12.2866 137.198 10.6538 138.868 9.53481C140.538 8.41584 142.758 7.85635 145.527 7.85635C148.143 7.85635 150.275 8.43868 151.923 9.60332C153.593 10.7451 154.429 12.4692 154.429 14.7757V15.1867H149.681V14.8785C149.681 14.0107 149.297 13.3256 148.527 12.8232C147.78 12.3208 146.758 12.0696 145.461 12.0696C144.077 12.0696 143.011 12.2637 142.264 12.6519C141.538 13.0401 141.176 13.5768 141.176 14.2619C141.176 14.7871 141.395 15.2438 141.835 15.632C142.275 15.9974 142.824 16.3057 143.483 16.5569C144.143 16.7853 145.077 17.0707 146.286 17.4133C148.088 17.9157 149.56 18.418 150.703 18.9204C151.868 19.4 152.868 20.1193 153.703 21.0785C154.538 22.0376 154.956 23.2936 154.956 24.8464C154.956 27.3584 154.088 29.2081 152.352 30.3956C150.637 31.5831 148.286 32.1768 145.297 32.1768Z" fill="black"/>
<path d="M161.055 38C159.846 38 158.813 37.8516 157.956 37.5547V34.2663H160.099C160.868 34.2663 161.494 34.0722 161.978 33.684C162.461 33.2958 162.857 32.6564 163.165 31.7657L156.373 13.7481H161.088L164.351 22.2088C164.681 23.0994 165.088 24.6637 165.571 26.9017H165.736C166.264 24.8007 166.67 23.2479 166.956 22.2431L169.527 13.7481H174.11L168.275 30.8409C167.747 32.3481 167.198 33.6041 166.626 34.6088C166.055 35.6365 165.308 36.4586 164.384 37.0751C163.483 37.6917 162.373 38 161.055 38Z" fill="black"/>
<path d="M176.406 13.7481H180.264L180.593 16.1116H180.824C182.231 14.2619 184.033 13.337 186.231 13.337C188.011 13.337 189.407 13.8394 190.418 14.8442C191.451 15.849 191.967 17.4589 191.967 19.674V31.7657H187.451V20.6674C187.451 19.5484 187.198 18.7378 186.692 18.2354C186.187 17.733 185.439 17.4818 184.45 17.4818C183.439 17.4818 182.593 17.8586 181.912 18.6122C181.253 19.3429 180.923 20.2564 180.923 21.3525V31.7657H176.406V13.7481Z" fill="black"/>
<path d="M203.418 32.1768C200.648 32.1768 198.571 31.4118 197.187 29.8818C195.824 28.3517 195.143 25.9768 195.143 22.7569C195.143 19.5599 195.824 17.1963 197.187 15.6663C198.571 14.1134 200.648 13.337 203.418 13.337C205.725 13.337 207.56 13.9536 208.923 15.1867C210.308 16.3971 211 18.1783 211 20.5304H206.451C206.451 19.4343 206.176 18.5893 205.626 17.9956C205.077 17.4018 204.308 17.105 203.319 17.105C202.088 17.105 201.176 17.5617 200.582 18.4751C200.011 19.3657 199.725 20.7017 199.725 22.4829V23.0309C199.725 24.8122 200.022 26.1595 200.615 27.0729C201.231 27.9635 202.209 28.4088 203.549 28.4088C204.494 28.4088 205.242 28.112 205.791 27.5182C206.363 26.9017 206.648 26.0567 206.648 24.9834H211C211 27.3355 210.319 29.1282 208.956 30.3613C207.593 31.5716 205.747 32.1768 203.418 32.1768Z" fill="black"/>
<defs>
<linearGradient id="paint0_linear" x1="28.6561" y1="5.19222" x2="28.7156" y2="35.343" gradientUnits="userSpaceOnUse">
<stop stop-color="#1DC9FF"/>
<stop offset="1" stop-color="#0047FF"/>
</linearGradient>
<linearGradient id="paint1_linear" x1="8.41869" y1="13.4347" x2="22.431" y2="32.0505" gradientUnits="userSpaceOnUse">
<stop stop-color="#FF4D4D"/>
<stop offset="1" stop-color="#D4276F"/>
</linearGradient>
</defs>
</svg>
