<?xml version="1.0" encoding="UTF-8"?><svg id="_레이어_2" xmlns="http://www.w3.org/2000/svg" viewBox="0 0 355.68 85.04"><defs><style>.cls-1{fill:#009dd9;}.cls-2{fill:#7cca62;}.cls-3{fill:#0f6fc6;}</style></defs><g id="_가로"><rect class="cls-2" width="42.52" height="85.04"/><rect class="cls-1" x="42.52" width="42.52" height="42.52"/><rect class="cls-3" x="42.52" y="42.52" width="42.52" height="42.52"/><path class="cls-1" d="m115.16,50.72h-6.29v17.06h-11.63V19.55h18.98c5.72,0,10.19,1.27,13.42,3.81,3.22,2.54,4.84,6.12,4.84,10.75,0,3.35-.68,6.13-2.04,8.34s-3.48,3.99-6.38,5.36l10.07,19.48v.5h-12.46l-8.52-17.06Zm-6.29-8.94h7.35c2.21,0,3.87-.58,4.99-1.75,1.12-1.16,1.67-2.78,1.67-4.86s-.56-3.71-1.69-4.9-2.78-1.78-4.97-1.78h-7.35v13.28h0Z"/><path class="cls-1" d="m161.85,67.12c-.4-.73-.75-1.8-1.06-3.21-2.05,2.58-4.93,3.87-8.61,3.87-3.38,0-6.25-1.02-8.61-3.07-2.36-2.04-3.54-4.61-3.54-7.7,0-3.89,1.44-6.83,4.31-8.81s7.04-2.98,12.52-2.98h3.45v-1.9c0-3.31-1.42-4.96-4.27-4.96-2.65,0-3.98,1.31-3.98,3.93h-11.16c0-3.46,1.48-6.27,4.42-8.44,2.95-2.16,6.71-3.24,11.28-3.24s8.18,1.12,10.83,3.35c2.65,2.23,4.01,5.29,4.08,9.17v15.87c.04,3.29.55,5.81,1.53,7.55v.56h-11.17Zm-6.99-7.29c1.39,0,2.54-.3,3.46-.9s1.57-1.27,1.97-2.02v-5.73h-3.25c-3.89,0-5.83,1.75-5.83,5.24,0,1.01.34,1.84,1.03,2.47.68.63,1.56.95,2.62.95Z"/><path class="cls-1" d="m178.27,22.69c0-1.59.57-2.89,1.72-3.91,1.15-1.01,2.64-1.53,4.47-1.53s3.32.51,4.47,1.53c1.15,1.01,1.72,2.32,1.72,3.91s-.58,2.89-1.72,3.91-2.64,1.53-4.47,1.53-3.32-.51-4.47-1.53c-1.15-1.01-1.72-2.32-1.72-3.91Zm11.86,45.09h-11.2V31.94h11.2v35.85Z"/><path class="cls-3" d="m198.19,67.78V19.55h15.54c4.26,0,8.1.97,11.5,2.9,3.4,1.93,6.06,4.66,7.97,8.18s2.88,7.47,2.9,11.84v2.22c0,4.42-.93,8.38-2.8,11.88s-4.49,6.24-7.88,8.21c-3.39,1.98-7.17,2.98-11.35,3h-15.87Zm11.63-39.26v30.31h4.04c3.34,0,5.9-1.19,7.69-3.56,1.79-2.37,2.68-5.9,2.68-10.59v-2.09c0-4.66-.9-8.17-2.68-10.53-1.79-2.36-4.4-3.54-7.82-3.54h-3.91Z"/><path class="cls-3" d="m263.9,42.04l-3.68-.27c-3.51,0-5.76,1.1-6.76,3.31v22.69h-11.16V31.94h10.47l.36,4.61c1.88-3.51,4.49-5.27,7.85-5.27,1.19,0,2.23.13,3.11.4l-.2,10.37Z"/><path class="cls-3" d="m268.52,22.69c0-1.59.58-2.89,1.72-3.91,1.15-1.01,2.64-1.53,4.47-1.53s3.32.51,4.47,1.53c1.15,1.01,1.72,2.32,1.72,3.91s-.58,2.89-1.72,3.91c-1.15,1.01-2.64,1.53-4.47,1.53s-3.32-.51-4.47-1.53c-1.15-1.01-1.72-2.32-1.72-3.91Zm11.86,45.09h-11.2V31.94h11.2v35.85h0Z"/><path class="cls-3" d="m302.23,54.5l5.67-22.56h11.76l-11.69,35.85h-11.4l-11.69-35.85h11.79l5.57,22.56Z"/><path class="cls-3" d="m340.58,67.78c-5.5,0-9.95-1.64-13.35-4.92-3.4-3.28-5.1-7.55-5.1-12.81v-.93c0-3.67.68-6.9,2.04-9.71,1.36-2.8,3.34-4.98,5.95-6.51,2.6-1.54,5.7-2.3,9.28-2.3,5.04,0,9.01,1.56,11.93,4.69,2.91,3.13,4.37,7.48,4.37,13.07v4.34h-22.2c.4,2.01,1.27,3.59,2.62,4.74s3.09,1.72,5.24,1.72c3.53,0,6.29-1.24,8.28-3.71l5.1,6.03c-1.39,1.92-3.36,3.45-5.92,4.59-2.55,1.14-5.29,1.71-8.23,1.71Zm-1.26-28.56c-3.27,0-5.21,2.17-5.83,6.49h11.27v-.86c.04-1.79-.41-3.17-1.36-4.16-.95-.98-2.31-1.48-4.08-1.48Z"/></g></svg>