<svg fill="none" height="132" viewBox="0 0 697 132" width="697" xmlns="http://www.w3.org/2000/svg"><path d="m161.581 57.7464c3.118 1.7512 5.651 4.0862 7.6 7.394 1.754 3.3079 2.729 7.1996 2.729 11.8695v30.3551h-10.719v-28.6039c0-4.6699-1.169-8.1724-3.508-10.5074-2.339-2.5295-5.457-3.697-9.354-3.697-3.898 0-7.211 1.1675-9.55 3.697-2.338 2.5296-3.508 6.0321-3.508 10.5074v28.7979h-10.718v-51.5639h10.718v5.8375c1.754-2.1404 3.898-3.6971 6.626-4.8646 2.729-1.1675 5.652-1.7512 8.575-1.7512 4.288 0 7.796.7783 11.109 2.5296z" fill="#0052cc"/><path d="m187.305 67.8646c2.144-3.8916 5.067-7.0049 8.77-9.3399 3.703-2.1404 7.796-3.3079 12.278-3.3079 4.092 0 7.6.7783 10.524 2.335 3.118 1.5566 5.456 3.5024 7.21 5.8374v-7.3941h10.719v51.3699h-10.719v-7.5891c-1.754 2.3351-4.287 4.4751-7.405 6.0321s-6.626 2.335-10.719 2.335c-4.482 0-8.575-1.168-12.083-3.503-3.702-2.335-6.626-5.4478-8.769-9.534-2.144-4.0862-3.314-8.7562-3.314-13.8153.39-4.8645 1.365-9.5345 3.508-13.4261zm36.833 4.6699c-1.559-2.5295-3.313-4.6699-5.846-6.032-2.339-1.3621-4.872-2.1404-7.601-2.1404-2.728 0-5.261.5838-7.6 1.9458-2.339 1.3621-4.287 3.3079-5.847 5.8375-1.559 2.5295-2.143 5.6428-2.143 9.1453s.779 6.6158 2.143 9.3399c1.56 2.7241 3.314 4.6699 5.847 6.032 2.339 1.3621 4.872 2.1404 7.6 2.1404 2.729 0 5.262-.7783 7.601-2.1404s4.287-3.3079 5.846-6.032c1.56-2.7241 2.144-5.8374 2.144-9.3399 0-3.1133-.779-6.2266-2.144-8.7562z" fill="#0052cc"/><path d="m271.495 57.5518c3.118-1.5567 6.626-2.335 10.524-2.335 4.482 0 8.575 1.1675 12.278 3.3079s6.626 5.2537 8.77 9.3399c2.143 3.8916 3.118 8.5616 3.118 13.8153s-.975 9.729-3.118 13.8152c-2.144 4.0862-5.067 7.1999-8.77 9.5349s-7.796 3.502-12.278 3.502c-3.898 0-7.406-.778-10.524-2.335s-5.456-3.502-7.405-5.837v31.522h-10.719v-75.8869h10.719v7.5887c1.754-2.335 4.287-4.2808 7.405-6.032zm21.827 14.7882c-1.559-2.5296-3.313-4.4754-5.846-5.8375-2.339-1.3621-5.067-1.9458-7.796-1.9458-2.728 0-5.261.7783-7.6 2.1404s-4.288 3.3079-5.847 6.032c-1.559 2.5296-2.143 5.6429-2.143 9.3399 0 3.5025.779 6.6158 2.143 9.3399 1.559 2.7242 3.313 4.67 5.847 6.032 2.339 1.3621 4.872 2.1404 7.6 2.1404 2.729 0 5.262-.7783 7.796-2.1404 2.338-1.362 4.287-3.5024 5.846-6.032 1.559-2.7241 2.144-5.8374 2.144-9.3399 0-4.0862-.78-7.1995-2.144-9.729z" fill="#0052cc"/><g fill="#172b4d"><path d="m331.325 105.613c-4.093-1.751-7.211-4.281-9.355-7.3938-2.338-3.3079-3.508-7.005-3.508-11.2858h13.057c.195 3.1133 1.56 5.8375 3.898 7.9779 2.339 2.1404 5.457 3.1133 9.55 3.1133 4.287 0 7.405-.9729 9.939-3.1133 2.338-1.9458 3.507-4.67 3.507-7.7833 0-2.5295-.779-4.4753-2.143-6.032-1.559-1.5566-3.313-2.7241-5.457-3.697-2.144-.7784-5.262-1.7513-8.965-2.7242-4.872-1.362-8.769-2.5295-11.888-3.8916-3.118-1.3621-5.651-3.3079-7.795-6.2266-2.144-2.7241-3.313-6.4212-3.313-11.0911 0-4.2808.974-7.9779 3.313-11.2858 2.144-3.1133 5.067-5.6428 8.965-7.394 3.897-1.7513 8.38-2.5296 13.447-2.5296 7.21 0 13.057 1.7512 17.734 5.4483 4.677 3.697 7.211 8.5616 7.601 14.7882h-13.837c-.195-2.7242-1.559-5.0592-3.898-7.005-2.338-1.9458-5.457-2.9187-9.354-2.9187-3.508 0-6.431.9729-8.575 2.7242-2.144 1.7512-3.313 4.2807-3.313 7.7832 0 2.335.779 4.0862 2.144 5.6429 1.364 1.5566 3.118 2.5295 5.261 3.5024 2.144.7783 5.067 1.7513 8.77 2.7242 4.872 1.362 8.965 2.7241 12.083 4.0862 3.118 1.362 5.847 3.5024 7.99 6.2266 2.144 2.7241 3.313 6.6157 3.313 11.2857 0 3.697-.974 7.3941-3.118 10.702-1.949 3.3077-5.067 6.0317-8.965 8.1727-3.897 1.945-8.574 3.113-13.836 3.113-4.872-.389-9.355-1.168-13.252-2.919z"/><path d="m423.895 57.7462c3.118 1.7513 5.456 4.0862 7.21 7.3941s2.729 7.1995 2.729 11.8695v30.3542h-10.524v-28.603c0-4.67-1.169-8.1724-3.508-10.5074-2.339-2.5296-5.457-3.697-9.354-3.697-3.898 0-7.211 1.1674-9.55 3.697-2.338 2.5296-3.508 6.032-3.508 10.5074v28.798h-10.718v-69.2709h10.718v23.5443c1.754-2.1404 4.093-3.8916 6.821-5.0591 2.729-1.1675 5.847-1.7512 9.16-1.7512 3.897.1946 7.405.9729 10.524 2.7241z"/><path d="m458.779 105.03c-3.898-2.141-7.016-5.2541-9.355-9.3403-2.338-4.0862-3.313-8.7561-3.313-14.0098s1.17-9.9237 3.508-14.0099c2.339-4.0862 5.457-7.1995 9.355-9.3399 3.897-2.1404 8.38-3.3079 13.447-3.3079 4.872 0 9.354 1.1675 13.447 3.3079 3.897 2.1404 7.21 5.2537 9.354 9.3399 2.339 4.0862 3.508 8.7562 3.508 14.0099s-1.169 9.9236-3.508 14.0098-5.652 7.1993-9.744 9.3403c-4.093 2.14-8.575 3.307-13.447 3.307s-9.16-1.167-13.252-3.307zm21.047-7.9782c2.339-1.3621 4.288-3.3079 5.847-5.8375 1.559-2.5295 2.338-5.8374 2.338-9.5344 0-3.6971-.779-6.8104-2.143-9.5345-1.365-2.5296-3.313-4.4754-5.652-5.8375-2.339-1.362-4.872-1.9458-7.601-1.9458-2.728 0-5.261.5838-7.6 1.9458-2.339 1.3621-4.287 3.3079-5.652 5.8375-1.364 2.5295-2.143 5.8374-2.143 9.5345 0 5.4482 1.364 9.729 4.287 12.8423s6.431 4.4754 10.719 4.4754c2.533 0 5.067-.5838 7.6-1.9458z"/><path d="m520.947 105.03c-3.898-2.141-7.016-5.2541-9.355-9.3403-2.338-4.0862-3.313-8.7561-3.313-14.0098s1.17-9.9237 3.508-14.0099c2.339-4.0862 5.457-7.1995 9.355-9.3399 3.897-2.1404 8.38-3.3079 13.447-3.3079 4.872 0 9.354 1.1675 13.447 3.3079 3.897 2.1404 7.21 5.2537 9.354 9.3399 2.339 4.0862 3.508 8.7562 3.508 14.0099s-1.169 9.9236-3.508 14.0098-5.652 7.1993-9.744 9.3403c-4.093 2.14-8.575 3.307-13.447 3.307-5.067 0-9.355-1.167-13.252-3.307zm20.852-7.9782c2.339-1.3621 4.288-3.3079 5.847-5.8375 1.559-2.5295 2.338-5.8374 2.338-9.5344 0-3.6971-.779-6.8104-2.143-9.5345-1.364-2.5296-3.313-4.4754-5.652-5.8375-2.339-1.362-4.872-1.9458-7.6-1.9458-2.729 0-5.262.5838-7.601 1.9458-2.338 1.3621-4.287 3.3079-5.652 5.8375-1.364 2.5295-2.143 5.8374-2.143 9.5345 0 5.4482 1.364 9.729 4.287 12.8423s6.431 4.4754 10.719 4.4754c2.533 0 5.262-.5838 7.6-1.9458z"/><path d="m586.233 64.7511v28.4089c0 1.9458.39 3.3079 1.364 4.0862s2.534 1.1675 4.677 1.1675h6.626v8.9503h-8.38c-4.872 0-8.575-1.167-11.108-3.307-2.534-2.335-3.898-5.8379-3.898-10.897v-28.4089h-6.041v-8.7561h6.041v-12.8424h10.719v12.8424h12.472v8.7561z"/><path d="m657.755 85.7661h-39.366c.39 4.0862 1.754 7.3941 4.677 9.9236 2.728 2.5296 6.041 3.6971 10.134 3.6971 5.652 0 9.744-2.335 12.083-7.1996h11.498c-1.559 4.67-4.288 8.5618-8.38 11.6748-4.093 3.113-9.16 4.475-15.201 4.475-4.872 0-9.355-1.167-13.252-3.307-3.898-2.141-7.016-5.2541-9.16-9.3403-2.143-4.0862-3.313-8.7561-3.313-14.0098s1.17-9.9237 3.313-14.0099c2.144-4.0862 5.262-7.1995 9.16-9.3399 3.897-2.1404 8.38-3.3079 13.447-3.3079 4.872 0 9.159.9729 13.057 3.1133s6.821 5.0591 8.965 8.9508c2.143 3.8916 3.118 8.1724 3.118 13.2315-.39 2.1404-.585 3.8916-.78 5.4483zm-10.718-8.5616c0-3.8916-1.559-7.0049-4.288-9.3399-2.728-2.335-6.236-3.5025-10.134-3.5025-3.703 0-6.821 1.1675-9.354 3.5025-2.534 2.335-4.093 5.4483-4.677 9.5345h28.453z"/><path d="m687.767 57.3572c2.534-1.5567 5.652-2.1404 9.16-2.1404v11.0911h-2.728c-4.093 0-7.406.9729-9.55 3.1133-2.143 2.1404-3.313 5.8375-3.313 11.0912v27.0466h-10.718v-51.5639h10.718v7.3941c1.754-2.5295 3.898-4.4754 6.431-6.032z"/><path d="m97.6587 112.813h-89.64658c-3.70279 0-6.82094-2.919-6.82094-6.811l-.194879-20.4306 13.641899-.1945.1949 13.6207h76.1996v-37.3597h-84.18988c-3.7028 0-6.8209389-3.1133-6.8209389-6.8103v-47.28325c0-3.69704 3.1181389-6.810341 6.8209389-6.810341h91.98518c3.703 0 6.821 3.113301 6.821 6.810341v20.04185h-13.6419v-13.2315h-78.3433v33.8571h83.9949c3.7033 0 6.8213 3.1133 6.8213 6.8104v51.1748c0 3.503-2.924 6.616-6.8213 6.616z"/></g><path d="m60.4359 26.6133h-33.52v8.5616h33.52z" fill="#0052cc"/><path d="m78.1704 26.6133h-8.5749v8.9507h8.5749z" fill="#f6921e"/><path d="m60.8257 77.3989h-33.5201v8.5616h33.5201z" fill="#0052cc"/><path d="m78.3652 77.3989h-8.5749v8.9508h8.5749z" fill="#f6921e"/></svg>